<svg xmlns="http://www.w3.org/2000/svg" viewBox="0 0 285.795 54.5">
  <title>ws2018-icons</title>
  <g id="grid">
    <g>
      <path d="M1.049,17.968a3.081,3.081,0,0,1,1.3-2.672,6.037,6.037,0,0,1,3.568-.928h1.92v-.48a2.2,2.2,0,0,0-.644-1.756,2.487,2.487,0,0,0-1.69-.557,2.341,2.341,0,0,0-2.4,1.79l-1.615-.371a3.281,3.281,0,0,1,1.343-2.2A4.375,4.375,0,0,1,5.5,9.961a4.157,4.157,0,0,1,2.989,1.08,4,4,0,0,1,1.135,3.044v7.048H8.205L7.878,19.54a3.8,3.8,0,0,1-3.426,1.767,3.577,3.577,0,0,1-2.443-.839A3.144,3.144,0,0,1,1.049,17.968Zm6.327.23a3.746,3.746,0,0,0,.458-1.932v-.348H5.979a4.083,4.083,0,0,0-2.291.523,1.717,1.717,0,0,0-.763,1.506,1.675,1.675,0,0,0,.491,1.287,1.916,1.916,0,0,0,1.363.458,3.114,3.114,0,0,0,1.44-.359A2.881,2.881,0,0,0,7.376,18.2Z"/>
      <path d="M14.688,19.8v1.332h-1.81V5.684h1.81V11.51a4.034,4.034,0,0,1,1.4-1.124A3.989,3.989,0,0,1,17.9,9.961a4.784,4.784,0,0,1,2.684.731,4.535,4.535,0,0,1,1.68,2.018,7.185,7.185,0,0,1,.568,2.924,7.177,7.177,0,0,1-.568,2.923,4.538,4.538,0,0,1-1.68,2.019,4.784,4.784,0,0,1-2.684.731,4.179,4.179,0,0,1-1.909-.458A3.31,3.31,0,0,1,14.688,19.8Zm6.263-4.167a4.687,4.687,0,0,0-.862-2.935,2.822,2.822,0,0,0-2.368-1.124A2.8,2.8,0,0,0,15.376,12.7a4.687,4.687,0,0,0-.862,2.935,4.736,4.736,0,0,0,.851,2.935,2.789,2.789,0,0,0,2.356,1.123,2.821,2.821,0,0,0,2.368-1.123A4.689,4.689,0,0,0,20.951,15.634Z"/>
      <path d="M25.635,18.449a7.144,7.144,0,0,1,0-5.63,4.934,4.934,0,0,1,1.713-2.073A4.707,4.707,0,0,1,30.1,9.961a4.481,4.481,0,0,1,4.6,3.076l-1.615.633a3.021,3.021,0,0,0-2.99-2.1,2.711,2.711,0,0,0-2.356,1.135,4.931,4.931,0,0,0-.808,2.924,4.942,4.942,0,0,0,.808,2.913A2.7,2.7,0,0,0,30.1,19.692a3,3,0,0,0,1.812-.523A3.742,3.742,0,0,0,33.087,17.6l1.615.633a4.687,4.687,0,0,1-1.757,2.3,5.039,5.039,0,0,1-2.848.774,4.7,4.7,0,0,1-2.749-.786A4.925,4.925,0,0,1,25.635,18.449Z"/>
      <path d="M37.323,18.557a7.16,7.16,0,0,1-.567-2.923,7.168,7.168,0,0,1,.567-2.924,4.589,4.589,0,0,1,1.658-2.018,4.639,4.639,0,0,1,2.64-.731,4.267,4.267,0,0,1,1.9.415,3.814,3.814,0,0,1,1.4,1.134V5.684h1.79V21.133h-1.79V19.692a3.374,3.374,0,0,1-1.331,1.135,4.172,4.172,0,0,1-1.964.48,4.639,4.639,0,0,1-2.64-.731A4.591,4.591,0,0,1,37.323,18.557Zm7.746-2.923a4.728,4.728,0,0,0-.852-2.935,2.789,2.789,0,0,0-2.356-1.124A2.819,2.819,0,0,0,39.494,12.7a4.694,4.694,0,0,0-.862,2.935,4.7,4.7,0,0,0,.862,2.935,3.054,3.054,0,0,0,4.723.011A4.72,4.72,0,0,0,45.069,15.634Z"/>
      <path d="M50.168,18.481a7.055,7.055,0,0,1,0-5.694A4.909,4.909,0,0,1,51.9,10.724a4.7,4.7,0,0,1,2.684-.763,4.817,4.817,0,0,1,2.618.7,4.608,4.608,0,0,1,1.7,1.877,5.766,5.766,0,0,1,.589,2.618v.764H51.444a4.34,4.34,0,0,0,.862,2.717,2.8,2.8,0,0,0,2.325,1.057,3.171,3.171,0,0,0,1.854-.5,4.26,4.26,0,0,0,1.287-1.636l1.528.655a5.734,5.734,0,0,1-1.91,2.356,4.978,4.978,0,0,1-2.8.742,4.7,4.7,0,0,1-2.684-.763A4.915,4.915,0,0,1,50.168,18.481Zm6.513-6.153a2.9,2.9,0,0,0-2.094-.753,2.769,2.769,0,0,0-2.008.786,3.722,3.722,0,0,0-1.047,2.007h6.131A3.448,3.448,0,0,0,56.681,12.328Z"/>
      <path d="M60.962,11.75V10.135H62.6V9.48a3.92,3.92,0,0,1,.927-2.858,3.5,3.5,0,0,1,2.608-.938,3.428,3.428,0,0,1,1.549.327L67.289,7.56A2.773,2.773,0,0,0,66.111,7.3a1.639,1.639,0,0,0-1.276.491,2.118,2.118,0,0,0-.448,1.472v.873H66.94V11.75H64.387v9.383H62.6V11.75Z"/>
      <path d="M67.881,22.136a2.875,2.875,0,0,1,.294-1.309,2.73,2.73,0,0,1,.775-.96,2.221,2.221,0,0,1-.786-1.768,2.111,2.111,0,0,1,.371-1.232,2.552,2.552,0,0,1,.982-.84,3.621,3.621,0,0,1-.807-2.379,3.633,3.633,0,0,1,.512-1.93,3.493,3.493,0,0,1,1.386-1.3,4.213,4.213,0,0,1,3.905.044l1.964-1.114.786,1.354-1.549.829a3.612,3.612,0,0,1,.654,2.116,3.74,3.74,0,0,1-.5,1.953,3.345,3.345,0,0,1-1.375,1.287,4.435,4.435,0,0,1-3.862.011,1.175,1.175,0,0,0-.764,1.091.837.837,0,0,0,.349.742,1.547,1.547,0,0,0,.895.24h2.64a3.976,3.976,0,0,1,2.542.753,2.681,2.681,0,0,1,.949,2.237,3.283,3.283,0,0,1-1.309,2.858,5.629,5.629,0,0,1-3.36.939,5.553,5.553,0,0,1-3.415-.96A3.144,3.144,0,0,1,67.881,22.136Zm7.571,0a1.46,1.46,0,0,0-.513-1.254,2.475,2.475,0,0,0-1.495-.382H71.459a9.107,9.107,0,0,1-1.135-.066,2.135,2.135,0,0,0-.7,1.659,1.8,1.8,0,0,0,.753,1.549,3.706,3.706,0,0,0,2.193.545,3.526,3.526,0,0,0,2.127-.556A1.766,1.766,0,0,0,75.452,22.136Zm-.829-8.488a2.119,2.119,0,0,0-.589-1.582,2.033,2.033,0,0,0-1.484-.578,2.068,2.068,0,0,0-1.495.578,2.1,2.1,0,0,0-.6,1.582,2.1,2.1,0,0,0,.6,1.582,2.068,2.068,0,0,0,1.495.578,2.033,2.033,0,0,0,1.484-.578A2.119,2.119,0,0,0,74.623,13.648Z"/>
      <path d="M81.433,5.684v6.655a4.062,4.062,0,0,1,1.572-1.756,4.171,4.171,0,0,1,2.2-.622,3.4,3.4,0,0,1,2.519.9,3.523,3.523,0,0,1,.906,2.607v7.66H86.845V13.91a2.556,2.556,0,0,0-.524-1.734,1.942,1.942,0,0,0-1.549-.6,2.688,2.688,0,0,0-1.658.579,3.926,3.926,0,0,0-1.222,1.69,6.867,6.867,0,0,0-.459,2.619v4.67h-1.81V5.684Z"/>
      <path d="M91.692,6.971a1.254,1.254,0,0,1,.382-.938A1.283,1.283,0,0,1,93,5.662a1.31,1.31,0,0,1,.949.371,1.254,1.254,0,0,1,.382.938,1.258,1.258,0,0,1-.382.939A1.31,1.31,0,0,1,93,8.281a1.3,1.3,0,0,1-1.31-1.31Zm2.226,3.164v11H92.107v-11Z"/>
      <path d="M96.941,23.3a2.478,2.478,0,0,0,.47-1.668v-11.5h1.81V21.656a4.171,4.171,0,0,1-.839,2.793,4.247,4.247,0,0,1-2.5,1.31l-.437-1.637A3,3,0,0,0,96.941,23.3ZM97,6.971a1.254,1.254,0,0,1,.382-.938,1.282,1.282,0,0,1,.927-.371,1.313,1.313,0,0,1,.95.371,1.253,1.253,0,0,1,.381.938,1.257,1.257,0,0,1-.381.939,1.313,1.313,0,0,1-.95.371A1.3,1.3,0,0,1,97,6.971Z"/>
      <path d="M104.524,5.684v9.143l4.255-4.692h2.248l-4.647,5.041,5,5.957h-2.247l-4.605-5.586v5.586h-1.81V5.684Z"/>
      <path d="M115.262,5.684V21.133h-1.81V5.684Z"/>
      <path d="M120.566,10.135v2.117a4.783,4.783,0,0,1,1.419-1.68,3.282,3.282,0,0,1,1.964-.611,2.857,2.857,0,0,1,3.011,2.378,4.81,4.81,0,0,1,1.506-1.724,3.433,3.433,0,0,1,2.006-.654q3.165,0,3.164,3.535v7.637h-1.789V13.779a2.719,2.719,0,0,0-.414-1.669,1.608,1.608,0,0,0-1.353-.535,2.238,2.238,0,0,0-1.506.59,4.022,4.022,0,0,0-1.08,1.7,7.674,7.674,0,0,0-.4,2.618v4.648H125.3V13.779a2.781,2.781,0,0,0-.4-1.669,1.6,1.6,0,0,0-1.364-.535,2.238,2.238,0,0,0-1.506.59,3.94,3.94,0,0,0-1.069,1.723,8.219,8.219,0,0,0-.393,2.684v4.561h-1.81v-11Z"/>
      <path d="M138.923,10.135v2.117a4.647,4.647,0,0,1,1.56-1.669,3.793,3.793,0,0,1,2.084-.622,3.334,3.334,0,0,1,2.466.916,3.514,3.514,0,0,1,.916,2.6v7.66H144.16V13.867a2.508,2.508,0,0,0-.513-1.713,1.919,1.919,0,0,0-1.516-.579,2.527,2.527,0,0,0-1.626.59,3.921,3.921,0,0,0-1.157,1.69,7.184,7.184,0,0,0-.425,2.586v4.692h-1.811v-11Z"/>
      <path d="M149.454,18.449a6.474,6.474,0,0,1,0-5.63,5.029,5.029,0,0,1,4.658-2.858,5.028,5.028,0,0,1,2.793.774,5.113,5.113,0,0,1,1.844,2.084,6.474,6.474,0,0,1,0,5.63,5.119,5.119,0,0,1-1.844,2.084,5.036,5.036,0,0,1-2.793.774,5.029,5.029,0,0,1-4.658-2.858Zm7.67-.818a5.283,5.283,0,0,0,0-3.994,3.519,3.519,0,0,0-1.168-1.5,3.282,3.282,0,0,0-3.688,0,3.585,3.585,0,0,0-1.177,1.5,5.126,5.126,0,0,0,0,3.994,3.576,3.576,0,0,0,1.177,1.494,3.282,3.282,0,0,0,3.688,0A3.51,3.51,0,0,0,157.124,17.631Z"/>
      <path d="M164.066,10.135v1.418a3.315,3.315,0,0,1,1.276-1.112,3.987,3.987,0,0,1,1.932-.48,4.784,4.784,0,0,1,2.684.731,4.541,4.541,0,0,1,1.68,2.018,7.185,7.185,0,0,1,.568,2.924,7.177,7.177,0,0,1-.568,2.923,4.544,4.544,0,0,1-1.68,2.019,4.784,4.784,0,0,1-2.684.731,4.219,4.219,0,0,1-1.833-.425,3.386,3.386,0,0,1-1.375-1.124v5.826h-1.81V10.135Zm6.263,5.5a4.687,4.687,0,0,0-.862-2.935,2.822,2.822,0,0,0-2.368-1.124,2.789,2.789,0,0,0-2.356,1.124,4.734,4.734,0,0,0-.851,2.935,4.689,4.689,0,0,0,.862,2.935,3.034,3.034,0,0,0,4.713,0A4.689,4.689,0,0,0,170.329,15.634Z"/>
      <path d="M181.22,20.892a4.12,4.12,0,0,1-1.833.415,4.839,4.839,0,0,1-2.695-.731A4.514,4.514,0,0,1,175,18.557a7.16,7.16,0,0,1-.568-2.923A7.168,7.168,0,0,1,175,12.71a4.511,4.511,0,0,1,1.69-2.018,4.839,4.839,0,0,1,2.695-.731,4.171,4.171,0,0,1,1.91.458,3.3,3.3,0,0,1,1.3,1.048V10.135h1.79V25.584h-1.79V19.758A3.612,3.612,0,0,1,181.22,20.892Zm1.528-5.258a4.72,4.72,0,0,0-.852-2.946,3.052,3.052,0,0,0-4.723.011,4.688,4.688,0,0,0-.863,2.935,4.69,4.69,0,0,0,.863,2.935,2.818,2.818,0,0,0,2.367,1.123,2.789,2.789,0,0,0,2.356-1.123A4.73,4.73,0,0,0,182.748,15.634Z"/>
      <path d="M189.69,10.135v1.9a3.955,3.955,0,0,1,1.354-1.539,3.377,3.377,0,0,1,1.876-.534,4.235,4.235,0,0,1,1.549.327l-.371,1.68a2.9,2.9,0,0,0-1.419-.371,2.473,2.473,0,0,0-2.148,1.374,7.78,7.78,0,0,0-.841,4.016v4.146h-1.81v-11Z"/>
      <path d="M195.518,18.318l1.506-.808a3.581,3.581,0,0,0,.949,1.615,2.348,2.348,0,0,0,1.648.567,1.914,1.914,0,0,0,1.3-.425,1.544,1.544,0,0,0,.49-1.233,1.315,1.315,0,0,0-.589-1.135,8.364,8.364,0,0,0-1.833-.872,5.418,5.418,0,0,1-2.019-1.2,2.623,2.623,0,0,1-.709-1.921,2.733,2.733,0,0,1,.906-2.127,3.3,3.3,0,0,1,2.3-.818,3.507,3.507,0,0,1,3.186,1.723l-1.179,1.048a2.3,2.3,0,0,0-2.029-1.157,1.507,1.507,0,0,0-1.025.36,1.283,1.283,0,0,0,.12,1.986,7.987,7.987,0,0,0,1.909.906q2.684.981,2.684,3.141a3.179,3.179,0,0,1-.96,2.445,3.6,3.6,0,0,1-2.553.894,4.121,4.121,0,0,1-2.728-.873A4.058,4.058,0,0,1,195.518,18.318Z"/>
      <path d="M206.235,17.772V11.75h-1.854V10.135h1.854V6.841l1.812-1.157v4.451h2.945V11.75h-2.945V17.9q0,1.79,1.527,1.789a2.463,2.463,0,0,0,1.266-.306l.458,1.529a4.172,4.172,0,0,1-1.877.392,3.092,3.092,0,0,1-2.335-.883A3.685,3.685,0,0,1,206.235,17.772Z"/>
      <path d="M213.242,17.794V10.135h1.81V17.4a2.51,2.51,0,0,0,.513,1.713,1.893,1.893,0,0,0,1.5.578A2.57,2.57,0,0,0,218.7,19.1a3.872,3.872,0,0,0,1.167-1.7,7.239,7.239,0,0,0,.426-2.6V10.135h1.789v11H220.29V19.016a4.649,4.649,0,0,1-1.561,1.669,3.831,3.831,0,0,1-2.105.622,3.329,3.329,0,0,1-2.466-.917A3.513,3.513,0,0,1,213.242,17.794Z"/>
      <path d="M225.9,10.135l2.772,8.685,2.749-8.685h1.855l-3.71,11h-1.81l-3.71-11Z"/>
      <path d="M235.963,10.135l2.356,8.576,2.182-8.576h1.723l2.16,8.576,2.379-8.576h1.855l-3.382,11h-1.7l-2.182-8.379-2.16,8.379h-1.725l-3.36-11Z"/>
      <path d="M249.887,10.135h1.943l2.137,3.492,2.161-3.492h1.942l-3.12,5.041,3.687,5.957H256.76l-2.793-4.408-2.77,4.408H249.32l3.688-5.957Z"/>
      <path d="M259.359,10.135h1.856l3.032,8.249,2.837-8.249h1.833L263.4,25.584h-1.767l1.7-4.713Z"/>
      <path d="M275.467,11.75h-5.041V10.135h7.353v.851l-5.28,8.532h5.542v1.615h-7.9v-.786Z"/>
      <path d="M1.179,39.687A10.257,10.257,0,0,1,2.564,33.97a4.51,4.51,0,0,1,4-2.094,4.487,4.487,0,0,1,3.993,2.083,10.308,10.308,0,0,1,1.375,5.728,10.311,10.311,0,0,1-1.375,5.728A4.49,4.49,0,0,1,6.568,47.5a4.509,4.509,0,0,1-4-2.095A10.257,10.257,0,0,1,1.179,39.687Zm8.946,0A9.3,9.3,0,0,0,9.2,35.181a2.914,2.914,0,0,0-5.27,0,9.392,9.392,0,0,0-.917,4.506,9.319,9.319,0,0,0,.917,4.494,2.921,2.921,0,0,0,5.27,0A9.23,9.23,0,0,0,10.125,39.687Z"/>
      <path d="M14.427,36.392V34.428l3.841-2.378H18.9V47.324H17.09V34.756Z"/>
      <path d="M27.173,39.468a10.068,10.068,0,0,0,1.233-1.843,3.691,3.691,0,0,0,.316-1.56,2.591,2.591,0,0,0-.655-1.866,2.353,2.353,0,0,0-1.789-.688,2.308,2.308,0,0,0-1.768.753,3.6,3.6,0,0,0-.872,2l-1.68-.327a4.465,4.465,0,0,1,.666-2.094A4.1,4.1,0,0,1,24.162,32.4a4.388,4.388,0,0,1,2.139-.523A4.263,4.263,0,0,1,29.387,33a4.053,4.053,0,0,1,1.168,3.066,4.731,4.731,0,0,1-.425,1.952,9.682,9.682,0,0,1-1.255,2L24.51,45.666H30.9v1.658H21.652v-.7Z"/>
      <path d="M33.111,43.113l1.768-.24a3.749,3.749,0,0,0,.981,2.171,2.783,2.783,0,0,0,2.073.8,2.964,2.964,0,0,0,2.291-.873,4.032,4.032,0,0,0-.01-4.856,2.969,2.969,0,0,0-2.259-.861,2.551,2.551,0,0,0-1.353.371l-.807-1.07,3.6-4.866H33.853V32.05H42.1v.567L38.151,37.9a2.012,2.012,0,0,1,.567-.066,3.941,3.941,0,0,1,3.59,2.215,5.429,5.429,0,0,1,.556,2.52,5.267,5.267,0,0,1-.61,2.575,4.36,4.36,0,0,1-1.724,1.735,5.241,5.241,0,0,1-2.6.622,4.749,4.749,0,0,1-3.284-1.179A4.81,4.81,0,0,1,33.111,43.113Z"/>
      <path d="M45.028,44.029v-.7L51.465,32.05h2.05V42.392h1.921v1.637H53.515v3.295h-1.81V44.029Zm6.677-9.36-4.3,7.723h4.3Z"/>
      <path d="M57.271,43.309l1.746-.3q.458,2.835,2.946,2.837a2.6,2.6,0,0,0,2.16-.928,4.037,4.037,0,0,0,.742-2.586,3.932,3.932,0,0,0-.764-2.618,2.633,2.633,0,0,0-2.117-.9,3.283,3.283,0,0,0-1.81.5,4.459,4.459,0,0,0-1.332,1.331l-1.2-.262.808-8.335H65.8v1.636H60l-.458,4.451a3.9,3.9,0,0,1,2.705-.938,4.073,4.073,0,0,1,3.263,1.386A5.559,5.559,0,0,1,66.7,42.327a6.022,6.022,0,0,1-.578,2.684,4.3,4.3,0,0,1-1.659,1.832,5.148,5.148,0,0,1-5.684-.435A4.641,4.641,0,0,1,57.271,43.309Z"/>
      <path d="M69.331,45.054a5.167,5.167,0,0,1-.622-2.531,6.2,6.2,0,0,1,.894-3.076l4.386-7.571h1.942l-3.36,5.913a1.514,1.514,0,0,1,.49-.175,2.857,2.857,0,0,1,.579-.065,4.806,4.806,0,0,1,2.488.643,4.529,4.529,0,0,1,1.7,1.778,5.3,5.3,0,0,1,.61,2.553,5.167,5.167,0,0,1-.622,2.531,4.612,4.612,0,0,1-1.724,1.789,5.147,5.147,0,0,1-5.029,0A4.588,4.588,0,0,1,69.331,45.054Zm7.276-2.531a3.43,3.43,0,0,0-.84-2.432,3.094,3.094,0,0,0-4.375,0,3.408,3.408,0,0,0-.85,2.432,3.373,3.373,0,0,0,.861,2.39,3.018,3.018,0,0,0,4.354,0A3.4,3.4,0,0,0,76.607,42.523Z"/>
      <path d="M80.233,33.686V32.05h8.729v.655L83.005,47.324H81.172L86.8,33.686Z"/>
      <path d="M90.938,45.4A4.506,4.506,0,0,1,90.3,42.96a4.432,4.432,0,0,1,.643-2.389A3.617,3.617,0,0,1,92.607,39.1a3.6,3.6,0,0,1-1.287-1.3,3.663,3.663,0,0,1-.48-1.888,4.1,4.1,0,0,1,.523-2.072A3.743,3.743,0,0,1,92.837,32.4a4.765,4.765,0,0,1,4.341,0,3.733,3.733,0,0,1,1.473,1.441,4.088,4.088,0,0,1,.524,2.072,3.561,3.561,0,0,1-.491,1.866A3.958,3.958,0,0,1,97.408,39.1a3.617,3.617,0,0,1,1.669,1.474,4.432,4.432,0,0,1,.643,2.389,4.506,4.506,0,0,1-.643,2.444,4.22,4.22,0,0,1-1.713,1.56,5.457,5.457,0,0,1-4.713,0A4.214,4.214,0,0,1,90.938,45.4Zm6.949-2.444a2.831,2.831,0,0,0-.8-2.127,3.189,3.189,0,0,0-4.168,0,2.825,2.825,0,0,0-.8,2.127,2.792,2.792,0,0,0,.8,2.117,3.238,3.238,0,0,0,4.178,0A2.816,2.816,0,0,0,97.887,42.96Zm-.458-7.026a2.464,2.464,0,0,0-.666-1.811,2.616,2.616,0,0,0-3.512,0,2.8,2.8,0,0,0,0,3.622,2.616,2.616,0,0,0,3.512,0A2.466,2.466,0,0,0,97.429,35.934Z"/>
      <path d="M107.394,41.76a2.913,2.913,0,0,1-.578.065,4.853,4.853,0,0,1-2.5-.644A4.475,4.475,0,0,1,102.6,39.4a5.3,5.3,0,0,1-.61-2.553,5.178,5.178,0,0,1,.622-2.531,4.608,4.608,0,0,1,1.734-1.789,5.142,5.142,0,0,1,5.019,0,4.608,4.608,0,0,1,1.734,1.789,5.178,5.178,0,0,1,.622,2.531,5.053,5.053,0,0,1-.207,1.4,6.352,6.352,0,0,1-.578,1.375l-4.5,7.877H104.5l3.382-5.913A1.531,1.531,0,0,1,107.394,41.76Zm2.5-4.91a3.413,3.413,0,0,0-.861-2.4,2.98,2.98,0,0,0-4.343,0,3.413,3.413,0,0,0-.861,2.4,3.368,3.368,0,0,0,.85,2.422,3.121,3.121,0,0,0,4.375,0A3.389,3.389,0,0,0,109.892,36.85Z"/>
    </g>
  </g>
</svg>
