<svg xmlns="http://www.w3.org/2000/svg" viewBox="0 0 291.259 115.115">
  <title>Asset 2</title>
  <g id="Layer_2" data-name="Layer 2">
    <g id="Layer_1-2" data-name="Layer 1">
      <path id="Shape" d="M4.136,50.654S23.47,90.8,58.989,90.8H60.24c35.519,0,54.853-40.142,54.853-40.142v-.212S95.759,10.3,60.24,10.3H58.989C23.47,10.3,4.136,50.442,4.136,50.442Z" fill="none" stroke="#0000FF" stroke-width="8.271"/>
      <circle id="Oval" cx="58.205" cy="50.986" r="19.845" fill="none" stroke="#0000FF" stroke-width="8.58"/>
      <path d="M177.75,53.189S196.826,92.8,231.871,92.8h1.235c35.028.025,54.1-39.606,54.1-39.606V53S268.134,13.4,233.089,13.4h-1.235C196.809,13.4,177.75,53,177.75,53Z" fill="none" stroke="#0000FF" stroke-width="8.098"/>
      <path d="M216.952,40.034A19.53,19.53,0,0,0,244.32,67.889Z" fill="none" stroke="#0000FF" stroke-width="8.4"/>
      <path d="M286.883,111.066,181.756,4.049Z" fill="none" stroke="#0000FF" stroke-linecap="round" stroke-linejoin="round" stroke-width="8.098"/>
    </g>
  </g>
</svg>
