<?xml version="1.0" encoding="UTF-8"?>
<svg width="1440px" height="556px" viewBox="0 0 1440 556" version="1.1" xmlns="http://www.w3.org/2000/svg" xmlns:xlink="http://www.w3.org/1999/xlink">
    <!-- Generator: Sketch 52.2 (67145) - http://www.bohemiancoding.com/sketch -->
    <title>Group</title>
    <desc>Created with Sketch.</desc>
    <defs>
        <polygon id="path-1" points="0.000284765804 0 336.921806 0 336.921806 339.477016 0.000284765804 339.477016"></polygon>
    </defs>
    <g id="Design" stroke="none" stroke-width="1" fill="none" fill-rule="evenodd">
        <g id="1440-large-case-dv" transform="translate(0.000000, -1523.000000)">
            <g id="Group" transform="translate(0.000000, 1523.000000)">
                <polygon id="Rectangle-9" fill="#FFFED9" fill-rule="nonzero" points="0 0.605913262 1440 0.605913262 1440 556 0 556"></polygon>
                <g id="Group-8" transform="translate(218.000000, 60.335674)">
                    <g id="Stacked-Group-4" transform="translate(320.000000, 0.080117)" fill="#222222" font-family="ApercuPro-Bold, Apercu Pro" font-size="22" font-weight="bold" letter-spacing="5" line-spacing="40.4000015">
                        <text id="The-creative-Bluepri">
                            <tspan x="0" y="21">THE CREATIVE BLUEPRINT</tspan>
                        </text>
                    </g>
                    <g id="Group-61" transform="translate(344.000000, 55.000000)">
                        <mask id="mask-2" fill="white">
                            <use xlink:href="#path-1"></use>
                        </mask>
                        <g id="Clip-2"></g>
                        <path d="M292.66664,215.974878 C327.718528,155.391077 342.432086,93.2954136 335.074582,49.3711904 C300.889687,21.2439701 239.87305,2.85165956 169.552822,2.85165956 L169.552822,336.059123 C211.313058,320.481477 257.832589,276.557267 292.883026,215.974878 L292.66664,215.974878 Z" id="Fill-1" fill="#E9D100" mask="url(#mask-2)"></path>
                        <path d="M252.422027,57.3765326 C242.469215,54.5648394 232.083631,52.4009179 221.265277,50.8860871 C221.265277,55.214062 221.265277,60.1897427 220.616054,65.1668743 C219.750512,75.9852287 218.453584,87.4528058 216.938819,98.7039973 C223.862035,100.867985 230.352481,103.679678 235.329613,106.709208 C235.329613,113.632424 234.247619,121.855537 232.083631,130.077133 C228.839167,143.492312 222.996427,157.555196 214.774831,171.186695 C207.851615,184.601874 198.331574,197.151445 188.377311,206.67142 C181.886865,212.729094 175.394969,217.488323 169.55368,220.95069 C163.496071,217.488323 157.222011,212.729094 150.946501,206.67142 C140.992237,196.933542 131.472196,185.034645 123.899823,171.186695 C115.894547,157.555196 110.051873,143.492312 106.589506,130.077133 C104.42697,121.422766 103.561428,113.632424 103.777813,106.709208 C108.538559,103.679678 114.596168,100.867985 121.953672,98.7039973 C120.437456,87.4528058 119.140528,75.9852287 118.27492,65.1668743 C118.27492,59.9732912 117.842149,55.214062 117.625763,50.6697016 C106.807343,52.833689 96.4217595,54.9976765 86.6853988,57.5929182 C71.1062324,61.9208931 57.2582955,67.7636328 46.2249932,74.4704639 C46.2249932,87.4528058 47.9546927,102.166364 52.0662425,118.176785 C58.1238839,143.059541 69.375082,169.67193 84.0885743,195.202392 C98.8006816,220.735821 116.543769,243.669459 134.718178,261.411096 C146.40214,272.878673 158.520391,281.965864 169.337294,288.241388 C180.804871,281.750949 192.487383,273.096509 204.389248,261.411096 C222.780042,243.453073 240.305293,220.302984 255.018785,195.202392 C269.732344,169.67193 280.983535,143.274409 287.041144,118.176785 C291.369118,102.166364 293.098818,87.2364202 292.883883,74.4704639 C282.065529,67.9785015 268.217579,62.1372786 252.422027,57.5929182 L252.422027,57.3765326 Z" id="Fill-3" fill="#FFFFFF" mask="url(#mask-2)"></path>
                        <path d="M60.8568644,151.989583 C60.9383866,152.234196 61.003599,152.345323 60.8568644,151.989583" id="Fill-4" fill="#262CEC" mask="url(#mask-2)"></path>
                        <path d="M123.856493,93.3583969 C123.866914,93.4354278 123.872783,93.4740092 123.883203,93.5495891 C123.958783,93.6814913 124.02546,93.8044901 124.080331,93.9245871 L123.856493,93.3583969 Z" id="Fill-5" fill="#262CEC" mask="url(#mask-2)"></path>
                        <path d="M106.142754,113.280905 C106.141303,113.354968 106.141303,113.402387 106.139786,113.47058 C106.173883,113.451322 106.212398,113.48687 106.142754,113.280905" id="Fill-6" fill="#262CEC" mask="url(#mask-2)"></path>
                        <path d="M87.6866024,55.2039715 C87.4138946,55.272165 87.2701212,55.3240025 87.1648633,55.3699704 C87.3249266,55.3195838 87.4805712,55.2706481 87.6866024,55.2039715" id="Fill-7" fill="#262CEC" mask="url(#mask-2)"></path>
                        <path d="M87.3276306,204.262292 C87.3276306,204.262292 87.2846305,204.194165 87.2505337,204.145229 C87.2994695,204.247519 87.3468883,204.345325 87.4002427,204.457969 L87.3276306,204.262292 Z" id="Fill-8" fill="#262CEC" mask="url(#mask-2)"></path>
                        <path d="M86.906335,203.765812 C86.575854,203.138815 87.0797863,203.88736 87.250204,204.145229 C86.9137874,203.436716 86.5135962,202.768302 86.0719216,202.113144 C85.9948248,202.165047 86.7833362,203.430847 86.906335,203.765812" id="Fill-9" fill="#262CEC" mask="url(#mask-2)"></path>
                        <path d="M158.0464,282.930464 L157.761821,282.776317 C157.875983,282.845981 157.963434,282.893406 158.0464,282.930464" id="Fill-10" fill="#262CEC" mask="url(#mask-2)"></path>
                        <path d="M91.8233191,58.7878861 C91.6721592,58.8323372 91.5091281,58.8812729 91.3683225,58.9242071 C91.6069336,58.8664339 91.735868,58.8234338 91.8233191,58.7878861" id="Fill-11" fill="#262CEC" mask="url(#mask-2)"></path>
                        <path d="M144.75455,272.597193 L144.521874,272.58829 C144.683455,272.64758 144.741228,272.637226 144.75455,272.597193" id="Fill-12" fill="#262CEC" mask="url(#mask-2)"></path>
                        <path d="M124.080925,93.9242573 L124.166859,94.1436107 C124.143183,94.0695476 124.113505,93.9983864 124.080925,93.9242573" id="Fill-13" fill="#262CEC" mask="url(#mask-2)"></path>
                        <path d="M112.369658,141.298844 C112.331143,141.324037 112.319272,141.39665 112.316304,141.481133 C112.328175,141.51523 112.337079,141.540423 112.341497,141.559681 L112.369658,141.298844 Z" id="Fill-14" fill="#262CEC" mask="url(#mask-2)"></path>
                        <path d="M169.172812,268.912044 C169.19207,268.900239 169.209811,268.876496 169.230585,268.833496 L169.126844,268.242113 C169.137199,268.554853 169.152038,268.771238 169.172812,268.912044" id="Fill-15" fill="#262CEC" mask="url(#mask-2)"></path>
                        <path d="M129.232365,177.415249 C129.264945,177.437474 129.327203,177.508635 129.346461,177.505668 C129.024883,176.900962 128.076242,175.372809 126.905347,173.392627 L126.678541,173.363015 C127.514537,174.725103 128.354886,176.081322 129.232365,177.415249" id="Fill-16" fill="#262CEC" mask="url(#mask-2)"></path>
                        <path d="M154.739085,213.680769 C153.700091,212.643292 152.690709,211.576137 151.691748,210.505949 C156.93862,215.18076 161.027918,218.333355 165.081668,221.133177 C165.738277,221.573334 166.384532,222.006172 167.036656,222.443427 L167.036656,224.846026 C167.047076,227.327172 167.078205,229.944705 167.150818,232.895687 L167.07227,232.242046 C166.990754,233.962842 167.795555,234.932191 166.812884,253.924789 L166.77582,253.924789 C166.781755,254.584366 166.852916,254.579881 166.758013,255.896067 L166.977366,252.613021 C167.067785,254.579881 167.23972,256.299226 167.263462,258.919727 C167.22343,259.477014 167.149301,259.668206 167.092978,259.72156 L167.152268,266.154167 L166.921044,268.123994 C167.047076,270.092305 167.53617,269.195634 167.263462,274.454357 C167.602846,272.471227 167.466525,277.064464 167.63846,276.41379 C167.604363,276.704298 167.534719,277.282346 167.47688,277.767014 C167.515395,280.894402 167.61175,286.784561 167.785201,288.241533 C167.785201,288.241533 168.499583,276.004709 168.861259,272.712806 C168.77084,277.116341 168.904193,273.874825 169.018355,273.006288 L168.933871,272.712806 C169.016838,270.076015 169.230322,270.076015 169.289612,268.756861 C169.273256,268.756861 169.25103,268.796893 169.230322,268.833958 L169.258483,269.001408 C169.221418,269.125923 169.194708,269.05186 169.172482,268.912506 C169.128031,268.943634 169.092484,268.822087 169.104289,268.104737 L169.126515,268.242574 C169.096903,267.139806 169.129482,265.236721 169.145838,264.409694 L169.323642,264.393338 C168.982741,262.43835 169.842414,251.250933 169.854285,248.624497 C170.081091,245.987706 169.797963,242.716597 169.910607,239.423197 C169.968446,234.17626 170.172961,236.798278 170.327088,234.164454 C170.439733,230.874022 170.118089,234.831418 170.106284,233.510813 L170.35525,229.56819 C170.377475,231.859661 170.484184,230.616087 170.553894,230.198155 C170.595377,228.50552 170.6517,226.294114 170.700635,224.396899 C170.706571,223.921128 170.712441,223.466131 170.718376,223.03923 C170.715408,222.462685 170.712441,221.927624 170.709473,221.445917 C170.703603,221.19095 170.696151,220.950822 170.690215,220.722631 C170.676893,220.617373 170.702086,220.495825 170.656118,220.417278 C170.565765,220.366891 170.476797,220.317955 170.390863,220.269086 C170.051413,220.086731 169.778705,219.956345 169.587513,219.888152 C169.255515,219.664314 168.944226,219.455315 168.65226,219.258187 C168.44768,219.112963 168.258005,218.978093 168.078618,218.850609 C167.728879,218.591224 167.423525,218.364484 167.152268,218.162871 C166.630595,217.755293 166.246694,217.452908 165.922083,217.198007 C165.292184,216.679235 164.914218,216.370914 164.137578,215.788434 C164.620736,216.230108 165.643439,217.021587 165.610859,217.08833 C164.220544,215.908531 164.880121,216.615527 165.465569,217.076459 C164.281285,216.350205 161.471109,214.082477 158.997349,211.857748 C156.516203,209.637439 154.347797,207.497194 154.003928,207.439354 L154.051346,207.387451 C153.382866,207.160711 153.946089,208.081125 152.418002,206.867229 L151.5702,205.877171 L150.095402,204.586178 C149.235795,203.590185 149.750082,203.99031 149.772307,203.968084 C147.427548,201.798227 144.522468,198.414408 142.057612,195.444103 C142.730511,196.662483 143.44641,197.852637 144.153406,199.057695 C142.075418,196.515742 138.63376,191.723867 138.057216,191.350386 L137.058254,189.641395 C133.532113,184.118848 134.153175,186.110901 132.752505,183.899495 C132.19225,182.95679 131.674996,181.983022 131.13545,181.028512 C131.752027,181.925249 132.34341,182.83821 132.977794,183.723076 C131.236223,180.960318 130.603357,179.813099 129.368686,177.523145 L129.346461,177.505404 C129.432461,177.662499 129.481331,177.769208 129.47988,177.797369 L129.232365,177.414985 C128.901818,177.158567 127.904308,175.777155 126.748251,173.792555 C125.154873,170.954151 123.686076,168.82281 121.547281,164.054677 L120.684641,163.033424 L119.1032,159.440672 L119.316617,159.338382 C120.941059,162.805168 124.404943,169.163711 126.905347,173.392364 L127.041733,173.413072 C125.583225,170.902314 123.872783,168.032782 122.99537,166.314953 C122.583307,165.467152 121.708862,163.211295 122.648533,164.687544 L121.612507,163.193488 C119.384811,158.864062 118.373978,156.63043 117.354243,154.344961 C116.356732,152.052039 115.374061,149.689407 113.660651,144.919823 L113.86965,145.782398 C113.0663,143.937086 112.32224,142.072516 112.316304,141.481133 C110.294639,135.743651 108.714649,129.641526 108.232942,125.771581 L107.782364,124.993424 C107.5363,123.739562 107.614848,121.797896 107.134658,121.253931 C106.946368,120.369065 106.774433,119.481231 106.608434,118.591947 C106.405371,116.872602 106.131212,115.827672 106.135631,113.853426 L106.135631,113.843072 C106.137148,113.722975 106.138599,113.597008 106.140116,113.471042 C106.131212,113.471042 106.125277,113.481396 106.11789,113.493267 C106.037825,109.590677 105.816955,113.542203 105.858504,109.071972 C105.960729,108.19746 105.868859,108.335298 105.769536,108.117395 C105.738407,108.040365 105.615409,107.883269 105.673182,107.79285 C105.739924,107.708367 105.865891,107.612012 106.052664,107.527529 C106.077858,107.551205 106.352016,107.441529 106.501725,107.397078 L107.035336,107.225143 L108.103941,106.890177 C109.922609,106.082408 110.949731,105.553283 112.177015,104.912963 C113.407201,104.283065 114.837483,103.537487 117.530596,102.534107 C118.851201,102.129431 119.860582,101.921949 120.328967,101.918981 C120.577932,101.913046 120.884737,101.892271 120.708384,102.030109 C120.47274,102.188721 120.349675,102.304334 119.918355,102.53259 C120.234063,102.373978 120.34374,102.302883 120.695061,102.156142 C121.075929,102.000497 121.379832,101.877498 121.633282,101.775208 C122.156472,101.575112 122.461759,101.458049 122.783403,101.334984 C123.151014,101.207501 123.536367,101.074148 124.207815,100.842923 C124.293749,100.814762 124.384168,100.785084 124.477555,100.753955 L124.622779,100.703569 C124.688005,100.696182 124.720651,100.668021 124.690973,100.598377 C124.653908,100.371571 124.615393,100.122605 124.570942,99.843962 C124.48349,99.2984805 124.378232,98.6448391 124.250749,97.8474244 C124.275942,96.9003666 124.393071,97.5391689 124.733973,99.0583525 C124.652457,98.3098735 124.585715,97.7022001 124.530909,97.1982677 C124.47307,96.729883 124.427168,96.3608207 124.387136,96.0495974 C124.3382,95.6997928 124.28933,95.4952125 124.237427,95.3129237 C124.135137,94.9497969 124.021041,94.6815078 123.883203,93.5491275 C123.517109,92.9281319 122.970176,92.2270717 122.861951,91.4933658 L122.882725,92.3811995 C122.430631,90.0022774 122.045278,87.3862611 121.877828,84.5775357 L122.031956,84.6679547 L121.636184,81.7035847 L121.799281,81.4975534 L121.319025,77.2600634 L121.326411,77.8469623 C121.204929,76.8539366 120.840286,73.5857299 120.794318,71.7048705 L120.899576,71.7641605 C120.794318,66.4742888 120.170354,62.1181528 119.752356,55.8856421 L120.007323,56.6904433 C120.047356,55.6232886 119.958388,55.4839339 119.854647,55.2927417 C119.802743,55.1963871 119.746421,55.0896783 119.699002,54.8466485 C119.678293,54.7265515 119.656002,54.5709069 119.639712,54.3679094 C119.629358,54.1248137 119.616035,53.8298804 119.596778,53.4489468 L119.83684,53.1954968 C119.558196,51.3249917 119.50781,50.1896435 119.512228,49.0231664 C119.498906,48.7578452 119.556745,48.402105 119.49152,48.2049771 C119.255877,48.2287195 119.014232,48.250945 118.771202,48.2731706 C118.274656,48.3221063 117.732142,48.3813963 117.069664,48.4807187 C117.446112,48.5177172 117.792949,48.5636851 118.113076,48.6126209 L113.619168,49.4426154 C110.469541,49.9717411 111.613727,49.4218408 112.037661,49.1565855 L109.959673,49.8501932 L109.483902,49.6471298 C107.997233,50.3052558 107.915717,49.9139679 105.224121,50.6698335 C104.976606,50.6090925 105.652473,50.3986426 104.715704,50.5498025 L100.306279,51.9356329 L102.978618,51.1604437 L102.740007,51.6540217 C99.9876035,52.5877574 98.9070607,52.4499196 96.9194924,53.027981 L98.2771617,52.5877574 C95.0148906,53.4400434 94.799956,53.3095922 92.9235154,53.6593968 C93.5164157,53.5986558 94.4235071,53.5037522 93.1073211,53.8787501 C92.1394887,54.1381358 92.5426478,53.8594924 91.610363,54.0373625 C91.4561694,54.3723282 89.1514423,55.0941629 86.9815192,55.5299019 C86.9978091,55.4839339 87.0319058,55.4320964 87.1653249,55.3698385 C86.6332315,55.5610308 86.3679102,55.6959008 85.4059475,55.9048998 L85.8773,55.4365151 L84.140214,56.2517366 C82.89664,56.5066376 81.220295,57.2818268 81.3122309,57.0224412 L81.9776774,56.7527012 C78.92889,57.6435027 75.9037131,58.6172706 72.9053124,59.675522 L72.6948624,59.479911 C71.9196732,60.10981 67.775504,61.1799325 68.2305007,61.4852861 C66.4504145,61.8839605 61.7489849,64.345849 62.5286127,63.4787899 C59.6398556,64.7060739 57.4907006,65.8250662 55.2051916,67.040479 C52.897444,68.2632783 50.5066968,69.5275609 47.1051106,71.3284216 C46.9376278,71.398066 46.7627255,71.4706781 46.5804235,71.547775 C46.3921859,71.6292905 45.9267821,71.8752881 45.5725456,72.0590938 C45.1753221,72.2695438 44.7647568,72.4874462 44.336411,72.715703 C44.1452121,72.8461543 43.832472,72.9157986 43.7287178,73.1114755 C43.7242727,73.3663765 43.7198276,73.6272131 43.7153824,73.8910835 C43.6857374,76.5249065 43.6723955,77.3445468 43.7050017,78.8489573 C43.761324,81.6710048 43.9643874,84.7568567 44.1392831,87.2039723 C45.1664253,96.7358186 46.2825026,102.832008 48.4657478,112.337145 C49.1416146,118.225852 52.2586284,126.457868 53.8549286,132.534735 L54.6034274,134.104371 C55.5179317,138.207057 58.0539295,144.085344 59.8177125,149.683471 C60.4283736,150.989303 60.7277718,151.68146 60.8567193,151.989781 C60.772236,151.737782 60.6669978,151.343526 60.7588941,151.171592 C61.250975,152.775325 62.6664505,155.855241 62.2944269,155.745564 L62.1076732,155.36318 C61.7208238,155.256471 64.1693771,160.00983 64.6747999,161.825464 L64.5666006,160.756793 C64.9564111,161.73953 65.3625248,162.714749 65.7775353,163.687066 L65.3788279,162.935619 C68.4454353,169.10884 70.5531005,173.629524 72.6429589,178.053787 C74.737302,182.472115 76.8908692,186.760058 80.2998815,192.255961 C79.1571468,190.932388 81.7109052,194.3844 81.4663586,194.716398 C82.6669324,197.787477 84.5818885,199.895076 86.07146,202.112418 C86.086299,202.103515 86.1218466,202.119871 86.2255877,202.235417 L88.6281862,206.238781 C86.7340047,204.1356 90.7610448,208.871153 89.0491521,206.920583 C95.173503,217.463328 104.659381,230.264832 113.553942,241.209219 L113.251557,240.656351 C115.511899,243.43098 118.517752,246.712508 120.173322,248.87056 C121.834828,251.033031 124.3812,253.07547 125.123744,253.819531 C127.28628,255.864938 128.895883,258.070409 128.015501,257.145511 C130.265423,259.404336 132.675474,261.211132 135.725778,264.409694 C136.130388,265.076658 138.395149,267.076097 140.573976,268.900634 C142.755704,270.725237 144.854466,272.374872 144.755143,272.597193 L144.817401,272.598644 C148.957152,276.487899 153.51035,279.344044 158.349643,283.061338 C158.349643,283.061338 158.234031,283.022803 158.045807,282.930906 C161.712688,284.918501 165.441893,286.763806 169.224386,288.435699 C168.47439,287.398176 167.725911,286.381408 167.008495,285.334995 C164.219093,283.136931 161.523012,280.842525 158.908447,278.47401 C151.121073,273.029965 143.769504,266.932324 136.871481,260.344073 C131.503062,254.922299 126.420672,249.232236 121.545831,243.367271 C109.359387,229.378515 98.4950642,214.212862 88.9024109,198.300247 L86.5902313,195.039493 C81.5849386,185.288293 74.5223674,173.097364 70.2107483,162.078914 L69.841686,161.973656 C68.4765642,158.93674 68.7700466,159.056771 68.4854676,158.28455 C62.4085553,144.064569 57.1779605,129.180594 53.4858663,114.366262 C51.6761351,106.953886 50.3377301,99.5282541 49.5210511,92.2270717 C49.1119762,88.5764146 48.8362874,84.9555014 48.6969657,81.3864258 C48.6302694,79.6122753 48.5887663,77.8084468 48.5902502,76.0980051 C48.5902502,75.949813 48.5783922,75.7867818 48.7607009,75.7556529 C49.3728392,75.4236551 49.9820097,75.0916573 50.5897029,74.7625613 C51.8465857,74.1370811 54.20472,72.9602497 56.5317386,71.7997082 C58.8839439,70.6510379 61.2124398,69.6105274 62.2084597,69.2800464 C70.2329739,65.2574251 79.2831134,62.0366373 87.9552872,59.720039 L87.6351605,59.8371022 L91.7392974,58.7239795 C91.9201353,58.7032709 91.9512643,58.7328829 91.8237808,58.7877542 C96.4259144,57.354439 103.906484,55.9523186 109.726932,54.8673571 L109.394934,54.9696473 C111.272826,54.5857459 113.143331,54.2033615 115.003482,53.8239448 L115.153191,53.7942668 L115.22732,53.7779769 C115.239125,53.7898481 115.234706,53.8239448 115.237674,53.8461703 L115.298415,54.7665838 C115.568221,59.0248484 115.837961,63.2550179 116.10625,67.4643467 C116.703569,75.933523 117.637305,84.2721821 118.711912,92.567973 L119.331456,97.1760422 C119.390747,97.2931054 119.232134,97.269363 119.169876,97.3093953 L118.667395,97.4769111 C117.652144,97.8162955 116.639794,98.1720357 115.634897,98.5500014 C113.628005,99.3073839 111.643405,100.134411 109.694352,101.038534 C108.720584,101.490629 107.755654,101.959014 106.796725,102.443688 L105.366377,103.181813 L103.820483,104.013259 L102.57104,104.7099 L101.947011,105.058188 L101.634271,105.23309 L101.477175,105.320541 C101.465304,105.373896 101.472756,105.439121 101.468272,105.49696 L101.411949,108.354556 C101.401595,109.466227 101.419336,110.537801 101.462336,111.628698 C101.540884,113.80304 101.718754,115.972963 101.970753,118.133982 C102.482072,122.46044 103.276519,126.742447 104.327384,131.022938 C106.171244,138.979212 109.193388,147.261615 112.946203,155.505502 C116.713923,163.765614 121.075929,171.962082 125.867804,179.996904 C126.63409,181.530993 132.230766,190.220974 138.986533,197.984605 C142.318448,201.901968 145.881588,205.594043 148.813378,208.427961 C151.777682,211.254494 154.07654,213.162063 154.739085,213.680769" id="Fill-17" fill="#262CEC" mask="url(#mask-2)"></path>
                        <path d="M167.092846,259.722286 L167.091396,259.580029 C166.96688,259.585899 167.012848,259.799383 167.092846,259.722286" id="Fill-18" fill="#262CEC" mask="url(#mask-2)"></path>
                        <polygon id="Fill-19" fill="#262CEC" mask="url(#mask-2)" points="141.906122 195.259308 142.058799 195.444564 141.608221 194.642731"></polygon>
                        <path d="M170.59419,232.19344 C170.632706,229.98942 170.603094,229.887196 170.554158,230.196968 C170.546771,230.992866 170.555675,231.690958 170.59419,232.19344" id="Fill-20" fill="#262CEC" mask="url(#mask-2)"></path>
                        <path d="M167.32882,277.731144 C167.319916,278.888724 167.394045,278.447036 167.477012,277.766718 C167.46369,276.586905 167.454786,275.764304 167.454786,275.764304 C167.414754,276.400151 167.370303,277.078986 167.32882,277.731144" id="Fill-21" fill="#262CEC" mask="url(#mask-2)"></path>
                        <path d="M169.017893,273.00675 L169.118666,273.366909 C169.093473,272.685106 169.056409,272.713267 169.017893,273.00675" id="Fill-22" fill="#262CEC" mask="url(#mask-2)"></path>
                        <path d="M92.3517193,276.046357 C92.1145592,275.772158 91.9782383,275.653585 92.3517193,276.046357" id="Fill-23" fill="#262CEC" mask="url(#mask-2)"></path>
                        <path d="M167.160908,153.507975 C167.160908,153.398299 167.159391,153.343427 167.159391,153.2323 C167.100101,153.032204 167.049714,152.845431 167.009682,152.66611 L167.160908,153.507975 Z" id="Fill-24" fill="#262CEC" mask="url(#mask-2)"></path>
                        <path d="M167.531421,108.175828 C167.537357,108.07057 167.541776,107.997958 167.547711,107.898636 C167.510647,107.922378 167.475099,107.867507 167.531421,108.175828" id="Fill-25" fill="#262CEC" mask="url(#mask-2)"></path>
                        <path d="M167.713908,257.963568 C167.71094,258.357824 167.724262,258.574209 167.74352,258.732822 C167.734617,258.503048 167.725713,258.271823 167.713908,257.963568" id="Fill-26" fill="#262CEC" mask="url(#mask-2)"></path>
                        <path d="M44.6138738,208.83765 C44.6138738,208.83765 44.6701961,208.935455 44.7131764,209.008067 C44.6464801,208.864294 44.5812676,208.720521 44.5101196,208.566393 L44.6138738,208.83765 Z" id="Fill-27" fill="#262CEC" mask="url(#mask-2)"></path>
                        <path d="M45.1406385,209.58171 C45.5852874,210.475413 44.9346138,209.383065 44.71377,209.008067 C45.1747286,210.007095 45.7023835,210.973476 46.2745027,211.929437 C46.3500893,211.879051 45.3199793,210.04561 45.1406385,209.58171" id="Fill-28" fill="#262CEC" mask="url(#mask-2)"></path>
                        <path d="M4.22893812,66.4490955 C4.22893812,66.5988045 4.22745554,66.7469966 4.24227739,66.8981566 C4.23634904,66.7202864 4.23190262,66.5824486 4.22893812,66.4490955" id="Fill-29" fill="#262CEC" mask="url(#mask-2)"></path>
                        <path d="M172.206629,253.512726 C172.214081,253.736564 172.222985,253.98553 172.228854,254.194529 C172.231822,253.840305 172.221468,253.647596 172.206629,253.512726" id="Fill-30" fill="#262CEC" mask="url(#mask-2)"></path>
                        <path d="M4.7745265,89.997397 L4.94201195,90.2419437 C4.86197436,90.0196225 4.81158046,89.9707528 4.7745265,89.997397" id="Fill-31" fill="#262CEC" mask="url(#mask-2)"></path>
                        <path d="M167.010474,152.665648 L166.954151,152.336618 C166.967473,152.449262 166.98528,152.554454 167.010474,152.665648" id="Fill-32" fill="#262CEC" mask="url(#mask-2)"></path>
                        <path d="M167.625534,66.2928574 C167.668534,66.2765674 167.705598,66.1816638 167.73521,66.0705362 C167.73521,66.0171818 167.73521,65.9786663 167.736727,65.9519561 L167.625534,66.2928574 Z" id="Fill-33" fill="#262CEC" mask="url(#mask-2)"></path>
                        <path d="M26.8175634,33.9513618 C26.8397955,33.9602652 26.8812985,33.9602652 26.9435498,33.9499109 L27.6431327,33.469655 C27.2533221,33.6831387 26.9835623,33.8402342 26.8175634,33.9513618" id="Fill-34" fill="#262CEC" mask="url(#mask-2)"></path>
                        <path d="M168.253718,8.83757914 C168.237362,8.7871925 168.222589,8.65080563 168.203265,8.64196818 C168.155846,9.62312268 168.144041,12.2154625 168.149911,15.5295712 L168.327781,15.7311837 L168.253718,8.83757914 Z" id="Fill-35" fill="#262CEC" mask="url(#mask-2)"></path>
                        <path d="M112.740238,4.42221903 L118.888265,3.86341537 C113.998585,4.62673338 109.765513,5.28631032 105.901439,5.88956502 C102.050752,6.5906252 98.5691273,7.22645975 95.174954,7.84600437 C91.8045231,8.59151559 88.5229942,9.32080284 85.0473054,10.0899905 C81.5849386,10.9096308 77.9758307,11.969399 73.8924684,13.0988115 L74.7802362,12.7860714 C74.1769815,12.9239092 73.6553083,13.0958437 72.7956357,13.376004 C71.9448665,13.6857763 70.7591317,14.1141287 68.824852,14.7425767 C66.9025093,15.4065724 64.1856802,16.116536 60.3883544,17.3912388 C58.4882043,18.0137512 56.3034819,18.7295844 53.7704453,19.5581281 C51.2314796,20.3481563 48.4375866,21.4805367 45.2079284,22.612917 L45.1945865,22.5802712 C44.3156628,22.9404961 44.348269,23.0042049 42.5533571,23.6237495 L47.0235885,22.0615659 C45.7415123,22.6381104 44.5231647,23.1864937 43.2055145,23.7793941 C41.8878577,24.4108099 40.4797952,25.0866768 38.7915987,25.8958968 C38.0460677,26.1938639 37.7659338,26.2412827 37.6725603,26.222025 L33.4750432,28.1784643 L29.3753515,30.3439027 L26.7430057,31.4510897 C24.2796332,32.8650813 25.6625024,32.6783737 18.9912388,36.2948682 C21.6309909,35.1387454 15.8490317,38.3625011 16.7739101,38.0779221 C16.4211509,38.2750499 15.6785811,38.6885633 15.0664428,39.0309155 C14.1386032,39.6697838 13.003255,40.4523595 11.7982493,41.2823541 C10.5843533,42.1019943 9.31708979,42.9927958 8.18174822,43.9473061 C5.87252062,45.7926178 3.81822765,47.467446 3.04156839,48.1774096 C3.04156839,48.1774096 3.94273014,47.5386072 5.35524175,46.5366781 C6.78109198,45.5569746 8.65900994,44.1384983 10.7577652,42.7911833 C12.8832042,41.5032243 15.1361069,40.1351347 17.1207338,38.9286913 C19.1290832,37.7903753 20.9165822,36.9291859 21.9659631,36.3941246 C16.5011891,39.517107 20.5608618,37.2730549 21.684352,36.7409614 L22.0015372,36.4549315 C25.2993691,34.6303944 25.3631042,34.7474576 27.0690877,33.9515597 C27.0601909,33.9367207 26.9994235,33.9441072 26.9431013,33.9485919 L26.7430057,34.0849128 C26.56811,34.1338485 26.6481482,34.0626873 26.8171149,33.9515597 C26.7533864,33.932236 26.8912242,33.8195916 27.8057285,33.3586593 L27.6426908,33.4698529 C29.0240761,32.7168892 31.4459456,31.4955408 32.5012555,30.9634473 L32.6020419,31.1131563 C33.7225643,30.2401616 38.071261,28.4615924 42.4955509,26.6133128 C46.9761631,24.8865812 51.636116,23.3183959 53.3643316,22.6203036 C55.1711015,22.1030491 57.1453542,21.3930855 59.2278063,20.6312184 C61.3072972,19.8649326 63.4875746,19.0290024 65.7553032,18.436168 C72.9037955,16.3062773 69.3999455,17.5912685 73.0179569,16.6442107 C77.5504461,15.5029269 72.0441889,16.6753396 73.8479514,16.1684395 L79.3261135,14.9797369 C76.1882921,15.830506 77.9224763,15.4836692 78.5153107,15.3991859 C80.8645548,14.828511 83.870408,14.0177741 86.5234888,13.5138418 C89.1617966,12.9639415 91.3821063,12.4600092 92.0698443,12.1220758 C93.6661247,11.818239 94.8681494,11.5884654 95.8196919,11.4061766 C96.7697834,11.2742744 97.464908,11.1764689 98.048905,11.0949533 C99.2094465,10.9393088 99.9090557,10.8488898 101.284466,10.6013753 C100.352181,10.7095351 98.5113541,10.9926632 98.483193,10.9244698 C101.081402,10.5998584 99.7030245,10.6576976 98.6447072,10.8192778 C99.6170243,10.5984075 101.382337,10.291603 103.494421,9.94621711 C105.605054,9.58902596 108.061007,9.20815836 110.438412,8.95319141 C115.184319,8.38258251 119.5241,7.80452113 119.918355,7.5895865 L119.928776,7.66074773 C120.810674,7.26352426 119.295843,7.15384759 122.04231,6.67359169 L123.905429,6.58910833 L126.674122,6.1430151 C128.550563,6.02146722 127.641954,6.20527293 127.644922,6.24082058 C128.772884,6.07627258 130.016458,5.91772614 131.332578,5.76208155 C132.653183,5.65834047 134.043498,5.55011472 135.466393,5.43898712 C138.310666,5.23737461 141.278004,5.02989245 144.030407,4.83573242 L138.135764,4.51850763 C142.801672,4.22212339 151.23075,4.25173544 152.146745,3.94493092 L154.956987,4.0753822 C164.313931,4.3154442 161.478495,3.7151573 165.212119,3.78189981 L166.351886,3.83373737 L166.91069,3.86044757 L167.285688,3.89005961 L168.631486,4.00863969 L168.622582,4.10057552 L168.622582,4.01754308 L165.238829,4.06792972 C165.720536,4.0753822 166.174082,4.08276872 166.599466,4.09015524 C166.886947,4.10057552 167.158204,4.10947892 167.413171,4.11831636 C167.808878,4.14205876 168.154263,4.16283335 168.462519,4.18209108 C168.418068,4.72157106 168.381003,5.20182696 168.342488,5.69830684 C168.29652,6.59504393 168.250552,7.51842526 168.195747,8.60041899 C168.197198,8.61083926 168.201682,8.63154791 168.203133,8.64196818 C168.216521,8.38403343 168.229843,8.21803452 168.246133,8.18248687 L168.25352,8.83757914 C168.400261,9.4052862 168.498133,11.8478511 168.489229,15.1487036 C168.44768,19.8338037 168.662615,23.4992339 168.354359,30.9812541 L168.653711,32.8487914 L168.475841,38.4662422 L168.23723,38.4662422 C168.217972,32.9629527 168.176489,22.6024968 168.149779,15.5295712 L168.04307,15.4036046 C168.071231,19.5951926 168.105328,24.3707776 168.123135,27.1438894 C168.07565,28.4956232 167.829652,31.9535712 167.669589,29.4427469 L167.902264,32.0350867 C167.927458,46.0386814 167.939329,46.1291003 167.67104,60.7432703 L167.791137,59.474569 C167.859264,62.3737133 167.927458,65.2639543 167.734814,66.0702065 C167.696233,74.8446704 167.548041,83.9348422 167.245655,89.6308408 L167.525815,90.8788334 C167.50946,92.7315977 167.08856,95.5106451 167.479848,96.4118009 L167.602846,100.370713 C167.582138,102.903697 167.740684,104.455593 167.580621,107.339898 L167.57917,107.354671 C167.56875,107.53109 167.556944,107.716347 167.548041,107.898636 C167.555428,107.898636 167.56288,107.883863 167.570267,107.867507 C167.445751,113.599119 167.820749,107.811184 167.660685,114.375759 C167.46059,116.480456 168.013458,116.704228 167.9512,119.902791 L167.549492,123.113158 C167.319784,128.908479 167.722943,129.900054 167.724394,138.296552 C167.580621,142.329528 167.23972,144.27713 166.934432,141.607759 C167.303494,145.277608 167.174494,143.278169 167.350913,148.148591 C167.199687,148.898521 167.168624,148.378299 167.032237,147.302241 C166.855884,151.627248 167.168624,149.971611 167.159721,153.232432 C167.4443,154.181006 167.897846,155.271903 167.915586,156.331672 L168.004554,155.070291 C168.157231,158.522303 168.228327,162.295893 168.084553,166.311128 L167.94078,166.159902 L168.013458,170.434523 L167.831103,170.702812 L167.887425,176.804937 L167.936361,175.96749 C167.961554,177.400739 168.023812,182.105163 167.927458,184.793792 L167.826684,184.697503 C167.50946,192.286232 167.92449,198.543936 167.958587,207.432562 L167.751104,206.264568 C167.545073,209.292646 168.071231,207.094628 167.96749,210.70367 L167.712523,210.883057 C168.047489,214.059328 167.641428,214.988645 167.513944,217.177826 L167.84891,216.155122 L167.779266,220.277066 C167.668072,224.816941 167.356849,223.063565 167.18043,222.398053 L167.4443,225.48984 L167.149301,226.094612 C167.491719,228.35192 167.094495,228.35192 167.278301,232.312284 C167.167107,232.638412 167.103399,231.636417 167.05598,232.982281 L167.472461,239.508274 L167.287138,235.573104 L167.718459,236.051843 C168.044587,240.151495 167.67104,241.605519 167.791137,244.534341 L167.663653,242.518546 C167.767394,247.297099 167.585105,247.552 167.488751,250.248081 C167.56875,249.412151 167.68733,248.13448 167.743652,250.06876 C167.768845,251.488687 167.594009,250.839464 167.546524,252.180844 C167.83262,252.502487 167.98378,255.930757 167.850361,259.038835 C167.807427,259.001836 167.768845,258.935094 167.742201,258.73203 C167.78962,259.525026 167.862232,259.935572 167.795555,261.315467 L167.475429,260.503279 L167.779266,263.159327 C167.691814,264.931961 167.923039,267.516914 167.708104,267.284173 L167.644396,266.276308 L167.567299,279.69888 L167.310881,279.885634 C167.663653,281.210697 167.178979,287.194229 167.616234,286.754025 C167.377557,289.285578 167.786652,296.723128 167.291623,295.233543 C167.253108,304.050994 167.728879,308.814694 167.488751,319.535257 C167.278301,321.44282 167.20714,325.011889 167.181946,328.964846 C167.178979,329.986066 167.176011,331.057679 167.171526,332.095201 C167.205623,332.231555 167.08856,332.142627 167.018915,332.120395 C166.830625,332.038873 166.649853,331.960318 166.480886,331.887693 C164.957218,331.257768 163.461645,330.75828 162.089203,330.094265 C160.709308,329.445069 159.378283,328.818111 158.079903,328.208941 C156.790428,327.579015 155.490531,327.046915 154.278152,326.372526 C153.059772,325.709994 151.85623,325.054875 150.649787,324.39975 C149.444728,323.743148 148.235317,323.086545 147.008033,322.418085 C145.816428,321.682928 144.608402,320.937397 143.366345,320.169627 C142.122837,319.40038 140.846683,318.610385 139.520143,317.789261 C138.199538,316.957762 136.893706,315.991381 135.488618,315.033896 C133.917531,313.713278 132.036606,312.401557 130.123167,310.895669 C128.212629,309.386814 126.168673,307.830533 124.10104,306.266839 C122.028988,304.713525 120.065096,302.982342 118.124947,301.381597 C116.189216,299.774922 114.36613,298.184551 112.830591,296.594173 L110.902312,295.120898 C109.889963,294.053731 108.701261,292.894673 107.398463,291.664467 C106.126727,290.395726 104.763123,289.038057 103.344712,287.625543 C101.929204,286.210067 100.447085,284.757541 98.9974796,283.251646 C97.5894237,281.705739 96.1902711,280.131671 94.8607629,278.556126 C93.4186102,277.142128 92.6760009,276.384739 92.3514555,276.046805 C92.5960022,276.328416 92.9487746,276.774549 92.9605799,277.005767 C91.3954284,275.250874 88.2561561,271.665502 88.6860254,271.74405 L89.0965709,272.178338 C89.5664066,272.231692 84.2973095,266.886949 82.8788333,264.65035 L83.5324746,265.978407 L80.7904917,262.458267 L81.5834218,263.353487 C78.4248917,259.679154 75.7303277,256.476173 73.4788891,253.373965 C71.2023231,250.291081 69.0738833,247.532742 67.191507,244.644018 C65.2558093,241.789325 63.3452851,238.970245 61.2776588,235.922909 C59.2796835,232.828087 57.065316,229.543591 54.48337,225.786291 C56.0218707,227.674603 52.4824401,222.802663 52.6810452,222.401021 C50.7453277,218.210884 48.1574528,215.199161 46.2736124,211.929437 C46.2587866,211.939857 46.2172901,211.910179 46.0868587,211.735277 L42.9357547,205.953344 C45.2612894,209.16668 40.2915575,201.991464 42.3977257,204.958802 C40.4634921,201.108115 38.3958592,196.990656 36.2333688,192.684907 C34.2013033,188.309513 31.9721166,183.797798 29.9044837,179.121536 C27.8827989,174.426015 25.7277215,169.69343 23.9165065,164.860072 C22.9886602,162.452989 22.0030145,160.077101 21.150768,157.67747 C20.320747,155.271903 19.4981456,152.890014 18.6888794,150.542286 L18.8608073,151.40341 C18.4413518,150.216224 17.9967029,148.957811 17.5446411,147.67869 C17.1355596,146.387763 16.7205491,145.077512 16.3159193,143.804326 C15.5140595,141.254987 14.7774187,138.843485 14.3046087,136.992237 C13.4760716,133.260131 11.8234492,129.013671 11.4128838,127.586358 C10.1545171,123.580026 9.80769342,119.750114 10.1574849,121.51391 C9.64317181,119.336601 9.00731748,117.254129 8.43223709,114.933046 C7.90902724,112.603059 7.37692718,110.050752 6.90707836,106.978222 C6.84631102,105.911067 6.20897411,101.731351 5.55978183,97.7887279 C5.40415372,96.8016378 5.25148946,95.8293208 5.10920128,94.9266481 C5.01434184,94.0151379 4.92689332,93.1747231 4.85278473,92.457373 C4.7164249,91.0137034 4.66603101,90.0532576 4.77422972,89.9969353 L4.73124675,89.9332266 C4.25991535,82.0124996 3.624063,74.5245438 4.19914603,65.9961434 C4.19914603,65.9961434 4.21989688,66.1591745 4.22878973,66.4496891 L4.19469961,57.9419973 L4.7193894,49.4164988 L4.73865767,49.0919534 L4.46445543,49.1126621 L4.03166058,49.1482757 L4.46445543,49.2801779 L4.58895791,49.3172424 L4.55635037,49.3883377 L2.54059395,53.710377 L1.69723702,57.4810651 L1.08954579,61.2887518 C0.716038334,63.8336068 0.213581248,66.3888822 0.0372025598,68.9560287 C-0.254785648,82.9166232 1.2036735,96.8046056 3.75894091,110.424299 C4.58451149,115.899427 5.82212673,121.290072 6.9648845,126.705976 C8.33885693,132.058106 9.56906256,137.46359 11.2187238,142.740139 C19.1409412,168.483953 30.4291775,193.034711 43.7050017,216.365572 C44.7291893,217.988562 45.8586019,219.549295 46.9302149,221.142674 C48.8525905,224.599105 50.9009591,228.314856 53.3139383,231.989189 C55.6824533,235.691684 58.1146969,239.543822 60.8033583,243.269993 C62.1210151,245.152369 63.4416265,247.040681 64.7622445,248.925959 C66.0947403,250.8024 67.5027962,252.615132 68.8485944,254.448572 C70.2003281,256.279045 71.5372887,258.091777 72.8578935,259.87925 C74.2081104,261.632691 75.5391355,263.360874 76.8464181,265.059445 L77.298447,265.149863 C80.3176883,268.889357 79.9486259,268.770843 80.6882016,269.70161 C87.8900615,278.270063 95.5544366,286.559859 103.624873,294.409451 C111.784211,302.167147 120.342289,309.475749 129.28572,316.074387 C138.224732,322.675986 147.660223,328.406068 157.33736,333.122344 C158.546771,333.713732 159.753281,334.302155 160.955305,334.890578 C162.194395,335.403409 163.429065,335.913277 164.660768,336.423145 C166.760981,337.290217 168.855324,338.152842 170.942214,339.013985 L171.75737,339.35192 L171.96195,339.434922 L172.062723,339.477905 L172.062723,339.366742 L172.06424,338.929501 L172.068659,337.176089 L172.077562,333.670749 C172.11311,328.228205 172.148724,322.864224 172.182754,317.592133 C172.378431,313.736994 172.262819,302.010038 172.470301,298.986404 C172.108691,286.001082 172.11311,272.242047 172.150175,259.240447 L172.181304,259.732508 L172.124981,253.608157 C172.148724,253.348772 172.184271,253.317643 172.206497,253.51332 C171.94566,246.603425 172.203529,235.721296 172.310238,227.261089 L172.342884,227.756118 C172.396238,178.402669 171.846338,132.584264 172.256883,83.6354902 C172.73859,60.8782062 172.074595,34.4035885 172.476237,8.29216355 C172.498462,7.9201334 172.517786,7.25903959 172.535527,6.34159385 C172.547398,4.6697335 172.56072,2.53687497 172.577076,-0.000593559889 C169.949123,0.0335031582 166.787691,0.0720185999 163.25568,0.11646964 C160.787856,0.169824079 158.057678,0.143179835 155.188212,0.283985431 C149.449213,0.571532222 143.126283,0.822014495 137.161996,1.41781672 C125.215679,2.38419817 114.689291,4.04722108 112.740238,4.42221903" id="Fill-36" fill="#262CEC" mask="url(#mask-2)"></path>
                        <path d="M37.6719667,26.222025 L37.8572365,26.1345738 C37.7979465,26.0263481 37.5370835,26.1953148 37.6719667,26.222025" id="Fill-37" fill="#262CEC" mask="url(#mask-2)"></path>
                        <path d="M144.373946,4.82234434 C144.256883,4.82682902 144.142721,4.83124774 144.031594,4.83573242 L145.332941,4.94686002 L144.373946,4.82234434 Z" id="Fill-38" fill="#262CEC" mask="url(#mask-2)"></path>
                        <path d="M75.7872435,16.1615806 C78.8212578,15.4012303 78.95316,15.3345538 78.5159043,15.3997794 C77.4205884,15.6798737 76.4660782,15.9422272 75.7872435,16.1615806" id="Fill-39" fill="#262CEC" mask="url(#mask-2)"></path>
                        <path d="M15.0296882,38.8784365 C13.6364449,39.8047857 14.2070802,39.5098524 15.0652557,39.0311133 C15.7692902,38.5478896 16.3651254,38.1403118 16.7860649,37.852765 C17.2025527,37.5563149 17.4648996,37.4199939 17.4648996,37.4199939 C16.6452527,37.8735396 15.8522897,38.3745042 15.0296882,38.8784365" id="Fill-40" fill="#262CEC" mask="url(#mask-2)"></path>
                        <path d="M21.6849455,36.7405657 L21.2921671,37.0888535 C22.1177364,36.5745668 22.064382,36.5626956 21.6849455,36.7405657" id="Fill-41" fill="#262CEC" mask="url(#mask-2)"></path>
                        <path d="M86.0510152,112.904522 C85.7456616,113.325488 85.6256306,113.555195 86.0510152,112.904522" id="Fill-42" fill="#262CEC" mask="url(#mask-2)"></path>
                        <path d="M121.445189,176.005412 C121.412543,176.196604 121.394803,176.289991 121.360706,176.478215 C121.390318,176.842859 121.375479,177.170438 121.363674,177.493533 C121.412543,176.999955 121.439254,176.504926 121.445189,176.005412" id="Fill-43" fill="#262CEC" mask="url(#mask-2)"></path>
                        <path d="M112.711285,200.82901 C112.788382,200.704494 112.841736,200.61856 112.912898,200.502948 C112.85064,200.507366 112.840286,200.415497 112.711285,200.82901" id="Fill-44" fill="#262CEC" mask="url(#mask-2)"></path>
                        <path d="M84.8568386,175.50326 C84.6996771,175.703356 84.5796461,175.857484 84.4788729,175.983516 C84.4062607,176.070901 84.3587759,176.14358 84.3202605,176.207288 C84.4788729,175.998289 84.6403871,175.786388 84.8568386,175.50326" id="Fill-45" fill="#262CEC" mask="url(#mask-2)"></path>
                        <path d="M103.666224,73.3635406 C103.666224,73.3635406 103.615771,73.5236699 103.578773,73.642184 C103.669126,73.4228307 103.758094,73.2034773 103.854448,72.9722528 L103.666224,73.3635406 Z" id="Fill-46" fill="#262CEC" mask="url(#mask-2)"></path>
                        <path d="M103.373929,74.6879046 C102.815125,76.0559283 103.399122,74.2654878 103.57996,73.6429754 C102.958898,75.1577403 102.351225,76.6502796 101.774614,78.1769156 C101.919905,78.2332379 103.053736,75.3548681 103.373929,74.6879046" id="Fill-47" fill="#262CEC" mask="url(#mask-2)"></path>
                        <path d="M52.5732943,93.7753397 L52.3568956,94.3726588 C52.4532369,94.1295631 52.5169721,93.9457574 52.5732943,93.7753397" id="Fill-48" fill="#262CEC" mask="url(#mask-2)"></path>
                        <path d="M93.9742483,174.453912 C93.8023137,174.739942 93.6081537,175.060069 93.4495413,175.32539 C93.7400559,174.883716 93.8823784,174.633233 93.9742483,174.453912" id="Fill-49" fill="#262CEC" mask="url(#mask-2)"></path>
                        <path d="M61.3012232,79.0505039 L61.2982554,78.6266362 C61.2122947,78.9511815 61.2345268,79.0475361 61.3012232,79.0505039" id="Fill-50" fill="#262CEC" mask="url(#mask-2)"></path>
                        <path d="M121.364069,177.493401 C121.347779,177.687561 121.329973,177.881721 121.300361,178.071396 C121.338876,177.880204 121.353715,177.693496 121.364069,177.493401" id="Fill-51" fill="#262CEC" mask="url(#mask-2)"></path>
                        <path d="M117.709323,223.067391 C117.639679,223.102938 117.581906,223.163745 117.53297,223.234906 C117.53297,223.255615 117.531453,223.271905 117.531453,223.283776 C117.589292,223.205228 117.650033,223.132616 117.709323,223.067391" id="Fill-52" fill="#262CEC" mask="url(#mask-2)"></path>
                        <path d="M163.135583,249.302144 C163.180034,249.211725 163.223034,249.091694 163.257131,248.937567 C163.052616,248.710761 162.828778,248.503279 162.578296,248.323957 C162.846585,248.805664 163.012584,249.128759 163.135583,249.302144" id="Fill-53" fill="#262CEC" mask="url(#mask-2)"></path>
                        <path d="M130.15146,233.208164 C130.133653,233.277808 130.04917,233.439322 130.064009,233.466032 C130.849552,232.416684 132.992765,229.698378 135.985296,226.08927 L135.958586,225.699433 C133.933953,228.241386 131.906352,230.679532 130.15146,233.208164" id="Fill-54" fill="#262CEC" mask="url(#mask-2)"></path>
                        <path d="M143.110389,230.145394 C144.933475,227.929504 146.691336,225.793677 148.268358,223.601595 C144.863831,229.125659 140.904918,233.793018 138.017645,238.844278 C136.545814,241.360972 135.364564,243.94586 134.504892,246.679005 C134.083926,248.091546 133.743025,249.670019 133.818671,251.467912 C133.858637,252.360165 134.02912,253.311773 134.358151,254.232187 C134.703536,255.216309 135.302306,256.196078 136.000399,256.932686 C136.708911,257.688618 137.541874,258.31113 138.531932,258.766127 C139.514669,259.213737 140.692951,259.504252 141.985395,259.387188 C143.269001,259.290834 144.59996,258.693515 145.458182,257.979132 C146.337112,257.266201 146.892882,256.523592 147.319784,255.909983 C148.812323,253.66448 149.993639,251.485719 151.136374,249.188313 C153.414457,244.646986 155.305736,239.862497 158.275976,235.416008 L157.705367,236.459421 C158.535362,235.389298 158.898488,234.262853 161.307023,231.630481 L156.103151,230.114266 C156.32844,230.990228 156.513697,232.09293 156.181699,233.581051 C155.879313,235.061719 155.078931,236.917451 153.564166,239.0666 C152.81417,240.141141 151.898175,241.28836 150.81473,242.521514 C149.765382,243.726506 148.418067,245.12124 147.052946,246.804972 C145.692309,248.469512 144.288737,250.405176 143.051099,252.834485 C142.45378,254.069156 141.905396,255.434211 141.52598,256.98459 C141.165755,258.543806 141.013144,260.313537 141.254723,262.151397 L141.201368,262.1603 C141.371786,263.27494 141.589689,263.66326 141.874267,264.631092 L143.464612,270.032157 L147.863748,266.254083 C148.222391,265.945761 148.739711,265.553023 149.572673,264.891995 L147.842974,266.23034 L143.514999,269.577095 L141.905396,264.620738 C141.266594,262.659814 141.116885,260.53731 141.389593,258.606064 C141.245819,260.59073 141.54227,262.606459 142.293716,264.476964 L144.13606,269.056873 L147.579169,265.910214 C149.408125,264.238353 151.306791,262.421203 153.635327,260.045248 C154.481611,259.277512 154.847706,259.040352 154.96035,259.047738 C155.350187,258.614967 155.731121,258.146582 156.117924,257.624843 C156.337343,257.328459 156.556697,257.01717 156.77605,256.689591 C156.784954,256.714784 156.789372,256.744462 156.789372,256.781526 C156.790889,256.82301 156.783437,256.821559 156.793791,256.999363 C156.802694,257.272137 156.777501,257.543328 156.722696,257.799745 C157.008726,257.789391 157.468207,257.343232 157.777979,257.369942 C157.92472,257.386232 158.025494,257.543328 157.932107,257.916875 C157.844656,258.281452 157.521561,258.8669 157.026532,259.498316 C157.637174,258.948482 157.577884,259.201932 157.31553,259.738444 C157.253272,259.868895 157.186596,260.005216 157.125855,260.1327 C157.020597,260.371311 156.921274,260.592181 156.841276,260.773019 C156.553729,261.445918 156.449988,261.850528 156.654502,261.50224 C156.355084,262.059527 155.714831,263.463164 155.579895,264.97351 C155.547315,265.831666 155.658443,266.876595 156.089763,267.908202 L156.257279,268.290587 C156.331408,268.437328 156.430664,268.604778 156.525568,268.758971 C156.710825,269.083583 156.945017,269.34587 157.188047,269.614159 C157.680174,270.118092 158.246364,270.512347 158.831812,270.782153 C160.011611,271.326052 161.268507,271.539536 162.719563,271.244536 C163.447268,271.069634 164.246199,270.759862 164.975421,270.089931 C165.70761,269.418548 166.184898,268.435811 166.324186,267.525818 L160.972057,267.138949 C161.041701,269.483708 160.672639,271.870017 160.103547,273.798348 C159.547711,275.734065 158.83478,277.213276 158.495329,277.973626 C158.495329,277.973626 158.665813,277.693499 158.96965,277.192521 C159.270519,276.687105 159.672227,275.938606 160.096094,274.982605 C160.943896,273.077977 161.791697,270.267801 161.916213,267.128594 L165.391902,267.379077 C165.252613,268.204652 164.714584,269.085034 164.003103,269.559354 C163.296108,270.048447 162.550596,270.215963 161.87473,270.249994 C160.527415,270.285607 159.272035,269.85277 158.261203,268.877551 C157.208821,267.756976 157.022048,266.517887 157.023565,265.412217 C157.047241,264.293159 157.357079,263.328294 157.711303,262.480493 C157.893592,262.058076 158.086301,261.657885 158.295234,261.285855 C158.490911,260.931565 158.627298,260.728568 158.79178,260.47802 C159.132681,259.980023 159.454324,259.508736 159.753742,259.068513 C160.385158,258.158453 160.94838,257.303266 161.360377,256.611043 C159.561033,259.871863 159.2661,260.186054 159.65442,259.692476 C160.019064,259.175222 161.032864,257.641199 161.508635,256.874913 C161.523408,256.751848 161.532312,256.634785 161.535279,256.519173 C162.605402,254.430765 162.96411,253.041967 163.223496,251.930361 C163.460656,250.81282 163.642945,249.922019 163.37914,248.561381 C163.330204,248.629575 163.300592,248.785154 163.257592,248.93783 L163.417656,249.140894 C163.370237,249.517409 163.26056,249.475859 163.136044,249.302474 C162.989303,249.548472 162.956723,249.424022 162.402338,248.198255 L162.578758,248.324221 C162.340147,247.898837 161.994761,247.411194 161.542732,246.968069 C161.434506,246.85094 161.301087,246.756102 161.181056,246.647876 C161.151444,246.627168 161.11583,246.578232 161.090637,246.582651 L161.020993,246.68349 L160.883155,246.886487 L160.330287,247.689838 C159.584776,248.737735 158.857005,249.710052 158.394556,250.292532 L158.562072,249.684858 C158.361976,249.999115 158.120397,250.36521 157.823947,250.765401 C156.783437,252.198651 155.173834,254.110639 152.953524,256.339852 C150.710989,258.595709 147.961554,260.993823 145.229925,263.076295 L145.753115,263.218617 C144.983862,260.71518 145.376667,258.177711 146.154758,256.261238 C146.900335,254.318121 147.842974,252.877485 148.391357,252.008909 C149.882446,249.90718 151.715886,247.74616 153.749422,245.336175 C155.726636,242.900931 157.74685,240.210785 159.160842,237.067094 C160.445899,233.990146 160.401448,231.995125 160.379222,230.907196 C160.346577,229.789654 160.272514,229.447236 160.303577,229.081142 L160.482964,226.843091 L158.321944,228.504597 C157.972139,228.771369 157.491949,228.950756 156.012732,230.563327 C151.699596,235.900617 157.065048,229.631042 155.421349,231.832094 C153.667907,233.910081 152.18869,236.185196 150.842891,238.491506 C153.054298,234.375498 151.704015,236.518711 151.182342,237.219771 C149.480803,240.271592 147.568749,244.249762 145.827244,247.511968 C144.113835,250.737174 142.379651,253.507384 142.209233,253.824543 C141.951364,254.017252 141.783849,254.066188 141.614882,254.083929 C141.442947,254.101735 141.24727,254.073574 141.047175,254.002413 C140.642565,253.866092 140.261631,253.571093 140.017085,253.273192 C139.757699,252.970872 139.631732,252.696647 139.55912,252.438712 C139.468701,252.142328 139.427218,251.848846 139.41383,251.576138 C139.394572,250.458531 139.551668,249.687826 140.054149,248.045578 C139.827409,248.589543 139.57541,249.391376 139.447927,250.027277 C139.316024,250.664562 139.298218,251.131496 139.243412,251.143301 C139.35454,249.790116 139.538346,249.379505 139.42425,249.552956 C139.336799,249.711569 139.14409,250.394822 139.126283,250.961012 C139.092252,250.434854 139.154444,249.643375 139.434604,248.639929 C139.717667,247.646904 140.183083,246.400362 140.781919,245.130144 C141.966137,242.561546 143.809998,239.755789 145.772373,237.11603 C147.724394,234.476271 149.738672,231.937286 151.176406,229.881524 C152.622978,227.830181 153.51523,226.302094 153.54194,225.962644 L153.63381,226.017515 C153.790906,225.319423 153.500457,225.387616 153.404102,225.174133 C153.284005,224.948844 153.454489,224.527944 154.248936,222.574406 C154.692127,221.750347 155.087834,220.881771 155.391671,219.946519 C155.69254,218.513269 155.784475,216.914021 155.290897,215.348804 C154.875867,213.746588 154.492032,213.402719 154.577966,213.356817 C154.619449,213.319752 154.898093,213.647265 154.911481,213.641396 C154.752868,213.387946 154.566095,213.150786 154.370484,212.882497 L153.343295,211.478859 L152.050852,212.673497 C149.654189,214.890839 146.980333,217.665468 144.595542,220.871417 C142.20033,224.064044 140.101568,227.679021 138.606061,231.252582 C140.060085,228.787725 141.700816,226.474029 143.512031,224.347106 C141.604527,227.038702 139.353089,231.175485 137.99687,234.929817 C136.649621,238.661924 135.41937,241.537326 135.271178,242.161355 C134.601246,243.232994 133.854218,244.22602 133.009385,245.063467 C130.974332,247.271906 129.194245,247.879579 128.106316,247.99961 C127.082161,248.098932 126.587133,247.883998 126.186941,247.723934 C125.801589,247.554968 125.534751,247.424516 125.266528,247.1311 C125.023432,246.843553 124.689917,246.375168 124.584725,245.270949 C124.446887,243.400444 125.107915,241.509165 125.9542,239.63279 C125.239818,241.550714 124.744789,243.453799 125.005625,245.183498 C124.890013,243.88657 125.116819,242.696416 125.45772,241.664809 C125.792686,240.578397 126.194328,239.644595 126.625648,238.765665 C127.495675,237.010772 128.509475,235.476749 130.043564,233.517342 L130.064272,233.465439 C129.855339,233.738147 129.711566,233.907113 129.664081,233.930856 L130.151723,233.20757 C130.394819,232.450122 132.256421,229.739268 135.250403,226.183514 C137.364004,223.669722 139.207799,221.198996 140.986434,218.108659 C141.431076,217.330502 141.862396,216.501959 142.295167,215.617093 C142.403393,215.378482 142.51307,215.136903 142.622747,214.890839 C142.768037,214.575131 142.905875,214.257973 143.031841,213.933361 C143.25713,213.282688 143.531355,212.609789 143.740288,211.920534 C144.124189,210.546575 144.494768,209.070325 144.594025,207.604496 C144.754154,206.106021 144.681476,204.651997 144.545155,202.999329 C144.4058,202.538396 144.30351,202.117497 144.139028,201.650563 L143.91519,200.979181 L143.804063,200.653052 C143.759612,200.559732 143.648418,200.614537 143.572838,200.593762 L143.466129,200.533021 L141.322916,201.583886 L139.313057,202.697009 C138.635739,203.039361 137.97913,203.534456 137.304714,203.971646 L136.290913,204.647513 C135.95298,204.875769 135.625401,205.212252 135.288984,205.489444 L135.197048,205.102575 C135.486112,204.841673 135.785464,204.571933 136.092269,204.296257 C136.405009,204.081322 136.723685,203.861969 137.051264,203.633712 C137.707873,203.197973 138.392643,202.671816 139.117446,202.246431 C139.842182,201.826982 140.596597,201.391177 141.374754,200.939148 C142.224072,200.487053 143.100035,200.023153 144.002641,199.544414 C144.327253,199.648155 144.339124,200.506311 144.469575,201.094793 C144.592574,201.754304 144.648896,202.33685 144.743734,202.972684 C144.903797,204.201419 145.013474,205.431605 145.00312,206.761113 C144.957152,208.106912 144.819314,209.541678 144.426575,211.065346 C144.32877,211.444763 144.251673,211.822728 144.140479,212.205113 L143.746223,213.358268 C143.61287,213.74362 143.488355,214.128972 143.328291,214.509906 L142.886617,215.535577 C140.995337,219.730133 138.278482,223.278434 135.984109,226.090127 L135.998948,226.328804 C137.881258,224.061076 139.876279,221.366446 141.391044,218.700043 C141.763074,218.021208 142.138072,217.369018 142.452329,216.697636 C142.610875,216.362604 142.778391,216.043994 142.920648,215.714898 C143.100035,215.296966 143.274937,214.887872 143.448322,214.489197 C143.787773,213.56575 144.101964,212.676465 144.342092,211.853857 C144.519962,211.041604 144.779347,210.251641 144.85196,209.58171 C145.195829,208.194363 145.327731,205.914763 145.344021,204.520095 C145.311441,203.149038 145.419601,202.513203 145.76347,204.70977 C145.517472,203.214263 145.191344,201.844723 144.831185,200.312151 C144.767476,199.929767 144.705218,199.554769 144.651864,199.236093 C144.579252,198.964902 144.46509,198.880419 144.420639,198.772193 C142.923615,199.557737 141.505205,200.297378 140.349082,200.96876 C139.142639,201.598725 138.007291,202.376816 136.932684,203.107554 C136.662944,203.288392 136.399139,203.466262 136.138237,203.641165 C135.875883,203.820486 135.620982,204.088775 135.368983,204.303644 C134.865051,204.757189 134.37299,205.197413 133.895701,205.627282 C133.413995,206.048182 132.951545,206.476534 132.517323,206.940434 C132.140809,207.3614 131.773263,207.771946 131.413104,208.175105 C129.375083,210.543607 127.900351,212.575692 126.450746,214.604809 C124.992303,216.624958 123.562022,218.69259 121.701871,221.081867 C121.227551,221.659928 120.729554,222.269119 120.203396,222.91234 C119.86843,223.287338 119.625335,223.533401 119.34524,223.823916 C118.928759,224.19001 118.494471,224.572395 117.981635,224.825845 C118.064602,224.856974 118.166892,224.873264 118.289891,224.876231 C118.080958,225.054102 117.871959,225.233423 117.670346,225.403906 C117.289413,224.738394 117.29238,223.568949 117.532508,223.2355 C117.542929,223.01463 117.559219,222.796727 117.58738,222.580342 L117.683734,221.935604 C117.725217,221.59767 117.79783,221.265673 117.866023,220.932158 C118.13728,219.601199 118.522632,218.296884 119.014693,217.05331 C120.028494,214.536616 121.40397,212.439305 123.167766,210.361318 C124.906303,208.280363 126.865776,206.193472 128.490217,203.850098 C129.286181,202.704395 130.049499,201.406016 130.605269,200.10025 C131.162622,198.804839 131.55391,197.515297 131.802875,196.255499 C131.770295,195.490664 131.694715,194.730314 131.559845,193.975899 C131.582071,192.72639 131.507942,191.161238 131.044042,189.602022 C130.603818,188.042741 129.723371,186.557588 128.795571,185.619368 L126.335133,183.133802 L123.93847,185.167339 C123.404926,185.620884 123.001767,186.038816 122.807607,186.388621 C121.217196,187.830774 119.80914,189.428571 118.664889,191.101948 C116.320129,194.220446 115.484133,196.378498 113.329049,199.83638 C113.323179,199.843832 113.317244,199.854187 113.317244,199.854187 C113.186793,200.064637 113.048955,200.286958 112.912568,200.503409 C112.924439,200.510796 112.943697,200.495957 112.964471,200.481118 C111.006515,203.922776 111.090999,203.885711 111.107289,204.048743 C111.114741,204.121355 111.10287,204.223645 110.800484,204.773545 C110.490712,205.313025 109.915618,206.338697 108.652786,208.007655 C108.217048,208.533813 107.873179,208.892455 107.624213,209.288228 C107.397407,209.654322 107.106893,210.081158 106.972023,210.34206 C106.937926,210.6118 106.703734,211.225409 105.92861,211.461118 C105.451322,211.409215 105.048163,210.980863 105.153421,210.423576 C105.122292,210.168609 105.188969,209.962644 105.214162,209.793611 C105.240872,209.593581 105.266066,209.412743 105.289742,209.240809 C105.448354,207.917236 105.638096,206.737371 105.870771,205.456799 C106.107931,204.176226 106.435511,202.80075 106.976507,201.119986 C107.523374,199.443641 108.310434,197.461943 109.645878,195.093441 C111.02729,192.886519 112.355281,191.444366 113.059309,190.838144 C113.766305,190.24676 113.78853,190.603952 112.93631,192.163167 C114.139852,190.040729 114.47185,189.490829 114.900202,188.820898 C115.327038,188.109417 115.982196,187.396486 117.903088,184.159474 C118.696018,183.261286 118.343245,184.014184 117.597734,185.521562 C119.549755,182.769159 119.921785,181.61607 120.234525,180.757848 C120.476104,179.85966 120.741425,179.237148 121.36097,176.478809 C121.280971,175.804459 121.224649,174.233306 120.983004,173.069797 C120.763651,171.848514 120.455395,170.751682 120.176752,169.687495 C120.353105,170.569393 120.422749,171.504645 120.422749,172.438447 C120.304169,170.793231 119.929171,169.235466 119.312594,167.888151 C119.002822,167.216703 118.647148,166.588255 118.263247,165.958356 L117.667378,164.996459 L117.348703,164.502881 C117.244962,164.32943 117.138253,164.16198 117.001932,164.107108 C115.014298,164.963813 113.269759,165.616004 111.461512,166.954349 C111.018386,167.280477 110.591485,167.680669 110.14981,168.043795 C109.714072,168.421761 109.324235,168.896015 108.901818,169.3214 C108.692819,169.537786 108.489755,169.764591 108.303048,170.010589 L107.816856,170.622747 C107.536762,170.965165 107.305537,171.325324 107.043184,171.679548 L106.994248,171.365357 C105.793674,173.232894 104.873261,175.144882 104.040299,177.016838 L103.628236,177.25103 C102.421793,179.948628 101.403508,182.447515 100.125903,184.854599 L100.712802,183.894153 C100.290385,184.759761 99.3536815,186.59762 98.1634621,188.53777 C97.8596253,189.018025 97.5484021,189.508636 97.2371129,189.999246 C96.9703407,190.391985 96.7050195,190.783273 96.4471507,191.164206 C96.1936346,191.515462 95.9387336,191.825234 95.7253159,192.04162 L95.7060582,191.811912 C95.4377691,192.060943 95.1961902,192.341038 94.8241601,192.336619 C94.4491621,192.349941 94.180873,191.99275 94.0726473,191.678493 C93.9496485,191.352431 93.9036806,191.013046 93.9230043,190.673596 C93.9318417,190.5165 93.9970673,190.260083 94.0311641,190.051083 L94.0904541,189.717635 L94.1201321,189.5457 C94.1275186,189.496765 94.136422,189.44341 94.1927442,189.272926 C95.4199623,184.805663 97.640272,180.230239 100.855124,174.998141 L100.285966,176.53368 C102.733016,173.126119 100.460869,175.324203 103.256206,171.114808 L103.715687,171.101486 C105.638096,167.009221 106.853443,166.180677 108.514949,163.414952 L107.382568,164.513235 C108.353434,162.759859 109.294623,160.973838 110.112746,159.081041 C111.430383,155.93148 111.845413,154.913195 112.015897,154.888002 C112.214476,154.871712 112.137379,155.830641 112.072219,156.347962 C112.295991,155.586094 112.410152,154.767971 112.53757,153.964621 C112.644345,153.152367 112.839956,152.375727 112.86073,151.547183 L113.422436,150.653414 C113.446178,148.129268 113.466887,147.36595 113.541016,144.997448 L113.785563,137.19972 L107.524891,142.162078 C106.740798,142.784591 105.642515,143.50049 104.308588,144.855191 C103.820945,145.074545 104.913293,143.9481 103.311077,145.314673 C100.976672,147.803205 99.017199,150.605995 97.4445951,153.47256 C98.4080087,151.754665 99.5433569,150.081288 100.776576,148.468718 L100.807705,149.452906 C99.0098125,152.008115 97.954463,153.768944 96.951083,155.303032 C95.9876694,156.847409 95.139868,158.209563 94.2772276,160.099326 L95.4510912,157.449213 C92.4007869,163.598757 92.1443691,163.749917 90.2486707,166.895125 C90.8919577,165.965742 91.8775969,164.528074 90.7006995,166.866964 C89.8129318,168.568436 89.9922528,167.656926 89.0377426,169.17024 C89.1251937,169.475528 88.597519,170.605006 87.7304599,172.076771 C87.2591074,172.782316 86.7433038,173.603407 86.1163727,174.388951 C85.7962461,174.77582 85.4671501,175.170075 85.13812,175.56875 L84.6401233,176.143843 C84.5037364,176.272778 84.3777698,176.406197 84.225093,176.526228 C84.2043844,176.455133 84.2236421,176.3721 84.3199967,176.206101 C84.1998997,176.352842 84.0917399,176.483294 83.985031,176.612228 C83.8871596,176.714518 83.7923219,176.816742 83.687064,176.926419 C83.5744195,177.043548 83.3995172,177.168064 83.1223907,177.240676 C83.2009384,177.021323 83.2364861,176.813775 83.2364861,176.62555 C83.0971973,176.884936 82.8096505,177.221418 82.3723948,177.363675 C81.5483358,177.203612 81.4682712,175.834071 81.7380111,175.888942 C81.7750757,176.040102 81.8091724,176.234262 81.8476878,176.326132 L81.8417522,175.952651 L81.8403013,175.754072 L81.8462369,175.402751 C81.8625268,174.70024 81.8788167,173.99918 81.9529458,173.329182 C82.0818802,171.978966 82.3293946,170.707231 82.7458758,169.527431 C83.5537108,167.184123 85.2077644,165.034974 87.1938817,162.805761 L87.6474274,162.875406 C88.0298779,162.027604 89.7491571,160.289067 91.3677289,158.5994 C92.9818161,156.914152 94.2935175,155.335612 93.8325853,155.377095 C95.1680291,154.077265 97.3897897,151.098056 98.8926833,148.450911 C100.411933,145.820056 101.256766,143.589392 101.161929,144.835933 C103.358496,139.869156 103.727558,134.675573 102.344696,130.101601 L99.7138405,121.399749 L95.7905415,129.428702 C93.0914928,134.951315 90.4517341,140.405668 86.0126316,148.440557 C85.2552492,149.552163 84.2769965,151.201863 83.162423,153.183496 C82.0937514,155.138484 80.8635655,157.383987 79.569605,159.74807 C78.9989961,160.727774 78.3497734,161.535543 77.9259057,161.833444 C77.7153898,161.989089 77.6101978,162.018767 77.5686486,162.027604 C77.5093586,162.045411 77.4471008,162.032089 77.3922954,162.015799 C77.2648119,162.01725 76.754944,161.637833 76.4985261,161.178352 C76.3488171,160.920483 76.2910439,160.781128 76.2020759,160.429873 C76.126496,160.112648 76.080594,159.762844 76.0701737,159.384944 C75.9545614,157.9205 76.4214952,155.894416 76.9298463,153.942395 C77.4441989,152.008115 78.08742,150.162804 78.789997,148.375331 C80.1965361,144.797352 81.9099457,141.471372 83.7671286,138.160165 C85.6302471,134.850475 87.6711698,131.555625 89.8425438,128.026581 C92.0154347,124.506441 94.3083565,120.792075 96.8339539,116.702778 C100.146612,112.260707 103.758687,106.466903 107.401892,100.508551 C109.220494,97.4952455 111.053934,94.6079724 112.872536,91.453927 C114.658557,88.3161716 116.246,84.8049351 116.791416,81.1113438 L117.562186,75.9118911 L112.497604,77.4844291 C111.731318,77.7215892 111.003547,77.9839427 110.323196,78.3218761 C108.996655,79.1504198 107.899889,80.1849947 107.013506,81.2625037 C105.117808,82.9877845 103.687526,85.2569639 102.426211,87.5795638 C101.160412,89.9540012 100.088838,92.2083416 98.6837503,94.5368771 C95.9595082,99.2205263 92.4052057,104.028691 88.7872603,108.629374 C87.2205919,111.076423 86.4098551,112.343674 86.0511471,112.903928 C86.366855,112.468189 86.8811416,111.829387 87.2116885,111.750839 C86.1845661,113.083315 84.7676068,115.219142 83.6248061,116.975485 C82.5058138,118.752604 81.6372379,120.122144 81.5779478,119.804985 C81.7083991,119.539664 81.8358826,119.271375 81.9766882,119.016408 C81.9425915,118.848958 81.6016902,119.335084 81.1036275,120.237756 C80.5819543,121.119655 79.9223774,122.426937 79.2494783,123.892766 C77.891809,126.785975 76.6422995,130.543275 75.9486258,132.16033 L77.0351042,130.372858 C76.335495,132.390104 75.7115316,134.330253 74.9659545,136.07921 C75.1349212,135.606407 75.2816624,135.093571 75.437307,134.598542 C74.7673757,136.738787 73.9907356,138.610743 73.0465796,139.97138 C72.5678406,140.633925 72.0594236,141.148278 71.5436201,141.538049 C71.0218809,141.911596 70.4586585,142.111691 69.8628563,142.273206 L73.3133518,145.027126 C73.0999341,140.684312 73.685382,136.672111 74.7555045,132.923648 C75.8034015,129.169316 77.2411355,125.658079 78.9129958,122.142358 C82.249396,115.133141 86.500274,107.954958 91.1898588,98.4853694 C90.0070918,101.709125 93.3834583,93.9321055 94.0415184,93.9113969 C97.7499487,88.6274608 99.7864526,83.3182654 101.774021,78.1781027 C101.748828,78.1677484 101.747377,78.0951363 101.825924,77.7853639 C103.087239,74.8372839 104.164814,71.7499151 104.852552,68.5143542 C104.554585,71.4861107 104.818456,69.7104433 105.031873,67.8680994 C105.214162,66.0198198 105.236388,64.0929925 105.177098,66.8394601 C105.412807,65.2342763 105.789256,63.8499627 105.526902,61.405815 C105.258613,58.905411 103.960234,56.4820379 101.659926,55.4519477 C99.6263893,54.5093086 97.1555974,54.8308862 95.2168989,56.2137488 C94.7278055,56.5516822 94.2520343,56.929648 93.8207141,57.3609682 C93.6013607,57.5655485 93.3671684,57.7922883 93.2026204,57.9894162 C93.0514605,58.1598998 92.8928481,58.3303174 92.7565272,58.5052197 C92.1844014,59.1988934 91.6908234,59.9132757 91.2446642,60.6543682 C89.7965759,63.2703845 88.3218434,65.9368533 86.8248194,68.6418377 C83.8723866,73.9835469 80.8086942,79.4601921 77.6709388,84.9649984 C71.3954279,95.9745451 64.8190152,107.089416 58.2885572,117.42758 L59.0874492,116.483424 C58.2470541,117.842544 57.3607175,119.275794 56.4565873,120.740238 L61.5196928,121.914101 C60.9134835,116.513036 61.9272903,110.649588 63.2493922,106.902642 C64.8946017,102.069284 66.6894873,96.0308673 67.4958054,94.1114925 C69.567923,88.6496863 72.3647772,83.9511981 71.2946547,86.273732 C72.5248405,83.3420078 73.6068342,80.4369279 74.6666024,77.1583668 C75.7633692,73.9049991 76.8320408,70.2811182 77.8577123,65.8464344 C78.0310977,65.4002752 78.2430646,64.519894 78.4816756,63.3133846 L79.8037973,56.6465859 L74.6502466,61.1894294 C74.0129611,61.749684 73.2792551,62.4225831 72.4833573,63.1681603 C71.7318445,63.9477682 70.9507856,64.8311172 70.1533709,65.7515967 C68.6459926,67.6502629 67.1415821,69.7608299 65.9202666,71.7647541 C63.442075,75.7592143 61.6219631,79.1148721 61.3018167,79.0510974 L61.3033006,79.162291 C58.976282,82.7535921 56.9012428,86.2900219 54.5193859,89.5345522 C52.1479097,92.7685962 49.4325711,95.7285475 45.999856,97.8569213 L49.1109342,100.640453 C50.2551725,98.1859514 51.4572171,95.6944508 52.7570868,93.1569822 C52.7570868,93.1569822 52.7052097,93.385239 52.5732943,93.77501 L61.0928309,70.6708892 L56.0652929,76.0348899 L45.3773435,94.5161025 L43.7217533,98.1192748 L38.5133972,109.465304 L49.102044,102.933375 C52.9379116,100.566324 56.0919767,97.382601 58.6709548,94.0417822 C61.2647588,90.6891581 63.3620367,87.1734369 65.3600055,83.74365 C69.3174407,76.9049168 72.9932252,70.1921501 78.3690312,65.6225964 L72.7515804,62.5056155 L72.2343259,65.4728874 C72.0786813,66.4644621 71.7644903,67.4471995 71.5406523,68.4342895 C69.5649552,75.4212809 66.2300719,82.1636595 62.9885293,89.1669408 C61.3625841,92.6618873 59.741084,96.244351 58.3419116,99.9986833 C56.9086491,103.727822 55.7288433,107.676314 55.0485248,111.807162 C54.4260124,115.31543 54.4586186,118.986796 54.7105914,122.609226 L55.5821087,135.138022 L62.2652304,124.3597 C69.1558605,113.247797 75.8597238,102.021865 82.3709438,90.6817056 C85.6243115,85.0124172 88.8302604,79.3149678 91.9872736,73.592259 L96.6887295,64.9867618 C97.0696631,64.279766 97.3304997,63.8395424 97.6980451,63.3178693 C97.8729475,63.0732566 98.0508176,62.8465168 98.2272368,62.6404855 L98.388751,62.4581967 C98.4747512,62.3737133 98.612589,62.3055199 98.7355878,62.3632931 C98.8082,62.392971 98.8615544,62.4611645 98.8897156,62.5352276 C98.9045545,62.5722921 98.9134579,62.6123244 98.9208445,62.6523567 L98.9267801,62.7175824 L98.9342325,63.2066757 C98.9386513,63.8128982 98.7963947,64.7674085 98.6792656,65.6374354 C98.5443956,66.5163656 98.3650746,67.3923281 98.1664298,68.2698075 C97.3245641,71.781044 95.9357658,75.2612175 94.2816463,78.713164 C93.3241683,81.0891183 92.2481101,83.4694913 91.1290519,85.8720898 C88.7131313,89.8724856 86.2201138,94.1841047 83.6989352,98.6662073 C81.1836922,103.1646 78.5928692,107.765283 76.0375939,112.64606 C73.5075119,117.522418 71.07972,122.669967 69.3174407,128.164419 C67.5120953,133.627676 66.5205206,139.516384 66.7043263,145.330962 L66.8362285,149.49584 L71.0307843,148.784426 C73.7238974,148.329363 76.2673015,146.718244 77.8102935,144.890739 C79.4095417,143.066202 80.4174063,141.1616 81.2444331,139.371159 L81.0414356,138.698194 C82.3620404,135.30257 82.7844572,133.864836 83.1742282,133.015584 C83.5270006,132.157362 83.716742,131.97659 84.0116753,131.262142 C87.130173,122.604807 93.2278137,114.852981 99.046877,106.59287 C101.948923,102.441314 104.848068,98.0807594 107.197312,93.3837221 C108.337144,91.1234461 109.379106,89.012813 110.585549,87.3275646 C111.793576,85.6230585 113.084502,84.5233239 114.498494,84.0964224 L109.937844,80.2457356 C109.463589,84.372098 106.711186,88.5725895 103.8743,93.0620786 C101.068542,97.5219557 98.2716878,101.968511 95.4851879,106.395742 C92.6957203,110.820006 89.9181238,115.227979 87.1553663,119.610759 C84.4015122,124.005411 81.6164633,128.300806 78.9115449,132.772488 C76.2243674,137.238301 73.6824142,141.883435 71.7348123,146.853114 C70.7580765,149.337294 69.9487906,151.886634 69.3248272,154.521908 C68.7527015,157.174988 68.1731891,160.492131 69.7442762,164.062657 C70.5609487,165.780486 71.7956192,167.258252 73.5697697,168.309117 C74.4397966,168.821886 75.5469836,169.220627 76.6467842,169.342175 C77.7524543,169.468141 78.8833838,169.340658 79.9386673,168.996789 C82.0729768,168.273503 83.4410664,166.887673 84.4385767,165.664873 C85.4419568,164.409494 86.1237592,163.168888 86.740336,162.020218 C89.0229036,157.729307 91.2802778,153.484365 93.5123927,149.289809 C95.3592213,146.174279 99.3106814,138.567809 102.362503,132.855521 L95.2139311,132.121815 C95.8305079,134.511091 95.5429611,136.614272 95.2732211,137.672589 C94.8226432,141.229793 92.8958159,144.995997 90.3983797,148.479072 C89.1459024,150.230997 87.743782,151.935503 86.2497918,153.598526 C84.7601543,155.255614 83.0704871,157.004571 81.4697221,158.892817 C79.8645383,160.77671 78.2178712,162.931728 77.038072,165.53152 C75.825627,168.11344 75.3083726,170.95923 75.1512771,173.567859 C75.1067601,174.227436 75.1142125,174.866239 75.0949548,175.515395 C75.0845345,175.63846 75.1053091,175.928909 75.1186313,176.170554 L75.1586636,176.916065 L75.2386623,178.405636 C75.4032103,180.448076 76.3236238,182.197033 77.8754531,183.322027 C79.4302503,184.458826 81.4193354,184.715244 83.3135829,184.24244 C84.2710609,184.043862 85.2122491,183.611025 86.1104371,183.113028 C86.9863996,182.62987 87.9453945,181.873939 88.4196489,181.441168 C88.1810378,181.66494 88.0091033,181.845778 87.6874598,182.120002 C88.1647479,181.731682 88.4537456,181.473747 88.8228079,181.106202 C89.150387,180.786009 89.5594817,180.328045 89.7550927,180.068659 L91.186891,178.266348 C92.0910146,177.036096 93.0054926,175.798523 93.7940039,174.50608 C94.0341319,174.202177 94.1037762,174.190372 93.9748418,174.454176 C96.4367304,170.45233 98.8260068,165.162458 101.511733,160.259389 C102.875338,157.816759 104.391554,155.510515 106.149415,153.502172 C107.898372,151.486442 109.891942,149.770065 111.947703,148.299751 L105.992319,145.492477 C105.970094,146.442568 105.950836,147.355595 105.930061,148.243429 C105.9449,148.046301 105.9019,147.853592 105.892997,147.659432 C105.629192,154.530811 101.683668,161.219835 97.5232088,167.916312 C95.4332844,171.292678 93.2441696,174.737304 91.3054711,178.463475 C90.8400542,179.413501 90.3539286,180.342884 89.9107373,181.313684 L88.6657124,184.286892 L87.6356222,187.398003 C87.6148476,187.467647 87.5926221,187.518034 87.5718475,187.604034 L87.5170421,187.92271 L87.4088164,188.557027 L87.189463,189.828762 L86.7507563,192.367748 C86.485435,194.06335 86.8945297,195.656663 87.3851399,197.041043 C87.9216521,198.422388 88.71755,199.58293 89.8084471,200.430731 C90.8800865,201.300758 92.430399,201.757272 93.7673597,201.644627 C95.1117069,201.499403 96.158087,201.136276 97.3394031,200.181766 L98.2183334,199.439156 L99.0720703,198.444614 C99.6382605,197.780618 100.177741,197.012881 100.714319,196.279176 L101.513184,195.155699 L102.109052,194.278219 L102.955337,192.976872 C104.066943,191.230883 105.101518,189.438925 106.058996,187.60997 C108.027372,183.910443 109.396847,180.126432 111.068773,177.022774 C111.489673,176.247584 111.916574,175.487234 112.381991,174.809916 C112.497604,174.642401 112.605763,174.455693 112.727311,174.300049 L112.958536,173.987308 C112.998568,173.929469 113.047438,173.876115 113.091955,173.819793 C113.28163,173.601956 113.524726,173.415183 113.806337,173.298053 C113.996079,173.452247 114.08353,173.776793 114.108723,174.049566 C114.119077,174.202177 114.119077,174.323725 114.096852,174.510498 C114.004916,175.098914 113.827112,175.896329 113.606242,176.57668 C112.727311,179.345374 110.695226,182.157067 108.461594,185.111016 C106.192415,188.053095 103.810525,191.576269 102.17718,195.241633 C100.48903,198.921902 99.2943915,202.824492 98.6348146,206.830758 C98.5443956,207.327304 98.4880734,207.832753 98.4139443,208.335168 C98.3694933,208.578264 98.3264932,209.104422 98.2923964,209.497227 L98.1767842,210.764477 C98.1308822,212.394854 98.0641397,214.112682 98.6451689,215.301385 C99.1580046,216.518249 100.159934,217.684726 101.499862,218.264238 C102.817499,218.855622 104.268555,218.909042 105.716644,218.603688 C107.160247,218.268723 108.632078,217.597275 109.92894,216.5627 C110.594453,216.083961 111.163611,215.436255 111.759479,214.781163 C112.210057,214.29352 112.502022,213.962973 112.835537,213.525784 C114.185754,211.89534 115.2752,210.173093 116.317161,208.470038 C118.358084,205.046253 120.010687,201.644627 121.845644,198.57955 C122.766058,197.061751 123.739892,195.640373 124.781853,194.343445 C125.849008,193.085098 127.000646,191.982395 128.24422,191.044175 L123.478989,190.600984 C123.922181,191.11527 124.245275,191.727429 124.418726,192.524843 C124.575822,193.325226 124.589144,194.269382 124.421694,195.249085 C124.079276,197.267782 123.149959,199.056772 121.639613,201.068083 C120.271589,202.852653 118.553761,204.681609 116.825513,206.878177 C115.066201,209.068874 113.458049,211.778277 112.377507,214.575131 C111.832091,215.987672 111.397803,217.447566 111.055451,218.934235 C110.907193,219.681197 110.74858,220.429742 110.653743,221.191544 C110.600388,221.474672 110.498098,222.301698 110.47884,222.890114 L110.36026,224.808038 C110.34397,227.336669 110.610743,229.703654 111.068773,231.82319 C111.554899,233.991597 112.044058,236.168906 112.533151,238.356636 C114.746008,236.775129 116.969286,235.186235 119.201467,233.591405 L122.469674,230.729326 C123.438957,229.70959 124.357919,228.66466 125.305043,227.633053 C126.5471,226.134578 127.485321,224.870296 128.499121,223.46224 C129.444728,222.106087 130.394819,220.74545 131.346362,219.380329 C132.275679,218.041917 133.194641,216.725797 134.132862,215.468901 C134.595311,214.815259 135.085921,214.243134 135.560175,213.626557 C135.798852,213.321203 136.038914,213.018883 136.290913,212.74611 L136.664394,212.323693 L136.700008,212.276274 C136.882297,212.053953 137.125393,211.830181 137.418875,211.677504 C137.54926,211.800503 137.494455,212.176952 137.429229,212.414112 L137.359585,212.609789 L137.012748,213.364203 C136.471751,214.492165 135.810658,215.605222 135.108146,216.705022 C132.311292,221.072963 128.134477,225.126714 124.515015,230.223942 C123.805051,231.243678 121.534421,234.007887 119.838752,239.162888 C119.454917,240.375333 119.014693,242.056097 118.986532,243.848054 C118.96279,244.755146 119.014693,245.727463 119.229628,246.785714 C119.448981,247.829192 119.821011,248.99712 120.636167,250.231791 C122.16432,252.613615 125.11827,254.156607 128.164155,253.947608 C130.901719,253.759383 133.114643,252.629971 134.888793,251.170011 C136.590331,249.784181 137.99687,248.047095 139.022542,246.275846 C140.06602,244.501696 140.836725,242.690481 141.480012,240.954846 C142.123233,239.21776 142.661262,237.535479 143.211162,235.965843 C143.758095,234.41553 144.32877,232.967442 145.017959,231.520805 C147.711072,225.743291 151.684757,220.687611 155.851152,217.014795 L149.857252,216.476765 C149.974315,216.653119 150.098831,216.823602 150.095863,217.434244 C150.09738,218.009337 149.909156,218.818623 149.617124,219.610102 C149.31032,220.428226 148.950161,221.155996 148.465486,221.98454 C147.997102,222.818953 147.506491,223.600078 147.054462,224.327848 C145.176571,227.232928 143.655805,229.313883 143.110389,230.145394" id="Fill-55" fill="#262CEC" mask="url(#mask-2)"></path>
                        <path d="M154.960548,259.047738 L154.772258,259.250801 C154.844936,259.310092 154.942742,259.247834 155.000515,259.173771 C155.070225,259.086319 155.000515,259.092189 154.960548,259.047738" id="Fill-56" fill="#262CEC" mask="url(#mask-2)"></path>
                        <path d="M138.411901,231.71292 C138.478577,231.555825 138.542352,231.403148 138.606061,231.251988 L137.670808,232.910526 L138.411901,231.71292 Z" id="Fill-57" fill="#262CEC" mask="url(#mask-2)"></path>
                        <path d="M153.235136,233.639418 C150.767312,237.501976 150.85773,237.756943 151.182342,237.220365 C151.969336,235.790083 152.714847,234.549477 153.235136,233.639418" id="Fill-58" fill="#262CEC" mask="url(#mask-2)"></path>
                        <path d="M155.365752,264.850445 C155.321301,265.757537 155.419106,266.409727 155.513944,266.781757 C155.596976,267.153788 155.657717,267.256012 155.650331,267.165593 C155.644395,266.995175 155.454654,266.008019 155.580686,264.97351 C155.669589,263.169682 156.173521,261.988366 156.493714,261.195436 C156.647841,260.824856 156.833098,260.44544 156.874581,260.360956 C156.917581,260.272054 156.939807,260.224569 156.939807,260.224569 C156.885001,260.322441 156.879066,260.312021 156.784162,260.495826 L156.515939,261.017565 C156.341037,261.368821 156.173521,261.740851 156.017876,262.135107 C155.708104,262.919199 155.445817,263.811452 155.365752,264.850445" id="Fill-59" fill="#262CEC" mask="url(#mask-2)"></path>
                        <path d="M161.508635,256.875177 L161.435957,257.350948 C161.965149,256.264536 161.831729,256.368277 161.508635,256.875177" id="Fill-60" fill="#262CEC" mask="url(#mask-2)"></path>
                    </g>
                    <path d="M339.420496,262.618749 L185.779539,262.618749" id="Path-5-Copy-2" stroke="#979797" fill-rule="nonzero"></path>
                    <path d="M845.399982,262.618749 L691.759026,262.618749" id="Path-5-Copy-3" stroke="#979797" fill-rule="nonzero"></path>
                    <text id="From-plan/design" font-family="ApercuPro-Bold, Apercu Pro" font-size="12" font-weight="bold" line-spacing="20" letter-spacing="3" fill="#222222">
                        <tspan x="0" y="264">FROM PLAN/DESIGN</tspan>
                    </text>
                    <text id="Bringing-it-to-life" font-family="ApercuPro-Bold, Apercu Pro" font-size="12" font-weight="bold" line-spacing="20" letter-spacing="3" fill="#222222">
                        <tspan x="874" y="264">BRINGING IT TO LIFE </tspan>
                        <tspan x="874" y="284">AS A FUNCTIONING PRODUCT</tspan>
                    </text>
                    <g id="Group-7" opacity="0.252232143" transform="translate(473.000000, 421.742211)">
                        <polygon id="Stroke-1-Copy" fill="#222222" transform="translate(67.727921, 17.767500) rotate(-270.000000) translate(-67.727921, -17.767500) " points="85.1969447 29.4135153 67.2407218 6.12148416 50.258898 29.3893033"></polygon>
                        <path d="M56.0819058,17.6904205 L0.190178318,17.6904205" id="Path-10" stroke="#222222" stroke-width="12.7008" fill-rule="nonzero"></path>
                    </g>
                </g>
            </g>
        </g>
    </g>
</svg>