<svg id="Layer_1" data-name="Layer 1" xmlns="http://www.w3.org/2000/svg" viewBox="0 0 189.556 32">
  <title>dv-image-logo</title>
  <path id="Shape" d="M5.044,7.714c-.537,3.031.493,7.316,2.9,11.5s5.614,7.211,8.51,8.286V4.5c-4.837,0-9.077,1.254-11.436,3.21Z" fill="#070de9"/>
  <path id="Shape-2" d="M24.93,19.21c2.419-4.18,3.434-8.465,2.926-11.5C25.5,5.773,21.287,4.5,16.435,4.5v23c2.882-1.075,6.091-4.106,8.51-8.286Z" fill="#e9d100"/>
  <path d="M43.84,7.231a8.418,8.418,0,0,1,3.9.922,7.044,7.044,0,0,1,2.9,2.824,9.337,9.337,0,0,1,1.1,4.74,9.327,9.327,0,0,1-1.1,4.74,7.055,7.055,0,0,1-2.9,2.826,8.416,8.416,0,0,1-3.9.92H38.53V7.231Zm3.067,12.814q1.636-1.248,1.637-4.328t-1.637-4.328a6.5,6.5,0,0,0-4.061-1.248H41.682V21.294h1.164A6.507,6.507,0,0,0,46.907,20.045Z" fill="#070de9"/>
  <path d="M53.653,21.088a7.564,7.564,0,0,1,0-5.989,5.53,5.53,0,0,1,1.94-2.376,5.6,5.6,0,0,1,3.309-.934,5.3,5.3,0,0,1,5.092,3.2,7,7,0,0,1,.606,2.837v1.236H56.187A2.96,2.96,0,0,0,57,21a2.69,2.69,0,0,0,2.073.825,3.015,3.015,0,0,0,1.709-.461,4.173,4.173,0,0,0,1.249-1.431l2.425.9A5.532,5.532,0,0,1,58.9,24.4a5.409,5.409,0,0,1-5.249-3.31Zm7.007-6.074a2.35,2.35,0,0,0-1.76-.654,2.445,2.445,0,0,0-1.77.678,2.938,2.938,0,0,0-.872,1.649h5.261A3.314,3.314,0,0,0,60.66,15.014Z" fill="#070de9"/>
  <path d="M74.365,7.231,78.172,19.79,81.978,7.231H85.47L79.772,24.2h-3.2l-5.7-16.973Z" fill="#070de9"/>
  <path d="M84.62,21.318a6.913,6.913,0,0,1-.739-3.225,6.921,6.921,0,0,1,.739-3.224,5.491,5.491,0,0,1,2.146-2.255,7.1,7.1,0,0,1,6.643,0,5.491,5.491,0,0,1,2.146,2.255,6.91,6.91,0,0,1,.74,3.224,6.89,6.89,0,0,1-.74,3.225,5.479,5.479,0,0,1-2.146,2.255,7.1,7.1,0,0,1-6.643,0A5.491,5.491,0,0,1,84.62,21.318Zm8.523-3.225a4.243,4.243,0,0,0-.825-2.654,2.845,2.845,0,0,0-4.461,0,4.242,4.242,0,0,0-.824,2.654,4.248,4.248,0,0,0,.824,2.656,2.845,2.845,0,0,0,4.461,0A4.249,4.249,0,0,0,93.143,18.093Z" fill="#070de9"/>
  <path d="M98.415,21.318a6.913,6.913,0,0,1-.739-3.225,6.921,6.921,0,0,1,.739-3.224,5.491,5.491,0,0,1,2.146-2.255,7.1,7.1,0,0,1,6.643,0,5.491,5.491,0,0,1,2.146,2.255,6.91,6.91,0,0,1,.74,3.224,6.89,6.89,0,0,1-.74,3.225,5.479,5.479,0,0,1-2.146,2.255,7.1,7.1,0,0,1-6.643,0A5.485,5.485,0,0,1,98.415,21.318Zm8.523-3.225a4.243,4.243,0,0,0-.825-2.654,2.845,2.845,0,0,0-4.461,0,4.242,4.242,0,0,0-.824,2.654,4.248,4.248,0,0,0,.824,2.656,2.845,2.845,0,0,0,4.461,0A4.249,4.249,0,0,0,106.938,18.093Z" fill="#070de9"/>
  <path d="M114.6,11.984v1.988a4.848,4.848,0,0,1,1.6-1.613,3.843,3.843,0,0,1,2.012-.569,5.161,5.161,0,0,1,1.479.242l-.557,2.789a2.371,2.371,0,0,0-1.261-.34,2.787,2.787,0,0,0-2.353,1.3,7.166,7.166,0,0,0-.921,4.086V24.2h-3.006V11.984Z" fill="#070de9"/>
  <path d="M123.993,7.038v6.91a4.679,4.679,0,0,1,1.612-1.565,4.381,4.381,0,0,1,2.268-.593,3.974,3.974,0,0,1,2.788.933,3.546,3.546,0,0,1,1.019,2.752V24.2h-3.007V16.542a2.533,2.533,0,0,0-.448-1.649,1.693,1.693,0,0,0-1.371-.533,2.22,2.22,0,0,0-1.381.509,3.585,3.585,0,0,0-1.068,1.552,7.2,7.2,0,0,0-.412,2.619V24.2h-3.006V7.038Z" fill="#070de9"/>
  <path d="M133.948,21.318a6.913,6.913,0,0,1-.739-3.225,6.921,6.921,0,0,1,.739-3.224,5.491,5.491,0,0,1,2.146-2.255,7.1,7.1,0,0,1,6.643,0,5.491,5.491,0,0,1,2.146,2.255,6.91,6.91,0,0,1,.74,3.224,6.914,6.914,0,0,1-.74,3.225,5.491,5.491,0,0,1-2.146,2.255,7.1,7.1,0,0,1-6.644,0A5.483,5.483,0,0,1,133.948,21.318Zm8.522-3.225a4.242,4.242,0,0,0-.824-2.654,2.846,2.846,0,0,0-4.462,0,4.254,4.254,0,0,0-.824,2.654,4.248,4.248,0,0,0,.824,2.656,2.846,2.846,0,0,0,4.462,0A4.248,4.248,0,0,0,142.47,18.093Z" fill="#070de9"/>
  <path d="M147.621,21.089a7.566,7.566,0,0,1,0-5.99,5.528,5.528,0,0,1,1.939-2.376,5.6,5.6,0,0,1,3.31-.933,5.293,5.293,0,0,1,5.092,3.2,7,7,0,0,1,.606,2.837v1.236h-8.413A2.964,2.964,0,0,0,150.967,21a2.693,2.693,0,0,0,2.073.824,3.011,3.011,0,0,0,1.71-.461A4.163,4.163,0,0,0,156,19.936l2.425.9A5.534,5.534,0,0,1,152.87,24.4a5.4,5.4,0,0,1-5.249-3.311Zm7.007-6.075a2.355,2.355,0,0,0-1.758-.654,2.45,2.45,0,0,0-1.77.679,2.946,2.946,0,0,0-.873,1.648h5.262A3.325,3.325,0,0,0,154.628,15.014Z" fill="#070de9"/>
  <path d="M160.046,18.094a7.049,7.049,0,0,1,1.394-4.6,4.8,4.8,0,0,1,3.94-1.709,4.694,4.694,0,0,1,1.9.376,3.26,3.26,0,0,1,1.3.933V7.038h3.007V24.2H168.58V22.943a2.585,2.585,0,0,1-1.151,1.006,4.366,4.366,0,0,1-2.049.449,4.8,4.8,0,0,1-3.94-1.71A7.05,7.05,0,0,1,160.046,18.094Zm8.8,0a4.292,4.292,0,0,0-.788-2.752,2.482,2.482,0,0,0-2.025-.982,2.513,2.513,0,0,0-2.036.982,4.24,4.24,0,0,0-.8,2.752,4.255,4.255,0,0,0,.8,2.74,2.58,2.58,0,0,0,4.061.012,4.291,4.291,0,0,0,.789-2.752Z" fill="#070de9"/>
  <path d="M173.7,21.089a7.566,7.566,0,0,1,0-5.99,5.4,5.4,0,0,1,5.249-3.309,5.3,5.3,0,0,1,5.092,3.2,7,7,0,0,1,.606,2.837v1.236h-8.414A2.96,2.96,0,0,0,177.05,21a2.686,2.686,0,0,0,2.073.824,3.008,3.008,0,0,0,1.709-.461,4.173,4.173,0,0,0,1.249-1.431l2.425.9a5.535,5.535,0,0,1-5.553,3.564,5.4,5.4,0,0,1-5.249-3.309Zm7.007-6.074a2.35,2.35,0,0,0-1.758-.655,2.45,2.45,0,0,0-1.77.679,2.946,2.946,0,0,0-.873,1.648h5.261a3.311,3.311,0,0,0-.856-1.672Z" fill="#070de9"/>
  <path id="Shape-3" d="M22.153,8.267A15.8,15.8,0,0,0,20,7.819a7.715,7.715,0,0,1-.044.985c-.06.746-.15,1.538-.254,2.314a5.885,5.885,0,0,1,1.269.552,6.51,6.51,0,0,1-.224,1.613,10.234,10.234,0,0,1-1.194,2.836,9.53,9.53,0,0,1-1.822,2.449,7.64,7.64,0,0,1-1.3.985,6.569,6.569,0,0,1-1.284-.985,10.526,10.526,0,0,1-1.866-2.449,11.2,11.2,0,0,1-1.194-2.836A5.928,5.928,0,0,1,11.9,11.67a4.877,4.877,0,0,1,1.254-.552c-.105-.776-.194-1.568-.254-2.314,0-.358-.03-.687-.045-1-.746.149-1.463.3-2.135.477A11.187,11.187,0,0,0,7.926,9.446a12.188,12.188,0,0,0,.4,3.016,20.733,20.733,0,0,0,2.209,5.315,21.413,21.413,0,0,0,3.494,4.568A12.354,12.354,0,0,0,16.42,24.2a11.607,11.607,0,0,0,2.419-1.851,22.1,22.1,0,0,0,3.493-4.568,20.5,20.5,0,0,0,2.21-5.315,10.977,10.977,0,0,0,.4-3.016A11.926,11.926,0,0,0,22.15,8.285Z" fill="#fff"/>
</svg>
