<svg viewBox="0 0 285.795 54.5" xmlns="http://www.w3.org/2000/svg"><path d="m.246 19.045c0-2.254 1.762-3.278 4.242-3.278a8.625 8.625 0 0 1 2.193.246v-1.127c0-1.087-.595-1.6-1.865-1.6a3.371 3.371 0 0 0 -2.48.962h-1.373v-2.19a10.484 10.484 0 0 1 4.447-.82c2.787 0 4.263.9 4.263 3.361v5.349a.567.567 0 0 0 .512.511h.574v1.435a3.552 3.552 0 0 1 -1.8.41 1.938 1.938 0 0 1 -2.159-1.352 3.669 3.669 0 0 1 -3.115 1.332c-2.004 0-3.439-1.107-3.439-3.239zm6.435.718v-2.3a9.31 9.31 0 0 0 -1.581-.118c-1.209 0-1.947.491-1.947 1.577a1.459 1.459 0 0 0 1.639 1.6 2.7 2.7 0 0 0 1.889-.759z"/><path d="m14.615 21.1c-.306.553-.757 1.066-1 1.066h-1.664v-12.035a.628.628 0 0 0 -.511-.552h-.78v-1.763h3.772c.327 0 .512.246.512.7v4.324a4.523 4.523 0 0 1 3.442-1.6c2.029 0 4.058 1.352 4.058 5.389 0 4.161-2.357 5.677-4.631 5.677a4.043 4.043 0 0 1 -3.198-1.206zm.329-7.255v6.149a2.987 2.987 0 0 0 1.947.614c1.229 0 2.52-.7 2.52-3.709 0-2.849-1.168-3.5-2.479-3.5a6.054 6.054 0 0 0 -1.988.441z"/><path d="m23.206 16.812c0-3.463 2.234-5.574 5.717-5.574a9.517 9.517 0 0 1 3.628.553v2.459h-1.8a1.8 1.8 0 0 0 -1.885-1.106c-1.619 0-2.6 1.147-2.6 3.688 0 2.562.841 3.607 2.583 3.607a2.556 2.556 0 0 0 2.3-1.148h1.455v2.109a7.506 7.506 0 0 1 -3.812.9c-3.742 0-5.586-2.046-5.586-5.488z"/><path d="m33.518 16.915c0-4.058 2.541-5.677 4.631-5.677a3.651 3.651 0 0 1 3.074 1.393v-3.052h-1.394v-1.763h3.871c.349 0 .513.266.513.7v11.4a.629.629 0 0 0 .512.552h.738v1.7h-3.646c-.307 0-.492-.452-.553-1.209a4.2 4.2 0 0 1 -3.279 1.373c-2.152-.007-4.467-1.298-4.467-5.417zm7.7 2.746v-5.9a5 5 0 0 0 -1.988-.47c-1.415 0-2.685.819-2.685 3.544 0 2.952 1.21 3.689 2.439 3.689a3.276 3.276 0 0 0 2.239-.863z"/><path d="m48.952 17.345c.123 2.131 1.067 3.114 2.787 3.114a2.535 2.535 0 0 0 2.361-1.168h1.7v1.968a7.617 7.617 0 0 1 -4.3 1.045c-3.73 0-5.594-2.091-5.594-5.472 0-3.462 2.151-5.594 5.389-5.594 3.217 0 4.9 1.639 4.9 5.287 0 .369-.041.718-.041.82zm.041-1.7h4.2c-.1-1.886-.676-2.623-1.906-2.623-1.248-.001-2.068.778-2.294 2.622z"/><path d="m56.846 11.4h1.27v-.82c0-2.049 1.291-2.971 3.4-2.971a4.56 4.56 0 0 1 1.784.291v1.679h-.7c-.9 0-1.5.1-1.5 1.106v.715h2.048v1.8h-2.039v6.742a.566.566 0 0 0 .511.511h.944v1.7h-5.636v-1.7h.672a.586.586 0 0 0 .512-.511v-6.736h-1.27z"/><path d="m62.935 23.267a2.521 2.521 0 0 1 1.885-2.254 1.741 1.741 0 0 1 -.881-1.557 2.487 2.487 0 0 1 1.25-2.07 3.034 3.034 0 0 1 -1.414-2.643c0-2.112 1.742-3.505 4.344-3.505a6.555 6.555 0 0 1 1.455.164h3.771v1.8h-.635c-.184 0-.451.184-.451.369a3.568 3.568 0 0 1 .2 1.168c0 2.089-1.742 3.38-4.345 3.38a6.387 6.387 0 0 1 -1.966-.287 2.907 2.907 0 0 0 -.083.7c0 .47.307.655.9.655h2.992c2.3 0 3.381.841 3.381 2.684 0 2.275-1.6 3.874-5.8 3.874-3.312.002-4.603-1.002-4.603-2.478zm7.684-.7c0-.615-.368-.944-1.434-.944h-3.648a2.932 2.932 0 0 0 -.123.944c0 .922.615 1.414 2.255 1.414 1.987.004 2.95-.529 2.95-1.41zm-.819-7.824a1.688 1.688 0 1 0 -3.361 0 1.688 1.688 0 1 0 3.361 0z"/><path d="m80.746 20.459h1.23v-5.512c0-1.066-.41-1.372-1.414-1.372a7.644 7.644 0 0 0 -2.357.409v6.475h1.25v1.7h-5.471v-1.7h.716a.587.587 0 0 0 .513-.511v-9.817a.63.63 0 0 0 -.513-.552h-.778v-1.763h3.771c.328 0 .512.246.512.7v4.263a5.793 5.793 0 0 1 3.976-1.537c1.5 0 2.786.594 2.786 2.684v6.026a.568.568 0 0 0 .513.511h.574v1.7h-5.308z"/><path d="m86.632 20.459h.778a.567.567 0 0 0 .493-.511v-6.19a.611.611 0 0 0 -.493-.552h-.86v-1.806h3.873c.328 0 .492.328.492 1.147v7.4a.567.567 0 0 0 .512.511h.779v1.7h-5.574zm1.127-11.475a1.619 1.619 0 0 1 3.238 0 1.62 1.62 0 0 1 -3.238 0z"/><path d="m91.594 23.882h.7c1.127 0 1.537-.43 1.537-1.455v-8.669a.61.61 0 0 0 -.492-.552h-.86v-1.806h3.873c.328 0 .492.328.492 1.147v10.065c0 2.254-1.291 2.991-3.505 2.991a6.006 6.006 0 0 1 -1.741-.225zm2.09-14.9a1.619 1.619 0 0 1 3.238 0 1.62 1.62 0 0 1 -3.238 0z"/><path d="m98.174 20.459h.717a.587.587 0 0 0 .513-.511v-9.817a.63.63 0 0 0 -.513-.552h-.779v-1.763h3.771c.328 0 .513.246.513.7v8.156l2.7-2.643c.327-.349.245-.819-.164-.819h-.41v-1.81h4.856v1.8h-.573a1.4 1.4 0 0 0 -.862.389l-2.294 2.234 2.807 4.057c.287.409.513.573.8.573h.2v1.7h-2.931l-2.929-4.345-1.196 1.176v1.475h1.045v1.7h-5.271z"/><path d="m110.043 20.459h.8a.587.587 0 0 0 .513-.511v-9.817a.63.63 0 0 0 -.513-.552h-.86v-1.763h3.852c.349 0 .513.246.513.7v11.432a.586.586 0 0 0 .512.511h.84v1.7h-5.656z"/><path d="m116.275 20.459h.716a.587.587 0 0 0 .513-.511v-6.19a.631.631 0 0 0 -.513-.552h-.8v-1.806h3.668c.348 0 .553.287.615 1.414a5.984 5.984 0 0 1 3.832-1.578 2.391 2.391 0 0 1 2.6 1.68 6.036 6.036 0 0 1 3.935-1.68 2.413 2.413 0 0 1 2.725 2.684v6.026a.567.567 0 0 0 .512.511h.574v1.7h-5.225v-1.7h1.147v-5.591c0-1.046-.348-1.291-1.291-1.291a7.442 7.442 0 0 0 -2.254.388v6.5h1.171v1.7h-5.307v-1.7h1.147v-5.597c0-1.046-.348-1.291-1.291-1.291a7.442 7.442 0 0 0 -2.254.388v6.5h1.168v1.7h-5.389z"/><path d="m135.216 20.459h.717a.586.586 0 0 0 .512-.511v-6.19a.63.63 0 0 0 -.512-.552h-.8v-1.806h3.667c.349 0 .554.287.615 1.393a5.766 5.766 0 0 1 4-1.557c1.495 0 2.786.594 2.786 2.684v6.026a.568.568 0 0 0 .513.511h.574v1.7h-5.307v-1.7h1.229v-5.51c0-1.066-.41-1.372-1.414-1.372a7.638 7.638 0 0 0 -2.356.409v6.475h1.25v1.7h-5.472z"/><path d="m147.845 16.832a5.656 5.656 0 0 1 11.311 0 5.659 5.659 0 0 1 -11.311 0zm8.278.021c0-2.438-1.127-3.647-2.623-3.647s-2.623 1.209-2.623 3.647c0 2.418 1.128 3.565 2.623 3.565s2.623-1.147 2.623-3.565z"/><path d="m159.612 23.882h.716a.569.569 0 0 0 .513-.512v-9.612a.631.631 0 0 0 -.513-.552h-.8v-1.806h3.672c.329 0 .534.246.595 1.25a4.485 4.485 0 0 1 3.278-1.414c2.03 0 4.058 1.475 4.058 5.307 0 3.976-2.356 5.411-4.631 5.411a4.306 4.306 0 0 1 -2.664-.738v2.664h1.373v1.6h-5.594zm4.221-10.1v6a3.078 3.078 0 0 0 1.741.47c1.23 0 2.521-.573 2.521-3.442 0-2.726-1.168-3.422-2.48-3.422a5.4 5.4 0 0 0 -1.782.391z"/><path d="m178.038 23.882h1.373v-2.992a4.429 4.429 0 0 1 -3.033 1.066c-2.151 0-4.467-1.107-4.467-5.144 0-3.976 2.459-5.574 4.549-5.574a3.8 3.8 0 0 1 3.095 1.332c.246-.922.737-1.168 1.045-1.168h1.8v11.968a.567.567 0 0 0 .511.512h.78v1.6h-5.657zm1.373-4.262v-5.944a5.557 5.557 0 0 0 -1.783-.368c-1.413 0-2.684.778-2.684 3.442 0 2.89 1.21 3.423 2.439 3.423a3.646 3.646 0 0 0 2.028-.553z"/><path d="m183.8 20.459h.717a.586.586 0 0 0 .512-.511v-6.19a.63.63 0 0 0 -.512-.552h-.8v-1.806h3.668c.349 0 .574.307.615 1.557a3.687 3.687 0 0 1 2.971-1.66 2.3 2.3 0 0 1 .656.1v2.214h-.513a6.231 6.231 0 0 0 -3.093.655v6.188h1.5v1.7h-5.721z"/><path d="m192.145 21.709v-2.418h1.72a2.221 2.221 0 0 0 2.153 1.23c1.147 0 1.844-.491 1.844-1.271 0-.8-.471-1.127-2.193-1.373-2.315-.327-3.4-1.127-3.4-3.237 0-2.132 1.638-3.361 4.385-3.361a11.655 11.655 0 0 1 3.689.471v2.377h-1.66a2.2 2.2 0 0 0 -2.132-1.045c-1.106 0-1.721.452-1.721 1.127 0 .657.389 1.045 2.213 1.312 2.6.39 3.668 1.106 3.668 3.279 0 2.111-1.414 3.484-4.672 3.484a11.367 11.367 0 0 1 -3.894-.575z"/><path d="m201.041 11.4h1.271v-2.867h2.988v2.867h2.172v1.8h-2.172v5.9c0 1.147.409 1.352 1.516 1.352h.738v1.6a6.341 6.341 0 0 1 -1.927.267c-2.069 0-3.319-.657-3.319-2.89v-6.223h-1.271z"/><path d="m209.261 19.64v-5.923a.587.587 0 0 0 -.513-.511h-.7v-1.806h4.2v7.3c0 1.168.573 1.5 1.517 1.5a6.253 6.253 0 0 0 2.254-.512v-6.482h-1.409v-1.806h4.406v8.505a.628.628 0 0 0 .512.552h.7v1.7h-3.567c-.347 0-.532-.267-.614-1.332a5.337 5.337 0 0 1 -3.893 1.475c-1.5 0-2.893-.57-2.893-2.66z"/><path d="m221.356 13.779a.748.748 0 0 0 -.656-.573h-.389v-1.806h5.225v1.8h-1.352l2.192 6.147h.041l1.742-4.8c.287-.8.37-1.352-.533-1.352h-.326v-1.795h4.549v1.8h-.349a.9.9 0 0 0 -.778.634l-3.422 8.327h-2.582z"/><path d="m240.562 15.172-2.132 6.989h-2.562l-2.418-8.382a.777.777 0 0 0 -.655-.573h-.39v-1.806h4.754v1.8h-.942l1.414 5.369h.041l2.09-7.173h2.3l2.09 7.173h.041l1.086-4.017c.266-.942.164-1.352-.676-1.352h-.308v-1.8h4.488v1.8h-.348a.788.788 0 0 0 -.779.634l-2.439 8.321h-2.561l-2.056-6.983z"/><path d="m260.158 20.459h.123v1.7h-5.225v-1.7h1.188l-1.926-2.4-1.066 1.373c-.451.574-.348 1.024.246 1.024h.267v1.7h-4.345v-1.7h.205a1.4 1.4 0 0 0 .861-.388l2.643-3.177-2.623-3.115c-.328-.389-.513-.573-.8-.573h-.369v-1.803h5.349v1.8h-1.148l1.865 2.315 1.209-1.515c.329-.409.288-.8-.245-.8h-.389v-1.8h4.222v1.8h-.225a1.064 1.064 0 0 0 -.759.389l-2.6 3.135 2.665 3.156c.324.395.59.579.877.579z"/><path d="m262.5 25.48v-1.58a5.82 5.82 0 0 0 2.909-1.886l-3.545-8.238c-.143-.348-.348-.573-.634-.573h-.39v-1.803h5.2v1.8h-1.41l2.315 5.553 1.722-4.2c.308-.779.41-1.352-.492-1.352h-.327v-1.801h4.733v1.8h-.451a.9.9 0 0 0 -.737.634l-3.525 7.931a8.471 8.471 0 0 1 -2.93 3.709z"/><path d="m272.852 20.3 5.963-7.069h-3.627l-.287 1.8h-1.721v-3.631h9.078v1.927l-5.984 7.048h3.811l.246-1.8h1.783v3.586h-9.262z"/><path d="m.369 39.587c0-4.979 2.93-7.336 6.209-7.336s6.209 2.357 6.209 7.336-2.93 7.337-6.209 7.337-6.209-2.356-6.209-7.337zm9.14.062c0-3.873-1.106-5.267-2.931-5.267-1.844 0-2.93 1.394-2.93 5.267 0 3.852 1.086 5.225 2.93 5.225 1.822 0 2.931-1.374 2.931-5.225z"/><path d="m13.592 45.059h1.558a.7.7 0 0 0 .573-.635v-9.016l-1.414.634h-.717v-1.7l3.2-1.926h2.153v12.008a.676.676 0 0 0 .573.635h1.291v1.7h-7.217z"/><path d="m29.333 42.846h2.029v3.914h-9.754v-1.291c0-2.684 1.946-4.2 3.791-5.554 1.5-1.106 2.951-2.069 2.951-3.544 0-1.23-.615-2.03-1.845-2.03a2.541 2.541 0 0 0 -2.459 1.619h-1.783v-2.93a12.846 12.846 0 0 1 4.345-.779c3.094 0 5.02 1.271 5.02 4.1 0 2.644-2.336 3.914-4.365 5.082-1.536.881-2.807 1.845-3.012 2.972h4.857z"/><path d="m32.41 46.227v-2.7h1.783a2.584 2.584 0 0 0 2.419 1.352 2.187 2.187 0 0 0 2.4-2.253c0-1.5-.841-2.213-2.582-2.213h-1.068v-1.913h.9c1.783 0 2.684-.716 2.684-2.171a1.735 1.735 0 0 0 -1.946-1.947 2.576 2.576 0 0 0 -2.336 1.271h-1.7v-2.663a12.363 12.363 0 0 1 4.263-.739c2.992 0 4.815 1.107 4.815 3.73 0 1.968-1.147 2.931-3.032 3.341v.078c2.192.306 3.237 1.434 3.237 3.381.021 2.705-2.377 4.139-5.593 4.139a11.037 11.037 0 0 1 -4.244-.693z"/><path d="m49.013 44.424v-1.086h-5.984v-2.438l6.148-8.484h2.972v8.914h1.516v2.008h-1.516v1.086a.676.676 0 0 0 .573.635h.943v1.7h-6.165v-1.7h.944a.7.7 0 0 0 .569-.635zm-4.1-3.094h4.1v-5.636h-.082l-4.017 5.554z"/><path d="m58.874 46.924a10.07 10.07 0 0 1 -4.242-.86v-2.644h1.782a2.42 2.42 0 0 0 2.419 1.454 2.3 2.3 0 0 0 2.4-2.6c0-1.782-1.045-2.541-2.194-2.541a2.609 2.609 0 0 0 -2.192.964h-1.907v-8.28h8.893v3.422h-2.033l-.225-1.086h-4.34v3.647h.065a4.513 4.513 0 0 1 2.623-.717c2.5 0 4.487 1.353 4.487 4.468-.004 3.093-2.196 4.773-5.536 4.773z"/><path d="m68.632 39.117a4.343 4.343 0 0 1 3.361-1.455 4.066 4.066 0 0 1 4.385 4.344c0 2.827-2.11 4.918-5.39 4.918s-5.655-2.3-5.655-7.029c0-4.9 2.664-7.644 7.09-7.644a12.821 12.821 0 0 1 3.177.349v2.521h-1.763a1.915 1.915 0 0 0 -1.68-.821c-2.234 0-3.381 1.64-3.525 4.817zm-.02 1.332c.061 3.175.7 4.569 2.376 4.569s2.194-1.373 2.194-2.909c0-1.558-.718-2.44-2.132-2.44a4.141 4.141 0 0 0 -2.438.78z"/><path d="m84.538 34.792h-5.451l-.225 1.866h-2.029v-4.243h9.816v2.6l-5.123 11.745h-3.217v-1.25l6.229-10.636z"/><path d="m95.32 39.117c1.886.573 3.013 1.742 3.013 3.565 0 2.644-1.987 4.242-5.595 4.242s-5.593-1.6-5.593-4.242c0-1.823 1.127-2.992 3.011-3.565v-.082a2.991 2.991 0 0 1 -2.4-2.972c0-2.4 2.029-3.812 4.979-3.812s4.981 1.414 4.981 3.812a2.97 2.97 0 0 1 -2.4 2.972zm-.163 3.4a2.419 2.419 0 1 0 -4.837 0 2.419 2.419 0 1 0 4.837 0zm-.533-6.27a1.887 1.887 0 1 0 -3.77 0 1.885 1.885 0 1 0 3.77 0z"/><path d="m106.78 40.059a4.34 4.34 0 0 1 -3.361 1.455 4.066 4.066 0 0 1 -4.385-4.345c0-2.828 2.111-4.918 5.39-4.918s5.655 2.07 5.655 7.03c0 4.938-2.664 7.643-7.09 7.643a10.677 10.677 0 0 1 -3.4-.492v-2.541h1.722a2.045 2.045 0 0 0 1.947.983c2.211 0 3.358-1.638 3.522-4.815zm.021-1.311c-.062-3.2-.718-4.59-2.377-4.59-1.681 0-2.193 1.373-2.193 2.909 0 1.557.717 2.439 2.131 2.439a4.155 4.155 0 0 0 2.438-.758z"/></svg>