<svg xmlns="http://www.w3.org/2000/svg" xmlns:xlink="http://www.w3.org/1999/xlink" viewBox="0 0 285.795 67.592">
  <defs>
    <clipPath id="clip-path">
      <rect x="352.692" y="224.645" width="285.795" height="113.168" fill="none"/>
    </clipPath>
    <clipPath id="clip-path-2">
      <rect x="352.692" y="-100.788" width="285.795" height="113.168" fill="none"/>
    </clipPath>
  </defs>
  <title>ws2018-icons</title>
  <g id="grid">
    <g id="Specified">
      <circle id="Oval-4" cx="33.32" cy="33.32" r="33.32" fill="#ae0f0a"/>
      <circle id="Oval-4-Copy" cx="114.24" cy="33.32" r="33.32" fill="#f2e4b1"/>
      <circle id="Oval-4-Copy-3" cx="179.18" cy="36.38" r="18.02" fill="#ad9c62"/>
    </g>
    <g clip-path="url(#clip-path)">
      <g>
        <path d="M697.871,56.338a93.522,93.522,0,0,0-19.549,1.791A46.066,46.066,0,0,0,667.478,61.8a30.266,30.266,0,0,0-11.121,9.195,39.55,39.55,0,0,0-6.132,13.327h0a90.184,90.184,0,0,1-4.857,13.475,35.65,35.65,0,0,1-4.167,6.9,20.679,20.679,0,0,1-7.806,6.2,32.347,32.347,0,0,1-10.871,2.5l.007.173a53.315,53.315,0,0,0-11.732,3.162,31.306,31.306,0,0,0-12.908,9.374,38.518,38.518,0,0,0-6.88,14.3h0a97.308,97.308,0,0,1-4.19,12.006,42.056,42.056,0,0,1-3.5,6.533,22.58,22.58,0,0,1-6.276,6.445,23.421,23.421,0,0,1-8.2,3.3,73.384,73.384,0,0,0-16.32,2.557,40.053,40.053,0,0,0-9.216,3.888,29.722,29.722,0,0,0-9.605,8.939,40.568,40.568,0,0,0-5.48,12.418h0a90.426,90.426,0,0,1-4.856,13.463,35.591,35.591,0,0,1-4.167,6.9c-2.249,2.839-1.753,4.818-4.786,6.2-2.184.994-7.659,1.674-10.463,2.108-.4.061-4.046.77-4.356.827a51.551,51.551,0,0,0-10.2,2.9,31.321,31.321,0,0,0-12.915,9.374,38.547,38.547,0,0,0-6.878,14.295h0c-2.538,8.812-5.156,15.094-8.343,19.477a22.153,22.153,0,0,1-5.273,5.275,21.844,21.844,0,0,1-6.527,3.036,80.045,80.045,0,0,0-17.395,2.293,42.052,42.052,0,0,0-9.794,3.818,29.877,29.877,0,0,0-10.147,9.043,40.2,40.2,0,0,0-5.713,12.746h0a98.684,98.684,0,0,1-4.066,11.724c-2.134,4.937-4.466,8.535-7.226,11.138a20.025,20.025,0,0,1-4.516,3.217,24.175,24.175,0,0,1-5.388,1.994,66.785,66.785,0,0,0-15.156,2.819,33.119,33.119,0,0,0-15.1,9.451,37.5,37.5,0,0,0-7.758,15.339h0a96.243,96.243,0,0,1-4.284,12.219,41.154,41.154,0,0,1-3.588,6.59,22.216,22.216,0,0,1-6.471,6.425,24.216,24.216,0,0,1-8.557,3.213q-1.784.22-3.455.508h0c-.441.049-.89.089-1.347.127l0,.129a49.048,49.048,0,0,0-11.145,3.41,30.69,30.69,0,0,0-11.915,9.29,39.059,39.059,0,0,0-6.464,13.767h0a90.073,90.073,0,0,1-4.859,13.476,35.5,35.5,0,0,1-4.165,6.9,20.658,20.658,0,0,1-7.807,6.2,32.317,32.317,0,0,1-10.871,2.5l.07,1.7h.359a124.216,124.216,0,0,0,15.6-.817,51.035,51.035,0,0,0,10.148-2.283,30.313,30.313,0,0,0,12.389-7.821,38.557,38.557,0,0,0,8.374-15.009h0a128.6,128.6,0,0,1,5.527-13.88,47.081,47.081,0,0,1,4.043-6.983,22.486,22.486,0,0,1,6.587-6.328,27.1,27.1,0,0,1,8.275-3.155,56.1,56.1,0,0,0,10.757-2.086,30.97,30.97,0,0,0,13.188-7.753c3.713-3.749,6.683-8.789,8.844-15.494h0a131.113,131.113,0,0,1,5.357-13.525,49.478,49.478,0,0,1,3.909-6.907,23.266,23.266,0,0,1,6.311-6.39,25,25,0,0,1,7.766-3.26,66.141,66.141,0,0,0,11.811-1.78,37.254,37.254,0,0,0,7.782-2.9,29.032,29.032,0,0,0,9.575-7.84,40.748,40.748,0,0,0,6.7-13.08h0a133.239,133.239,0,0,1,5.217-13.229,51.238,51.238,0,0,1,3.8-6.84,24,24,0,0,1,6.091-6.434,23.633,23.633,0,0,1,7.364-3.344,87.053,87.053,0,0,0,13.489-1.313,42.746,42.746,0,0,0,8.874-2.629,29.4,29.4,0,0,0,10.875-7.88,39.663,39.663,0,0,0,7.48-14.02h0a123.144,123.144,0,0,1,5.926-14.691,42.4,42.4,0,0,1,4.361-7.131,21.243,21.243,0,0,1,7.275-6.154,34.228,34.228,0,0,1,9.541-2.915,52.6,52.6,0,0,0,10.336-2.215,30.507,30.507,0,0,0,12.654-7.8c3.571-3.718,6.437-8.666,8.538-15.19h0a128.645,128.645,0,0,1,5.521-13.858,47.139,47.139,0,0,1,4.04-6.983,22.5,22.5,0,0,1,6.584-6.328A27.056,27.056,0,0,1,571.856,171a76.19,76.19,0,0,0,12.694-1.537A39.877,39.877,0,0,0,592.9,166.7a29.2,29.2,0,0,0,10.249-7.872,40.2,40.2,0,0,0,7.1-13.578h0a124.658,124.658,0,0,1,5.8-14.445,43.963,43.963,0,0,1,4.262-7.09,21.545,21.545,0,0,1,7.06-6.211,31.635,31.635,0,0,1,9.133-2.985,56.614,56.614,0,0,0,10.824-2.073A31.005,31.005,0,0,0,660.58,104.7c3.734-3.756,6.718-8.812,8.887-15.547h0a120.572,120.572,0,0,1,6.122-15.076,40.353,40.353,0,0,1,4.526-7.191,20.911,20.911,0,0,1,7.649-6.053,39.484,39.484,0,0,1,10.245-2.8ZM440.586,284.672a22.494,22.494,0,0,0-4.561,3.866,39.814,39.814,0,0,0-6.047,9.272,125.887,125.887,0,0,0-5.934,14.739l0,.008,0,.008a40.5,40.5,0,0,1-5.572,11.445,27.837,27.837,0,0,1-5.544,5.76,31.015,31.015,0,0,1-10.443,5.148,61.488,61.488,0,0,1-12.918,2.1s1.65-.123-.076,0a37.98,37.98,0,0,0-5.023,1.015c-2.77.705-.29.632-2.548,1.981a22.185,22.185,0,0,0-4.745,3.818,38.271,38.271,0,0,0-6.243,9.333,123.506,123.506,0,0,0-6.094,15.06l0,.007,0,.008a41.205,41.205,0,0,1-5.164,10.87,27.617,27.617,0,0,1-11.159,9.513,46.23,46.23,0,0,1-15.1,3.808l-.051,0-.049.013a30.044,30.044,0,0,0-7.933,2.859,21.955,21.955,0,0,0-4.978,3.751,36.506,36.506,0,0,0-6.486,9.4,120.939,120.939,0,0,0-6.292,15.449l0,.007,0,.008a38.343,38.343,0,0,1-6.922,13.175,27.146,27.146,0,0,1-7.133,6.012,38.815,38.815,0,0,1-13.729,4.533c-2.456.387-5.05.634-7.756.8.218-.079.449-.142.663-.227a22.057,22.057,0,0,0,6.115-3.615,29.318,29.318,0,0,0,7.117-9.4,85.528,85.528,0,0,0,5.633-15.108l0-.006,0-.006a42.2,42.2,0,0,1,3.638-9.29,28.228,28.228,0,0,1,9.37-10.238,41.982,41.982,0,0,1,15.755-5.847l0-.057c.22-.02.444-.038.66-.062l.027,0,.027-.006q1.677-.287,3.473-.51l.029,0,.027,0a26.645,26.645,0,0,0,8.252-2.908,21.9,21.9,0,0,0,5-3.9,33.733,33.733,0,0,0,6.012-9.12,91.947,91.947,0,0,0,4.95-13.719v-.006l0-.006a40.76,40.76,0,0,1,4.291-10.425,28.355,28.355,0,0,1,4.938-6.133,31.778,31.778,0,0,1,10.99-6.547,62.4,62.4,0,0,1,16.388-3.28l.067,0,.066-.016a24.6,24.6,0,0,0,7.542-3.153,22.361,22.361,0,0,0,4.615-3.975,35.694,35.694,0,0,0,5.617-8.966,94.426,94.426,0,0,0,4.694-13.17v0l0-.007a39.961,39.961,0,0,1,4.679-11.05,28.02,28.02,0,0,1,5.512-6.366,34.076,34.076,0,0,1,12.5-6.513,68.742,68.742,0,0,1,14.9-2.521A24.126,24.126,0,0,0,440.586,284.672ZM558.633,175.941a36.649,36.649,0,0,0-6.484,9.394,121.153,121.153,0,0,0-6.288,15.445l0,.008,0,.008a41.521,41.521,0,0,1-4.994,10.618,27.606,27.606,0,0,1-10.716,9.465,43.655,43.655,0,0,1-14.451,3.965l-.024,0-.025,0a38.238,38.238,0,0,0-9.028,2.6,21.973,21.973,0,0,0-5.554,3.578,33.034,33.034,0,0,0-7.075,9.5,115.045,115.045,0,0,0-6.754,16.334l0,.008,0,.008a39.417,39.417,0,0,1-6.2,12.283,27.341,27.341,0,0,1-6.277,5.908,34.107,34.107,0,0,1-11.952,4.9,71.062,71.062,0,0,1-11.044,1.429,22.205,22.205,0,0,0,9.56-6.685,37.15,37.15,0,0,0,5.372-8.855,96,96,0,0,0,4.53-12.811l0-.006,0-.006a41.708,41.708,0,0,1,3.849-9.667,28.182,28.182,0,0,1,10.11-10.463,43.2,43.2,0,0,1,14.808-5.247c.8-.145,3.47-.707,3.975-.782,2.561-.377,7.914-.947,10.034-1.787a22.035,22.035,0,0,0,6.116-3.614c2.752-2.305,2.041-5.384,4.1-9.4a85.612,85.612,0,0,0,5.632-15.108l0-.005,0-.007A40.372,40.372,0,0,1,534.34,186.2a28.209,28.209,0,0,1,5.233-6.258,32.905,32.905,0,0,1,11.766-6.538,66.373,66.373,0,0,1,16.086-2.9,25.2,25.2,0,0,0-3.817,1.688A22.021,22.021,0,0,0,558.633,175.941ZM682.24,62.311a31.469,31.469,0,0,0-7.388,9.529,112.475,112.475,0,0,0-6.988,16.771l0,.008,0,.008a41.135,41.135,0,0,1-5.185,10.9,27.615,27.615,0,0,1-11.21,9.519,46.565,46.565,0,0,1-15.179,3.79l-.038,0-.036.007a35.269,35.269,0,0,0-8.68,2.674,21.892,21.892,0,0,0-5.375,3.634,34.036,34.036,0,0,0-6.891,9.474,117.021,117.021,0,0,0-6.612,16.066l0,.009,0,.008a39.937,39.937,0,0,1-5.9,11.888,27.567,27.567,0,0,1-5.924,5.844,32.53,32.53,0,0,1-11.221,5.026A67.387,67.387,0,0,1,573.2,169.21a23.16,23.16,0,0,0,3.9-1.847,22.078,22.078,0,0,0,4.843-3.933,34.526,34.526,0,0,0,5.847-9.06,92.547,92.547,0,0,0,4.845-13.5l0,0,0-.007a41.753,41.753,0,0,1,3.848-9.665,28.187,28.187,0,0,1,10.1-10.461c4.431-2.692,10.061-4.6,17.245-5.65l-.009-.118a34.348,34.348,0,0,0,9.156-2.053A22.074,22.074,0,0,0,639.1,109.3a29.371,29.371,0,0,0,7.116-9.4,85.607,85.607,0,0,0,5.633-15.108l0-.006,0-.006a39.32,39.32,0,0,1,5.007-11.557,27.864,27.864,0,0,1,6.013-6.539,36.438,36.438,0,0,1,13.845-6.434,73.109,73.109,0,0,1,12.79-1.928c-.472.165-.949.323-1.4.509A22.362,22.362,0,0,0,682.24,62.311Z" fill="#dddde3"/>
        <path d="M233.3,450.184l-.053-1.272a32.613,32.613,0,0,0,10.942-2.523,20.9,20.9,0,0,0,7.884-6.262,35.729,35.729,0,0,0,4.191-6.943,90.344,90.344,0,0,0,4.869-13.5,38.855,38.855,0,0,1,6.432-13.706,30.457,30.457,0,0,1,11.835-9.226,48.849,48.849,0,0,1,11.074-3.4l0-.114c.452-.039.9-.079,1.333-.126q1.695-.292,3.5-.516a27.077,27.077,0,0,0,6.021-1.843l.089-.041,2.744,0c-.148.089-.3.176-.45.261a26.5,26.5,0,0,1-8.187,2.885l-.021,0-.021,0q-1.8.224-3.484.512l-.02,0-.02,0c-.223.026-.448.047-.676.068l0,.053a42.177,42.177,0,0,0-15.832,5.879,28.439,28.439,0,0,0-9.44,10.314,42.466,42.466,0,0,0-3.657,9.336v0l0,0a85.252,85.252,0,0,1-5.617,15.069,29.148,29.148,0,0,1-7.065,9.335,21.776,21.776,0,0,1-6.057,3.58c-.674.268-1.369.508-2.086.725a86.06,86.06,0,0,0,9.289-.886,39.027,39.027,0,0,0,13.8-4.56,27.413,27.413,0,0,0,7.188-6.057,38.542,38.542,0,0,0,6.961-13.247l0,0,0-.007a120.812,120.812,0,0,1,6.28-15.421,36.333,36.333,0,0,1,6.447-9.343,21.749,21.749,0,0,1,4.93-3.717,29.949,29.949,0,0,1,7.878-2.838l.037-.008.039,0a55.361,55.361,0,0,0,10.3-1.961l3.818-.006c-1.039.429-2.108.809-3.2,1.151a55.918,55.918,0,0,1-10.745,2.079,27.325,27.325,0,0,0-8.334,3.182,22.691,22.691,0,0,0-6.649,6.386,47.352,47.352,0,0,0-4.062,7.014,128.773,128.773,0,0,0-5.534,13.9,38.379,38.379,0,0,1-8.331,14.94,30.112,30.112,0,0,1-12.3,7.767,50.878,50.878,0,0,1-10.107,2.272,124.058,124.058,0,0,1-15.571.816H233.3m28.444-30.329h0m30.144-26.116h0m3.514-.516h0M564.728,133.286a33.008,33.008,0,0,1,4.287-7.043,31.107,31.107,0,0,1,12.823-9.31,53.013,53.013,0,0,1,11.67-3.152l-.006-.168a32.564,32.564,0,0,0,10.941-2.523,20.885,20.885,0,0,0,7.884-6.262,35.739,35.739,0,0,0,4.192-6.942,90.43,90.43,0,0,0,4.87-13.508h0a39.394,39.394,0,0,1,6.1-13.258,30.08,30.08,0,0,1,11.047-9.132,45.907,45.907,0,0,1,10.795-3.651,93.306,93.306,0,0,1,19.506-1.787l.1,1.267a39.632,39.632,0,0,0-10.3,2.82,21.133,21.133,0,0,0-7.726,6.112,40.631,40.631,0,0,0-4.549,7.228,120.735,120.735,0,0,0-6.139,15.115c-2.16,6.708-5.127,11.729-8.831,15.456a30.819,30.819,0,0,1-13.162,7.693,56.447,56.447,0,0,1-10.806,2.068,31.861,31.861,0,0,0-9.189,3.006,21.763,21.763,0,0,0-7.125,6.269,44.026,44.026,0,0,0-4.285,7.124q-.6,1.209-1.2,2.544l-1.388,0c.725-1.642,1.447-3.147,2.173-4.529a33.831,33.831,0,0,1,6.847-9.416,21.722,21.722,0,0,1,5.322-3.6,35.179,35.179,0,0,1,8.629-2.657h0l.029-.005.028,0a46.731,46.731,0,0,0,15.247-3.809,27.848,27.848,0,0,0,11.3-9.59,41.4,41.4,0,0,0,5.21-10.953l0,0,0-.007A112.037,112.037,0,0,1,646,71.942a31.246,31.246,0,0,1,7.335-9.467,22.2,22.2,0,0,1,5.809-3.448A30.454,30.454,0,0,1,662.1,58a75.936,75.936,0,0,0-14.469,2.042A36.623,36.623,0,0,0,633.7,66.517a28.047,28.047,0,0,0-6.057,6.588,39.509,39.509,0,0,0-5.037,11.619l0,.007,0,0a85.356,85.356,0,0,1-5.617,15.07,29.128,29.128,0,0,1-7.065,9.334,21.822,21.822,0,0,1-6.056,3.581,34.018,34.018,0,0,1-9.107,2.059l.007.1c-7.2,1.057-12.864,2.968-17.324,5.679a28.4,28.4,0,0,0-10.177,10.537q-.6,1.063-1.138,2.192l-1.4,0M622,84.556h0" fill="#dddde3"/>
      </g>
      <g>
        <path d="M263.115,450.184l-.052-1.272A32.613,32.613,0,0,0,274,446.389a20.9,20.9,0,0,0,7.885-6.262,35.828,35.828,0,0,0,4.191-6.943,90.568,90.568,0,0,0,4.869-13.5,38.836,38.836,0,0,1,6.431-13.706,30.464,30.464,0,0,1,11.835-9.226,48.865,48.865,0,0,1,11.074-3.4l0-.114c.452-.039.9-.079,1.334-.126q1.694-.292,3.5-.516a27.1,27.1,0,0,0,6.022-1.843c.1-.045.2-.089.294-.136l2.7,0q-.3.185-.607.356a26.513,26.513,0,0,1-8.188,2.885l-.021,0-.021,0q-1.8.224-3.483.512l-.021,0-.019,0c-.224.026-.449.047-.676.068l0,.053a42.176,42.176,0,0,0-15.833,5.879,28.436,28.436,0,0,0-9.439,10.314,42.418,42.418,0,0,0-3.658,9.336v.009A85.246,85.246,0,0,1,286.55,435.1a29.133,29.133,0,0,1-7.065,9.335,21.776,21.776,0,0,1-6.057,3.58c-.674.268-1.369.508-2.085.725a86.041,86.041,0,0,0,9.288-.886,39.02,39.02,0,0,0,13.8-4.56,27.413,27.413,0,0,0,7.188-6.057,38.542,38.542,0,0,0,6.961-13.247l0-.006,0,0a120.812,120.812,0,0,1,6.28-15.421,36.358,36.358,0,0,1,6.447-9.343,21.755,21.755,0,0,1,4.931-3.717,29.936,29.936,0,0,1,7.878-2.838l.037-.008.038,0a54.6,54.6,0,0,0,10.61-2.056l3.737-.007q-1.666.7-3.434,1.247a55.9,55.9,0,0,1-10.745,2.079,27.335,27.335,0,0,0-8.334,3.182,22.7,22.7,0,0,0-6.649,6.386,47.266,47.266,0,0,0-4.061,7.014,128.962,128.962,0,0,0-5.535,13.9,38.379,38.379,0,0,1-8.331,14.94,30.1,30.1,0,0,1-12.3,7.767,50.868,50.868,0,0,1-10.106,2.272,124.085,124.085,0,0,1-15.572.816h-.359m28.444-30.329h0M321.7,393.739h0m3.513-.516h0M594.586,133.191a32.982,32.982,0,0,1,4.245-6.948,31.107,31.107,0,0,1,12.823-9.31,53,53,0,0,1,11.67-3.152l-.009-.168a32.541,32.541,0,0,0,10.942-2.523,20.884,20.884,0,0,0,7.886-6.262,35.786,35.786,0,0,0,4.189-6.942,90.518,90.518,0,0,0,4.873-13.508h0a39.354,39.354,0,0,1,6.1-13.258,30.051,30.051,0,0,1,11.048-9.132,45.905,45.905,0,0,1,10.793-3.651,93.337,93.337,0,0,1,19.507-1.787l.1,1.267a39.651,39.651,0,0,0-10.3,2.82,21.1,21.1,0,0,0-7.725,6.112,40.461,40.461,0,0,0-4.549,7.228,120.735,120.735,0,0,0-6.139,15.115c-2.16,6.708-5.127,11.729-8.832,15.456a30.815,30.815,0,0,1-13.161,7.693,56.447,56.447,0,0,1-10.806,2.068,31.861,31.861,0,0,0-9.189,3.006,21.758,21.758,0,0,0-7.127,6.269,44.1,44.1,0,0,0-4.283,7.124q-.576,1.167-1.155,2.449l-1.39,0c.712-1.6,1.419-3.079,2.131-4.434a33.794,33.794,0,0,1,6.849-9.416,21.647,21.647,0,0,1,5.322-3.6,35.179,35.179,0,0,1,8.629-2.657h0l.027-.005.03,0a46.737,46.737,0,0,0,15.247-3.809,27.821,27.821,0,0,0,11.292-9.59,41.278,41.278,0,0,0,5.212-10.953l0-.007,0,0a112.271,112.271,0,0,1,6.973-16.738,31.3,31.3,0,0,1,7.336-9.467,22.187,22.187,0,0,1,5.81-3.448A30.489,30.489,0,0,1,691.908,58a75.879,75.879,0,0,0-14.466,2.042,36.623,36.623,0,0,0-13.923,6.473,28.013,28.013,0,0,0-6.059,6.588,39.615,39.615,0,0,0-5.037,11.619v0l0,0A85.271,85.271,0,0,1,646.8,99.8a29.112,29.112,0,0,1-7.064,9.334,21.813,21.813,0,0,1-6.057,3.581,34.046,34.046,0,0,1-9.108,2.059l.008.1c-7.205,1.057-12.863,2.968-17.323,5.679a28.393,28.393,0,0,0-10.179,10.537q-.577,1.018-1.092,2.1l-1.4,0m57.227-48.635h0" fill="#dddde3"/>
        <path d="M669.609,56.338a93.515,93.515,0,0,0-19.549,1.791A46.075,46.075,0,0,0,639.215,61.8a30.263,30.263,0,0,0-11.12,9.195,39.55,39.55,0,0,0-6.132,13.327h0a90.3,90.3,0,0,1-4.857,13.475,35.65,35.65,0,0,1-4.167,6.9,20.687,20.687,0,0,1-7.806,6.2,32.353,32.353,0,0,1-10.872,2.5l.008.173a53.315,53.315,0,0,0-11.732,3.162,31.3,31.3,0,0,0-12.908,9.374,38.519,38.519,0,0,0-6.881,14.3h0a97.131,97.131,0,0,1-4.191,12.006,41.972,41.972,0,0,1-3.5,6.533,22.593,22.593,0,0,1-6.276,6.445,23.421,23.421,0,0,1-8.2,3.3,73.384,73.384,0,0,0-16.32,2.557,40.034,40.034,0,0,0-9.216,3.888,29.712,29.712,0,0,0-9.605,8.939,40.544,40.544,0,0,0-5.48,12.418h0a90.547,90.547,0,0,1-4.855,13.463,35.64,35.64,0,0,1-4.167,6.9c-2.249,2.839-1.753,4.818-4.786,6.2-2.184.994-7.66,1.674-10.463,2.108-.4.061-4.046.77-4.356.827a51.551,51.551,0,0,0-10.2,2.9,31.321,31.321,0,0,0-12.915,9.374,38.531,38.531,0,0,0-6.878,14.295h0c-2.538,8.812-5.157,15.094-8.343,19.477a22.171,22.171,0,0,1-5.273,5.275,21.85,21.85,0,0,1-6.528,3.036A80.043,80.043,0,0,0,403.8,282.65,42.052,42.052,0,0,0,394,286.468a29.877,29.877,0,0,0-10.147,9.043,40.2,40.2,0,0,0-5.713,12.746h0a98.493,98.493,0,0,1-4.067,11.724c-2.134,4.937-4.465,8.535-7.225,11.138a20.025,20.025,0,0,1-4.516,3.217,24.165,24.165,0,0,1-5.389,1.994,66.775,66.775,0,0,0-15.155,2.819,33.113,33.113,0,0,0-15.1,9.451,37.491,37.491,0,0,0-7.758,15.339h0a96.243,96.243,0,0,1-4.284,12.219,41.233,41.233,0,0,1-3.588,6.59,22.228,22.228,0,0,1-6.471,6.425,24.214,24.214,0,0,1-8.558,3.213q-1.782.22-3.454.508h0c-.442.049-.891.089-1.348.127l.006.129a49.048,49.048,0,0,0-11.145,3.41,30.683,30.683,0,0,0-11.915,9.29,39.061,39.061,0,0,0-6.465,13.767h0a90.073,90.073,0,0,1-4.859,13.476,35.5,35.5,0,0,1-4.165,6.9,20.658,20.658,0,0,1-7.807,6.2,32.329,32.329,0,0,1-10.871,2.5l.07,1.7h.359a124.216,124.216,0,0,0,15.6-.817,51.035,51.035,0,0,0,10.148-2.283,30.319,30.319,0,0,0,12.389-7.821,38.569,38.569,0,0,0,8.374-15.009h0a128.794,128.794,0,0,1,5.528-13.88,47.083,47.083,0,0,1,4.042-6.983,22.5,22.5,0,0,1,6.588-6.328,27.1,27.1,0,0,1,8.275-3.155,56.088,56.088,0,0,0,10.756-2.086,30.968,30.968,0,0,0,13.189-7.753c3.713-3.749,6.682-8.789,8.843-15.494h0a131.113,131.113,0,0,1,5.357-13.525,49.377,49.377,0,0,1,3.909-6.907,23.278,23.278,0,0,1,6.31-6.39,25.013,25.013,0,0,1,7.767-3.26,66.155,66.155,0,0,0,11.811-1.78,37.254,37.254,0,0,0,7.782-2.9,29.042,29.042,0,0,0,9.575-7.84,40.768,40.768,0,0,0,6.7-13.08h0a133.217,133.217,0,0,1,5.218-13.229,51.238,51.238,0,0,1,3.8-6.84,24,24,0,0,1,6.091-6.434,23.622,23.622,0,0,1,7.364-3.344,87.028,87.028,0,0,0,13.488-1.313,42.755,42.755,0,0,0,8.875-2.629,29.413,29.413,0,0,0,10.875-7.88,39.646,39.646,0,0,0,7.479-14.02h0a123.329,123.329,0,0,1,5.925-14.691,42.533,42.533,0,0,1,4.361-7.131,21.245,21.245,0,0,1,7.276-6.154,34.228,34.228,0,0,1,9.541-2.915,52.618,52.618,0,0,0,10.336-2.215,30.507,30.507,0,0,0,12.654-7.8c3.571-3.718,6.437-8.666,8.538-15.19h0a129.063,129.063,0,0,1,5.521-13.858,47.225,47.225,0,0,1,4.041-6.983,22.5,22.5,0,0,1,6.584-6.328A27.056,27.056,0,0,1,543.594,171a76.164,76.164,0,0,0,12.693-1.537,39.886,39.886,0,0,0,8.349-2.764,29.2,29.2,0,0,0,10.248-7.872,40.161,40.161,0,0,0,7.1-13.578h0a124.479,124.479,0,0,1,5.8-14.445,43.963,43.963,0,0,1,4.262-7.09,21.545,21.545,0,0,1,7.06-6.211,31.625,31.625,0,0,1,9.133-2.985,56.629,56.629,0,0,0,10.824-2.073,31.005,31.005,0,0,0,13.247-7.746c3.734-3.756,6.718-8.812,8.887-15.547h0a120.71,120.71,0,0,1,6.123-15.076,40.353,40.353,0,0,1,4.526-7.191A20.911,20.911,0,0,1,659.5,60.83a39.473,39.473,0,0,1,10.245-2.8ZM412.323,284.672a22.516,22.516,0,0,0-4.56,3.866,39.814,39.814,0,0,0-6.047,9.272,125.887,125.887,0,0,0-5.934,14.739l0,.008,0,.008a40.5,40.5,0,0,1-5.572,11.445,27.815,27.815,0,0,1-5.545,5.76,31,31,0,0,1-10.442,5.148,61.5,61.5,0,0,1-12.918,2.1s1.65-.123-.076,0a38.007,38.007,0,0,0-5.024,1.015c-2.769.705-.289.632-2.547,1.981a22.185,22.185,0,0,0-4.745,3.818,38.215,38.215,0,0,0-6.243,9.333,123.491,123.491,0,0,0-6.1,15.06l0,.007,0,.008a41.237,41.237,0,0,1-5.164,10.87,27.624,27.624,0,0,1-11.159,9.513,46.236,46.236,0,0,1-15.1,3.808l-.051,0-.05.013a30.05,30.05,0,0,0-7.932,2.859,21.96,21.96,0,0,0-4.979,3.751,36.556,36.556,0,0,0-6.486,9.4,121.1,121.1,0,0,0-6.291,15.449l0,.007,0,.008a38.343,38.343,0,0,1-6.922,13.175,27.146,27.146,0,0,1-7.133,6.012,38.822,38.822,0,0,1-13.729,4.533c-2.457.387-5.051.634-7.756.8.217-.079.449-.142.663-.227a22.057,22.057,0,0,0,6.115-3.615,29.318,29.318,0,0,0,7.117-9.4,85.528,85.528,0,0,0,5.633-15.108v-.006l0-.006a42.248,42.248,0,0,1,3.639-9.29,28.228,28.228,0,0,1,9.37-10.238A41.975,41.975,0,0,1,292.1,394.7l-.006-.057c.221-.02.445-.038.661-.062l.027,0,.026-.006q1.677-.287,3.474-.51l.028,0,.028,0a26.645,26.645,0,0,0,8.252-2.908,21.938,21.938,0,0,0,5-3.9,33.732,33.732,0,0,0,6.011-9.12,91.723,91.723,0,0,0,4.95-13.719l0-.006,0-.006a40.76,40.76,0,0,1,4.291-10.425,28.38,28.38,0,0,1,4.937-6.133,31.783,31.783,0,0,1,10.991-6.547,62.4,62.4,0,0,1,16.388-3.28l.067,0,.066-.016a24.6,24.6,0,0,0,7.542-3.153,22.413,22.413,0,0,0,4.615-3.975,35.751,35.751,0,0,0,5.617-8.966,94.426,94.426,0,0,0,4.694-13.17v0l0-.007a39.961,39.961,0,0,1,4.679-11.05,28.02,28.02,0,0,1,5.512-6.366,34.068,34.068,0,0,1,12.5-6.513,68.743,68.743,0,0,1,14.895-2.521A24.174,24.174,0,0,0,412.323,284.672ZM530.371,175.941a36.649,36.649,0,0,0-6.484,9.394A121.286,121.286,0,0,0,517.6,200.78l0,.008,0,.008a41.521,41.521,0,0,1-5,10.618,27.6,27.6,0,0,1-10.715,9.465,43.669,43.669,0,0,1-14.451,3.965l-.024,0-.025,0a38.224,38.224,0,0,0-9.028,2.6,21.973,21.973,0,0,0-5.554,3.578,33.016,33.016,0,0,0-7.075,9.5,115.045,115.045,0,0,0-6.754,16.334l0,.008,0,.008a39.417,39.417,0,0,1-6.2,12.283,27.361,27.361,0,0,1-6.277,5.908,34.107,34.107,0,0,1-11.952,4.9,71.062,71.062,0,0,1-11.044,1.429,22.205,22.205,0,0,0,9.56-6.685,37.183,37.183,0,0,0,5.372-8.855,96,96,0,0,0,4.53-12.811l0-.006,0-.006a41.707,41.707,0,0,1,3.848-9.667,28.19,28.19,0,0,1,10.11-10.463,43.2,43.2,0,0,1,14.808-5.247c.8-.145,3.471-.707,3.976-.782,2.561-.377,7.914-.947,10.034-1.787a22.049,22.049,0,0,0,6.116-3.614c2.752-2.305,2.041-5.384,4.1-9.4a85.691,85.691,0,0,0,5.632-15.108l0-.005,0-.007a40.307,40.307,0,0,1,4.492-10.753,28.209,28.209,0,0,1,5.233-6.258,32.909,32.909,0,0,1,11.765-6.538,66.382,66.382,0,0,1,16.087-2.9,25.2,25.2,0,0,0-3.817,1.688A22.021,22.021,0,0,0,530.371,175.941ZM653.977,62.311a31.483,31.483,0,0,0-7.387,9.529A112.475,112.475,0,0,0,639.6,88.611l0,.008,0,.008a41.166,41.166,0,0,1-5.185,10.9,27.615,27.615,0,0,1-11.21,9.519,46.564,46.564,0,0,1-15.18,3.79l-.038,0-.035.007a35.256,35.256,0,0,0-8.68,2.674,21.873,21.873,0,0,0-5.375,3.634A34.016,34.016,0,0,0,587,128.626a117.021,117.021,0,0,0-6.612,16.066l0,.009,0,.008a39.914,39.914,0,0,1-5.9,11.888,27.54,27.54,0,0,1-5.923,5.844,32.53,32.53,0,0,1-11.221,5.026,67.387,67.387,0,0,1-12.409,1.743,23.16,23.16,0,0,0,3.905-1.847,22.1,22.1,0,0,0,4.842-3.933,34.5,34.5,0,0,0,5.848-9.06,92.665,92.665,0,0,0,4.845-13.5l0,0,0-.007a41.8,41.8,0,0,1,3.847-9.665,28.19,28.19,0,0,1,10.1-10.461c4.43-2.692,10.061-4.6,17.245-5.65l-.009-.118a34.332,34.332,0,0,0,9.155-2.053,22.059,22.059,0,0,0,6.116-3.614,29.388,29.388,0,0,0,7.117-9.4,85.607,85.607,0,0,0,5.633-15.108l0-.006,0-.006A39.32,39.32,0,0,1,628.6,73.223a27.881,27.881,0,0,1,6.012-6.539,36.443,36.443,0,0,1,13.846-6.434,73.111,73.111,0,0,1,12.789-1.928c-.471.165-.948.323-1.4.509A22.367,22.367,0,0,0,653.977,62.311Z" fill="#dddde3"/>
        <path d="M205.037,450.184l-.052-1.272a32.6,32.6,0,0,0,10.941-2.523,20.9,20.9,0,0,0,7.885-6.262A35.828,35.828,0,0,0,228,433.184a90.456,90.456,0,0,0,4.869-13.5,38.855,38.855,0,0,1,6.432-13.706,30.457,30.457,0,0,1,11.835-9.226,48.856,48.856,0,0,1,11.073-3.4l0-.114c.452-.039.9-.079,1.333-.126q1.693-.292,3.5-.516a27.077,27.077,0,0,0,6.021-1.843l.088-.041,2.745,0q-.224.133-.45.261a26.507,26.507,0,0,1-8.187,2.885l-.021,0-.021,0q-1.8.224-3.484.512l-.02,0-.02,0c-.223.026-.449.047-.676.068l0,.053a42.176,42.176,0,0,0-15.833,5.879,28.436,28.436,0,0,0-9.439,10.314,42.466,42.466,0,0,0-3.657,9.336v0l0,0a85.246,85.246,0,0,1-5.618,15.069,29.131,29.131,0,0,1-7.064,9.335,21.781,21.781,0,0,1-6.058,3.58c-.674.268-1.368.508-2.085.725a86.06,86.06,0,0,0,9.289-.886,39.015,39.015,0,0,0,13.8-4.56,27.381,27.381,0,0,0,7.188-6.057,38.56,38.56,0,0,0,6.962-13.247l0,0,0-.007a120.665,120.665,0,0,1,6.28-15.421,36.332,36.332,0,0,1,6.446-9.343,21.755,21.755,0,0,1,4.931-3.717,29.936,29.936,0,0,1,7.878-2.838l.037-.008.038,0a55.356,55.356,0,0,0,10.3-1.961l3.818-.006c-1.039.429-2.108.809-3.206,1.151a55.888,55.888,0,0,1-10.745,2.079,27.335,27.335,0,0,0-8.334,3.182,22.715,22.715,0,0,0-6.649,6.386,47.354,47.354,0,0,0-4.061,7.014,128.962,128.962,0,0,0-5.535,13.9,38.365,38.365,0,0,1-8.33,14.94,30.109,30.109,0,0,1-12.3,7.767,50.868,50.868,0,0,1-10.106,2.272,124.064,124.064,0,0,1-15.572.816h-.359m28.445-30.329h0m30.144-26.116h0m3.514-.516h0M536.465,133.286a33.011,33.011,0,0,1,4.288-7.043,31.107,31.107,0,0,1,12.823-9.31,53,53,0,0,1,11.67-3.152l-.007-.168a32.565,32.565,0,0,0,10.942-2.523,20.882,20.882,0,0,0,7.883-6.262,35.691,35.691,0,0,0,4.193-6.942,90.327,90.327,0,0,0,4.869-13.508h0a39.413,39.413,0,0,1,6.1-13.258,30.088,30.088,0,0,1,11.047-9.132,45.915,45.915,0,0,1,10.8-3.651,93.3,93.3,0,0,1,19.5-1.787l.1,1.267a39.651,39.651,0,0,0-10.3,2.82,21.13,21.13,0,0,0-7.725,6.112,40.574,40.574,0,0,0-4.549,7.228,120.735,120.735,0,0,0-6.139,15.115c-2.16,6.708-5.128,11.729-8.832,15.456a30.815,30.815,0,0,1-13.161,7.693,56.447,56.447,0,0,1-10.806,2.068,31.861,31.861,0,0,0-9.189,3.006,21.763,21.763,0,0,0-7.125,6.269,43.954,43.954,0,0,0-4.285,7.124q-.6,1.209-1.2,2.544l-1.387,0c.724-1.642,1.447-3.147,2.173-4.529A33.831,33.831,0,0,1,565,119.309a21.722,21.722,0,0,1,5.322-3.6,35.179,35.179,0,0,1,8.629-2.657h0l.029-.005.028,0a46.737,46.737,0,0,0,15.247-3.809,27.839,27.839,0,0,0,11.294-9.59,41.339,41.339,0,0,0,5.21-10.953l0,0,0-.007a112.037,112.037,0,0,1,6.975-16.738,31.261,31.261,0,0,1,7.334-9.467,22.219,22.219,0,0,1,5.81-3.448A30.528,30.528,0,0,1,633.832,58a75.925,75.925,0,0,0-14.468,2.042,36.623,36.623,0,0,0-13.923,6.473,28.047,28.047,0,0,0-6.057,6.588,39.509,39.509,0,0,0-5.037,11.619l0,.007,0,0a85.35,85.35,0,0,1-5.618,15.07,29.112,29.112,0,0,1-7.064,9.334,21.813,21.813,0,0,1-6.057,3.581,34.01,34.01,0,0,1-9.106,2.059l.006.1c-7.2,1.057-12.863,2.968-17.323,5.679A28.387,28.387,0,0,0,539,131.092q-.6,1.063-1.138,2.192l-1.4,0m57.27-48.73h0" fill="#dddde3"/>
      </g>
      <path d="M261.562,450.184l-.052-1.272a32.613,32.613,0,0,0,10.941-2.523,20.889,20.889,0,0,0,7.884-6.262,35.779,35.779,0,0,0,4.192-6.943,90.464,90.464,0,0,0,4.868-13.5,38.855,38.855,0,0,1,6.432-13.706,30.464,30.464,0,0,1,11.835-9.226,48.865,48.865,0,0,1,11.074-3.4l0-.114c.452-.039.9-.079,1.334-.126q1.694-.292,3.5-.516a27.1,27.1,0,0,0,6.022-1.843l.088-.041,2.745,0q-.224.133-.45.261a26.513,26.513,0,0,1-8.188,2.885l-.021,0-.021,0q-1.8.224-3.484.512l-.02,0-.019,0c-.224.026-.449.047-.676.068l0,.053a42.177,42.177,0,0,0-15.832,5.879,28.448,28.448,0,0,0-9.44,10.314,42.466,42.466,0,0,0-3.657,9.336v.009A85.325,85.325,0,0,1,285,435.1a29.119,29.119,0,0,1-7.065,9.335,21.776,21.776,0,0,1-6.057,3.58c-.674.268-1.369.508-2.085.725a86.066,86.066,0,0,0,9.288-.886,39.02,39.02,0,0,0,13.8-4.56,27.413,27.413,0,0,0,7.188-6.057,38.542,38.542,0,0,0,6.961-13.247l0,0,0-.007a120.812,120.812,0,0,1,6.28-15.421,36.358,36.358,0,0,1,6.447-9.343,21.755,21.755,0,0,1,4.931-3.717,29.936,29.936,0,0,1,7.878-2.838l.037-.008.038,0a55.346,55.346,0,0,0,10.3-1.961l3.818-.006c-1.039.429-2.108.809-3.2,1.151a55.918,55.918,0,0,1-10.745,2.079,27.335,27.335,0,0,0-8.334,3.182,22.7,22.7,0,0,0-6.649,6.386,47.266,47.266,0,0,0-4.061,7.014,128.754,128.754,0,0,0-5.535,13.9,38.379,38.379,0,0,1-8.331,14.94,30.1,30.1,0,0,1-12.3,7.767,50.862,50.862,0,0,1-10.107,2.272,124.058,124.058,0,0,1-15.571.816h-.359m28.444-30.329h0m30.145-26.116h0m3.513-.516h0M592.99,133.286a33.008,33.008,0,0,1,4.287-7.043,31.114,31.114,0,0,1,12.823-9.31,53.028,53.028,0,0,1,11.67-3.152l-.006-.168a32.559,32.559,0,0,0,10.941-2.523,20.885,20.885,0,0,0,7.884-6.262,35.739,35.739,0,0,0,4.192-6.942,90.207,90.207,0,0,0,4.87-13.508h0a39.394,39.394,0,0,1,6.1-13.258A30.08,30.08,0,0,1,666.8,61.988a45.915,45.915,0,0,1,10.8-3.651,93.289,93.289,0,0,1,19.5-1.787l.1,1.267a39.643,39.643,0,0,0-10.3,2.82,21.13,21.13,0,0,0-7.725,6.112,40.517,40.517,0,0,0-4.549,7.228,120.583,120.583,0,0,0-6.139,15.115c-2.161,6.708-5.128,11.729-8.832,15.456a30.815,30.815,0,0,1-13.161,7.693,56.458,56.458,0,0,1-10.807,2.068,31.844,31.844,0,0,0-9.188,3.006,21.755,21.755,0,0,0-7.126,6.269,44.026,44.026,0,0,0-4.285,7.124q-.6,1.209-1.2,2.544l-1.388,0c.725-1.642,1.447-3.147,2.174-4.529a33.81,33.81,0,0,1,6.846-9.416,21.741,21.741,0,0,1,5.322-3.6,35.179,35.179,0,0,1,8.629-2.657h0l.03-.005.027,0a46.743,46.743,0,0,0,15.248-3.809,27.845,27.845,0,0,0,11.294-9.59,41.37,41.37,0,0,0,5.21-10.953l0,0,0-.007a112.143,112.143,0,0,1,6.975-16.738,31.246,31.246,0,0,1,7.335-9.467,22.187,22.187,0,0,1,5.81-3.448A30.528,30.528,0,0,1,690.357,58a75.925,75.925,0,0,0-14.468,2.042,36.62,36.62,0,0,0-13.924,6.473,28.068,28.068,0,0,0-6.057,6.588,39.482,39.482,0,0,0-5.036,11.619l0,.007,0,0A85.356,85.356,0,0,1,645.25,99.8a29.141,29.141,0,0,1-7.064,9.334,21.842,21.842,0,0,1-6.057,3.581,34.01,34.01,0,0,1-9.106,2.059l.006.1c-7.2,1.057-12.863,2.968-17.324,5.679a28.4,28.4,0,0,0-10.177,10.537q-.6,1.063-1.138,2.192l-1.4,0m57.269-48.73h0" fill="#dddde3"/>
    </g>
    <g clip-path="url(#clip-path-2)">
      <g>
        <polyline points="285.796 67.862 697.447 67.194 697.027 -190.887 285.377 -190.219 285.796 67.862" fill="#1d1751"/>
        <path d="M703.779-270.766a94.968,94.968,0,0,0-19.744,1.8,46.752,46.752,0,0,0-10.953,3.684,30.54,30.54,0,0,0-11.232,9.235,39.635,39.635,0,0,0-6.192,13.383h0a90.277,90.277,0,0,1-4.9,13.533,35.721,35.721,0,0,1-4.209,6.93,20.853,20.853,0,0,1-7.883,6.227,32.863,32.863,0,0,1-10.98,2.516l.007.173a54.161,54.161,0,0,0-11.849,3.175A31.618,31.618,0,0,0,602.8-200.7a38.6,38.6,0,0,0-6.949,14.364h0a97.174,97.174,0,0,1-4.232,12.056,42.057,42.057,0,0,1-3.538,6.561,22.756,22.756,0,0,1-6.339,6.473,23.72,23.72,0,0,1-8.283,3.316,74.516,74.516,0,0,0-16.483,2.568,40.616,40.616,0,0,0-9.308,3.9,29.946,29.946,0,0,0-9.7,8.977,40.623,40.623,0,0,0-5.535,12.47h0a90.514,90.514,0,0,1-4.9,13.519,35.7,35.7,0,0,1-4.209,6.931c-2.271,2.851-1.77,4.839-4.833,6.227-2.206,1-7.736,1.682-10.567,2.117-.4.062-4.087.773-4.4.831a52.247,52.247,0,0,0-10.3,2.911,31.628,31.628,0,0,0-13.044,9.414A38.607,38.607,0,0,0,473.228-73.7h0c-2.563,8.85-5.207,15.158-8.425,19.56a22.312,22.312,0,0,1-5.326,5.3,22.109,22.109,0,0,1-6.593,3.049,81.317,81.317,0,0,0-17.568,2.3,42.675,42.675,0,0,0-9.891,3.834,30.115,30.115,0,0,0-10.249,9.082,40.255,40.255,0,0,0-5.769,12.8h0A98.922,98.922,0,0,1,405.3-6c-2.156,4.958-4.51,8.572-7.3,11.185a20.181,20.181,0,0,1-4.561,3.231,24.422,24.422,0,0,1-5.442,2,67.9,67.9,0,0,0-15.307,2.831,33.48,33.48,0,0,0-15.251,9.492,37.562,37.562,0,0,0-7.835,15.4h0a96.274,96.274,0,0,1-4.326,12.271,41.246,41.246,0,0,1-3.624,6.618,22.385,22.385,0,0,1-6.535,6.453,24.568,24.568,0,0,1-8.643,3.226q-1.8.222-3.49.51h0c-.445.049-.9.09-1.36.128l0,.129A49.783,49.783,0,0,0,310.375,70.9a30.971,30.971,0,0,0-12.033,9.329,39.129,39.129,0,0,0-6.53,13.826h0a90.109,90.109,0,0,1-4.907,13.533,35.688,35.688,0,0,1-4.207,6.93,20.864,20.864,0,0,1-7.885,6.228,32.833,32.833,0,0,1-10.979,2.515l.07,1.7h.363a126.289,126.289,0,0,0,15.754-.821,51.792,51.792,0,0,0,10.249-2.293A30.641,30.641,0,0,0,302.782,114a38.665,38.665,0,0,0,8.458-15.073h0a128.834,128.834,0,0,1,5.583-13.939,47.181,47.181,0,0,1,4.083-7.012,22.645,22.645,0,0,1,6.653-6.354,27.465,27.465,0,0,1,8.357-3.17,56.839,56.839,0,0,0,10.864-2.094,31.318,31.318,0,0,0,13.32-7.786c3.75-3.765,6.749-8.826,8.932-15.559h0a131.333,131.333,0,0,1,5.41-13.582,49.671,49.671,0,0,1,3.949-6.937,23.466,23.466,0,0,1,6.373-6.417,25.329,25.329,0,0,1,7.844-3.273,67.245,67.245,0,0,0,11.929-1.788A37.778,37.778,0,0,0,412.4,8.1,29.3,29.3,0,0,0,422.067.225a40.837,40.837,0,0,0,6.767-13.135h0A133.636,133.636,0,0,1,434.1-26.195a51.587,51.587,0,0,1,3.839-6.869,24.192,24.192,0,0,1,6.152-6.461,23.913,23.913,0,0,1,7.437-3.358A88.5,88.5,0,0,0,465.155-44.2a43.32,43.32,0,0,0,8.962-2.64A29.683,29.683,0,0,0,485.1-54.756a39.754,39.754,0,0,0,7.554-14.079h0a123.447,123.447,0,0,1,5.985-14.753,42.491,42.491,0,0,1,4.405-7.161,21.421,21.421,0,0,1,7.348-6.181,34.694,34.694,0,0,1,9.636-2.927,53.374,53.374,0,0,0,10.439-2.225,30.829,30.829,0,0,0,12.78-7.833c3.607-3.734,6.5-8.7,8.623-15.255h0a128.6,128.6,0,0,1,5.576-13.917,47.289,47.289,0,0,1,4.08-7.013,22.679,22.679,0,0,1,6.65-6.355,27.426,27.426,0,0,1,8.331-3.165,77.216,77.216,0,0,0,12.819-1.543,40.5,40.5,0,0,0,8.432-2.775,29.485,29.485,0,0,0,10.351-7.906,40.283,40.283,0,0,0,7.174-13.636h0a124.944,124.944,0,0,1,5.861-14.507,44.128,44.128,0,0,1,4.3-7.12,21.744,21.744,0,0,1,7.131-6.238,32.094,32.094,0,0,1,9.224-3,57.434,57.434,0,0,0,10.931-2.082,31.352,31.352,0,0,0,13.38-7.779c3.771-3.772,6.785-8.849,8.976-15.613h0a120.749,120.749,0,0,1,6.184-15.141,40.476,40.476,0,0,1,4.571-7.221,21.089,21.089,0,0,1,7.725-6.078,39.963,39.963,0,0,1,10.347-2.816ZM443.928-41.463a22.715,22.715,0,0,0-4.606,3.882,39.974,39.974,0,0,0-6.107,9.311,125.844,125.844,0,0,0-5.993,14.8l0,.009,0,.008a40.548,40.548,0,0,1-5.627,11.493,27.972,27.972,0,0,1-5.6,5.784A31.387,31.387,0,0,1,405.442,9,62.393,62.393,0,0,1,392.4,11.105s1.666-.123-.077.006a38.56,38.56,0,0,0-5.074,1.018c-2.8.708-.292.636-2.573,1.99a22.45,22.45,0,0,0-4.792,3.834,38.422,38.422,0,0,0-6.305,9.373A123.607,123.607,0,0,0,367.42,42.45l0,.007,0,.008A41.287,41.287,0,0,1,362.2,53.381a27.851,27.851,0,0,1-11.269,9.554,46.928,46.928,0,0,1-15.255,3.824l-.052,0-.05.013a30.459,30.459,0,0,0-8.011,2.871,22.158,22.158,0,0,0-5.028,3.766,36.7,36.7,0,0,0-6.551,9.437,121.014,121.014,0,0,0-6.354,15.514l0,.007,0,.008a38.424,38.424,0,0,1-6.99,13.231,27.406,27.406,0,0,1-7.2,6.038,39.35,39.35,0,0,1-13.866,4.551c-2.481.389-5.1.638-7.834.8.22-.08.454-.143.67-.228a22.31,22.31,0,0,0,6.176-3.63,29.464,29.464,0,0,0,7.188-9.44,85.576,85.576,0,0,0,5.689-15.172l0-.006,0-.007a42.239,42.239,0,0,1,3.674-9.329,28.417,28.417,0,0,1,9.464-10.281,42.526,42.526,0,0,1,15.912-5.871l-.006-.058c.223-.021.449-.039.668-.062l.027,0,.027-.006q1.694-.288,3.508-.512l.028,0,.028-.005a26.988,26.988,0,0,0,8.334-2.92,22.053,22.053,0,0,0,5.053-3.916,33.833,33.833,0,0,0,6.072-9.158,91.943,91.943,0,0,0,5-13.777l0-.006,0-.007a40.794,40.794,0,0,1,4.333-10.468,28.557,28.557,0,0,1,4.987-6.16,32.141,32.141,0,0,1,11.1-6.575,63.337,63.337,0,0,1,16.551-3.293l.068,0,.067-.016a24.9,24.9,0,0,0,7.617-3.167,22.567,22.567,0,0,0,4.661-3.991,35.841,35.841,0,0,0,5.673-9A94.414,94.414,0,0,0,411.045-17.3v0l0-.007a39.968,39.968,0,0,1,4.726-11.1,28.18,28.18,0,0,1,5.567-6.393,34.481,34.481,0,0,1,12.628-6.541,69.825,69.825,0,0,1,15.044-2.532A24.489,24.489,0,0,0,443.928-41.463ZM563.152-150.656a36.786,36.786,0,0,0-6.548,9.435,121.152,121.152,0,0,0-6.351,15.51l0,.008,0,.008a41.619,41.619,0,0,1-5.044,10.663,27.83,27.83,0,0,1-10.822,9.5,44.3,44.3,0,0,1-14.6,3.982l-.024,0-.025,0a38.753,38.753,0,0,0-9.118,2.609,22.218,22.218,0,0,0-5.61,3.594,33.152,33.152,0,0,0-7.145,9.539,115.08,115.08,0,0,0-6.821,16.4l0,.009,0,.007a39.5,39.5,0,0,1-6.264,12.336,27.549,27.549,0,0,1-6.339,5.933,34.552,34.552,0,0,1-12.071,4.917,72.069,72.069,0,0,1-11.154,1.434,22.87,22.87,0,0,0,5.237-2.686,23,23,0,0,0,4.418-4.027,37.3,37.3,0,0,0,5.426-8.892,96.1,96.1,0,0,0,4.575-12.865l0-.007,0-.006a41.759,41.759,0,0,1,3.887-9.708,28.361,28.361,0,0,1,10.211-10.506,43.777,43.777,0,0,1,14.955-5.27c.8-.146,3.5-.711,4.015-.785,2.587-.38,7.993-.951,10.135-1.8a22.309,22.309,0,0,0,6.177-3.63c2.779-2.314,2.061-5.406,4.138-9.44a85.732,85.732,0,0,0,5.689-15.172v0l0-.007a40.352,40.352,0,0,1,4.536-10.8,28.378,28.378,0,0,1,5.286-6.285,33.3,33.3,0,0,1,11.882-6.565,67.353,67.353,0,0,1,16.247-2.914,25.622,25.622,0,0,0-3.855,1.7A22.216,22.216,0,0,0,563.152-150.656ZM687.991-264.767a31.628,31.628,0,0,0-7.461,9.57,112.511,112.511,0,0,0-7.057,16.841l0,.009,0,.007a41.256,41.256,0,0,1-5.236,10.944,27.86,27.86,0,0,1-11.322,9.559,47.226,47.226,0,0,1-15.331,3.806l-.038,0-.036.007a35.808,35.808,0,0,0-8.767,2.685,22.173,22.173,0,0,0-5.428,3.65,34.157,34.157,0,0,0-6.96,9.514,117.221,117.221,0,0,0-6.678,16.134l0,.009,0,.008a40,40,0,0,1-5.957,11.938,27.731,27.731,0,0,1-5.983,5.869,32.915,32.915,0,0,1-11.332,5.047,68.429,68.429,0,0,1-12.533,1.751,23.547,23.547,0,0,0,3.944-1.855,22.244,22.244,0,0,0,4.89-3.95,34.613,34.613,0,0,0,5.906-9.1,92.476,92.476,0,0,0,4.893-13.553l0,0,0-.008a41.821,41.821,0,0,1,3.886-9.705,28.38,28.38,0,0,1,10.205-10.5c4.474-2.7,10.161-4.616,17.417-5.675l-.009-.118a34.882,34.882,0,0,0,9.246-2.061,22.33,22.33,0,0,0,6.177-3.63,29.52,29.52,0,0,0,7.188-9.441,85.659,85.659,0,0,0,5.688-15.172l0-.006,0-.006a39.367,39.367,0,0,1,5.057-11.606,28.014,28.014,0,0,1,6.072-6.566,36.878,36.878,0,0,1,13.984-6.462,74.291,74.291,0,0,1,12.917-1.936c-.476.166-.958.324-1.417.511A22.6,22.6,0,0,0,687.991-264.767Z" fill="#ffc70a"/>
        <path d="M234.575,124.75l-.052-1.277a33.075,33.075,0,0,0,11.05-2.534,21.078,21.078,0,0,0,7.963-6.288,35.91,35.91,0,0,0,4.233-6.972,90.511,90.511,0,0,0,4.917-13.557,38.95,38.95,0,0,1,6.5-13.764,30.745,30.745,0,0,1,11.953-9.265,49.492,49.492,0,0,1,11.184-3.419l0-.115c.456-.039.905-.079,1.346-.126q1.712-.294,3.537-.518a27.443,27.443,0,0,0,6.081-1.852c.03-.013.06-.028.089-.04l2.773,0c-.151.09-.3.177-.455.263a26.876,26.876,0,0,1-8.269,2.9l-.021,0-.021,0q-1.821.224-3.519.514l-.02,0-.02,0c-.226.025-.453.047-.683.068l0,.053a42.767,42.767,0,0,0-15.99,5.9,28.623,28.623,0,0,0-9.534,10.358,42.5,42.5,0,0,0-3.694,9.376v.009a85.43,85.43,0,0,1-5.674,15.133,29.261,29.261,0,0,1-7.135,9.374,22.031,22.031,0,0,1-6.118,3.6q-1.022.4-2.106.727a87.713,87.713,0,0,0,9.381-.889,39.581,39.581,0,0,0,13.941-4.58,27.616,27.616,0,0,0,7.259-6.083,38.633,38.633,0,0,0,7.031-13.3l0,0,0-.006a120.89,120.89,0,0,1,6.343-15.487,36.5,36.5,0,0,1,6.511-9.383,21.957,21.957,0,0,1,4.98-3.733,30.361,30.361,0,0,1,7.956-2.849l.038-.009.038,0A56.127,56.127,0,0,0,316.77,65L320.626,65c-1.049.431-2.129.813-3.237,1.156a56.8,56.8,0,0,1-10.852,2.088,27.7,27.7,0,0,0-8.417,3.195,22.861,22.861,0,0,0-6.716,6.414,47.4,47.4,0,0,0-4.1,7.043,129.006,129.006,0,0,0-5.59,13.955,38.481,38.481,0,0,1-8.414,15,30.429,30.429,0,0,1-12.427,7.8,51.594,51.594,0,0,1-10.207,2.282,125.939,125.939,0,0,1-15.727.819h-.363M263.3,94.292h0m30.445-26.226h0m3.549-.518h0M569.308-193.491a33.084,33.084,0,0,1,4.33-7.073,31.411,31.411,0,0,1,12.951-9.35,53.762,53.762,0,0,1,11.786-3.165l-.006-.169a33.051,33.051,0,0,0,11.05-2.533,21.058,21.058,0,0,0,7.962-6.289,35.8,35.8,0,0,0,4.234-6.972,90.334,90.334,0,0,0,4.919-13.564h0a39.474,39.474,0,0,1,6.157-13.315,30.342,30.342,0,0,1,11.158-9.17,46.431,46.431,0,0,1,10.9-3.667,94.68,94.68,0,0,1,19.7-1.794l.1,1.271a40.217,40.217,0,0,0-10.4,2.833,21.322,21.322,0,0,0-7.8,6.137,40.8,40.8,0,0,0-4.6,7.259,120.87,120.87,0,0,0-6.2,15.18c-2.182,6.735-5.179,11.778-8.92,15.52a31.158,31.158,0,0,1-13.292,7.727,57.293,57.293,0,0,1-10.914,2.076,32.318,32.318,0,0,0-9.28,3.018,21.947,21.947,0,0,0-7.2,6.3,44.079,44.079,0,0,0-4.327,7.154q-.6,1.214-1.21,2.554l-1.4,0c.731-1.649,1.461-3.161,2.2-4.548a33.969,33.969,0,0,1,6.914-9.456,21.934,21.934,0,0,1,5.375-3.615,35.639,35.639,0,0,1,8.715-2.669h0l.03,0,.028,0a47.435,47.435,0,0,0,15.4-3.825,28.079,28.079,0,0,0,11.406-9.631,41.407,41.407,0,0,0,5.262-11l0-.006,0-.006a112.078,112.078,0,0,1,7.045-16.809A31.394,31.394,0,0,1,658.8-264.6a22.4,22.4,0,0,1,5.868-3.463,31.024,31.024,0,0,1,2.979-1.03,77.108,77.108,0,0,0-14.612,2.051,37.062,37.062,0,0,0-14.062,6.5,28.226,28.226,0,0,0-6.118,6.615,39.564,39.564,0,0,0-5.087,11.669l0,.007,0,0a85.479,85.479,0,0,1-5.673,15.134,29.272,29.272,0,0,1-7.135,9.374,22.072,22.072,0,0,1-6.117,3.595,34.52,34.52,0,0,1-9.2,2.068l.006.1c-7.275,1.062-12.991,2.981-17.5,5.7a28.576,28.576,0,0,0-10.278,10.581q-.612,1.068-1.15,2.2l-1.414,0m57.84-48.937h0" fill="#fff"/>
      </g>
    </g>
  </g>
</svg>
