<svg viewBox="0 0 285.795 54.5" xmlns="http://www.w3.org/2000/svg"><path d="m.754 19.148c0-2.151 1.782-3.114 4.262-3.114a10.629 10.629 0 0 1 2.787.327v-1.926c0-1.722-1.045-2.233-2.562-2.233a4.6 4.6 0 0 0 -3.2 1.065h-.591v-1a7.877 7.877 0 0 1 3.894-.9c2.172 0 3.647.677 3.647 2.972v6.209c0 .635.267.9.841.9a2.987 2.987 0 0 0 .532-.062v.676a2.322 2.322 0 0 1 -.921.185c-1.025 0-1.64-.431-1.64-1.435v-.225a4.249 4.249 0 0 1 -3.5 1.68c-2.115-.004-3.549-.987-3.549-3.119zm7.046.552v-2.58a11.4 11.4 0 0 0 -2.582-.308c-2.028 0-3.319.677-3.319 2.336 0 1.619.962 2.3 2.561 2.3a4.009 4.009 0 0 0 3.34-1.748z"/><path d="m13.5 20.829v.492c0 .389-.39.84-.594.84h-.594v-12.972a.659.659 0 0 0 -.6-.615h-.984v-.758h2.48c.205 0 .287.123.287.369v5.349a5.184 5.184 0 0 1 4.16-2.173c2.049 0 4.222 1.188 4.222 5.328 0 4.222-2.5 5.554-4.816 5.554a4.5 4.5 0 0 1 -3.561-1.414zm7.173-4.058c0-3.586-1.681-4.508-3.4-4.508a5.027 5.027 0 0 0 -3.773 2.111v5.594a4.109 4.109 0 0 0 3.4 1.476c1.727 0 3.777-.944 3.777-4.673z"/><path d="m23.426 16.792c0-3.381 2.152-5.431 5.287-5.431a8.092 8.092 0 0 1 3.464.615v1.967h-.82c-.081-1-.266-1.25-.779-1.476a4.707 4.707 0 0 0 -1.885-.306c-2.459 0-4.057 1.659-4.057 4.651 0 2.972 1.373 4.652 3.976 4.652a3.484 3.484 0 0 0 3.093-1.352h.657v.86a5.505 5.505 0 0 1 -3.771 1.271c-3.361 0-5.165-2.07-5.165-5.451z"/><path d="m33.943 16.935c0-4.18 2.542-5.574 4.816-5.574a4.562 4.562 0 0 1 3.606 1.539v-4.326h-1.8v-.758h2.705c.2 0 .287.144.287.369v12.623a.659.659 0 0 0 .595.615h.921v.738h-2.4c-.2 0-.287-.226-.308-.676v-1.312a4.775 4.775 0 0 1 -3.934 2.07c-2.213 0-4.488-1.189-4.488-5.308zm8.422 2.4v-5.618a4.194 4.194 0 0 0 -3.421-1.454c-1.763 0-3.791.943-3.791 4.631s1.843 4.55 3.421 4.55a4.676 4.676 0 0 0 3.791-2.111z"/><path d="m46.16 16.853c0-3.36 2.071-5.492 4.981-5.492 2.746 0 4.59 1.5 4.59 5 0 .226-.021.451-.021.492h-8.34c.021 2.992 1.413 4.611 4.118 4.611a4.06 4.06 0 0 0 3.28-1.251h.7v.841a6.387 6.387 0 0 1 -4.058 1.189c-3.425 0-5.25-2.07-5.25-5.39zm8.382-.8c-.061-2.828-1.393-3.914-3.4-3.914-2.091 0-3.526 1.414-3.73 3.914z"/><path d="m57.005 21.423h.881a.642.642 0 0 0 .615-.594v-8.586h-1.601v-.78h1.6v-1.085c0-1.927 1.168-2.665 2.786-2.665a4.963 4.963 0 0 1 1.578.206v.86h-.614a1.226 1.226 0 0 0 -.861-.246c-1.025 0-1.7.389-1.7 1.886v1.044h2.52v.78h-2.519v8.586a.641.641 0 0 0 .614.594h1.168v.738h-4.467z"/><path d="m62.622 22.96a2.846 2.846 0 0 1 1.988-2.521 1.467 1.467 0 0 1 -.963-1.434 2.131 2.131 0 0 1 1-1.762 3.188 3.188 0 0 1 -1.168-2.521c0-1.885 1.352-3.361 3.811-3.361a6.622 6.622 0 0 1 1.127.1h3.608v.78h-1.325a.428.428 0 0 0 -.43.409 2.748 2.748 0 0 1 .819 2.07c0 1.885-1.352 3.279-3.791 3.279a4.475 4.475 0 0 1 -2.11-.471 1.667 1.667 0 0 0 -.533 1.229c0 .635.471.922 1.188.922h3.054c1.885 0 3.074.738 3.074 2.562 0 1.886-1.312 3.381-4.919 3.381-3.262.002-4.43-1.146-4.43-2.662zm8.2-.512c0-1.25-.717-1.7-2.049-1.7h-3.466a2.323 2.323 0 0 0 -1.537 2.09c0 1.127.655 1.967 3.319 1.967 2.644-.005 3.73-1.046 3.73-2.357zm-.881-7.726a2.655 2.655 0 0 0 -5.308 0 2.659 2.659 0 0 0 5.308 0z"/><path d="m75.8 21.423h1.844v.738h-4.526v-.738h.9a.623.623 0 0 0 .594-.594v-11.64a.659.659 0 0 0 -.594-.615h-.984v-.758h2.48c.2 0 .287.123.287.369v5.164a7.244 7.244 0 0 1 4.549-1.988c1.6 0 2.869.533 2.869 2.664v6.8a.64.64 0 0 0 .595.594h.8v.738h-4.426v-.738h1.844v-7.045c0-1.7-.86-2.05-2.07-2.05a6.773 6.773 0 0 0 -4.162 1.763z"/><path d="m85.685 21.423h1a.622.622 0 0 0 .593-.594v-7.972a.657.657 0 0 0 -.593-.614h-1.103v-.78h2.582c.226 0 .308.144.308.636v8.73a.639.639 0 0 0 .594.594h1.024v.738h-4.405zm1.25-12.275a.8.8 0 1 1 .8.8.786.786 0 0 1 -.8-.8z"/><path d="m89.519 25.3v-.841h.593a1.315 1.315 0 0 0 .881.307c1.026 0 1.353-.512 1.353-1.475v-10.434a.657.657 0 0 0 -.594-.614h-1.106v-.78h2.582c.225 0 .307.144.307.636v11.148c0 1.6-.82 2.3-2.419 2.3a5.118 5.118 0 0 1 -1.597-.247zm2.481-16.152a.8.8 0 1 1 .8.8.787.787 0 0 1 -.8-.8z"/><path d="m100.955 15.911 3.381 4.815a1.536 1.536 0 0 0 1.045.7h.369v.738h-1.8l-3.77-5.431-1.905 1.988v2.7h1.782v.738h-4.471v-.738h.9a.623.623 0 0 0 .595-.594v-11.638a.659.659 0 0 0 -.595-.615h-.986v-.758h2.48c.2 0 .287.123.287.369v9.467l4.466-4.733a.377.377 0 0 0 -.246-.676h-.614v-.78h3.75v.78h-.655a1.883 1.883 0 0 0 -.985.532z"/><path d="m106.759 21.423h1a.642.642 0 0 0 .614-.594v-11.64a.678.678 0 0 0 -.614-.615h-1.086v-.758h2.6c.206 0 .267.123.267.369v12.644a.642.642 0 0 0 .614.594h1.025v.738h-4.426z"/><path d="m121.739 21.423h1.64v.738h-4.467v-.738h1.639v-7.049c0-1.681-.778-2.05-1.782-2.05a6.033 6.033 0 0 0 -3.832 1.742v7.357h1.843v.738h-4.528v-.738h.9a.623.623 0 0 0 .594-.594v-7.972a.658.658 0 0 0 -.594-.614h-1v-.78h2.418c.246 0 .348.144.369.7v1.188a6.26 6.26 0 0 1 4.159-1.988 2.28 2.28 0 0 1 2.6 2.009 6.268 6.268 0 0 1 4.2-2.009 2.355 2.355 0 0 1 2.643 2.664v6.8a.64.64 0 0 0 .595.594h.8v.738h-4.426v-.738h1.844v-7.047c0-1.681-.779-2.05-1.8-2.05a6.445 6.445 0 0 0 -3.813 1.742z"/><path d="m131.01 21.423h.9a.623.623 0 0 0 .595-.594v-7.972a.658.658 0 0 0 -.595-.614h-1v-.78h2.418c.246 0 .349.144.37.7v1.188a7.239 7.239 0 0 1 4.548-1.988c1.6 0 2.869.533 2.869 2.664v6.8a.64.64 0 0 0 .595.594h.8v.738h-4.427v-.738h1.845v-7.047c0-1.7-.86-2.05-2.07-2.05a6.773 6.773 0 0 0 -4.159 1.763v7.336h1.843v.738h-4.532z"/><path d="m143.6 16.812a5.064 5.064 0 0 1 5.226-5.451c3.012 0 5.226 2.07 5.226 5.451a5.23 5.23 0 1 1 -10.452 0zm9.242.021c0-2.952-1.639-4.652-4.016-4.652s-4.016 1.7-4.016 4.652c0 2.93 1.639 4.631 4.016 4.631s4.012-1.701 4.012-4.631z"/><path d="m155.138 24.784h.9a.64.64 0 0 0 .595-.595v-11.332a.658.658 0 0 0 -.595-.614h-1v-.78h2.418c.226 0 .369.206.369.8v1.271a5.157 5.157 0 0 1 4.1-2.173c2.05 0 4.222 1.27 4.222 5.308 0 4.16-2.459 5.471-4.734 5.471a4.47 4.47 0 0 1 -3.586-1.414v4.058h1.906v.7h-4.59zm9.795-8.033c0-3.607-1.782-4.488-3.381-4.488a5.017 5.017 0 0 0 -3.73 2.111v5.492a4.137 4.137 0 0 0 3.4 1.475c1.703 0 3.711-.841 3.711-4.59z"/><path d="m174.18 24.784h1.905v-4.631a4.79 4.79 0 0 1 -3.934 1.987c-2.152 0-4.427-1.127-4.427-5.225 0-4.16 2.521-5.554 4.775-5.554a4.86 4.86 0 0 1 3.586 1.414v-.226c0-.491.328-1.086.574-1.086h.615v12.726a.657.657 0 0 0 .594.595h.922v.7h-4.61zm1.905-5.431v-5.753a4.524 4.524 0 0 0 -3.36-1.332c-1.763 0-3.791.943-3.791 4.611s1.844 4.467 3.422 4.467a4.619 4.619 0 0 0 3.729-1.993z"/><path d="m179.45 21.423h.9a.623.623 0 0 0 .594-.594v-7.972a.658.658 0 0 0 -.594-.614h-1v-.78h2.418c.246 0 .369.144.369.739v1.352a4.569 4.569 0 0 1 3.543-2.154 1.863 1.863 0 0 1 .513.061v.984s-.288-.021-.472-.021a4.5 4.5 0 0 0 -3.586 1.907v7.09h1.965v.738h-4.65z"/><path d="m187.158 21.648v-2.008h.8c.082.984.226 1.353.635 1.517a5.534 5.534 0 0 0 2.091.307c1.905 0 2.951-.779 2.951-2.295 0-1.312-.984-1.721-2.931-2.049-2.07-.349-3.32-.881-3.32-2.849 0-1.845 1.332-2.91 3.71-2.91a8.328 8.328 0 0 1 3.3.513v1.884h-.779c-.1-.839-.205-1.147-.635-1.332a4.731 4.731 0 0 0 -1.906-.245c-1.762 0-2.623.738-2.623 1.947 0 1.332.84 1.68 2.766 2.008 2.255.369 3.525.984 3.525 2.889 0 2.05-1.291 3.218-4.037 3.218a8.774 8.774 0 0 1 -3.547-.595z"/><path d="m197.285 19.845v-7.6h-1.537v-.78h1.537v-2.953h1.189v2.951h2.787v.78h-2.787v7.5c0 1.27.368 1.7 1.434 1.7a2.175 2.175 0 0 0 1-.2h.574v.778a5.34 5.34 0 0 1 -1.6.246c-1.695-.004-2.597-.68-2.597-2.422z"/><path d="m204.009 19.64v-6.783a.658.658 0 0 0 -.595-.614h-.963v-.78h2.749v7.829c0 1.66.881 2.07 1.988 2.07a6.8 6.8 0 0 0 4.139-1.763v-7.356h-1.7v-.78h2.869v9.345a.661.661 0 0 0 .616.615h1v.738h-2.439c-.226 0-.328-.123-.349-.676v-1.128a7.068 7.068 0 0 1 -4.488 1.927c-1.495 0-2.827-.615-2.827-2.644z"/><path d="m215.776 13c-.185-.431-.493-.758-.862-.758h-.45v-.78h4.058v.78h-1.784l3.362 8.628h.041l2.992-7.664c.185-.513-.02-.963-.573-.963h-.841v-.78h3.811v.78h-.409a.979.979 0 0 0 -.9.717l-3.689 9.2h-1.085z"/><path d="m227.952 13a.94.94 0 0 0 -.861-.758h-.491v-.78h3.955v.78h-1.64l2.459 8.36h.041l2.787-9.14h1.025l2.787 9.14h.041l2.151-7.4c.164-.575-.061-.963-.614-.963h-.82v-.78h3.771v.78h-.431a.918.918 0 0 0 -.9.717l-2.725 9.2h-1.127l-2.747-9h-.02l-2.787 9h-1.127z"/><path d="m243.717 21.423h.635a1.325 1.325 0 0 0 .922-.512l2.93-4.2-2.787-3.75a1.644 1.644 0 0 0 -1.045-.717h-.758v-.78h4.1v.78h-1.414l2.828 3.873 2.11-3.2c.226-.329.1-.676-.287-.676h-.675v-.78h3.606v.78h-.615a1.32 1.32 0 0 0 -.881.532l-2.7 3.894 3.013 4.037a1.722 1.722 0 0 0 1.086.717h.348v.738h-3.914v-.738h1.618l-3.052-4.16-2.316 3.422c-.246.369-.123.738.266.738h.594v.738h-3.606z"/><path d="m256.9 24.743a5.637 5.637 0 0 0 3.033-3.033l-3.733-8.71a1.124 1.124 0 0 0 -.922-.758h-.389v-.78h4v.78h-1.763l3.422 8.155 2.931-7.192c.225-.554.02-.963-.532-.963h-.862v-.78h3.853v.78h-.471c-.369 0-.677.286-.882.758l-3.606 8.565a7.8 7.8 0 0 1 -3.1 3.914h-.979z"/><path d="m266.636 21.321 7.479-9.037h-5.984l-.143 2.151h-.861v-2.972h8.361v.861l-7.5 9.017h6.23l.144-2.172h.86v2.992h-8.586z"/><path d="m1 39.588c0-4.857 2.705-7.275 5.862-7.275s5.838 2.418 5.838 7.275-2.683 7.275-5.839 7.275-5.861-2.418-5.861-7.275zm10.39.02c0-4.385-1.885-6.435-4.528-6.435-2.665 0-4.55 2.05-4.55 6.435s1.888 6.392 4.549 6.392c2.639 0 4.528-2.006 4.528-6.392z"/><path d="m14.16 46.023h1.66a.747.747 0 0 0 .676-.7v-11.78l-1.988 1.086h-.43v-.738l2.828-1.475h.861v12.91a.766.766 0 0 0 .7.7h1.533v.737h-5.84z"/><path d="m21.254 45.962c0-2.726 2.172-4.222 4.221-5.575 1.947-1.291 3.669-2.3 3.669-4.3 0-1.844-.964-2.931-3.177-2.931a4.583 4.583 0 0 0 -2.6.574c-.369.246-.533.717-.635 1.824h-.82v-2.46a10.5 10.5 0 0 1 4.078-.778c2.972 0 4.448 1.373 4.448 3.75 0 2.5-1.989 3.627-4.283 5.062-1.968 1.229-3.75 2.561-3.791 4.652h6.8l.163-2.356h.9v3.336h-8.973z"/><path d="m31.893 46.085v-2.235h.819c.1.882.246 1.353.574 1.6a4.519 4.519 0 0 0 2.521.574c2.561 0 3.729-1.23 3.729-3.341 0-2.131-1.557-2.93-3.443-2.93h-1.293v-.84h1.13c2.008 0 3.36-.922 3.36-2.89 0-1.885-.942-2.869-3.136-2.869a4.343 4.343 0 0 0 -2.417.513c-.329.205-.492.716-.594 1.557h-.821v-2.153a10.227 10.227 0 0 1 3.894-.758c2.808 0 4.3 1.23 4.3 3.607a3.282 3.282 0 0 1 -2.787 3.34v.04c1.947.41 3.074 1.517 3.074 3.422.02 2.623-1.66 4.14-4.98 4.14a10.625 10.625 0 0 1 -3.93-.777z"/><path d="m49.335 45.326v-2.336h-7.11v-1.025l7.233-9.549h1.127v9.714h1.8v.86h-1.8v2.336a.747.747 0 0 0 .677.7h1.127v.737h-4.877v-.737h1.147a.765.765 0 0 0 .676-.7zm-6.168-3.2h6.168v-8.132h-.041l-6.127 8.094z"/><path d="m53.93 46.044v-2.173h.819c.1.922.2 1.352.533 1.6a4.63 4.63 0 0 0 2.541.529 3.619 3.619 0 0 0 3.977-3.85 3.079 3.079 0 0 0 -3.279-3.443 4.145 4.145 0 0 0 -3.34 1.455h-.82v-7.746h8.2v2.584h-.861l-.164-1.6h-6.236v5.718h.041a4.617 4.617 0 0 1 3.381-1.271c2.3 0 4.345 1.25 4.345 4.263 0 2.95-2.153 4.754-5.247 4.754a8.928 8.928 0 0 1 -3.89-.82z"/><path d="m64.774 39.9c0-4.918 2.828-7.582 6.6-7.582a7.177 7.177 0 0 1 2.89.472v1.024h-.737a3.318 3.318 0 0 0 -2.235-.636c-2.991 0-5.225 2.235-5.225 6.476v.446a5.8 5.8 0 0 1 4.426-2.049c2.357 0 4.468 1.168 4.468 4.119 0 2.93-2.009 4.693-4.857 4.693-2.952 0-5.33-2.09-5.33-6.963zm8.915 2.316c0-2.4-1.578-3.3-3.423-3.3a5.289 5.289 0 0 0 -4.181 2.049c.246 3.5 1.865 5.035 4.015 5.035 2.236 0 3.589-1.391 3.589-3.789z"/><path d="m78.242 46.166 6.517-12.726v-.04h-7.5l-.159 2.417h-.86v-3.4h9.487v1.106l-6.337 13.237h-1.148z"/><path d="m86.4 42.846a3.763 3.763 0 0 1 3.238-3.729v-.041a3.285 3.285 0 0 1 -2.56-3.176c0-2.11 1.7-3.586 4.386-3.586s4.385 1.476 4.385 3.586a3.339 3.339 0 0 1 -2.644 3.177v.041a3.794 3.794 0 0 1 3.341 3.729c0 2.357-1.763 4.017-5.082 4.017s-5.064-1.664-5.064-4.018zm8.874-.061c0-1.886-1.291-3.258-3.812-3.258-2.541 0-3.792 1.372-3.792 3.258 0 1.865 1.21 3.218 3.792 3.218 2.564-.003 3.814-1.353 3.814-3.218zm-.657-6.845c0-1.659-1.147-2.767-3.155-2.767-2.029 0-3.156 1.127-3.156 2.767 0 1.7 1.127 2.726 3.156 2.726 2.01 0 3.157-1.025 3.157-2.726z"/><path d="m107.985 39.281c0 4.918-2.541 7.582-6.6 7.582a6.617 6.617 0 0 1 -3.074-.595v-1.024h.737a3.283 3.283 0 0 0 2.419.759c3.258 0 5.226-2.235 5.226-6.476v-.451a5.8 5.8 0 0 1 -4.427 2.049c-2.357 0-4.468-1.209-4.468-4.161 0-2.909 2.05-4.651 4.857-4.651 2.952 0 5.33 2.069 5.33 6.968zm-8.936-2.358c0 2.46 1.6 3.341 3.443 3.341a5.286 5.286 0 0 0 4.181-2.049c-.267-3.484-1.865-5.042-4.017-5.042-2.234 0-3.607 1.353-3.607 3.75z"/></svg>