<svg xmlns="http://www.w3.org/2000/svg" xmlns:xlink="http://www.w3.org/1999/xlink" viewBox="0 0 438.729 210.205">
  <defs>
    <symbol id="secondary_2_rust_red_updated_26_11_16_2" data-name="secondary 2 rust red updated 26/11/16 2" viewBox="0 0 438.641 210.163">
      <rect x="65.478" y="172.305" width="307.759" height="0.951" fill="#aa2d29"/>
      <g>
        <path d="M2.075,195.3H7.116c3.464,0,5.186,1.2,5.186,3.865A2.931,2.931,0,0,1,9.7,202.2v.084c1.869.357,3.15,1.344,3.15,3.423,0,2.751-1.974,4.285-5.565,4.285H2.075Zm4.956,5.943c1.408,0,2.037-.588,2.037-1.848,0-1.176-.629-1.785-2.037-1.785H5.289v3.633Zm.168,6.447c1.575,0,2.29-.819,2.29-2.122,0-1.322-.757-2.12-2.29-2.12H5.289v4.242Z" fill="#aa2d29"/>
        <path d="M28.328,204.241H26.416V210H23.14V195.3h4.935c3.612,0,5.649,1.47,5.649,4.305a4.141,4.141,0,0,1-2.352,4.012l3.087,5.522V210h-3Zm-1.912-2.247h1.575c1.722,0,2.436-.756,2.436-2.205,0-1.428-.714-2.163-2.436-2.163H26.416Z" fill="#aa2d29"/>
        <path d="M44.815,195.3H54.5v2.373H48.05v3.738h4.619v2.247H48.05v4.032h6.676V210H44.815Z" fill="#aa2d29"/>
        <path d="M64.41,196.157V195.3h3.108l2.268,10.647h.041L72.348,195.3H75.12l2.6,10.647h.041L79.949,195.3H82.7v.862L79.4,210H75.771l-2.206-9.619h-.041L71.34,210H67.685Z" fill="#aa2d29"/>
        <path d="M92.889,195.3h9.68v2.373H96.123v3.738h4.62v2.247h-4.62v4.032H102.8V210H92.889Z" fill="#aa2d29"/>
        <path d="M118.386,204.241h-1.912V210H113.2V195.3h4.935c3.612,0,5.649,1.47,5.649,4.305a4.141,4.141,0,0,1-2.352,4.012l3.087,5.522V210h-3Zm-1.912-2.247h1.576c1.721,0,2.435-.756,2.435-2.205,0-1.428-.714-2.163-2.435-2.163h-1.576Z" fill="#aa2d29"/>
        <path d="M137.769,210V204.3l-4.557-8.085V195.3h3.067l3.3,6.174h.041l3.171-6.174h2.519v.924l-4.261,8V210Z" fill="#aa2d29"/>
        <path d="M176.224,208.777a6.267,6.267,0,0,1-4.052,1.386c-3.444,0-5.229-1.68-5.229-4.305a4.663,4.663,0,0,1,3.046-4.136,4.691,4.691,0,0,1-.779-2.668c0-2.31,1.743-3.927,4.789-3.927a5.262,5.262,0,0,1,3.233.9v2.31h-1.113a2.811,2.811,0,0,0-2.12-.819,1.537,1.537,0,0,0-1.722,1.554c0,.735.336,1.218,1.091,2.059l3.045,3.422a11.64,11.64,0,0,0,.819-3.444h2.625v.672a14.532,14.532,0,0,1-1.722,4.683l2.373,2.667V210h-3.192Zm-1.49-1.638-3.508-3.927a2.878,2.878,0,0,0-1.07,2.331,2.241,2.241,0,0,0,2.561,2.33A3.128,3.128,0,0,0,174.734,207.139Z" fill="#aa2d29"/>
        <path d="M203.612,195.3h9.681v2.373h-6.447v3.738h4.621v2.247h-4.621v4.032h6.678V210h-9.912Z" fill="#aa2d29"/>
        <path d="M222.976,209.134l4.871-13.839h3.382l4.893,13.839V210H232.95l-1.218-3.74h-4.955L225.6,210h-2.624Zm4.494-5.124H231l-1.764-5.418h-.043Z" fill="#aa2d29"/>
        <path d="M248.011,210V197.605H244V195.3h11.318v2.31h-4.032V210Z" fill="#aa2d29"/>
        <path d="M265.59,210V195.3h3.3V210Z" fill="#aa2d29"/>
        <path d="M280.164,195.3h3.717l5.418,9.43h.064V195.3h2.75V210h-2.981l-6.174-10.732h-.064V210h-2.73Z" fill="#aa2d29"/>
        <path d="M302.322,202.687c0-4.809,2.751-7.56,7.35-7.56a9.607,9.607,0,0,1,4.242.861v2.584h-1.092a4.284,4.284,0,0,0-3.087-1.03c-2.542,0-3.969,1.407-3.969,5.019,0,3.633,1.155,5.354,3.528,5.354a6.282,6.282,0,0,0,2.037-.272v-3.192h-2.016v-2.12h5.228v6.719a11.5,11.5,0,0,1-5.249,1.113C304.926,210.163,302.322,207.5,302.322,202.687Z" fill="#aa2d29"/>
        <path d="M337.794,210V195.3h3.276v6.048h5.4V195.3h3.276V210h-3.276v-6.364h-5.4V210Z" fill="#aa2d29"/>
        <path d="M359.742,202.645c0-4.852,3.3-7.518,7.056-7.518s7.055,2.666,7.055,7.518-3.3,7.518-7.055,7.518S359.742,207.5,359.742,202.645Zm10.752.063c0-3.612-1.554-5.271-3.7-5.271-2.163,0-3.7,1.659-3.7,5.271,0,3.591,1.533,5.186,3.7,5.186C368.94,207.894,370.494,206.3,370.494,202.708Z" fill="#aa2d29"/>
        <path d="M392.924,204.325V195.3h2.731v8.946c0,3.779-1.534,5.922-5.691,5.922-3.99,0-6.069-2.143-6.069-5.922V195.3h3.276v9.03c0,2.751,1.091,3.422,2.982,3.422C391.938,207.747,392.924,207.076,392.924,204.325Z" fill="#aa2d29"/>
        <path d="M405.779,208.987v-2.5h1.071a4.606,4.606,0,0,0,3.485,1.344c1.785,0,2.647-.672,2.647-1.806,0-1.575-1.471-1.722-3.15-2.226-2.71-.8-3.948-1.91-3.948-4.388,0-2.857,2.142-4.285,5.145-4.285a8.068,8.068,0,0,1,4.094.966v2.373H414.1a4.752,4.752,0,0,0-2.94-.986c-1.6,0-2.458.5-2.458,1.7,0,1.176.967,1.533,2.689,1.974,3.213.819,4.557,1.827,4.557,4.536,0,2.855-1.89,4.473-5.5,4.473A8.614,8.614,0,0,1,405.779,208.987Z" fill="#aa2d29"/>
        <path d="M426.193,195.3h9.68v2.373h-6.445v3.738h4.619v2.247h-4.619v4.032h6.677V210h-9.912Z" fill="#aa2d29"/>
      </g>
      <g>
        <path d="M65.04,149.907a.6.6,0,0,1-.419-1.017l1.027-1.125V106.846l-1.027-1.191a.546.546,0,0,1,.418-.952H89.53a.577.577,0,0,1,.6.513v8.552c0,.51-.522,1.04-1.031.51l-1.026-1.014H74.721V122.6H84.733l1.04-1.112a.588.588,0,0,1,1.02.437v9.837a.618.618,0,0,1-1.02.434l-1.04-.942H74.721v10.1H88.076l1.026-1.019c.428-.437,1.031-.081,1.031.508v8.481a.645.645,0,0,1-.6.589Z" fill="#aa2d29"/>
        <path d="M100.086,148.89l1.018-1.215,10.2-21.994L103,106.846l-1.021-1.191c-.354-.362-.086-.952.508-.952h10.189a.55.55,0,0,1,.424.952l-.94,1.11,4.792,10.436,4.714-10.436-1.027-1.11a.551.551,0,0,1,.429-.952h10.284a.586.586,0,0,1,.508.952l-1.112,1.191-8.305,18.835,10.183,21.994,1.121,1.215a.637.637,0,0,1-.351,1.027H123.027c-.5,0-.847-.689-.5-1.027l1.107-1.022-6.424-13.625-.259-.6-.348.6-6.413,13.625,1.03,1.022a.659.659,0,0,1-.518,1.027l-10.193-.01A.6.6,0,0,1,100.086,148.89Z" fill="#aa2d29"/>
        <path d="M140.518,136.294V118.236c0-10.115,5.574-14.139,15.755-14.139,9.673,0,15.581,3.682,15.581,14.139v1.45a.609.609,0,0,1-.684.594h-8.987a.616.616,0,0,1-.513-1.012l1.114-1.032c-.428-3-2.833-4.972-6.172-4.972h-.852c-2.228,0-3.785.6-4.8,1.968a8.865,8.865,0,0,0-1.291,5.311v13.528c0,6,3.344,7.277,6.094,7.277h.853c2.227,0,3.859-.6,4.874-1.964a9.267,9.267,0,0,0,1.374-5.313v-.6l-1.1-1.022a.648.648,0,0,1,.509-1.11h8.9a.659.659,0,0,1,.684.678v4.275c0,10.02-5.392,14.309-15.58,14.309C146.757,150.6,140.518,146.837,140.518,136.294Z" fill="#aa2d29"/>
        <path d="M183.08,106.846l-1.021-1.191a.546.546,0,0,1,.418-.952l10.185,0c.518,0,.862.585.518.947l-1.106,1.191v15.666H203.2V106.846l-1.021-1.191a.557.557,0,0,1,.419-.947h10.283a.572.572,0,0,1,.425.947l-1.112,1.191v40.919l1.112,1.125a.62.62,0,0,1-.425,1.027H202.6a.632.632,0,0,1-.419-1.027l1.021-1.125V131.073H192.074v16.692l1.106,1.125a.659.659,0,0,1-.518,1.027H182.477a.608.608,0,0,1-.418-1.027l1.021-1.125Z" fill="#aa2d29"/>
        <path d="M222.428,148.89l1.021-1.125,11.051-41-.681-1.11c-.26-.439-.09-.947.592-.947h10.694a.618.618,0,0,1,.527.947l-.772,1.11,11.047,41,1.2,1.115a.668.668,0,0,1-.514,1.037H246.235a.6.6,0,0,1-.354-1.037l1.04-1.012-2.235-7.976H234.675l-2.146,7.976,1.03,1.022a.635.635,0,0,1-.509,1.027H222.856A.6.6,0,0,1,222.428,148.89Zm20.12-17.479-2.9-10.355-2.755,10.355Z" fill="#aa2d29"/>
        <path d="M267.144,106.846l-1.039-1.191a.547.547,0,0,1,.428-.947H275.7a.6.6,0,0,1,.6.325l9.582,22.1V106.851l-1.032-1.192a.566.566,0,0,1,.433-.951h10.272a.562.562,0,0,1,.441.951l-1.045,1.192v40.914L296,148.88a.611.611,0,0,1-.441,1.037H285.291a.629.629,0,0,1-.433-1.037l.693-.767-9.422-21.058v20.71l1.108,1.115a.665.665,0,0,1-.506,1.037h-10.2a.617.617,0,0,1-.428-1.037l1.039-1.115Z" fill="#aa2d29"/>
        <path d="M337.516,119.69a.613.613,0,0,1-.675.6h-9c-.593,0-.941-.6-.517-1.017l1.116-1.042a5.843,5.843,0,0,0-6.156-4.961h-.857c-2.239,0-3.775.6-4.8,1.968a8.75,8.75,0,0,0-1.283,5.306v13.528c0,6,3.254,7.277,6.084,7.277h.857c4.2,0,6.156-2.916,6.156-7.277v-.6h-5.558l-1.106,1.026a.734.734,0,0,1-1.13-.428v-8.39a.771.771,0,0,1,.781-.767h15.417a.671.671,0,0,1,.675.592v10.788c0,10.015-5.388,14.3-15.572,14.3-9.522,0-15.766-3.754-15.766-14.3V118.23c0-9.928,5.565-14.133,15.766-14.133,9.582,0,15.572,3.685,15.572,14.133Z" fill="#aa2d29"/>
        <path d="M348.457,149.917a.619.619,0,0,1-.437-1.037l1.031-1.115V106.851l-1.031-1.192a.55.55,0,0,1,.437-.951h24.491a.575.575,0,0,1,.6.513v8.551c0,.5-.519,1.04-1.032.5l-1.04-1.007h-13.35V122.6l10.03,0,1.017-1.112a.589.589,0,0,1,1.027.428v9.847a.624.624,0,0,1-1.027.429l-1.017-.947h-10.03v10.1l13.35,0,1.041-1.012c.428-.434,1.031-.086,1.031.5v8.486a.655.655,0,0,1-.6.594Z" fill="#aa2d29"/>
        <path d="M106.1,69.931l-1.924,1.787h-23.2V11.847l1.958-1.93c.584-.58.146-1.64-.906-1.64H64.357c-1.04,0-1.339.889-.743,1.64l1.787,1.93V83.023l-1.787,1.92a1.057,1.057,0,0,0,.743,1.77h42.484a.987.987,0,0,0,.9-1.038V70.815A1.047,1.047,0,0,0,106.1,69.931Z" fill="#aa2d29"/>
        <path d="M48.123.02H1.157A1.056,1.056,0,0,0,.332,1.844L2.29,4.115V105.076L.332,107.214a1.186,1.186,0,0,0,.825,1.979l46.761-.021a1.22,1.22,0,0,0,1.139-1.164V91.759c0-1.137-1.139-1.786-1.968-.983l-1.97,1.97H19.7v-35.1H38.9l1.989,1.838a1.2,1.2,0,0,0,1.963-.858V39.736a1.128,1.128,0,0,0-1.963-.815L38.9,41.064H19.7V16.427H45.324l1.967,2c1,.975,1.97,0,1.97-1.009V1.006A1.093,1.093,0,0,0,48.123.02Z" fill="#aa2d29"/>
        <path d="M171.045,83.037,151.879,35.773,168.957,12l1.792-2.087a.99.99,0,0,0-.585-1.64H150.982c-.877,0-1.195.888-.585,1.64l1.482,1.93L135.385,34V12l1.933-2.087c.587-.58,0-1.64-.9-1.64h-17.7a.948.948,0,0,0-.735,1.64L119.782,12V83.023l-1.79,1.92a1.053,1.053,0,0,0,.735,1.77l17.7.009a1.152,1.152,0,0,0,.9-1.779l-1.933-1.92V58.783l6.085-8.3,11.3,32.67-1.928,1.8c-.606.456-.146,1.779.729,1.779h20.665c.884,0,1.327-1.486.884-1.779Z" fill="#aa2d29"/>
        <path d="M285,7.246c-10.392,0-15.821,2.238-20.4,6.986-3.413,4-5.358,9.647-5.358,17.521V63.1c0,8.19,1.945,13.833,5.358,17.689,4.454,4.739,9.853,7.133,20.4,7.133,10.238,0,16.563-2.394,21.162-7.133,3.548-3.856,5.188-9.5,5.188-17.689V31.753c0-7.874-1.641-13.527-5.188-17.376C301.7,9.484,295.234,7.246,285,7.246Zm10.792,52c0,3.853-.744,6.975-2.225,9.217-1.778,2.361-4.59,3.418-8.443,3.423-4.878-.022-10.473-2.285-10.473-12.639V35.769c0-4.016.585-7,2.22-9.358,1.783-2.207,4.455-3.267,8.292-3.273,5.025.018,10.63,2.14,10.63,12.631Z" fill="#aa2d29"/>
        <path d="M247.1,9.917c.744-.752.151-1.64-.751-1.64H230.311a.855.855,0,0,0-.748.446L215.9,28.937,200.886,8.723a.855.855,0,0,0-.747-.446H184.1a.942.942,0,0,0-.73,1.64L185.135,12V83.037l-1.77,1.906a1.052,1.052,0,0,0,.73,1.779h17.684a1.154,1.154,0,0,0,.906-1.779l-1.962-1.906V37.56l13.69,17.384a.984.984,0,0,0,1.636,0L229.717,35.61V83.037l-1.939,1.906a1.077,1.077,0,0,0,.73,1.779H246.35a1.045,1.045,0,0,0,.751-1.783l-1.773-1.9V12Z" fill="#aa2d29"/>
        <path d="M373.517,83.037V12.005l1.8-2.088a.958.958,0,0,0-.747-1.641H356.748a.98.98,0,0,0-.756,1.641l1.788,2.088v35.2L341.133,8.881a1.01,1.01,0,0,0-1.038-.605H324.2a.945.945,0,0,0-.733,1.641l1.781,2.088V83.037l-1.781,1.9a1.053,1.053,0,0,0,.733,1.783h17.68a1.158,1.158,0,0,0,.907-1.783l-1.941-1.9V47.067L357.2,83.6l-1.2,1.336a1.081,1.081,0,0,0,.756,1.783h17.823a1.041,1.041,0,0,0,.747-1.783Z" fill="#aa2d29"/>
        <path d="M437.27,0H386.028a1.471,1.471,0,0,0-1.371,1.37V17.44a1.433,1.433,0,0,0,2.226,1.029l2.055-2.055h13.633v87.8l-5.138,2.32a1.634,1.634,0,0,0,1.138,2.7h26.177a1.577,1.577,0,0,0,1.129-2.7l-5.151-2.124v-88h13.632l2.227,2.055c.685.686,2.056,0,2.056-1.028V1.371A1.26,1.26,0,0,0,437.27,0Z" fill="#aa2d29"/>
      </g>
    </symbol>
  </defs>
  <title>Asset 1</title>
  <g id="Layer_2" data-name="Layer 2">
    <g id="art">
      <use width="438.641" height="210.163" xlink:href="#secondary_2_rust_red_updated_26_11_16_2"/>
    </g>
  </g>
</svg>
