<svg xmlns="http://www.w3.org/2000/svg" viewBox="0 0 285.795 54.5">
  <title>ws2018-icons</title>
  <g id="grid">
    <g>
      <path d="M.246,19.045c0-2.254,1.762-3.278,4.242-3.278a8.625,8.625,0,0,1,2.193.246V14.886c0-1.087-.595-1.6-1.865-1.6a3.371,3.371,0,0,0-2.48.962H.963V12.058a10.484,10.484,0,0,1,4.447-.82c2.787,0,4.263.9,4.263,3.361v5.349a.567.567,0,0,0,.512.511h.574v1.435a3.552,3.552,0,0,1-1.8.41A1.938,1.938,0,0,1,6.8,20.952a3.669,3.669,0,0,1-3.115,1.332C1.681,22.284.246,21.177.246,19.045Zm6.435.718v-2.3A9.31,9.31,0,0,0,5.1,17.345c-1.209,0-1.947.491-1.947,1.577a1.459,1.459,0,0,0,1.639,1.6A2.7,2.7,0,0,0,6.681,19.763Z"/>
      <path d="M14.615,21.1c-.306.553-.757,1.066-1,1.066H11.951V10.131a.628.628,0,0,0-.511-.552h-.78V7.816h3.772c.327,0,.512.246.512.7v4.324a4.523,4.523,0,0,1,3.442-1.6c2.029,0,4.058,1.352,4.058,5.389,0,4.161-2.357,5.677-4.631,5.677A4.043,4.043,0,0,1,14.615,21.1Zm.329-7.255v6.149a2.987,2.987,0,0,0,1.947.614c1.229,0,2.52-.7,2.52-3.709,0-2.849-1.168-3.5-2.479-3.5A6.054,6.054,0,0,0,14.944,13.84Z"/>
      <path d="M23.206,16.812c0-3.463,2.234-5.574,5.717-5.574a9.517,9.517,0,0,1,3.628.553V14.25h-1.8a1.8,1.8,0,0,0-1.885-1.106c-1.619,0-2.6,1.147-2.6,3.688,0,2.562.841,3.607,2.583,3.607a2.556,2.556,0,0,0,2.3-1.148h1.455V21.4a7.506,7.506,0,0,1-3.812.9C25.05,22.3,23.206,20.254,23.206,16.812Z"/>
      <path d="M33.518,16.915c0-4.058,2.541-5.677,4.631-5.677a3.651,3.651,0,0,1,3.074,1.393V9.579H39.829V7.816H43.7c.349,0,.513.266.513.7v11.4a.629.629,0,0,0,.512.552h.738v1.7H41.817c-.307,0-.492-.452-.553-1.209a4.2,4.2,0,0,1-3.279,1.373C35.833,22.325,33.518,21.034,33.518,16.915Zm7.7,2.746v-5.9a5,5,0,0,0-1.988-.47c-1.415,0-2.685.819-2.685,3.544,0,2.952,1.21,3.689,2.439,3.689A3.276,3.276,0,0,0,41.223,19.661Z"/>
      <path d="M48.952,17.345c.123,2.131,1.067,3.114,2.787,3.114A2.535,2.535,0,0,0,54.1,19.291h1.7v1.968a7.617,7.617,0,0,1-4.3,1.045c-3.73,0-5.594-2.091-5.594-5.472,0-3.462,2.151-5.594,5.389-5.594,3.217,0,4.9,1.639,4.9,5.287,0,.369-.041.718-.041.82Zm.041-1.7h4.2c-.1-1.886-.676-2.623-1.906-2.623C50.039,13.021,49.219,13.8,48.993,15.644Z"/>
      <path d="M56.846,11.4h1.27v-.82c0-2.049,1.291-2.971,3.4-2.971A4.56,4.56,0,0,1,63.3,7.9V9.579h-.7c-.9,0-1.5.1-1.5,1.106V11.4h2.048v1.8H61.109v6.742a.566.566,0,0,0,.511.511h.944v1.7H56.928v-1.7H57.6a.586.586,0,0,0,.512-.511V13.206h-1.27Z"/>
      <path d="M62.935,23.267a2.521,2.521,0,0,1,1.885-2.254,1.741,1.741,0,0,1-.881-1.557,2.487,2.487,0,0,1,1.25-2.07,3.034,3.034,0,0,1-1.414-2.643c0-2.112,1.742-3.505,4.344-3.505a6.555,6.555,0,0,1,1.455.164h3.771v1.8H72.71c-.184,0-.451.184-.451.369a3.568,3.568,0,0,1,.2,1.168c0,2.089-1.742,3.38-4.345,3.38a6.387,6.387,0,0,1-1.966-.287,2.907,2.907,0,0,0-.083.7c0,.47.307.655.9.655h2.992c2.3,0,3.381.841,3.381,2.684,0,2.275-1.6,3.874-5.8,3.874C64.226,25.747,62.935,24.743,62.935,23.267Zm7.684-.7c0-.615-.368-.944-1.434-.944H65.537a2.932,2.932,0,0,0-.123.944c0,.922.615,1.414,2.255,1.414C69.656,23.985,70.619,23.452,70.619,22.571ZM69.8,14.743a1.688,1.688,0,1,0-3.361,0,1.688,1.688,0,1,0,3.361,0Z"/>
      <path d="M80.746,20.459h1.23V14.947c0-1.066-.41-1.372-1.414-1.372a7.644,7.644,0,0,0-2.357.409v6.475h1.25v1.7H73.984v-1.7H74.7a.587.587,0,0,0,.513-.511V10.131a.63.63,0,0,0-.513-.552h-.778V7.816h3.771c.328,0,.512.246.512.7v4.263a5.793,5.793,0,0,1,3.976-1.537c1.5,0,2.786.594,2.786,2.684v6.026a.568.568,0,0,0,.513.511h.574v1.7H80.746Z"/>
      <path d="M86.632,20.459h.778a.567.567,0,0,0,.493-.511v-6.19a.611.611,0,0,0-.493-.552h-.86V11.4h3.873c.328,0,.492.328.492,1.147v7.4a.567.567,0,0,0,.512.511h.779v1.7H86.632ZM87.759,8.984a1.619,1.619,0,0,1,3.238,0,1.62,1.62,0,0,1-3.238,0Z"/>
      <path d="M91.594,23.882h.7c1.127,0,1.537-.43,1.537-1.455V13.758a.61.61,0,0,0-.492-.552h-.86V11.4h3.873c.328,0,.492.328.492,1.147V22.612c0,2.254-1.291,2.991-3.505,2.991a6.006,6.006,0,0,1-1.741-.225Zm2.09-14.9a1.619,1.619,0,0,1,3.238,0,1.62,1.62,0,0,1-3.238,0Z"/>
      <path d="M98.174,20.459h.717a.587.587,0,0,0,.513-.511V10.131a.63.63,0,0,0-.513-.552h-.779V7.816h3.771c.328,0,.513.246.513.7v8.156l2.7-2.643c.327-.349.245-.819-.164-.819h-.41V11.4h4.856v1.8h-.573a1.4,1.4,0,0,0-.862.389l-2.294,2.234,2.807,4.057c.287.409.513.573.8.573h.2v1.7h-2.931l-2.929-4.345L102.4,18.984v1.475h1.045v1.7H98.174Z"/>
      <path d="M110.043,20.459h.8a.587.587,0,0,0,.513-.511V10.131a.63.63,0,0,0-.513-.552h-.86V7.816h3.852c.349,0,.513.246.513.7V19.948a.586.586,0,0,0,.512.511h.84v1.7h-5.656Z"/>
      <path d="M116.275,20.459h.716a.587.587,0,0,0,.513-.511v-6.19a.631.631,0,0,0-.513-.552h-.8V11.4h3.668c.348,0,.553.287.615,1.414a5.984,5.984,0,0,1,3.832-1.578,2.391,2.391,0,0,1,2.6,1.68,6.036,6.036,0,0,1,3.935-1.68,2.413,2.413,0,0,1,2.725,2.684v6.026a.567.567,0,0,0,.512.511h.574v1.7h-5.225v-1.7h1.147V14.866c0-1.046-.348-1.291-1.291-1.291a7.442,7.442,0,0,0-2.254.388v6.5H128.2v1.7h-5.307v-1.7h1.147V14.866c0-1.046-.348-1.291-1.291-1.291a7.442,7.442,0,0,0-2.254.388v6.5h1.168v1.7h-5.389Z"/>
      <path d="M135.216,20.459h.717a.586.586,0,0,0,.512-.511v-6.19a.63.63,0,0,0-.512-.552h-.8V11.4H138.8c.349,0,.554.287.615,1.393a5.766,5.766,0,0,1,4-1.557c1.495,0,2.786.594,2.786,2.684v6.026a.568.568,0,0,0,.513.511h.574v1.7h-5.307v-1.7h1.229V14.947c0-1.066-.41-1.372-1.414-1.372a7.638,7.638,0,0,0-2.356.409v6.475h1.25v1.7h-5.472Z"/>
      <path d="M147.845,16.832a5.656,5.656,0,0,1,11.311,0,5.659,5.659,0,0,1-11.311,0Zm8.278.021c0-2.438-1.127-3.647-2.623-3.647s-2.623,1.209-2.623,3.647c0,2.418,1.128,3.565,2.623,3.565S156.123,19.271,156.123,16.853Z"/>
      <path d="M159.612,23.882h.716a.569.569,0,0,0,.513-.512V13.758a.631.631,0,0,0-.513-.552h-.8V11.4H163.2c.329,0,.534.246.595,1.25a4.485,4.485,0,0,1,3.278-1.414c2.03,0,4.058,1.475,4.058,5.307,0,3.976-2.356,5.411-4.631,5.411a4.306,4.306,0,0,1-2.664-.738v2.664h1.373v1.6h-5.594Zm4.221-10.1v6a3.078,3.078,0,0,0,1.741.47c1.23,0,2.521-.573,2.521-3.442,0-2.726-1.168-3.422-2.48-3.422A5.4,5.4,0,0,0,163.833,13.779Z"/>
      <path d="M178.038,23.882h1.373V20.89a4.429,4.429,0,0,1-3.033,1.066c-2.151,0-4.467-1.107-4.467-5.144,0-3.976,2.459-5.574,4.549-5.574a3.8,3.8,0,0,1,3.095,1.332c.246-.922.737-1.168,1.045-1.168h1.8V23.37a.567.567,0,0,0,.511.512h.78v1.6h-5.657Zm1.373-4.262V13.676a5.557,5.557,0,0,0-1.783-.368c-1.413,0-2.684.778-2.684,3.442,0,2.89,1.21,3.423,2.439,3.423A3.646,3.646,0,0,0,179.411,19.62Z"/>
      <path d="M183.8,20.459h.717a.586.586,0,0,0,.512-.511v-6.19a.63.63,0,0,0-.512-.552h-.8V11.4h3.668c.349,0,.574.307.615,1.557a3.687,3.687,0,0,1,2.971-1.66,2.3,2.3,0,0,1,.656.1v2.214h-.513a6.231,6.231,0,0,0-3.093.655v6.188h1.5v1.7H183.8Z"/>
      <path d="M192.145,21.709V19.291h1.72a2.221,2.221,0,0,0,2.153,1.23c1.147,0,1.844-.491,1.844-1.271,0-.8-.471-1.127-2.193-1.373-2.315-.327-3.4-1.127-3.4-3.237,0-2.132,1.638-3.361,4.385-3.361a11.655,11.655,0,0,1,3.689.471v2.377h-1.66a2.2,2.2,0,0,0-2.132-1.045c-1.106,0-1.721.452-1.721,1.127,0,.657.389,1.045,2.213,1.312,2.6.39,3.668,1.106,3.668,3.279,0,2.111-1.414,3.484-4.672,3.484A11.367,11.367,0,0,1,192.145,21.709Z"/>
      <path d="M201.041,11.4h1.271V8.533H205.3V11.4h2.172v1.8H205.3v5.9c0,1.147.409,1.352,1.516,1.352h.738v1.6a6.341,6.341,0,0,1-1.927.267c-2.069,0-3.319-.657-3.319-2.89V13.206h-1.271Z"/>
      <path d="M209.261,19.64V13.717a.587.587,0,0,0-.513-.511h-.7V11.4h4.2v7.3c0,1.168.573,1.5,1.517,1.5a6.253,6.253,0,0,0,2.254-.512V13.206H214.61V11.4h4.406v8.505a.628.628,0,0,0,.512.552h.7v1.7h-3.567c-.347,0-.532-.267-.614-1.332a5.337,5.337,0,0,1-3.893,1.475C210.654,22.3,209.261,21.73,209.261,19.64Z"/>
      <path d="M221.356,13.779a.748.748,0,0,0-.656-.573h-.389V11.4h5.225v1.8h-1.352l2.192,6.147h.041l1.742-4.8c.287-.8.37-1.352-.533-1.352H227.3V11.4h4.549v1.8H231.5a.9.9,0,0,0-.778.634L227.3,22.161h-2.582Z"/>
      <path d="M240.562,15.172l-2.132,6.989h-2.562l-2.418-8.382a.777.777,0,0,0-.655-.573h-.39V11.4h4.754v1.8h-.942l1.414,5.369h.041l2.09-7.173h2.3l2.09,7.173h.041l1.086-4.017c.266-.942.164-1.352-.676-1.352h-.308V11.4h4.488v1.8h-.348a.788.788,0,0,0-.779.634l-2.439,8.321h-2.561L240.6,15.172Z"/>
      <path d="M260.158,20.459h.123v1.7h-5.225v-1.7h1.188l-1.926-2.4-1.066,1.373c-.451.574-.348,1.024.246,1.024h.267v1.7H249.42v-1.7h.205a1.4,1.4,0,0,0,.861-.388l2.643-3.177-2.623-3.115c-.328-.389-.513-.573-.8-.573h-.369V11.4h5.349v1.8h-1.148l1.865,2.315L256.612,14c.329-.409.288-.8-.245-.8h-.389V11.4H260.2v1.8h-.225a1.064,1.064,0,0,0-.759.389l-2.6,3.135,2.665,3.156C259.605,20.275,259.871,20.459,260.158,20.459Z"/>
      <path d="M262.5,25.48V23.9a5.82,5.82,0,0,0,2.909-1.886l-3.545-8.238c-.143-.348-.348-.573-.634-.573h-.39V11.4h5.2v1.8H264.63l2.315,5.553,1.722-4.2c.308-.779.41-1.352-.492-1.352h-.327V11.4h4.733v1.8h-.451a.9.9,0,0,0-.737.634l-3.525,7.931a8.471,8.471,0,0,1-2.93,3.709Z"/>
      <path d="M272.852,20.3l5.963-7.069h-3.627l-.287,1.8H273.18V11.4h9.078v1.927l-5.984,7.048h3.811l.246-1.8h1.783v3.586h-9.262Z"/>
      <path d="M.369,39.587c0-4.979,2.93-7.336,6.209-7.336s6.209,2.357,6.209,7.336-2.93,7.337-6.209,7.337S.369,44.568.369,39.587Zm9.14.062c0-3.873-1.106-5.267-2.931-5.267-1.844,0-2.93,1.394-2.93,5.267,0,3.852,1.086,5.225,2.93,5.225C8.4,44.874,9.509,43.5,9.509,39.649Z"/>
      <path d="M13.592,45.059H15.15a.7.7,0,0,0,.573-.635V35.408l-1.414.634h-.717v-1.7l3.2-1.926h2.153V44.424a.676.676,0,0,0,.573.635h1.291v1.7H13.592Z"/>
      <path d="M29.333,42.846h2.029V46.76H21.608V45.469c0-2.684,1.946-4.2,3.791-5.554,1.5-1.106,2.951-2.069,2.951-3.544,0-1.23-.615-2.03-1.845-2.03a2.541,2.541,0,0,0-2.459,1.619H22.263V33.03a12.846,12.846,0,0,1,4.345-.779c3.094,0,5.02,1.271,5.02,4.1,0,2.644-2.336,3.914-4.365,5.082-1.536.881-2.807,1.845-3.012,2.972h4.857Z"/>
      <path d="M32.41,46.227v-2.7h1.783a2.584,2.584,0,0,0,2.419,1.352,2.187,2.187,0,0,0,2.4-2.253c0-1.5-.841-2.213-2.582-2.213H35.362V38.5h.9c1.783,0,2.684-.716,2.684-2.171A1.735,1.735,0,0,0,37,34.382a2.576,2.576,0,0,0-2.336,1.271h-1.7V32.99a12.363,12.363,0,0,1,4.263-.739c2.992,0,4.815,1.107,4.815,3.73,0,1.968-1.147,2.931-3.032,3.341V39.4c2.192.306,3.237,1.434,3.237,3.381.021,2.705-2.377,4.139-5.593,4.139A11.037,11.037,0,0,1,32.41,46.227Z"/>
      <path d="M49.013,44.424V43.338H43.029V40.9l6.148-8.484h2.972V41.33h1.516v2.008H52.149v1.086a.676.676,0,0,0,.573.635h.943v1.7H47.5v-1.7h.944A.7.7,0,0,0,49.013,44.424Zm-4.1-3.094h4.1V35.694h-.082l-4.017,5.554Z"/>
      <path d="M58.874,46.924a10.07,10.07,0,0,1-4.242-.86V43.42h1.782a2.42,2.42,0,0,0,2.419,1.454,2.3,2.3,0,0,0,2.4-2.6c0-1.782-1.045-2.541-2.194-2.541a2.609,2.609,0,0,0-2.192.964H54.94v-8.28h8.893v3.422H61.8l-.225-1.086H57.235V38.4H57.3a4.513,4.513,0,0,1,2.623-.717c2.5,0,4.487,1.353,4.487,4.468C64.406,45.244,62.214,46.924,58.874,46.924Z"/>
      <path d="M68.632,39.117a4.343,4.343,0,0,1,3.361-1.455,4.066,4.066,0,0,1,4.385,4.344c0,2.827-2.11,4.918-5.39,4.918s-5.655-2.3-5.655-7.029c0-4.9,2.664-7.644,7.09-7.644A12.821,12.821,0,0,1,75.6,32.6v2.521H73.837a1.915,1.915,0,0,0-1.68-.821C69.923,34.3,68.776,35.94,68.632,39.117Zm-.02,1.332c.061,3.175.7,4.569,2.376,4.569s2.194-1.373,2.194-2.909c0-1.558-.718-2.44-2.132-2.44A4.141,4.141,0,0,0,68.612,40.449Z"/>
      <path d="M84.538,34.792H79.087l-.225,1.866H76.833V32.415h9.816v2.6L81.526,46.76H78.309V45.51l6.229-10.636Z"/>
      <path d="M95.32,39.117c1.886.573,3.013,1.742,3.013,3.565,0,2.644-1.987,4.242-5.595,4.242s-5.593-1.6-5.593-4.242c0-1.823,1.127-2.992,3.011-3.565v-.082a2.991,2.991,0,0,1-2.4-2.972c0-2.4,2.029-3.812,4.979-3.812s4.981,1.414,4.981,3.812a2.97,2.97,0,0,1-2.4,2.972Zm-.163,3.4a2.419,2.419,0,1,0-4.837,0,2.419,2.419,0,1,0,4.837,0Zm-.533-6.27a1.887,1.887,0,1,0-3.77,0,1.885,1.885,0,1,0,3.77,0Z"/>
      <path d="M106.78,40.059a4.34,4.34,0,0,1-3.361,1.455,4.066,4.066,0,0,1-4.385-4.345c0-2.828,2.111-4.918,5.39-4.918s5.655,2.07,5.655,7.03c0,4.938-2.664,7.643-7.09,7.643a10.677,10.677,0,0,1-3.4-.492V43.891h1.722a2.045,2.045,0,0,0,1.947.983C105.469,44.874,106.616,43.236,106.78,40.059Zm.021-1.311c-.062-3.2-.718-4.59-2.377-4.59-1.681,0-2.193,1.373-2.193,2.909,0,1.557.717,2.439,2.131,2.439A4.155,4.155,0,0,0,106.8,38.748Z"/>
    </g>
  </g>
</svg>
