<svg id="Layer_1" data-name="Layer 1" xmlns="http://www.w3.org/2000/svg" viewBox="0 0 16 152">
  <title>indicator-sticky-contact</title>
  <g id="Specified">
    <g id="index-large-1440-measured">
      <g id="sticky-contact">
        <g id="Group-4">
          <g id="get-in-touch" style="isolation: isolate">
            <g style="isolation: isolate">
              <path d="M8.29,147.49v-3.4h4.44a9.529,9.529,0,0,1,.378,1.555,10.049,10.049,0,0,1,.109,1.492,3.773,3.773,0,0,1-1.14,2.962,4.743,4.743,0,0,1-3.272,1.022,4.314,4.314,0,0,1-3.234-1.186,4.5,4.5,0,0,1-1.16-3.291,6.355,6.355,0,0,1,.527-2.542l1.453.6a4.316,4.316,0,0,0-.469,1.951,2.412,2.412,0,0,0,.791,1.887,3.069,3.069,0,0,0,2.127.709,3.423,3.423,0,0,0,2.13-.571,1.978,1.978,0,0,0,.735-1.662,5.892,5.892,0,0,0-.117-1.154H9.8v1.623Z" fill="#222"/>
              <path d="M13.1,134.119v4.934H4.534v-4.934H6.022v3.117H7.9v-2.9H9.391v2.9H11.6v-3.117Z" fill="#222"/>
              <path d="M13.1,126.027v1.817H6.045v2.326H4.534V123.7H6.045v2.326Z" fill="#222"/>
              <path d="M13.1,113.266H4.534v-1.817H13.1Z" fill="#222"/>
              <path d="M13.1,98.693V101l-6.48,3.727v.052q1.716-.111,2.448-.111H13.1v1.623H4.534V104l6.415-3.721v-.041q-1.669.089-2.361.088H4.534V98.693Z" fill="#222"/>
              <path d="M13.1,84.115v1.817H6.045v2.326H4.534V81.789H6.045v2.326Z" fill="#222"/>
              <path d="M8.805,69.695a4.648,4.648,0,0,1,3.269,1.055,4.57,4.57,0,0,1,0,6.047,4.667,4.667,0,0,1-3.281,1.055,4.6,4.6,0,0,1-3.266-1.058A3.955,3.955,0,0,1,4.4,73.762a3.9,3.9,0,0,1,1.137-3.021A4.659,4.659,0,0,1,8.805,69.695Zm0,6.252a3.574,3.574,0,0,0,2.162-.545,1.907,1.907,0,0,0,.726-1.629q0-2.173-2.888-2.173T5.911,73.762A1.919,1.919,0,0,0,6.64,75.4,3.557,3.557,0,0,0,8.805,75.947Z" fill="#222"/>
              <path d="M4.534,57.947h5.542a3.2,3.2,0,0,1,1.664.425,2.759,2.759,0,0,1,1.1,1.228,4.388,4.388,0,0,1,.381,1.9,3.63,3.63,0,0,1-.847,2.566,3,3,0,0,1-2.317.915H4.534V63.168H9.777a2.2,2.2,0,0,0,1.453-.4,1.657,1.657,0,0,0,.463-1.319,1.621,1.621,0,0,0-.465-1.292,2.213,2.213,0,0,0-1.462-.4H4.534Z" fill="#222"/>
              <path d="M5.922,49.211A1.85,1.85,0,0,0,6.693,50.8a3.584,3.584,0,0,0,2.147.562q2.865,0,2.865-2.15a6.794,6.794,0,0,0-.451-2.186h1.523a6.075,6.075,0,0,1,.44,2.356,3.591,3.591,0,0,1-1.134,2.859,4.8,4.8,0,0,1-3.254.99,5.318,5.318,0,0,1-2.341-.486,3.512,3.512,0,0,1-1.541-1.4,4.132,4.132,0,0,1-.536-2.136,5.77,5.77,0,0,1,.6-2.508l1.477.586a9.713,9.713,0,0,0-.4.967A2.888,2.888,0,0,0,5.922,49.211Z" fill="#222"/>
              <path d="M13.1,35.184v1.81H9.4v3.393h3.7V42.2H4.534V40.387H7.891V36.994H4.534v-1.81Z" fill="#222"/>
            </g>
          </g>
          <g id="speech-buble">
            <polygon id="Fill-1" points="0.887 0.959 0.887 10.48 3.734 10.48 3.734 14.622 8.486 10.678 15.484 10.678 15.484 0.959 0.887 0.959"/>
          </g>
        </g>
      </g>
    </g>
  </g>
</svg>
