<svg xmlns="http://www.w3.org/2000/svg" viewBox="0 0 286.393 208">
  <title>ws2018-icons</title>
  <g id="grid">
    <g id="Group-28">
      <rect id="Rectangle" x="-0.451" y="111.209" width="79.8" height="96.52" fill="none"/>
      <g>
        <path d="M25.12,109.37a2.8,2.8,0,0,1-1.093,2.352,4.748,4.748,0,0,1-2.969.844,7.431,7.431,0,0,1-3.125-.524v-1.281a8.258,8.258,0,0,0,1.531.469,8.1,8.1,0,0,0,1.641.172,3.313,3.313,0,0,0,2-.5,1.655,1.655,0,0,0,.672-1.4,1.79,1.79,0,0,0-.239-.972,2.212,2.212,0,0,0-.8-.7,11.079,11.079,0,0,0-1.7-.726,5.424,5.424,0,0,1-2.277-1.352,2.98,2.98,0,0,1-.684-2.039,2.535,2.535,0,0,1,.992-2.1,4.125,4.125,0,0,1,2.625-.782,7.729,7.729,0,0,1,3.133.625l-.414,1.157a7.073,7.073,0,0,0-2.75-.594,2.659,2.659,0,0,0-1.648.453,1.494,1.494,0,0,0-.594,1.258,1.924,1.924,0,0,0,.219.972,2.045,2.045,0,0,0,.738.7,9.164,9.164,0,0,0,1.59.7,6.305,6.305,0,0,1,2.473,1.375A2.705,2.705,0,0,1,25.12,109.37Z" fill="#111"/>
        <path d="M33.12,112.409V106.87a2.237,2.237,0,0,0-.476-1.562,1.942,1.942,0,0,0-1.492-.516,2.443,2.443,0,0,0-1.973.735,3.719,3.719,0,0,0-.621,2.406v4.476h-1.3V100.253h1.3v3.68a7.956,7.956,0,0,1-.063,1.1h.078a2.648,2.648,0,0,1,1.09-.972,3.533,3.533,0,0,1,1.614-.356,3.3,3.3,0,0,1,2.355.746,3.14,3.14,0,0,1,.785,2.371v5.586Z" fill="#111"/>
        <path d="M36.972,101.527a.862.862,0,0,1,.219-.653.81.81,0,0,1,1.086,0,.847.847,0,0,1,.226.649.859.859,0,0,1-.226.652.76.76,0,0,1-.539.215.749.749,0,0,1-.547-.215A.877.877,0,0,1,36.972,101.527Zm1.406,10.882h-1.3v-8.562h1.3Z" fill="#111"/>
        <path d="M46.988,112.409V106.87a2.237,2.237,0,0,0-.477-1.562,1.939,1.939,0,0,0-1.492-.516,2.46,2.46,0,0,0-1.969.727,3.665,3.665,0,0,0-.625,2.4v4.492h-1.3v-8.562h1.055l.211,1.172h.062a2.653,2.653,0,0,1,1.117-.981,3.643,3.643,0,0,1,1.6-.347,3.253,3.253,0,0,1,2.328.746,3.173,3.173,0,0,1,.781,2.386v5.586Z" fill="#111"/>
        <path d="M49.589,103.847H50.98l1.875,4.883a18.425,18.425,0,0,1,.765,2.414h.063c.067-.266.21-.72.426-1.364s.922-2.621,2.121-5.933h1.39l-3.679,9.75a4.859,4.859,0,0,1-1.278,2.051,2.72,2.72,0,0,1-1.793.605,5.2,5.2,0,0,1-1.172-.133v-1.039a4.493,4.493,0,0,0,.961.094,1.981,1.981,0,0,0,1.907-1.5l.476-1.219Z" fill="#111"/>
        <path d="M28.671,131.766a3.656,3.656,0,0,1-2.879-1.145,4.709,4.709,0,0,1-1.019-3.238,4.846,4.846,0,0,1,1.035-3.32,3.724,3.724,0,0,1,2.949-1.172,5.819,5.819,0,0,1,1.234.133,4.023,4.023,0,0,1,.969.312l-.4,1.1a6.08,6.08,0,0,0-.938-.286,4.212,4.212,0,0,0-.9-.113q-2.608,0-2.61,3.328a3.959,3.959,0,0,0,.637,2.422,2.216,2.216,0,0,0,1.887.844,5.752,5.752,0,0,0,2.2-.461v1.148A4.676,4.676,0,0,1,28.671,131.766Z" fill="#111"/>
        <path d="M40.257,127.32a4.721,4.721,0,0,1-1.055,3.27,3.713,3.713,0,0,1-2.914,1.176,3.865,3.865,0,0,1-2.039-.539,3.572,3.572,0,0,1-1.375-1.547,5.39,5.39,0,0,1-.484-2.36,4.714,4.714,0,0,1,1.047-3.261,3.7,3.7,0,0,1,2.906-1.168,3.621,3.621,0,0,1,2.855,1.195A4.7,4.7,0,0,1,40.257,127.32Zm-6.523,0a4.061,4.061,0,0,0,.656,2.5,2.6,2.6,0,0,0,3.863,0,4.037,4.037,0,0,0,.66-2.5,3.972,3.972,0,0,0-.66-2.48,2.32,2.32,0,0,0-1.949-.848,2.285,2.285,0,0,0-1.922.836A4.02,4.02,0,0,0,33.734,127.32Z" fill="#111"/>
        <path d="M42.421,120.727a.862.862,0,0,1,.219-.653.81.81,0,0,1,1.086,0,.847.847,0,0,1,.226.649.857.857,0,0,1-.226.652.755.755,0,0,1-.539.215.745.745,0,0,1-.547-.215A.875.875,0,0,1,42.421,120.727Zm1.406,10.883h-1.3v-8.563h1.3Z" fill="#111"/>
        <path d="M52.437,131.61v-5.54a2.232,2.232,0,0,0-.477-1.562,1.939,1.939,0,0,0-1.492-.516,2.465,2.465,0,0,0-1.969.727,3.665,3.665,0,0,0-.625,2.4v4.493h-1.3v-8.563h1.055l.211,1.172h.063a2.641,2.641,0,0,1,1.117-.981,3.636,3.636,0,0,1,1.6-.347,3.251,3.251,0,0,1,2.328.746,3.175,3.175,0,0,1,.782,2.387v5.586Z" fill="#111"/>
      </g>
      <g>
        <ellipse cx="39.449" cy="181.662" rx="14.44" ry="14.76" fill="#ccc"/>
        <path d="M39.449,161.451a20.216,20.216,0,0,0,0,40.423,20.216,20.216,0,0,0,0-40.423Zm0,36.239a16.031,16.031,0,1,1,15.708-16.028A15.871,15.871,0,0,1,39.449,197.69Z" fill="#ccc" fill-rule="evenodd"/>
      </g>
    </g>
    <g id="Group-27">
      <rect x="103.296" y="111.408" width="79.8" height="96.52" fill="none"/>
      <g id="Group-25">
        <g>
          <path d="M121.1,104.316a3.2,3.2,0,0,1-1.184,2.668,5.363,5.363,0,0,1-3.386.933h-1.344v4.492h-1.328V100.987h2.961Q121.1,100.987,121.1,104.316Zm-5.914,2.461h1.195a4.447,4.447,0,0,0,2.555-.571,2.1,2.1,0,0,0,.789-1.828,1.969,1.969,0,0,0-.742-1.687,3.87,3.87,0,0,0-2.313-.555h-1.484Z" fill="#111"/>
          <path d="M130.685,108.12a4.725,4.725,0,0,1-1.055,3.27,3.715,3.715,0,0,1-2.914,1.176,3.862,3.862,0,0,1-2.039-.539,3.56,3.56,0,0,1-1.375-1.547,5.39,5.39,0,0,1-.484-2.36,4.714,4.714,0,0,1,1.046-3.261,3.7,3.7,0,0,1,2.907-1.168,3.621,3.621,0,0,1,2.855,1.195A4.7,4.7,0,0,1,130.685,108.12Zm-6.524,0a4.06,4.06,0,0,0,.657,2.5,2.6,2.6,0,0,0,3.863,0,4.044,4.044,0,0,0,.66-2.5,3.976,3.976,0,0,0-.66-2.48,2.318,2.318,0,0,0-1.949-.848,2.281,2.281,0,0,0-1.922.836A4.019,4.019,0,0,0,124.161,108.12Z" fill="#111"/>
          <path d="M138.482,110.073a2.144,2.144,0,0,1-.891,1.844,4.182,4.182,0,0,1-2.5.649,5.439,5.439,0,0,1-2.656-.539v-1.2a6.489,6.489,0,0,0,1.324.493,5.523,5.523,0,0,0,1.363.179,3.094,3.094,0,0,0,1.563-.324,1.116,1.116,0,0,0,.113-1.844,6.843,6.843,0,0,0-1.691-.84,9.086,9.086,0,0,1-1.7-.777,2.349,2.349,0,0,1-.75-.754,1.966,1.966,0,0,1-.246-1.008,1.922,1.922,0,0,1,.852-1.652,3.973,3.973,0,0,1,2.336-.605,6.832,6.832,0,0,1,2.7.562l-.461,1.055a6.187,6.187,0,0,0-2.336-.531,2.689,2.689,0,0,0-1.391.289.893.893,0,0,0-.468.8.963.963,0,0,0,.176.586,1.708,1.708,0,0,0,.566.461,12.7,12.7,0,0,0,1.5.633,5.608,5.608,0,0,1,2.059,1.117A1.974,1.974,0,0,1,138.482,110.073Z" fill="#111"/>
          <path d="M140.482,101.527a.866.866,0,0,1,.218-.653.81.81,0,0,1,1.086,0,.844.844,0,0,1,.227.649.855.855,0,0,1-.227.652.793.793,0,0,1-1.086,0A.88.88,0,0,1,140.482,101.527Zm1.406,10.882h-1.3v-8.562h1.3Z" fill="#111"/>
          <path d="M147.4,111.5a4.107,4.107,0,0,0,.664-.051,4.446,4.446,0,0,0,.507-.105v.992a2.334,2.334,0,0,1-.621.168,4.692,4.692,0,0,1-.738.067q-2.484,0-2.484-2.618v-5.093h-1.227v-.625l1.227-.539.547-1.829h.75v1.985h2.484v1.008h-2.484v5.039a1.732,1.732,0,0,0,.367,1.187A1.275,1.275,0,0,0,147.4,111.5Z" fill="#111"/>
          <path d="M150.177,101.527a.862.862,0,0,1,.219-.653.81.81,0,0,1,1.086,0,.847.847,0,0,1,.226.649.859.859,0,0,1-.226.652.76.76,0,0,1-.539.215.749.749,0,0,1-.547-.215A.877.877,0,0,1,150.177,101.527Zm1.406,10.882h-1.3v-8.562h1.3Z" fill="#111"/>
          <path d="M156.208,112.409l-3.25-8.562h1.391l1.844,5.078a23.892,23.892,0,0,1,.734,2.312h.062a17.884,17.884,0,0,1,.543-1.714q.457-1.3,2.051-5.676h1.391l-3.25,8.562Z" fill="#111"/>
          <path d="M165.966,112.566a3.932,3.932,0,0,1-3-1.157,4.477,4.477,0,0,1-1.1-3.211,4.966,4.966,0,0,1,1.02-3.289,3.389,3.389,0,0,1,2.738-1.218,3.228,3.228,0,0,1,2.547,1.058,4.058,4.058,0,0,1,.937,2.793v.82h-5.9a3.4,3.4,0,0,0,.762,2.29,2.636,2.636,0,0,0,2.035.781,6.9,6.9,0,0,0,2.734-.578v1.156a6.846,6.846,0,0,1-1.3.426A7.319,7.319,0,0,1,165.966,112.566Zm-.352-7.789a2.117,2.117,0,0,0-1.644.671,3.107,3.107,0,0,0-.723,1.86h4.477a2.853,2.853,0,0,0-.547-1.879A1.925,1.925,0,0,0,165.614,104.777Z" fill="#111"/>
          <path d="M107.134,131.766a3.935,3.935,0,0,1-3-1.156,4.475,4.475,0,0,1-1.1-3.211,4.962,4.962,0,0,1,1.02-3.289,3.385,3.385,0,0,1,2.738-1.219,3.228,3.228,0,0,1,2.547,1.058,4.058,4.058,0,0,1,.937,2.793v.821h-5.9a3.393,3.393,0,0,0,.762,2.289,2.636,2.636,0,0,0,2.035.781,6.884,6.884,0,0,0,2.734-.578v1.156a6.831,6.831,0,0,1-1.3.426A7.3,7.3,0,0,1,107.134,131.766Zm-.352-7.789a2.114,2.114,0,0,0-1.644.672,3.1,3.1,0,0,0-.723,1.859h4.477a2.856,2.856,0,0,0-.547-1.879A1.925,1.925,0,0,0,106.782,123.977Z" fill="#111"/>
          <path d="M114.556,127.227l-2.977-4.18h1.477l2.258,3.281,2.25-3.281h1.461l-2.977,4.18,3.133,4.383h-1.469l-2.4-3.469-2.422,3.469h-1.469Z" fill="#111"/>
          <path d="M124.861,131.766a3.7,3.7,0,0,1-1.528-.309,2.877,2.877,0,0,1-1.16-.949h-.094a11.392,11.392,0,0,1,.094,1.422v3.523h-1.3V123.047h1.055l.18,1.172h.062a3.011,3.011,0,0,1,1.164-1.016,3.544,3.544,0,0,1,1.524-.312,3.16,3.16,0,0,1,2.628,1.164,6.2,6.2,0,0,1-.015,6.543A3.173,3.173,0,0,1,124.861,131.766Zm-.188-7.774a2.3,2.3,0,0,0-1.9.727,3.738,3.738,0,0,0-.6,2.312v.289a4.275,4.275,0,0,0,.6,2.582,2.285,2.285,0,0,0,1.929.778,2.007,2.007,0,0,0,1.739-.9,4.258,4.258,0,0,0,.629-2.476,4.1,4.1,0,0,0-.629-2.457A2.067,2.067,0,0,0,124.673,123.992Z" fill="#111"/>
          <path d="M134.3,131.766a3.935,3.935,0,0,1-3-1.156,4.48,4.48,0,0,1-1.1-3.211,4.962,4.962,0,0,1,1.02-3.289,3.386,3.386,0,0,1,2.738-1.219,3.228,3.228,0,0,1,2.547,1.058,4.058,4.058,0,0,1,.938,2.793v.821h-5.9a3.393,3.393,0,0,0,.762,2.289,2.636,2.636,0,0,0,2.035.781,6.884,6.884,0,0,0,2.734-.578v1.156a6.846,6.846,0,0,1-1.3.426A7.319,7.319,0,0,1,134.3,131.766Zm-.351-7.789a2.115,2.115,0,0,0-1.645.672,3.1,3.1,0,0,0-.723,1.859h4.477a2.856,2.856,0,0,0-.547-1.879A1.924,1.924,0,0,0,133.947,123.977Z" fill="#111"/>
          <path d="M143.564,122.891a5.034,5.034,0,0,1,1.023.094l-.18,1.2a4.433,4.433,0,0,0-.937-.118,2.284,2.284,0,0,0-1.777.844,3.074,3.074,0,0,0-.739,2.1v4.594h-1.3v-8.563h1.071l.148,1.586h.063a3.747,3.747,0,0,1,1.148-1.289A2.588,2.588,0,0,1,143.564,122.891Z" fill="#111"/>
          <path d="M146.079,120.727a.866.866,0,0,1,.219-.653.81.81,0,0,1,1.086,0,.847.847,0,0,1,.227.649.858.858,0,0,1-.227.652.754.754,0,0,1-.539.215.746.746,0,0,1-.547-.215A.879.879,0,0,1,146.079,120.727Zm1.407,10.883h-1.3v-8.563h1.3Z" fill="#111"/>
          <path d="M153.853,131.766a3.935,3.935,0,0,1-3-1.156,4.475,4.475,0,0,1-1.1-3.211,4.962,4.962,0,0,1,1.02-3.289,3.384,3.384,0,0,1,2.738-1.219,3.228,3.228,0,0,1,2.547,1.058,4.058,4.058,0,0,1,.937,2.793v.821h-5.9a3.4,3.4,0,0,0,.761,2.289,2.64,2.64,0,0,0,2.036.781,6.884,6.884,0,0,0,2.734-.578v1.156a6.854,6.854,0,0,1-1.3.426A7.3,7.3,0,0,1,153.853,131.766Zm-.352-7.789a2.114,2.114,0,0,0-1.644.672,3.1,3.1,0,0,0-.723,1.859h4.477a2.856,2.856,0,0,0-.547-1.879A1.926,1.926,0,0,0,153.5,123.977Z" fill="#111"/>
          <path d="M165.072,131.61v-5.54a2.237,2.237,0,0,0-.477-1.562,1.939,1.939,0,0,0-1.492-.516,2.463,2.463,0,0,0-1.969.727,3.665,3.665,0,0,0-.625,2.4v4.493h-1.3v-8.563h1.055l.211,1.172h.062a2.653,2.653,0,0,1,1.117-.981,3.643,3.643,0,0,1,1.6-.347,3.253,3.253,0,0,1,2.328.746,3.174,3.174,0,0,1,.781,2.387v5.586Z" fill="#111"/>
          <path d="M172.454,131.766a3.656,3.656,0,0,1-2.879-1.145,4.709,4.709,0,0,1-1.019-3.238,4.851,4.851,0,0,1,1.035-3.32,3.724,3.724,0,0,1,2.949-1.172,5.829,5.829,0,0,1,1.235.133,4.029,4.029,0,0,1,.968.312l-.4,1.1a6.08,6.08,0,0,0-.938-.286,4.2,4.2,0,0,0-.9-.113q-2.608,0-2.609,3.328a3.966,3.966,0,0,0,.636,2.422,2.216,2.216,0,0,0,1.887.844,5.752,5.752,0,0,0,2.195-.461v1.148A4.676,4.676,0,0,1,172.454,131.766Z" fill="#111"/>
          <path d="M180.267,131.766a3.935,3.935,0,0,1-3-1.156,4.475,4.475,0,0,1-1.1-3.211,4.962,4.962,0,0,1,1.02-3.289,3.384,3.384,0,0,1,2.738-1.219,3.228,3.228,0,0,1,2.547,1.058,4.058,4.058,0,0,1,.937,2.793v.821h-5.9a3.393,3.393,0,0,0,.762,2.289,2.636,2.636,0,0,0,2.035.781,6.884,6.884,0,0,0,2.734-.578v1.156a6.854,6.854,0,0,1-1.3.426A7.3,7.3,0,0,1,180.267,131.766Zm-.352-7.789a2.114,2.114,0,0,0-1.644.672,3.1,3.1,0,0,0-.723,1.859h4.477a2.856,2.856,0,0,0-.547-1.879A1.925,1.925,0,0,0,179.915,123.977Z" fill="#111"/>
        </g>
      </g>
      <path id="Fill-1" d="M160.352,175.8c0,.021-.006.041-.008.062a2.509,2.509,0,0,1-.013.356c-.013.09-.041.173-.062.26a17.6,17.6,0,0,1-6.685,11.618,17.013,17.013,0,0,1-24.142-3.447,17.694,17.694,0,0,1-3.3-8.153,2.452,2.452,0,0,1-.093-.755l-.006-.048h.008a2.411,2.411,0,0,1,.925-1.8,2.328,2.328,0,0,1,3.3.473,2.427,2.427,0,0,1,.472,1.347h.012a12.885,12.885,0,0,0,2.425,6.058,12.381,12.381,0,0,0,17.572,2.508,12.8,12.8,0,0,0,4.873-8.488h.017a2.279,2.279,0,0,1,2.672-2.286,2.385,2.385,0,0,1,2.025,2.3Z" fill="#ccc" fill-rule="evenodd"/>
    </g>
    <g id="Group-26">
      <rect x="206.593" y="111.209" width="79.8" height="96.52" fill="none"/>
      <path id="Shape" d="M246.493,161.458c-10.76,0-19.483,8.973-19.483,20.042s8.723,20.041,19.483,20.041,19.482-8.973,19.482-20.041a20.339,20.339,0,0,0-5.706-14.172A19.209,19.209,0,0,0,246.493,161.458Zm8.714,31.215a13.624,13.624,0,0,1-17.165.2,14.587,14.587,0,0,1-4.324-17.088.926.926,0,0,1,.745-.566.913.913,0,0,1,.849.381.973.973,0,0,1,.1.946,12.648,12.648,0,0,0,3.75,14.815,11.812,11.812,0,0,0,14.88-.177.9.9,0,0,1,.93-.171.947.947,0,0,1,.592.757.965.965,0,0,1-.363.9Z" fill="#ccc"/>
      <g id="Sinque-mark">
        <g>
          <path d="M241.446,106.682a6.285,6.285,0,0,1-1.387,4.312,4.877,4.877,0,0,1-3.856,1.571,4.938,4.938,0,0,1-3.894-1.543,6.342,6.342,0,0,1-1.371-4.356,6.258,6.258,0,0,1,1.375-4.324,4.972,4.972,0,0,1,3.906-1.535,4.864,4.864,0,0,1,3.844,1.562A6.283,6.283,0,0,1,241.446,106.682Zm-9.1,0a5.417,5.417,0,0,0,.988,3.519,4.036,4.036,0,0,0,5.739,0,6.855,6.855,0,0,0,0-7.019,3.457,3.457,0,0,0-2.855-1.192,3.524,3.524,0,0,0-2.887,1.2A5.361,5.361,0,0,0,232.344,106.682Z" fill="#111"/>
          <path d="M245.86,108.026l-2.977-4.18h1.477l2.257,3.281,2.25-3.281h1.461l-2.976,4.18,3.133,4.382h-1.469l-2.4-3.468-2.421,3.468h-1.469Z" fill="#111"/>
          <path d="M250.821,103.846h1.39l1.875,4.883a18.632,18.632,0,0,1,.766,2.414h.062q.1-.4.426-1.364t2.121-5.933h1.391l-3.68,9.75a4.858,4.858,0,0,1-1.277,2.051,2.722,2.722,0,0,1-1.793.6,5.2,5.2,0,0,1-1.172-.133V115.08a4.48,4.48,0,0,0,.961.094,1.981,1.981,0,0,0,1.906-1.5l.477-1.219Z" fill="#111"/>
          <path d="M239.426,131.609v-5.571a2.31,2.31,0,0,0-.437-1.535,1.7,1.7,0,0,0-1.36-.512,2.195,2.195,0,0,0-1.789.7,3.3,3.3,0,0,0-.578,2.14v4.782h-1.3v-5.571a2.31,2.31,0,0,0-.437-1.535,1.7,1.7,0,0,0-1.368-.512,2.119,2.119,0,0,0-1.785.731,3.95,3.95,0,0,0-.566,2.394v4.493h-1.3v-8.563h1.055l.211,1.172h.062a2.555,2.555,0,0,1,1.035-.977,3.171,3.171,0,0,1,1.5-.351A2.543,2.543,0,0,1,235,124.343h.063a2.735,2.735,0,0,1,1.109-1.063,3.447,3.447,0,0,1,1.656-.39,2.9,2.9,0,0,1,2.176.746,3.336,3.336,0,0,1,.723,2.387v5.586Z" fill="#111"/>
          <path d="M248.66,131.609l-.257-1.219h-.063a3.612,3.612,0,0,1-1.277,1.09,3.9,3.9,0,0,1-1.59.285,2.86,2.86,0,0,1-2-.656,2.4,2.4,0,0,1-.723-1.868q0-2.594,4.149-2.718l1.453-.047v-.532a2.173,2.173,0,0,0-.434-1.488,1.784,1.784,0,0,0-1.387-.48,5.641,5.641,0,0,0-2.421.656l-.4-.992a6.247,6.247,0,0,1,2.9-.735,3.262,3.262,0,0,1,2.269.68,2.838,2.838,0,0,1,.738,2.18v5.844Zm-2.929-.915a2.631,2.631,0,0,0,1.9-.664,2.454,2.454,0,0,0,.691-1.859V127.4l-1.3.054a4.71,4.71,0,0,0-2.231.481,1.448,1.448,0,0,0-.683,1.324,1.334,1.334,0,0,0,.425,1.07A1.767,1.767,0,0,0,245.731,130.694Z" fill="#111"/>
          <path d="M256.2,122.89a5.044,5.044,0,0,1,1.024.094l-.18,1.2a4.433,4.433,0,0,0-.937-.118,2.286,2.286,0,0,0-1.778.844,3.079,3.079,0,0,0-.738,2.1v4.594h-1.3v-8.563h1.071l.148,1.586h.062a3.76,3.76,0,0,1,1.149-1.289A2.585,2.585,0,0,1,256.2,122.89Z" fill="#111"/>
          <path d="M260.106,127.226a14.946,14.946,0,0,1,1.023-1.25l2.766-2.93h1.539l-3.469,3.648,3.711,4.915h-1.57l-3.024-4.047-.976.843v3.2h-1.282V119.452h1.282V125.9q0,.429-.063,1.328Z" fill="#111"/>
        </g>
      </g>
    </g>
    <path d="M193.526,187.613a.772.772,0,0,1-.608-1.245l4.359-5.629-4.364-5.791a.772.772,0,1,1,1.232-.929l4.719,6.262a.773.773,0,0,1-.006.937l-4.719,6.095A.771.771,0,0,1,193.526,187.613Z" fill="#111" fill-rule="evenodd" opacity="0.25" style="isolation: isolate"/>
    <path d="M92.824,187.613a.772.772,0,0,1-.608-1.245l4.359-5.629-4.364-5.791a.772.772,0,1,1,1.232-.929l4.719,6.262a.771.771,0,0,1-.006.937l-4.719,6.095A.769.769,0,0,1,92.824,187.613Z" fill="#111" fill-rule="evenodd" opacity="0.25" style="isolation: isolate"/>
    <g id="grid-2" data-name="grid">
      <g id="Specified">
        <g id="case-small-320-measured-copy">
          <g id="logo-primary">
            <g id="C1-logo-primary">
              <g id="_Group_" data-name=" Group ">
                <path id="Shape-6" d="M107.8,5.419a27.52,27.52,0,1,0,19.458,8.06A27.52,27.52,0,0,0,107.8,5.419Zm12.309,42.86A19.675,19.675,0,0,1,89.752,25.1a1.309,1.309,0,0,1,2.4,1.047,17.059,17.059,0,0,0,26.32,20.1A1.308,1.308,0,0,1,120.2,48.2c-.031.027-.063.053-.1.077Z" fill="#231f20"/>
                <path id="Shape-7" d="M205.57,24.315a.539.539,0,0,1,.5.752L192.155,57.785a16.5,16.5,0,0,1-5.358,7.679,13.148,13.148,0,0,1-7.708,2.223,15.984,15.984,0,0,1-4.867-.763,11.072,11.072,0,0,1-3.589-1.831.549.549,0,0,1-.131-.674l2.831-5.51a.55.55,0,0,1,.744-.226.593.593,0,0,1,.081.053,7.923,7.923,0,0,0,1.913,1.046,7.6,7.6,0,0,0,2.726.524,4.854,4.854,0,0,0,3.051-.908,7.738,7.738,0,0,0,2.108-3.022l.118-.293-13.349-31.02a.541.541,0,0,1,.5-.754h8.252a.549.549,0,0,1,.5.334L188.689,45.7l8.772-21.047a.549.549,0,0,1,.5-.332Z" fill="#231f20"/>
                <path id="Shape-8" d="M159.274,55.606l-6.744-9.429-6.977,9.436a.582.582,0,0,1-.469.236h-8.492a.582.582,0,0,1-.463-.936l11.417-14.949L136.519,25.246a.583.583,0,0,1,.115-.816.59.59,0,0,1,.352-.117h8.792a.583.583,0,0,1,.473.241l6.507,8.962,6.683-8.968a.58.58,0,0,1,.467-.233h8.264a.582.582,0,0,1,.465.935L157.625,39.729l11.486,15.186a.582.582,0,0,1-.465.934h-8.9A.576.576,0,0,1,159.274,55.606Z" fill="#231f20"/>
              </g>
            </g>
          </g>
        </g>
      </g>
    </g>
  </g>
</svg>
