<svg xmlns="http://www.w3.org/2000/svg" viewBox="0 0 285.795 54.5">
  <title>ws2018-icons</title>
  <g id="grid">
    <g>
      <path d="M7.335,22.161l-.243-1.4a5.4,5.4,0,0,1-3.7,1.619c-1.818,0-3.126-1-3.126-2.861,0-2.461,2-3.613,6.74-4.079v-.687c0-1.419-.843-2.018-2.173-2.018a8.4,8.4,0,0,0-3.614.932l-.2-1.309a9.352,9.352,0,0,1,3.9-.909c2.328,0,3.524,1.087,3.524,3.237v7.472ZM7,16.6c-4.124.421-5.277,1.419-5.277,2.838A1.659,1.659,0,0,0,3.61,21.141,5.273,5.273,0,0,0,7,19.567Z"/>
      <path d="M15.584,22.294a11.311,11.311,0,0,1-3.813-.688V6.509l1.463-.267v6.807a4.319,4.319,0,0,1,3.237-1.6c2.284,0,4.213,1.663,4.213,5.166C20.684,20.454,18.488,22.294,15.584,22.294Zm.731-9.533a4.206,4.206,0,0,0-3.081,1.818v6.03a6.06,6.06,0,0,0,2.416.421c2.084,0,3.548-1.352,3.548-4.346C19.2,14.135,17.979,12.761,16.315,12.761Z"/>
      <path d="M27.579,22.383c-2.683,0-4.744-1.995-4.744-5.454,0-3.526,2.128-5.477,4.789-5.477a5.74,5.74,0,0,1,3.414,1.064l-.244,1.464A4.745,4.745,0,0,0,27.6,12.716c-2,0-3.282,1.619-3.282,4.19,0,2.6,1.286,4.19,3.414,4.19a4.609,4.609,0,0,0,3.193-1.241l.2,1.33A5.494,5.494,0,0,1,27.579,22.383Z"/>
      <path d="M40.971,22.161l-.266-1.53a4.28,4.28,0,0,1-3.37,1.752c-2.306,0-4.235-1.641-4.235-5.166,0-3.835,2.239-5.7,4.789-5.7a6.645,6.645,0,0,1,2.727.532V6.509l1.463-.267V22.161ZM40.616,13.4a5.451,5.451,0,0,0-2.682-.62c-1.885,0-3.348,1.419-3.348,4.367,0,2.55,1.219,3.925,2.882,3.925a4.17,4.17,0,0,0,3.148-1.885Z"/>
      <path d="M53.608,17.017H46.314c.045,2.572,1.243,4.1,3.348,4.1a5.672,5.672,0,0,0,3.7-1.552l.222,1.33a6.1,6.1,0,0,1-4.013,1.486c-2.75,0-4.722-1.863-4.722-5.477,0-3.37,1.951-5.454,4.522-5.454,2.86,0,4.234,2.351,4.234,5.255Zm-4.234-4.389c-1.641,0-2.705,1.218-2.993,3.236H52.1C51.946,13.98,51.06,12.628,49.374,12.628Z"/>
      <path d="M60.017,7.638a1.4,1.4,0,0,0-1.6,1.6v2.439h2.15l.2,1.242h-2.35v9.245H56.979V12.916h-1.6V11.674h1.6V9.125c0-1.93,1.154-2.817,2.95-2.817a5.692,5.692,0,0,1,.754.045L60.9,7.706A4.284,4.284,0,0,0,60.017,7.638Z"/>
      <path d="M71.569,11.5l.243,1.44-2.105.223a3.286,3.286,0,0,1,.554,1.862,3.654,3.654,0,0,1-3.924,3.57,4.106,4.106,0,0,1-.909-.089c-.444.244-.688.51-.688.754,0,.421.422.576,2.351.93l.775.156c2.328.421,3.592,1.108,3.592,2.661,0,2.017-2.283,3.148-4.988,3.148s-4.789-.909-4.789-2.727c0-1.065.82-1.974,2.394-2.794a1.3,1.3,0,0,1-.776-1.086c0-.555.377-.976,1.043-1.4a3.4,3.4,0,0,1-1.93-3.126,3.641,3.641,0,0,1,3.88-3.57,4.138,4.138,0,0,1,2.661.888ZM63.122,23.336c0,1.087,1.374,1.707,3.437,1.707,2.128,0,3.5-.821,3.5-1.863,0-.82-.666-1.263-2.528-1.618l-1.02-.177c-.532-.111-.887-.177-1.264-.266C63.81,21.784,63.122,22.494,63.122,23.336Zm3.17-10.8a2.374,2.374,0,0,0-2.438,2.527,2.483,2.483,0,0,0,4.966-.044A2.423,2.423,0,0,0,66.292,12.539Z"/>
      <path d="M80.814,22.161V14.933c0-1.352-.621-2.172-1.951-2.172a5.18,5.18,0,0,0-3.391,1.818v7.582H74.008V6.509l1.464-.267V13.16a5.641,5.641,0,0,1,3.679-1.708,2.848,2.848,0,0,1,3.126,3.193v7.516Z"/>
      <path d="M86.491,9.169a1.065,1.065,0,0,1,0-2.129,1.065,1.065,0,0,1,0,2.129ZM85.76,22.161V11.674H87.2V22.161Z"/>
      <path d="M90,26.152a4.406,4.406,0,0,1-.843-.067l-.221-1.308a3.533,3.533,0,0,0,.864.089c.71,0,1.131-.354,1.131-1.242V11.674h1.441V23.779A2.148,2.148,0,0,1,90,26.152ZM91.657,9.169a1.065,1.065,0,0,1,0-2.129,1.065,1.065,0,0,1,0,2.129Z"/>
      <path d="M102.61,22.316,97.4,16.6v5.565H95.937V6.509L97.4,6.242v9.933l4.589-4.5h1.84l-4.877,4.678,5.254,5.676Z"/>
      <path d="M106.424,22.161V6.509l1.441-.267V22.161Z"/>
      <path d="M124.826,22.161V14.933c0-1.352-.554-2.172-1.906-2.172a5.061,5.061,0,0,0-3.326,1.8v7.605h-1.442V14.933c0-1.352-.553-2.172-1.906-2.172a5.068,5.068,0,0,0-3.325,1.773v7.627h-1.464V11.674h1.131l.244,1.507a5.665,5.665,0,0,1,3.7-1.729,2.655,2.655,0,0,1,2.883,1.818,5.779,5.779,0,0,1,3.813-1.818c2.084,0,3.06,1.2,3.06,3.193v7.516Z"/>
      <path d="M136.422,22.161V14.933c0-1.352-.621-2.172-1.951-2.172a5.18,5.18,0,0,0-3.392,1.818v7.582h-1.464V11.674h1.131l.244,1.552a5.77,5.77,0,0,1,3.769-1.774c2.084,0,3.126,1.2,3.126,3.215v7.494Z"/>
      <path d="M145.27,22.383c-2.683,0-4.7-1.995-4.7-5.454,0-3.481,2.062-5.477,4.7-5.477,2.726,0,4.766,2,4.766,5.477C150.036,20.388,147.952,22.383,145.27,22.383Zm0-9.689c-2.084,0-3.215,1.751-3.215,4.235,0,2.417,1.152,4.212,3.215,4.212,2.127,0,3.258-1.729,3.258-4.212C148.528,14.512,147.376,12.694,145.27,12.694Z"/>
      <path d="M157,22.294a7.191,7.191,0,0,1-2.727-.51v4.19l-1.463.245V11.674h1.13l.245,1.507a4.407,4.407,0,0,1,3.391-1.729c2.284,0,4.213,1.663,4.213,5.166C161.787,20.454,159.548,22.294,157,22.294Zm.421-9.533a4.142,4.142,0,0,0-3.148,1.884v5.786a5.7,5.7,0,0,0,2.683.622c1.884,0,3.348-1.442,3.348-4.369C160.3,14.135,159.082,12.761,157.419,12.761Z"/>
      <path d="M171.411,26.219V20.786a4.324,4.324,0,0,1-3.237,1.6c-2.283,0-4.213-1.641-4.213-5.166,0-3.835,2.195-5.7,5.1-5.7a11.913,11.913,0,0,1,3.813.687V25.974Zm0-12.993a6.435,6.435,0,0,0-2.417-.443c-2.084,0-3.547,1.374-3.547,4.367,0,2.55,1.219,3.925,2.882,3.925a4.2,4.2,0,0,0,3.082-1.841Z"/>
      <path d="M177.753,15.576v6.585h-1.464V11.674h1.087l.332,2.151a4.7,4.7,0,0,1,3.725-2.373l.244,1.375A4.972,4.972,0,0,0,177.753,15.576Z"/>
      <path d="M186.776,22.36a8.279,8.279,0,0,1-3.768-.953l.243-1.419a6.935,6.935,0,0,0,3.658,1.131c1.464,0,2.373-.621,2.373-1.685,0-1.043-.621-1.507-2.705-2.062-2.328-.6-3.326-1.353-3.326-3.082,0-1.641,1.4-2.838,3.57-2.838a7.844,7.844,0,0,1,3.259.71l-.244,1.4a6.6,6.6,0,0,0-3.06-.82c-1.441,0-2.128.621-2.128,1.485S185.225,15.532,187,16c2.483.665,3.681,1.463,3.681,3.325C190.679,21.229,189.193,22.36,186.776,22.36Z"/>
      <path d="M196.665,22.339c-1.641,0-2.727-.644-2.727-2.573v-6.85h-1.619V11.674h1.619V8.038l1.441-.244v3.88H197.8l.2,1.242h-2.616v6.606c0,1.065.421,1.531,1.552,1.531a5.839,5.839,0,0,0,.975-.112l.222,1.22A5.655,5.655,0,0,1,196.665,22.339Z"/>
      <path d="M207.8,22.161l-.244-1.552a5.775,5.775,0,0,1-3.77,1.774c-2.105,0-3.126-1.22-3.126-3.215V11.674h1.464V18.9c0,1.353.62,2.151,1.951,2.151a5.14,5.14,0,0,0,3.392-1.8V11.674h1.464V22.161Z"/>
      <path d="M216.509,22.25h-1.374l-3.814-10.443,1.441-.266,3.1,8.913,3.016-8.78h1.507Z"/>
      <path d="M233.049,22.227h-1.241l-2.639-8.6-2.66,8.6h-1.22l-3.48-10.464,1.419-.266,2.7,8.713,2.616-8.58h1.285l2.616,8.58,2.616-8.536h1.464Z"/>
      <path d="M245.244,22.316l-3.015-4.478-2.837,4.323h-1.575l3.659-5.388-3.437-4.988,1.44-.288,2.772,4.145,2.661-3.968h1.574l-3.459,5.055,3.659,5.321Z"/>
      <path d="M253.005,23.469c-.754,2.04-1.686,2.683-3.237,2.683a3.8,3.8,0,0,1-.577-.067l-.2-1.285a4.542,4.542,0,0,0,.864.088c.865,0,1.375-.376,1.774-1.4l.488-1.264-3.969-10.42,1.419-.266,3.259,8.935,3.1-8.8h1.506Z"/>
      <path d="M259.014,22.161V21.03l6.252-8.137h-5.72l-.2-1.219h7.605V12.8L260.7,20.941h6.231l.2,1.22Z"/>
      <path d="M6.05,49.056c-3.393,0-5.5-3.014-5.5-7.759,0-4.767,2.129-7.8,5.5-7.8,3.391,0,5.5,3.015,5.5,7.76C11.548,46.019,9.419,49.056,6.05,49.056Zm0-14.255c-2.572,0-3.991,2.549-3.991,6.473s1.419,6.475,3.991,6.475,3.99-2.55,3.99-6.475S8.621,34.8,6.05,34.8Z"/>
      <path d="M16.848,48.768V35.31L13.633,36.6l-.2-1.2,3.68-1.684h1.2V48.768Z"/>
      <path d="M21.77,48.768V47.682l5.52-5.876c1.6-1.707,2.15-2.749,2.15-4.145a2.66,2.66,0,0,0-2.97-2.838,6.3,6.3,0,0,0-4.079,1.8l-.222-1.464a6.693,6.693,0,0,1,4.39-1.662c2.771,0,4.412,1.618,4.412,4.079,0,1.84-.777,3.126-2.617,5.055l-4.633,4.834h7.294l.2,1.307Z"/>
      <path d="M37.712,49.056a7.908,7.908,0,0,1-4.191-1.174l.244-1.464A6.561,6.561,0,0,0,37.8,47.726c2.129,0,3.481-1.174,3.481-2.993,0-1.951-1.33-3.215-4.345-3.215h-.665l-.2-1.307h1.021c2.571,0,3.9-1.11,3.9-2.861,0-1.463-1.02-2.527-3.015-2.527a6.469,6.469,0,0,0-4.013,1.44l-.2-1.4a7.048,7.048,0,0,1,4.279-1.374c3.037,0,4.478,1.751,4.478,3.791a3.666,3.666,0,0,1-2.86,3.547,3.826,3.826,0,0,1,3.149,3.88C42.811,47.261,40.727,49.056,37.712,49.056Z"/>
      <path d="M54.075,45.221v3.547H52.7V45.221H45.029V44.179l7.25-10.464h1.8V44h2.461v1.219ZM52.7,35.333,46.647,44H52.7Z"/>
      <path d="M62.478,49.034a7.6,7.6,0,0,1-4.08-1.086l.222-1.419a7.1,7.1,0,0,0,3.924,1.22c2.084,0,3.88-1.176,3.88-3.526,0-1.973-1.264-3.214-3.57-3.214a6.646,6.646,0,0,0-2.792.553l-1-.243.533-7.538h7.538l.221,1.308H60.837l-.355,5.033a7.308,7.308,0,0,1,2.505-.422c3.038,0,4.923,1.729,4.923,4.457C67.91,47.238,65.471,49.034,62.478,49.034Z"/>
      <path d="M76.07,39.745a4.226,4.226,0,0,1,4.568,4.478,4.687,4.687,0,0,1-4.9,4.833c-3.059,0-5.276-2.394-5.276-6.363,0-5.077,3.126-7.915,7.8-9.222l.2,1.352c-3.526.976-5.92,2.9-6.452,6.274A7.015,7.015,0,0,1,76.07,39.745Zm-4.146,2.882c0,3.038,1.553,5.143,3.836,5.143a3.218,3.218,0,0,0,3.37-3.48,3,3,0,0,0-3.3-3.259,6.312,6.312,0,0,0-3.9,1.507Z"/>
      <path d="M85.271,48.924l-1.418-.333,5.963-13.48H82.1l-.2-1.33h9.578v1.108Z"/>
      <path d="M94.163,37.262c0-2.128,1.885-3.769,4.59-3.769,2.726,0,4.478,1.618,4.478,3.68,0,1.729-1.2,2.9-2.682,3.747,1.972.865,3.17,1.973,3.17,4.035,0,2.372-2.106,4.1-5.055,4.1-3.17,0-5.077-1.818-5.077-4.057,0-1.84,1.264-3.193,3.215-4.146C95.25,40.122,94.163,39.08,94.163,37.262Zm.909,7.649c0,1.773,1.508,2.882,3.637,2.882,1.95,0,3.524-1.109,3.524-2.861,0-1.684-.975-2.438-4.123-3.569C96.27,42.161,95.072,43.381,95.072,44.911Zm6.7-7.672c0-1.44-1.176-2.482-3.06-2.482-2.018,0-3.061,1.2-3.061,2.482,0,1.485.866,2.2,3.592,3.193C100.793,39.656,101.769,38.525,101.769,37.239Z"/>
      <path d="M110.593,43a4.285,4.285,0,0,1-4.568-4.612,4.715,4.715,0,0,1,4.9-4.9c3.1,0,5.254,2.394,5.254,6.362,0,5.056-3.193,8.049-8,9.224l-.222-1.353c3.569-.8,6.03-2.749,6.629-6.052A6.8,6.8,0,0,1,110.593,43Zm4.146-3.082c0-3.1-1.574-5.144-3.836-5.144a3.254,3.254,0,0,0-3.391,3.548,3.065,3.065,0,0,0,3.325,3.37,6.357,6.357,0,0,0,3.9-1.464Z"/>
    </g>
  </g>
</svg>
