<svg xmlns="http://www.w3.org/2000/svg" xmlns:xlink="http://www.w3.org/1999/xlink" viewBox="0 0 285.795 133.902">
  <defs>
    <linearGradient id="linear-gradient" x1="42.418" y1="107.584" x2="-21.114" y2="6.275" gradientUnits="userSpaceOnUse">
      <stop offset="0" stop-color="#0a0b52"/>
      <stop offset="1" stop-color="#1f1555"/>
    </linearGradient>
    <linearGradient id="linear-gradient-2" x1="261.389" y1="57.093" x2="209.586" y2="-25.515" xlink:href="#linear-gradient"/>
    <linearGradient id="linear-gradient-3" x1="-2080.1" y1="-12.572" x2="-2080.333" y2="-13.005" gradientTransform="matrix(970.108, 0, 0, -729.634, 2018253.305, -9370.055)" gradientUnits="userSpaceOnUse">
      <stop offset="0" stop-color="#ffb300"/>
      <stop offset="1" stop-color="#ffc600"/>
    </linearGradient>
  </defs>
  <title>ws2018-icons</title>
  <g id="grid">
    <path d="M0,19.007v81.261Q43.595,149.206,90.856,124.5,32.022,100.321,0,19.007Z" fill="url(#linear-gradient)"/>
    <path d="M285.8,30.951C250.45,1.01,218.821-5.145,192.852,12.862c.228.076,2.347.514,2.574.59Q260.5,35.226,285.8,94.415Z" fill="url(#linear-gradient-2)"/>
    <path id="Shape" d="M136.675,37.484c21.337-33.674,47.759-39.137,92.3-34.6-30.42,1.376-47.2,15.029-67.109,72.281-16.726,51.415-54,57.738-104.938,57.738h-.824c31.522-2.506,51.485-21.71,63.439-54.887,1-2.787,4.791-13.809,8.031-22.311A105.622,105.622,0,0,1,136.675,37.484Z" fill="url(#linear-gradient-3)"/>
  </g>
</svg>
