<svg viewBox="0 0 285.795 133.902" xmlns="http://www.w3.org/2000/svg" xmlns:xlink="http://www.w3.org/1999/xlink"><linearGradient id="a" gradientUnits="userSpaceOnUse" x1="39.283" x2="1.11" y1="76.445" y2="125.052"><stop offset="0" stop-color="#0a0b52"/><stop offset="1" stop-color="#1f1555"/></linearGradient><linearGradient id="b" gradientTransform="matrix(507.859 0 0 -584.297 1178098.542 15099.581)" x1="-2319.22" x2="-2319.321" xlink:href="#a" y1="25.732" y2="25.895"/><linearGradient id="c" gradientTransform="matrix(983.958 0 0 -729.556 2282887.336 19105.097)" gradientUnits="userSpaceOnUse" x1="-2319.764" x2="-2320" y1="26.459" y2="26.024"><stop offset="0" stop-color="#ffb300"/><stop offset="1" stop-color="#ffc600"/></linearGradient><g fill-rule="evenodd"><path d="m80.453 124.716c-37.153-3.784-61.68-57.15-80.453-110.492v90.623c28.913 26.608 59.137 35.753 89.523 19.869-.669-.165-8.4.068-9.07 0z" fill="url(#a)"/><path d="m285.632 30.973c-27.541-30.116-65.057-36.995-91.919-18.373.236.079 6.455-2.91 6.7-2.891 37.765 2.891 69.65 49.517 85.218 98.33z" fill="url(#b)"/><path d="m135.6 38.072c21.586-35.783 49.4-40.482 95.473-35.789-31.466 1.423-48.1 11.2-68.692 70.422-22.372 60.4-61.327 62.326-108.545 59.723h.147c32.606-2.592 52.255-22.457 64.62-56.774 1.035-2.883 4.232-9.94 7.583-18.734a109.3 109.3 0 0 1 9.414-18.848z" fill="url(#c)"/></g></svg>