<svg xmlns="http://www.w3.org/2000/svg" viewBox="0 0 285.795 91.564">
  <title>ws2018-icons</title>
  <g id="grid">
    <g>
      <path d="M14.4,19.17l-.72-9.428L9.851,19.234H8.985L5.145,9.742,4.424,19.17H3.4L4.28,8.125H5.641l3.793,9.637,3.809-9.637h1.345l.881,11.045Z"/>
      <path d="M23.77,15.456H18.5c.031,1.857.895,2.962,2.417,2.962A4.092,4.092,0,0,0,23.594,17.3l.16.961a4.414,4.414,0,0,1-2.9,1.072c-1.984,0-3.409-1.345-3.409-3.954,0-2.433,1.408-3.938,3.265-3.938,2.065,0,3.058,1.7,3.058,3.794Zm-3.058-3.169c-1.184,0-1.952.881-2.16,2.337h4.129C22.569,13.264,21.929,12.287,20.712,12.287Z"/>
      <path d="M31.625,15.456H26.359c.032,1.857.9,2.962,2.417,2.962A4.092,4.092,0,0,0,31.449,17.3l.16.961a4.412,4.412,0,0,1-2.9,1.072c-1.984,0-3.409-1.345-3.409-3.954,0-2.433,1.408-3.938,3.264-3.938,2.066,0,3.058,1.7,3.058,3.794Zm-3.058-3.169c-1.183,0-1.952.881-2.16,2.337h4.129C30.425,13.264,29.784,12.287,28.567,12.287Z"/>
      <path d="M35.959,19.3c-1.185,0-1.969-.464-1.969-1.857V12.5H32.822v-.9H33.99V8.974L35.03,8.8v2.8h1.745l.145.9H35.03v4.771c0,.767.3,1.1,1.121,1.1a4.371,4.371,0,0,0,.7-.079l.161.88A4.106,4.106,0,0,1,35.959,19.3Z"/>
      <path d="M45.19,19.3a6.111,6.111,0,0,1-2.928-.689l.16-1.12a5.371,5.371,0,0,0,2.816.832,2.028,2.028,0,0,0,2.274-1.984c0-1.089-.544-1.633-2.225-2.369-2.113-.929-2.882-1.633-2.882-3.2C42.405,9.1,43.75,8,45.575,8a4.826,4.826,0,0,1,2.433.576l-.16,1.105a4.113,4.113,0,0,0-2.321-.7A1.78,1.78,0,0,0,43.51,10.7c0,1.009.528,1.489,2.225,2.241,2.049.9,2.881,1.7,2.881,3.314C48.616,18.145,47.128,19.3,45.19,19.3Z"/>
      <path d="M51.351,9.79a.768.768,0,1,1,0-1.536.768.768,0,0,1,0,1.536Zm-.529,9.38V11.6h1.04V19.17Z"/>
      <path d="M59.352,19.17V13.952c0-.976-.449-1.569-1.409-1.569A3.744,3.744,0,0,0,55.494,13.7V19.17H54.438V11.6h.816l.176,1.121a4.167,4.167,0,0,1,2.721-1.282,2.062,2.062,0,0,1,2.257,2.322v5.41Z"/>
      <path d="M67.735,22.1V18.178A3.119,3.119,0,0,1,65.4,19.33c-1.648,0-3.041-1.185-3.041-3.729,0-2.77,1.585-4.115,3.682-4.115a8.606,8.606,0,0,1,2.753.5v9.94Zm0-9.379a4.617,4.617,0,0,0-1.744-.321c-1.5,0-2.561.993-2.561,3.154,0,1.841.881,2.833,2.081,2.833a3.029,3.029,0,0,0,2.224-1.329Z"/>
      <path d="M76.344,19.17l-.176-1.12a4.165,4.165,0,0,1-2.721,1.28,2.061,2.061,0,0,1-2.257-2.321V11.6h1.056v5.218c0,.976.448,1.552,1.409,1.552a3.712,3.712,0,0,0,2.449-1.3V11.6H77.16V19.17Z"/>
      <path d="M85.48,15.456H80.215c.031,1.857.895,2.962,2.417,2.962A4.092,4.092,0,0,0,85.305,17.3l.16.961a4.414,4.414,0,0,1-2.9,1.072c-1.984,0-3.409-1.345-3.409-3.954,0-2.433,1.408-3.938,3.265-3.938,2.065,0,3.057,1.7,3.057,3.794Zm-3.057-3.169c-1.184,0-1.952.881-2.16,2.337h4.129C84.28,13.264,83.64,12.287,82.423,12.287Z"/>
      <path d="M87.382,19.17V17.6h1.232V19.17Z"/>
      <path d="M94.838,19.17V8.125H100.6v.993H95.942V12.9h3.682l.16.993H95.942v4.29h4.818v.992Z"/>
      <path d="M107.575,19.17V13.952c0-.976-.448-1.569-1.408-1.569a3.741,3.741,0,0,0-2.449,1.312V19.17h-1.057V11.6h.817l.175,1.121a4.169,4.169,0,0,1,2.722-1.282,2.062,2.062,0,0,1,2.257,2.322v5.41Z"/>
      <path d="M117.3,11.471l.175,1.041-1.52.159a2.374,2.374,0,0,1,.4,1.345,2.638,2.638,0,0,1-2.833,2.577,2.95,2.95,0,0,1-.656-.064c-.32.176-.5.368-.5.544,0,.3.3.416,1.7.672l.561.112c1.681.3,2.593.8,2.593,1.921,0,1.456-1.649,2.273-3.6,2.273s-3.457-.656-3.457-1.969c0-.768.592-1.424,1.729-2.017a.937.937,0,0,1-.561-.784c0-.4.272-.7.753-1.009a2.454,2.454,0,0,1-1.393-2.256,2.628,2.628,0,0,1,2.8-2.578,2.988,2.988,0,0,1,1.921.641Zm-6.1,8.548c0,.784.993,1.232,2.482,1.232,1.536,0,2.529-.593,2.529-1.345,0-.592-.481-.912-1.825-1.169l-.737-.128c-.383-.08-.639-.128-.912-.191C111.7,18.9,111.205,19.41,111.205,20.019Zm2.289-7.8a1.715,1.715,0,0,0-1.761,1.825,1.793,1.793,0,0,0,3.586-.032A1.749,1.749,0,0,0,113.494,12.223Z"/>
      <path d="M119.7,9.79a.768.768,0,1,1,0-1.536.768.768,0,0,1,0,1.536Zm-.528,9.38V11.6h1.04V19.17Z"/>
      <path d="M127.7,19.17V13.952c0-.976-.448-1.569-1.408-1.569a3.741,3.741,0,0,0-2.449,1.312V19.17h-1.057V11.6h.816l.176,1.121a4.169,4.169,0,0,1,2.722-1.282,2.062,2.062,0,0,1,2.257,2.322v5.41Z"/>
      <path d="M137.016,15.456H131.75c.031,1.857.9,2.962,2.417,2.962A4.092,4.092,0,0,0,136.84,17.3l.16.961a4.412,4.412,0,0,1-2.9,1.072c-1.985,0-3.41-1.345-3.41-3.954,0-2.433,1.409-3.938,3.265-3.938,2.065,0,3.058,1.7,3.058,3.794Zm-3.058-3.169c-1.184,0-1.952.881-2.16,2.337h4.129C135.815,13.264,135.175,12.287,133.958,12.287Z"/>
      <path d="M144.871,15.456H139.6c.032,1.857.9,2.962,2.417,2.962A4.092,4.092,0,0,0,144.7,17.3l.16.961a4.41,4.41,0,0,1-2.9,1.072c-1.984,0-3.409-1.345-3.409-3.954,0-2.433,1.408-3.938,3.264-3.938,2.066,0,3.058,1.7,3.058,3.794Zm-3.058-3.169c-1.183,0-1.952.881-2.16,2.337h4.129C143.671,13.264,143.03,12.287,141.813,12.287Z"/>
      <path d="M147.925,14.416V19.17h-1.057V11.6h.784l.241,1.552a3.4,3.4,0,0,1,2.689-1.713l.176.994A3.591,3.591,0,0,0,147.925,14.416Z"/>
      <path d="M157.942,15.456h-5.265c.031,1.857.9,2.962,2.417,2.962a4.094,4.094,0,0,0,2.673-1.121l.16.961a4.414,4.414,0,0,1-2.9,1.072c-1.984,0-3.409-1.345-3.409-3.954,0-2.433,1.408-3.938,3.265-3.938,2.065,0,3.057,1.7,3.057,3.794Zm-3.057-3.169c-1.184,0-1.952.881-2.16,2.337h4.129C156.742,13.264,156.1,12.287,154.885,12.287Z"/>
      <path d="M165.174,19.17l-.193-1.105a3.086,3.086,0,0,1-2.432,1.265c-1.665,0-3.058-1.185-3.058-3.729,0-2.77,1.617-4.115,3.458-4.115a4.794,4.794,0,0,1,1.969.385v-4l1.056-.191V19.17Zm-.256-6.322a3.931,3.931,0,0,0-1.938-.449c-1.36,0-2.417,1.025-2.417,3.154,0,1.841.881,2.833,2.082,2.833a3.011,3.011,0,0,0,2.273-1.361Z"/>
      <path d="M174.389,19.3c-1.185,0-1.969-.464-1.969-1.857V12.5h-1.168v-.9h1.168V8.974l1.04-.176v2.8h1.745l.145.9h-1.89v4.771c0,.767.3,1.1,1.121,1.1a4.4,4.4,0,0,0,.7-.079l.16.88A4.09,4.09,0,0,1,174.389,19.3Z"/>
      <path d="M180.2,19.33c-1.937,0-3.393-1.44-3.393-3.937,0-2.514,1.488-3.955,3.393-3.955,1.969,0,3.442,1.441,3.442,3.955C183.64,17.89,182.135,19.33,180.2,19.33Zm0-6.995c-1.5,0-2.321,1.265-2.321,3.058,0,1.744.832,3.041,2.321,3.041,1.536,0,2.353-1.248,2.353-3.041C182.551,13.647,181.719,12.335,180.2,12.335Z"/>
      <path d="M191.59,19.3c-1.185,0-1.969-.464-1.969-1.857V12.5h-1.168v-.9h1.168V8.974l1.04-.176v2.8h1.745l.145.9h-1.89v4.771c0,.767.305,1.1,1.121,1.1a4.385,4.385,0,0,0,.7-.079l.16.88A4.09,4.09,0,0,1,191.59,19.3Z"/>
      <path d="M199.158,19.17l-.176-1.009a3.9,3.9,0,0,1-2.673,1.169,2.013,2.013,0,0,1-2.257-2.064c0-1.778,1.441-2.61,4.866-2.946v-.5c0-1.024-.608-1.457-1.568-1.457a6.089,6.089,0,0,0-2.61.672L194.6,12.1a6.748,6.748,0,0,1,2.816-.657c1.681,0,2.545.785,2.545,2.337v5.4Zm-.24-4.018c-2.978.3-3.81,1.025-3.81,2.049a1.2,1.2,0,0,0,1.361,1.233,3.806,3.806,0,0,0,2.449-1.137Z"/>
      <path d="M207.175,19.282l-3.762-4.13V19.17h-1.057V7.869l1.057-.191v7.171l3.314-3.25h1.328l-3.522,3.378,3.794,4.1Z"/>
      <path d="M215.238,15.456h-5.265c.031,1.857.895,2.962,2.417,2.962a4.091,4.091,0,0,0,2.672-1.121l.161.961a4.414,4.414,0,0,1-2.9,1.072c-1.984,0-3.409-1.345-3.409-3.954,0-2.433,1.408-3.938,3.265-3.938,2.065,0,3.057,1.7,3.057,3.794Zm-3.057-3.169c-1.184,0-1.952.881-2.16,2.337h4.128C214.038,13.264,213.4,12.287,212.181,12.287Z"/>
      <path d="M223.189,19.3c-1.184,0-1.968-.464-1.968-1.857V12.5h-1.168v-.9h1.168V8.974l1.04-.176v2.8h1.745l.144.9h-1.889v4.771c0,.767.3,1.1,1.121,1.1a4.4,4.4,0,0,0,.7-.079l.16.88A4.1,4.1,0,0,1,223.189,19.3Z"/>
      <path d="M231.048,19.17V13.952c0-.976-.448-1.569-1.408-1.569a3.743,3.743,0,0,0-2.45,1.312V19.17h-1.056V7.869l1.056-.191v4.993a4.081,4.081,0,0,1,2.658-1.233,2.056,2.056,0,0,1,2.256,2.306V19.17Z"/>
      <path d="M240.359,15.456h-5.265c.031,1.857.9,2.962,2.417,2.962a4.094,4.094,0,0,0,2.673-1.121l.16.961a4.414,4.414,0,0,1-2.9,1.072c-1.984,0-3.409-1.345-3.409-3.954,0-2.433,1.408-3.938,3.265-3.938,2.065,0,3.057,1.7,3.057,3.794ZM237.3,12.287c-1.184,0-1.952.881-2.16,2.337h4.129C239.159,13.264,238.519,12.287,237.3,12.287Z"/>
      <path d="M8.025,40.37,7.85,39.361A3.9,3.9,0,0,1,5.176,40.53a2.012,2.012,0,0,1-2.257-2.064c0-1.778,1.441-2.61,4.866-2.946v-.5c0-1.024-.608-1.457-1.568-1.457a6.089,6.089,0,0,0-2.61.672L3.464,33.3a6.748,6.748,0,0,1,2.816-.656c1.681,0,2.545.784,2.545,2.337V40.37Zm-.24-4.017c-2.977.3-3.809,1.024-3.809,2.048a1.2,1.2,0,0,0,1.36,1.233A3.8,3.8,0,0,0,7.785,38.5Z"/>
      <path d="M16.138,40.37V35.152c0-.976-.449-1.569-1.409-1.569A3.744,3.744,0,0,0,12.28,34.9V40.37H11.224V32.8h.816l.176,1.121a4.17,4.17,0,0,1,2.722-1.281,2.061,2.061,0,0,1,2.256,2.321v5.41Z"/>
      <path d="M24.282,40.482,22.1,37.249,20.056,40.37H18.92l2.641-3.89-2.481-3.6,1.04-.208,2,2.993L24.042,32.8h1.136l-2.5,3.649,2.641,3.842Z"/>
      <path d="M27.752,30.99a.768.768,0,1,1,0-1.536.768.768,0,0,1,0,1.536Zm-.528,9.38V32.8h1.04V40.37Z"/>
      <path d="M36.7,36.656H31.432c.031,1.858.895,2.962,2.417,2.962A4.091,4.091,0,0,0,36.521,38.5l.161.961a4.409,4.409,0,0,1-2.9,1.072c-1.984,0-3.409-1.344-3.409-3.954,0-2.432,1.408-3.937,3.265-3.937,2.065,0,3.057,1.7,3.057,3.794ZM33.64,33.487c-1.184,0-1.952.881-2.161,2.337h4.129C35.5,34.464,34.856,33.487,33.64,33.487Z"/>
      <path d="M41.031,40.5c-1.184,0-1.969-.464-1.969-1.856V33.7H37.9v-.9h1.167V30.174L40.1,30v2.8h1.745l.144.9H40.1v4.771c0,.767.3,1.1,1.121,1.1a4.4,4.4,0,0,0,.7-.079l.16.88A4.061,4.061,0,0,1,41.031,40.5Z"/>
      <path d="M46.6,41.314c-.545,1.473-1.217,1.937-2.337,1.937a2.611,2.611,0,0,1-.417-.048l-.144-.929a3.173,3.173,0,0,0,.624.065c.624,0,.992-.273,1.28-1.009l.353-.912L43.094,32.9l1.024-.192,2.354,6.45,2.24-6.354H49.8Z"/>
      <path d="M58.056,40.53c-1.938,0-3.394-1.44-3.394-3.937,0-2.514,1.488-3.954,3.394-3.954,1.968,0,3.441,1.44,3.441,3.954C61.5,39.09,59.992,40.53,58.056,40.53Zm0-7c-1.5,0-2.322,1.265-2.322,3.058,0,1.744.832,3.041,2.322,3.041,1.536,0,2.352-1.248,2.352-3.041C60.408,34.848,59.576,33.535,58.056,33.535Z"/>
      <path d="M68.584,40.37l-.176-1.12a4.164,4.164,0,0,1-2.72,1.28,2.06,2.06,0,0,1-2.257-2.321V32.8h1.055v5.219c0,.975.449,1.551,1.41,1.551a3.71,3.71,0,0,0,2.448-1.3V32.8H69.4V40.37Z"/>
      <path d="M74.2,40.5c-1.184,0-1.969-.464-1.969-1.856V33.7H71.062v-.9H72.23V30.174L73.271,30v2.8h1.745l.144.9H73.271v4.771c0,.767.3,1.1,1.121,1.1a4.4,4.4,0,0,0,.7-.079l.16.88A4.061,4.061,0,0,1,74.2,40.5Z"/>
      <path d="M83.688,40.53c-1.937,0-3.393-1.44-3.393-3.937,0-2.514,1.488-3.954,3.393-3.954,1.969,0,3.442,1.44,3.442,3.954C87.13,39.09,85.625,40.53,83.688,40.53Zm0-7c-1.5,0-2.321,1.265-2.321,3.058,0,1.744.832,3.041,2.321,3.041,1.537,0,2.353-1.248,2.353-3.041C86.041,34.848,85.209,33.535,83.688,33.535Z"/>
      <path d="M91.752,29.886A1.011,1.011,0,0,0,90.6,31.038V32.8h1.552l.144.9H90.6V40.37H89.56V33.7H88.407v-.9H89.56V30.958a1.874,1.874,0,0,1,2.128-2.032,4.13,4.13,0,0,1,.544.031l.161.977A3.156,3.156,0,0,0,91.752,29.886Z"/>
      <path d="M103.785,32.671l.177,1.04-1.522.16a2.375,2.375,0,0,1,.4,1.345,2.638,2.638,0,0,1-2.833,2.577,2.945,2.945,0,0,1-.656-.064c-.321.176-.5.369-.5.544,0,.3.3.416,1.7.672l.56.113c1.681.3,2.593.8,2.593,1.921,0,1.456-1.648,2.272-3.6,2.272s-3.458-.656-3.458-1.969c0-.767.592-1.425,1.729-2.016a.937.937,0,0,1-.56-.785c0-.4.272-.7.752-1.008a2.455,2.455,0,0,1-1.392-2.257,2.628,2.628,0,0,1,2.8-2.577,2.982,2.982,0,0,1,1.92.64Zm-6.1,8.548c0,.784.993,1.232,2.481,1.232,1.536,0,2.529-.593,2.529-1.345,0-.591-.48-.912-1.825-1.169l-.736-.127c-.384-.081-.64-.128-.912-.192C98.183,40.1,97.687,40.61,97.687,41.219Zm2.289-7.8a1.793,1.793,0,1,0,1.825,1.793A1.75,1.75,0,0,0,99.976,33.423Z"/>
      <path d="M111.241,36.656h-5.265c.031,1.858.895,2.962,2.417,2.962a4.091,4.091,0,0,0,2.672-1.121l.161.961a4.409,4.409,0,0,1-2.9,1.072c-1.984,0-3.409-1.344-3.409-3.954,0-2.432,1.408-3.937,3.265-3.937,2.065,0,3.057,1.7,3.057,3.794Zm-3.057-3.169c-1.184,0-1.953.881-2.161,2.337h4.129C110.041,34.464,109.4,33.487,108.184,33.487Z"/>
      <path d="M115.575,40.5c-1.184,0-1.969-.464-1.969-1.856V33.7h-1.168v-.9h1.168V30.174l1.04-.176v2.8h1.746l.144.9h-1.89v4.771c0,.767.3,1.1,1.122,1.1a4.4,4.4,0,0,0,.7-.079l.16.88A4.061,4.061,0,0,1,115.575,40.5Z"/>
      <path d="M120.854,40.5c-1.184,0-1.968-.464-1.968-1.856V33.7h-1.168v-.9h1.168V30.174l1.04-.176v2.8h1.745l.144.9h-1.889v4.771c0,.767.3,1.1,1.121,1.1a4.4,4.4,0,0,0,.7-.079l.16.88A4.049,4.049,0,0,1,120.854,40.5Z"/>
      <path d="M124.438,30.99a.768.768,0,1,1,0-1.536.768.768,0,0,1,0,1.536Zm-.529,9.38V32.8h1.04V40.37Z"/>
      <path d="M132.438,40.37V35.152c0-.976-.448-1.569-1.408-1.569a3.741,3.741,0,0,0-2.449,1.312V40.37h-1.057V32.8h.817l.176,1.121a4.17,4.17,0,0,1,2.721-1.281A2.061,2.061,0,0,1,133.5,34.96v5.41Z"/>
      <path d="M142.167,32.671l.176,1.04-1.521.16a2.375,2.375,0,0,1,.4,1.345,2.638,2.638,0,0,1-2.833,2.577,2.953,2.953,0,0,1-.657-.064c-.32.176-.5.369-.5.544,0,.3.3.416,1.7.672l.56.113c1.681.3,2.593.8,2.593,1.921,0,1.456-1.649,2.272-3.6,2.272s-3.457-.656-3.457-1.969c0-.767.592-1.425,1.729-2.016a.938.938,0,0,1-.561-.785c0-.4.273-.7.753-1.008a2.455,2.455,0,0,1-1.392-2.257,2.627,2.627,0,0,1,2.8-2.577,2.985,2.985,0,0,1,1.921.64Zm-6.1,8.548c0,.784.994,1.232,2.482,1.232,1.536,0,2.529-.593,2.529-1.345,0-.591-.48-.912-1.825-1.169l-.736-.127c-.384-.081-.64-.128-.913-.192C136.564,40.1,136.068,40.61,136.068,41.219Zm2.289-7.8a1.793,1.793,0,1,0,1.826,1.793A1.75,1.75,0,0,0,138.357,33.423Z"/>
      <path d="M150.471,40.53c-1.938,0-3.394-1.44-3.394-3.937,0-2.514,1.488-3.954,3.394-3.954,1.968,0,3.441,1.44,3.441,3.954C153.912,39.09,152.407,40.53,150.471,40.53Zm0-7c-1.5,0-2.322,1.265-2.322,3.058,0,1.744.832,3.041,2.322,3.041,1.536,0,2.352-1.248,2.352-3.041C152.823,34.848,151.991,33.535,150.471,33.535Z"/>
      <path d="M160.823,40.37V35.152c0-.976-.448-1.569-1.408-1.569a3.741,3.741,0,0,0-2.449,1.312V40.37h-1.057V32.8h.817l.175,1.121a4.173,4.173,0,0,1,2.722-1.281,2.061,2.061,0,0,1,2.257,2.321v5.41Z"/>
      <path d="M170.23,40.5c-1.184,0-1.968-.464-1.968-1.856V33.7h-1.168v-.9h1.168V30.174L169.3,30v2.8h1.745l.144.9H169.3v4.771c0,.767.3,1.1,1.121,1.1a4.4,4.4,0,0,0,.7-.079l.16.88A4.055,4.055,0,0,1,170.23,40.5Z"/>
      <path d="M178.088,40.37V35.152c0-.976-.448-1.569-1.408-1.569a3.743,3.743,0,0,0-2.45,1.312V40.37h-1.056v-11.3l1.056-.191v4.993a4.085,4.085,0,0,1,2.658-1.232,2.056,2.056,0,0,1,2.257,2.3V40.37Z"/>
      <path d="M187.4,36.656h-5.265c.031,1.858.9,2.962,2.417,2.962a4.094,4.094,0,0,0,2.673-1.121l.16.961a4.409,4.409,0,0,1-2.9,1.072c-1.984,0-3.409-1.344-3.409-3.954,0-2.432,1.408-3.937,3.265-3.937,2.065,0,3.057,1.7,3.057,3.794Zm-3.057-3.169c-1.184,0-1.952.881-2.16,2.337h4.129C186.2,34.464,185.56,33.487,184.343,33.487Z"/>
      <path d="M195.224,40.515a5.98,5.98,0,0,1-2.721-.689l.176-1.024a5.007,5.007,0,0,0,2.64.816c1.057,0,1.713-.448,1.713-1.217,0-.752-.448-1.089-1.953-1.488-1.681-.433-2.4-.976-2.4-2.226,0-1.184,1.008-2.048,2.577-2.048a5.652,5.652,0,0,1,2.352.512l-.175,1.008a4.759,4.759,0,0,0-2.209-.592c-1.04,0-1.537.449-1.537,1.073s.417.944,1.7,1.28c1.793.48,2.657,1.057,2.657,2.4C198.041,39.7,196.969,40.515,195.224,40.515Z"/>
      <path d="M202.983,40.53c-1.936,0-3.424-1.44-3.424-3.937,0-2.545,1.536-3.954,3.457-3.954a4.144,4.144,0,0,1,2.464.768l-.175,1.057A3.423,3.423,0,0,0,203,33.552c-1.44,0-2.369,1.168-2.369,3.024,0,1.873.929,3.026,2.465,3.026a3.324,3.324,0,0,0,2.3-.9l.145.961A3.966,3.966,0,0,1,202.983,40.53Z"/>
      <path d="M212.1,40.37l-.175-1.009a3.9,3.9,0,0,1-2.674,1.169A2.012,2.012,0,0,1,207,38.466c0-1.778,1.441-2.61,4.866-2.946v-.5c0-1.024-.608-1.457-1.568-1.457a6.085,6.085,0,0,0-2.609.672l-.144-.944a6.748,6.748,0,0,1,2.816-.656c1.681,0,2.546.784,2.546,2.337V40.37Zm-.24-4.017c-2.977.3-3.809,1.024-3.809,2.048a1.2,1.2,0,0,0,1.36,1.233,3.8,3.8,0,0,0,2.449-1.137Z"/>
      <path d="M215.415,40.37v-11.3l1.04-.191V40.37Z"/>
      <path d="M224.905,36.656H219.64c.031,1.858.9,2.962,2.417,2.962a4.091,4.091,0,0,0,2.672-1.121l.161.961a4.409,4.409,0,0,1-2.9,1.072c-1.984,0-3.409-1.344-3.409-3.954,0-2.432,1.408-3.937,3.265-3.937,2.065,0,3.057,1.7,3.057,3.794Zm-3.057-3.169c-1.184,0-1.952.881-2.16,2.337h4.128C223.705,34.464,223.064,33.487,221.848,33.487Z"/>
      <path d="M226.807,40.37V38.8h1.232V40.37Z"/>
      <path d="M6.072,61.7a6.111,6.111,0,0,1-2.928-.688l.16-1.12a5.38,5.38,0,0,0,2.816.832,2.028,2.028,0,0,0,2.274-1.985c0-1.089-.544-1.633-2.225-2.369-2.113-.929-2.882-1.633-2.882-3.2,0-1.665,1.345-2.77,3.17-2.77a4.828,4.828,0,0,1,2.433.577l-.161,1.1a4.109,4.109,0,0,0-2.32-.7A1.78,1.78,0,0,0,4.392,53.1c0,1.008.528,1.489,2.225,2.241,2.049.9,2.881,1.7,2.881,3.313C9.5,60.546,8.01,61.7,6.072,61.7Z"/>
      <path d="M12.231,52.19a.768.768,0,0,1,0-1.536.768.768,0,0,1,0,1.536ZM11.7,61.57V54h1.04V61.57Z"/>
      <path d="M20.232,61.57V56.353c0-.977-.448-1.57-1.408-1.57A3.739,3.739,0,0,0,16.375,56.1V61.57H15.318V54h.817l.176,1.121a4.17,4.17,0,0,1,2.721-1.281,2.061,2.061,0,0,1,2.257,2.321v5.41Z"/>
      <path d="M28.616,64.5V60.578a3.119,3.119,0,0,1-2.337,1.152c-1.648,0-3.041-1.184-3.041-3.729,0-2.77,1.585-4.114,3.682-4.114a8.578,8.578,0,0,1,2.753.5v9.939Zm0-9.379a4.619,4.619,0,0,0-1.744-.32c-1.5,0-2.561.992-2.561,3.153,0,1.841.88,2.833,2.081,2.833a3.029,3.029,0,0,0,2.224-1.329Z"/>
      <path d="M37.225,61.57l-.176-1.12a4.16,4.16,0,0,1-2.721,1.28,2.06,2.06,0,0,1-2.257-2.321V54h1.056v5.219c0,.975.448,1.552,1.409,1.552a3.712,3.712,0,0,0,2.448-1.3V54h1.057V61.57Z"/>
      <path d="M46.361,57.856H41.1c.031,1.858.9,2.962,2.417,2.962A4.094,4.094,0,0,0,46.186,59.7l.16.961a4.409,4.409,0,0,1-2.9,1.072c-1.984,0-3.409-1.344-3.409-3.954,0-2.432,1.408-3.937,3.265-3.937,2.065,0,3.057,1.7,3.057,3.794ZM43.3,54.687c-1.184,0-1.952.881-2.16,2.337h4.128C45.161,55.664,44.521,54.687,43.3,54.687Z"/>
      <path d="M54.936,61.73c-1.937,0-3.425-1.44-3.425-3.937,0-2.545,1.536-3.954,3.457-3.954a4.147,4.147,0,0,1,2.465.768l-.176,1.057a3.428,3.428,0,0,0-2.3-.912c-1.44,0-2.369,1.168-2.369,3.024,0,1.873.929,3.026,2.465,3.026a3.326,3.326,0,0,0,2.3-.9l.144.961A3.966,3.966,0,0,1,54.936,61.73Z"/>
      <path d="M64.057,61.57l-.176-1.008a3.9,3.9,0,0,1-2.674,1.168,2.013,2.013,0,0,1-2.257-2.064c0-1.777,1.442-2.609,4.866-2.945v-.5c0-1.025-.608-1.457-1.568-1.457a6.087,6.087,0,0,0-2.609.671L59.5,54.5a6.749,6.749,0,0,1,2.817-.656c1.68,0,2.544.784,2.544,2.337V61.57Zm-.241-4.017c-2.977.3-3.809,1.024-3.809,2.049a1.2,1.2,0,0,0,1.36,1.232A3.8,3.8,0,0,0,63.816,59.7Z"/>
      <path d="M67.367,61.57V50.27l1.04-.192V61.57Z"/>
      <path d="M73.96,61.73c-1.937,0-3.425-1.44-3.425-3.937,0-2.545,1.536-3.954,3.457-3.954a4.144,4.144,0,0,1,2.465.768l-.176,1.057a3.424,3.424,0,0,0-2.3-.912c-1.441,0-2.37,1.168-2.37,3.024,0,1.873.929,3.026,2.465,3.026a3.324,3.324,0,0,0,2.3-.9l.144.961A3.964,3.964,0,0,1,73.96,61.73Z"/>
      <path d="M83.545,61.57l-.176-1.12a4.16,4.16,0,0,1-2.721,1.28,2.06,2.06,0,0,1-2.256-2.321V54h1.055v5.219c0,.975.449,1.552,1.409,1.552a3.714,3.714,0,0,0,2.449-1.3V54h1.056V61.57Z"/>
      <path d="M86.936,61.57V50.27l1.04-.192V61.57Z"/>
      <path d="M95.193,61.57l-.175-1.008a3.9,3.9,0,0,1-2.674,1.168,2.012,2.012,0,0,1-2.257-2.064c0-1.777,1.441-2.609,4.866-2.945v-.5c0-1.025-.608-1.457-1.568-1.457a6.087,6.087,0,0,0-2.61.671l-.143-.944a6.748,6.748,0,0,1,2.816-.656c1.681,0,2.545.784,2.545,2.337V61.57Zm-.24-4.017c-2.977.3-3.809,1.024-3.809,2.049a1.2,1.2,0,0,0,1.36,1.232A3.8,3.8,0,0,0,94.953,59.7Z"/>
      <path d="M100.729,61.7c-1.185,0-1.969-.464-1.969-1.856V54.9H97.592V54H98.76V51.374L99.8,51.2V54h1.745l.144.9H99.8v4.771c0,.768.3,1.1,1.121,1.1a4.278,4.278,0,0,0,.7-.08l.16.88A4.047,4.047,0,0,1,100.729,61.7Z"/>
      <path d="M109.465,57.856H104.2c.031,1.858.9,2.962,2.417,2.962a4.092,4.092,0,0,0,2.673-1.121l.16.961a4.407,4.407,0,0,1-2.9,1.072c-1.985,0-3.409-1.344-3.409-3.954,0-2.432,1.408-3.937,3.264-3.937,2.066,0,3.058,1.7,3.058,3.794Zm-3.058-3.169c-1.183,0-1.952.881-2.16,2.337h4.129C108.265,55.664,107.624,54.687,106.407,54.687Z"/>
      <path d="M113.671,61.715a5.967,5.967,0,0,1-2.721-.689L111.126,60a5.007,5.007,0,0,0,2.641.816c1.056,0,1.712-.448,1.712-1.216,0-.752-.448-1.089-1.953-1.489-1.68-.432-2.4-.976-2.4-2.225,0-1.185,1.008-2.049,2.577-2.049a5.641,5.641,0,0,1,2.353.513l-.176,1.007a4.757,4.757,0,0,0-2.209-.591c-1.04,0-1.537.448-1.537,1.072s.417.944,1.7,1.28c1.793.481,2.657,1.057,2.657,2.4C116.488,60.9,115.416,61.715,113.671,61.715Z"/>
      <path d="M124.856,62.515c-.544,1.472-1.216,1.936-2.336,1.936a2.6,2.6,0,0,1-.417-.048l-.144-.928a3.26,3.26,0,0,0,.624.064c.624,0,.992-.272,1.28-1.009l.353-.912L121.351,54.1l1.024-.193,2.354,6.451L126.969,54h1.089Z"/>
      <path d="M132.472,61.73c-1.938,0-3.394-1.44-3.394-3.937,0-2.514,1.488-3.954,3.394-3.954,1.968,0,3.441,1.44,3.441,3.954C135.913,60.29,134.408,61.73,132.472,61.73Zm0-6.995c-1.5,0-2.322,1.265-2.322,3.058,0,1.744.832,3.041,2.322,3.041,1.536,0,2.352-1.248,2.352-3.041C134.824,56.048,133.992,54.735,132.472,54.735Z"/>
      <path d="M143,61.57l-.176-1.12a4.16,4.16,0,0,1-2.72,1.28,2.06,2.06,0,0,1-2.257-2.321V54H138.9v5.219c0,.975.449,1.552,1.41,1.552a3.714,3.714,0,0,0,2.448-1.3V54h1.056V61.57Z"/>
      <path d="M147.335,56.816V61.57h-1.057V54h.784l.241,1.553a3.394,3.394,0,0,1,2.689-1.713l.176.993A3.593,3.593,0,0,0,147.335,56.816Z"/>
      <path d="M158.023,51.086a1.012,1.012,0,0,0-1.152,1.152V54h1.553l.143.9h-1.7V61.57h-1.04V54.9h-1.152V54h1.152V52.158a1.874,1.874,0,0,1,2.129-2.032,4.341,4.341,0,0,1,.544.031l.16.977A3.217,3.217,0,0,0,158.023,51.086Z"/>
      <path d="M165.256,61.57l-.176-1.12a4.16,4.16,0,0,1-2.721,1.28,2.06,2.06,0,0,1-2.256-2.321V54h1.055v5.219c0,.975.448,1.552,1.409,1.552a3.714,3.714,0,0,0,2.449-1.3V54h1.056V61.57Z"/>
      <path d="M170.871,61.7c-1.184,0-1.969-.464-1.969-1.856V54.9h-1.168V54H168.9V51.374l1.04-.176V54h1.746l.144.9h-1.89v4.771c0,.768.305,1.1,1.121,1.1a4.279,4.279,0,0,0,.705-.08l.16.88A4.061,4.061,0,0,1,170.871,61.7Z"/>
      <path d="M178.9,61.57l-.175-1.12a4.164,4.164,0,0,1-2.721,1.28,2.06,2.06,0,0,1-2.257-2.321V54h1.056v5.219c0,.975.448,1.552,1.409,1.552a3.712,3.712,0,0,0,2.448-1.3V54h1.057V61.57Z"/>
      <path d="M183.239,56.816V61.57h-1.056V54h.784l.24,1.553a3.4,3.4,0,0,1,2.689-1.713l.176.993A3.593,3.593,0,0,0,183.239,56.816Z"/>
      <path d="M193.258,57.856h-5.266c.031,1.858.9,2.962,2.417,2.962a4.092,4.092,0,0,0,2.673-1.121l.16.961a4.407,4.407,0,0,1-2.9,1.072c-1.985,0-3.409-1.344-3.409-3.954,0-2.432,1.408-3.937,3.264-3.937,2.066,0,3.058,1.7,3.058,3.794ZM190.2,54.687c-1.183,0-1.952.881-2.16,2.337h4.129C192.058,55.664,191.417,54.687,190.2,54.687Z"/>
      <path d="M206.3,61.618h-.9l-1.9-6.21-1.921,6.21h-.88l-2.513-7.555,1.024-.192,1.953,6.291,1.889-6.195h.929l1.888,6.2L207.756,54h1.056Z"/>
      <path d="M216.186,57.856H210.92c.031,1.858.9,2.962,2.417,2.962A4.092,4.092,0,0,0,216.01,59.7l.16.961a4.409,4.409,0,0,1-2.9,1.072c-1.984,0-3.409-1.344-3.409-3.954,0-2.432,1.408-3.937,3.265-3.937,2.065,0,3.058,1.7,3.058,3.794Zm-3.058-3.169c-1.184,0-1.952.881-2.16,2.337H215.1C214.985,55.664,214.345,54.687,213.128,54.687Z"/>
      <path d="M218.824,52.19a.768.768,0,0,1,0-1.536.768.768,0,0,1,0,1.536Zm-.528,9.38V54h1.04V61.57Z"/>
      <path d="M228.186,53.871l.176,1.041-1.521.159a2.374,2.374,0,0,1,.4,1.345,2.637,2.637,0,0,1-2.833,2.577,2.95,2.95,0,0,1-.656-.063c-.32.175-.5.368-.5.544,0,.3.3.416,1.7.671l.561.113c1.68.3,2.592.8,2.592,1.921,0,1.456-1.648,2.272-3.6,2.272s-3.457-.656-3.457-1.969c0-.767.592-1.423,1.728-2.016a.938.938,0,0,1-.559-.784c0-.4.271-.7.752-1.009a2.456,2.456,0,0,1-1.393-2.257,2.628,2.628,0,0,1,2.8-2.577,2.987,2.987,0,0,1,1.921.64Zm-6.1,8.548c0,.784.993,1.232,2.481,1.232,1.536,0,2.53-.592,2.53-1.344,0-.592-.481-.912-1.826-1.169l-.736-.128c-.384-.08-.64-.128-.912-.192C222.583,61.3,222.087,61.811,222.087,62.419Zm2.289-7.8a1.793,1.793,0,1,0,1.825,1.793A1.749,1.749,0,0,0,224.376,54.623Z"/>
      <path d="M234.857,61.57V56.353c0-.977-.448-1.57-1.408-1.57A3.739,3.739,0,0,0,231,56.1V61.57h-1.057V50.27L231,50.078v4.993a4.082,4.082,0,0,1,2.657-1.232,2.056,2.056,0,0,1,2.257,2.306V61.57Z"/>
      <path d="M240.648,61.7c-1.184,0-1.968-.464-1.968-1.856V54.9h-1.168V54h1.168V51.374l1.04-.176V54h1.745l.144.9H239.72v4.771c0,.768.3,1.1,1.121,1.1a4.278,4.278,0,0,0,.7-.08l.16.88A4.055,4.055,0,0,1,240.648,61.7Z"/>
      <path d="M4.456,78.017V82.77H3.4V75.2h.785l.24,1.553a3.394,3.394,0,0,1,2.689-1.713l.176.993A3.59,3.59,0,0,0,4.456,78.017Z"/>
      <path d="M13.241,82.77l-.176-1.008a3.9,3.9,0,0,1-2.673,1.169,2.013,2.013,0,0,1-2.257-2.065c0-1.777,1.441-2.609,4.866-2.945v-.5c0-1.025-.608-1.457-1.568-1.457a6.075,6.075,0,0,0-2.61.672l-.143-.945a6.763,6.763,0,0,1,2.816-.656c1.681,0,2.546.784,2.546,2.337V82.77ZM13,78.753c-2.978.3-3.81,1.024-3.81,2.049a1.2,1.2,0,0,0,1.361,1.232A3.8,3.8,0,0,0,13,80.9Z"/>
      <path d="M21.354,82.77V77.553c0-.977-.449-1.57-1.409-1.57A3.741,3.741,0,0,0,17.5,77.3V82.77H16.439V75.2h.817l.176,1.121a4.17,4.17,0,0,1,2.721-1.281A2.061,2.061,0,0,1,22.41,77.36v5.41Z"/>
      <path d="M31.082,75.071l.177,1.04-1.522.16a2.375,2.375,0,0,1,.4,1.345,2.637,2.637,0,0,1-2.833,2.577,2.954,2.954,0,0,1-.657-.063c-.32.176-.5.368-.5.544,0,.3.3.416,1.7.672l.56.112c1.681.3,2.593.8,2.593,1.921,0,1.456-1.648,2.272-3.6,2.272S23.943,85,23.943,83.683c0-.768.592-1.425,1.729-2.017a.937.937,0,0,1-.56-.784c0-.4.272-.7.752-1.009a2.455,2.455,0,0,1-1.392-2.257,2.628,2.628,0,0,1,2.8-2.577,2.986,2.986,0,0,1,1.921.641Zm-6.1,8.548c0,.784.994,1.233,2.482,1.233,1.536,0,2.529-.593,2.529-1.345,0-.592-.48-.912-1.825-1.169l-.736-.128c-.384-.08-.64-.128-.912-.191C25.479,82.5,24.983,83.011,24.983,83.619Zm2.289-7.8A1.793,1.793,0,1,0,29.1,77.616,1.75,1.75,0,0,0,27.272,75.823Z"/>
      <path d="M38.539,79.057H33.273c.032,1.857.9,2.962,2.417,2.962A4.093,4.093,0,0,0,38.363,80.9l.16.961a4.405,4.405,0,0,1-2.9,1.073c-1.984,0-3.409-1.345-3.409-3.954,0-2.433,1.408-3.938,3.264-3.938,2.066,0,3.058,1.7,3.058,3.794Zm-3.058-3.169c-1.183,0-1.952.881-2.16,2.337H37.45C37.339,76.864,36.7,75.888,35.481,75.888Z"/>
      <path d="M46.36,82.915a5.979,5.979,0,0,1-2.72-.688l.175-1.025a5.011,5.011,0,0,0,2.641.817c1.057,0,1.713-.449,1.713-1.217,0-.752-.448-1.089-1.953-1.489-1.681-.432-2.4-.976-2.4-2.225,0-1.185,1.008-2.049,2.578-2.049a5.64,5.64,0,0,1,2.352.513l-.176,1.008a4.743,4.743,0,0,0-2.209-.592c-1.04,0-1.537.448-1.537,1.072s.417.944,1.7,1.28c1.792.481,2.657,1.057,2.657,2.4C49.178,82.1,48.105,82.915,46.36,82.915Z"/>
      <path d="M54.089,82.931c-1.938,0-3.394-1.441-3.394-3.938,0-2.514,1.489-3.954,3.394-3.954,1.969,0,3.441,1.44,3.441,3.954C57.53,81.49,56.025,82.931,54.089,82.931Zm0-6.995c-1.5,0-2.321,1.264-2.321,3.057,0,1.744.832,3.041,2.321,3.041,1.536,0,2.352-1.248,2.352-3.041C56.441,77.248,55.609,75.936,54.089,75.936Z"/>
      <path d="M65.913,83.715c-.545,1.472-1.217,1.936-2.337,1.936a2.744,2.744,0,0,1-.417-.047l-.143-.929a3.251,3.251,0,0,0,.624.064c.624,0,.992-.272,1.28-1.009l.352-.912L62.407,75.3l1.025-.192,2.353,6.45,2.24-6.355h1.089Z"/>
      <path d="M73.529,82.931c-1.937,0-3.393-1.441-3.393-3.938,0-2.514,1.488-3.954,3.393-3.954,1.969,0,3.442,1.44,3.442,3.954C76.971,81.49,75.466,82.931,73.529,82.931Zm0-6.995c-1.5,0-2.321,1.264-2.321,3.057,0,1.744.832,3.041,2.321,3.041,1.536,0,2.353-1.248,2.353-3.041C75.882,77.248,75.05,75.936,73.529,75.936Z"/>
      <path d="M84.058,82.77l-.176-1.12a4.161,4.161,0,0,1-2.721,1.281A2.061,2.061,0,0,1,78.9,80.609V75.2H79.96v5.219c0,.976.448,1.552,1.409,1.552a3.712,3.712,0,0,0,2.448-1.3V75.2h1.057V82.77Z"/>
      <path d="M93.913,82.931c-1.936,0-3.425-1.441-3.425-3.938,0-2.545,1.536-3.954,3.457-3.954a4.138,4.138,0,0,1,2.465.769l-.176,1.056a3.424,3.424,0,0,0-2.3-.912c-1.441,0-2.369,1.168-2.369,3.025,0,1.873.928,3.025,2.464,3.025a3.324,3.324,0,0,0,2.3-.9l.145.961A3.964,3.964,0,0,1,93.913,82.931Z"/>
      <path d="M103.034,82.77l-.176-1.008a3.9,3.9,0,0,1-2.673,1.169,2.013,2.013,0,0,1-2.257-2.065c0-1.777,1.441-2.609,4.866-2.945v-.5c0-1.025-.608-1.457-1.568-1.457a6.075,6.075,0,0,0-2.61.672l-.143-.945a6.763,6.763,0,0,1,2.816-.656c1.681,0,2.546.784,2.546,2.337V82.77Zm-.24-4.017c-2.978.3-3.81,1.024-3.81,2.049a1.2,1.2,0,0,0,1.361,1.232,3.8,3.8,0,0,0,2.449-1.137Z"/>
      <path d="M111.146,82.77V77.553c0-.977-.448-1.57-1.408-1.57a3.741,3.741,0,0,0-2.449,1.313V82.77h-1.057V75.2h.817l.176,1.121a4.17,4.17,0,0,1,2.721-1.281A2.061,2.061,0,0,1,112.2,77.36v5.41Z"/>
      <path d="M120.554,82.9c-1.185,0-1.969-.463-1.969-1.856V76.1h-1.168v-.9h1.168V72.574l1.04-.176v2.8h1.745l.145.9h-1.89v4.77c0,.768.305,1.1,1.121,1.1a4.4,4.4,0,0,0,.7-.079l.16.879A4.047,4.047,0,0,1,120.554,82.9Z"/>
      <path d="M128.123,82.77l-.176-1.008a3.9,3.9,0,0,1-2.674,1.169,2.013,2.013,0,0,1-2.256-2.065c0-1.777,1.441-2.609,4.866-2.945v-.5c0-1.025-.609-1.457-1.569-1.457a6.074,6.074,0,0,0-2.609.672l-.143-.945a6.76,6.76,0,0,1,2.816-.656c1.681,0,2.545.784,2.545,2.337V82.77Zm-.24-4.017c-2.978.3-3.81,1.024-3.81,2.049a1.2,1.2,0,0,0,1.361,1.232,3.8,3.8,0,0,0,2.449-1.137Z"/>
      <path d="M136.14,82.883l-3.762-4.13V82.77h-1.057V71.47l1.057-.192v7.171l3.313-3.25h1.329L133.5,78.577l3.794,4.1Z"/>
      <path d="M144.2,79.057h-5.266c.032,1.857.9,2.962,2.417,2.962a4.093,4.093,0,0,0,2.673-1.122l.16.961a4.405,4.405,0,0,1-2.9,1.073c-1.984,0-3.409-1.345-3.409-3.954,0-2.433,1.408-3.938,3.264-3.938,2.066,0,3.058,1.7,3.058,3.794Zm-3.058-3.169c-1.183,0-1.952.881-2.16,2.337h4.129C143,76.864,142.363,75.888,141.146,75.888Z"/>
      <path d="M154.444,82.77l-.175-1.008a3.9,3.9,0,0,1-2.674,1.169,2.013,2.013,0,0,1-2.257-2.065c0-1.777,1.441-2.609,4.866-2.945v-.5c0-1.025-.608-1.457-1.568-1.457a6.075,6.075,0,0,0-2.61.672l-.143-.945a6.763,6.763,0,0,1,2.816-.656c1.681,0,2.546.784,2.546,2.337V82.77Zm-.24-4.017c-2.977.3-3.809,1.024-3.809,2.049a1.2,1.2,0,0,0,1.36,1.232A3.8,3.8,0,0,0,154.2,80.9Z"/>
      <path d="M160.6,82.931c-1.937,0-3.425-1.441-3.425-3.938,0-2.545,1.536-3.954,3.457-3.954a4.14,4.14,0,0,1,2.465.769l-.176,1.056a3.428,3.428,0,0,0-2.305-.912c-1.44,0-2.369,1.168-2.369,3.025,0,1.873.929,3.025,2.465,3.025a3.326,3.326,0,0,0,2.3-.9l.144.961A3.961,3.961,0,0,1,160.6,82.931Z"/>
      <path d="M167.436,82.9c-1.185,0-1.969-.463-1.969-1.856V76.1H164.3v-.9h1.168V72.574l1.04-.176v2.8h1.745l.144.9h-1.889v4.77c0,.768.305,1.1,1.121,1.1a4.4,4.4,0,0,0,.7-.079l.16.879A4.047,4.047,0,0,1,167.436,82.9Z"/>
      <path d="M171.019,73.391a.769.769,0,1,1,0-1.537.769.769,0,0,1,0,1.537Zm-.529,9.379V75.2h1.04V82.77Z"/>
      <path d="M177.035,82.931c-1.937,0-3.393-1.441-3.393-3.938,0-2.514,1.488-3.954,3.393-3.954,1.969,0,3.442,1.44,3.442,3.954C180.477,81.49,178.972,82.931,177.035,82.931Zm0-6.995c-1.5,0-2.321,1.264-2.321,3.057,0,1.744.832,3.041,2.321,3.041,1.536,0,2.353-1.248,2.353-3.041C179.388,77.248,178.556,75.936,177.035,75.936Z"/>
      <path d="M187.388,82.77V77.553c0-.977-.449-1.57-1.409-1.57A3.741,3.741,0,0,0,183.53,77.3V82.77h-1.056V75.2h.816l.176,1.121a4.17,4.17,0,0,1,2.722-1.281,2.061,2.061,0,0,1,2.256,2.321v5.41Z"/>
      <path d="M196.8,82.9c-1.185,0-1.969-.463-1.969-1.856V76.1h-1.168v-.9h1.168V72.574l1.04-.176v2.8h1.745l.145.9h-1.89v4.77c0,.768.3,1.1,1.121,1.1a4.371,4.371,0,0,0,.7-.079l.161.879A4.061,4.061,0,0,1,196.8,82.9Z"/>
      <path d="M202.6,82.931c-1.938,0-3.394-1.441-3.394-3.938,0-2.514,1.488-3.954,3.394-3.954,1.968,0,3.441,1.44,3.441,3.954C206.044,81.49,204.539,82.931,202.6,82.931Zm0-6.995c-1.5,0-2.322,1.264-2.322,3.057,0,1.744.832,3.041,2.322,3.041,1.536,0,2.352-1.248,2.352-3.041C204.955,77.248,204.123,75.936,202.6,75.936Z"/>
      <path d="M213.276,82.77l-.192-1.1a3.089,3.089,0,0,1-2.433,1.265c-1.665,0-3.057-1.185-3.057-3.73,0-2.769,1.617-4.113,3.458-4.113a4.785,4.785,0,0,1,1.969.384v-4l1.055-.192V82.77Zm-.255-6.322A3.944,3.944,0,0,0,211.083,76c-1.36,0-2.417,1.024-2.417,3.153,0,1.841.881,2.833,2.081,2.833a3.013,3.013,0,0,0,2.274-1.36Z"/>
      <path d="M221.164,82.77l-.176-1.008a3.9,3.9,0,0,1-2.674,1.169,2.013,2.013,0,0,1-2.256-2.065c0-1.777,1.441-2.609,4.866-2.945v-.5c0-1.025-.609-1.457-1.569-1.457a6.074,6.074,0,0,0-2.609.672l-.143-.945a6.76,6.76,0,0,1,2.816-.656c1.681,0,2.545.784,2.545,2.337V82.77Zm-.24-4.017c-2.978.3-3.81,1.024-3.81,2.049a1.2,1.2,0,0,0,1.361,1.232,3.8,3.8,0,0,0,2.449-1.137Z"/>
      <path d="M226.987,83.715c-.545,1.472-1.216,1.936-2.337,1.936a2.76,2.76,0,0,1-.417-.047l-.143-.929a3.26,3.26,0,0,0,.624.064c.624,0,.992-.272,1.28-1.009l.353-.912L223.481,75.3l1.025-.192,2.353,6.45L229.1,75.2h1.088Z"/>
      <path d="M231.162,82.77V81.2H232.4V82.77Z"/>
    </g>
  </g>
</svg>
