<svg viewBox="0 0 285.795 54.5" xmlns="http://www.w3.org/2000/svg"><g fill="#0c0755"><path d="m7.181 22.16-.222-1.4a4.728 4.728 0 0 1 -3.569 1.622 2.8 2.8 0 0 1 -3.037-2.971c0-2.593 2.127-3.724 6.452-4.146v-.311c0-1.152-.666-1.6-1.841-1.6a8.8 8.8 0 0 0 -3.569.864l-.333-2.118a11.08 11.08 0 0 1 4.256-.865c2.772 0 4.147 1.02 4.147 3.592v7.333zm-.376-5.342c-3.082.376-3.814 1.285-3.814 2.3a1.173 1.173 0 0 0 1.309 1.247 3.565 3.565 0 0 0 2.506-1.154z"/><path d="m16.493 22.293a13.474 13.474 0 0 1 -4.389-.709v-15.009l2.66-.422v6.5a4.211 4.211 0 0 1 3.036-1.423c2.26 0 4.035 1.685 4.035 5.277.002 3.946-2.149 5.786-5.342 5.786zm.621-8.713a3.258 3.258 0 0 0 -2.35 1.4v4.855a4.242 4.242 0 0 0 1.685.288c1.685 0 2.7-1.019 2.7-3.458.004-2.065-.837-3.085-2.035-3.085z"/><path d="m28.532 22.36c-2.97 0-5.077-2-5.077-5.5 0-3.725 2.328-5.632 5.166-5.632a6.059 6.059 0 0 1 3.348.909l-.377 2.4a4.42 4.42 0 0 0 -2.816-1c-1.529 0-2.638 1.131-2.638 3.26 0 2.217 1.2 3.282 2.816 3.282a4.235 4.235 0 0 0 2.772-1.02l.354 2.261a5.858 5.858 0 0 1 -3.548 1.04z"/><path d="m41.127 22.16-.222-1.485a4.193 4.193 0 0 1 -3.281 1.707c-2.239 0-4.035-1.663-4.035-5.276 0-3.991 2.2-5.765 4.678-5.765a7.5 7.5 0 0 1 2.483.4v-5.166l2.66-.422v16.007zm-.377-8.225a4.313 4.313 0 0 0 -2.084-.466c-1.4 0-2.417 1.131-2.417 3.482 0 2.084.888 3.059 2.063 3.059a3.16 3.16 0 0 0 2.438-1.464z"/><path d="m55.073 17.327h-6.873c.133 2.084 1.241 2.994 2.882 2.994a6.242 6.242 0 0 0 3.681-1.331l.31 2.085a7.326 7.326 0 0 1 -4.279 1.307c-2.993 0-5.232-1.707-5.232-5.564 0-3.482 2.084-5.588 4.877-5.588 3.215 0 4.657 2.417 4.657 5.454.004.222-.023.488-.023.643zm-4.7-4.256c-1.064 0-1.929.841-2.129 2.593h4.256c-.176-1.664-.841-2.593-2.127-2.593z"/><path d="m61.9 8.526c-.909 0-1.4.4-1.4 1.351v1.575h2.04l.332 2.172h-2.367v8.536h-2.638v-8.536h-1.553v-2.172h1.553v-1.84c0-2.372 1.507-3.259 3.7-3.259a6.476 6.476 0 0 1 1.086.088l.356 2.173a7.044 7.044 0 0 0 -1.109-.088z"/><path d="m73.92 11.3.354 2.129-1.951.133a3.279 3.279 0 0 1 .288 1.4c0 2.307-1.972 3.681-4.278 3.681a5.2 5.2 0 0 1 -.865-.066c-.266.2-.444.4-.444.576 0 .355.333.443 2 .687l1.374.133c2.2.311 3.569 1 3.569 2.639 0 2.306-2.527 3.592-5.631 3.592-2.9 0-5.1-.887-5.1-2.661 0-1 .688-1.774 2.018-2.528a1.454 1.454 0 0 1 -.621-1.152c0-.6.466-1.175 1.352-1.707a3.346 3.346 0 0 1 -2.017-3.126c0-2.328 1.907-3.792 4.3-3.792a4.68 4.68 0 0 1 3.037 1zm-8.381 11.95c0 .8.953 1.375 2.971 1.375 1.907 0 2.993-.642 2.993-1.441 0-.576-.465-.908-1.8-1.108l-1.44-.177a15.537 15.537 0 0 1 -1.6-.267c-.769.551-1.124 1.061-1.124 1.614zm2.749-10.308a1.879 1.879 0 0 0 -1.862 2.084 1.816 1.816 0 0 0 1.862 1.95 1.852 1.852 0 0 0 1.885-2.018 1.876 1.876 0 0 0 -1.885-2.02z"/><path d="m82.345 22.16v-7.005c0-.932-.4-1.575-1.374-1.575a3.577 3.577 0 0 0 -2.44 1.353v7.227h-2.66v-15.585l2.66-.422v6.647a5.05 5.05 0 0 1 3.415-1.574c2 0 3.06 1.22 3.06 3.215v7.719z"/><path d="m89.13 9.656a1.516 1.516 0 0 1 -1.6-1.507 1.585 1.585 0 0 1 3.17 0 1.511 1.511 0 0 1 -1.57 1.507zm-1.353 12.5v-10.704h2.661v10.708z"/><path d="m92.723 26.2a4.215 4.215 0 0 1 -1.042-.089l-.333-2.173a3.3 3.3 0 0 0 .842.089c.732 0 1.175-.332 1.175-1.264v-11.311h2.661v11.529c0 2.305-1.326 3.219-3.303 3.219zm2-16.54a1.516 1.516 0 0 1 -1.6-1.507 1.585 1.585 0 0 1 3.17 0 1.511 1.511 0 0 1 -1.575 1.503z"/><path d="m105.449 22.316-3.925-5.454v5.3h-2.66v-15.587l2.66-.422v9.733l3.5-4.434h2.994l-3.947 4.789 4.191 5.675z"/><path d="m109.905 22.16v-15.585l2.661-.422v16.007z"/><path d="m128.087 22.16v-7.005c0-.932-.333-1.575-1.309-1.575a3.546 3.546 0 0 0 -2.372 1.33v7.25h-2.66v-7.005c0-.932-.355-1.575-1.33-1.575a3.544 3.544 0 0 0 -2.373 1.33v7.25h-2.66v-10.708h2.262l.243 1.507a5.087 5.087 0 0 1 3.525-1.729 2.63 2.63 0 0 1 2.749 1.729 5.1 5.1 0 0 1 3.57-1.729c2.018 0 3.015 1.22 3.015 3.215v7.715z"/><path d="m139.883 22.16v-7.005c0-.932-.4-1.575-1.374-1.575a3.577 3.577 0 0 0 -2.44 1.353v7.227h-2.66v-10.708h2.262l.243 1.507a5.188 5.188 0 0 1 3.57-1.729c2 0 3.06 1.22 3.06 3.215v7.715z"/><path d="m149.661 22.382c-2.9 0-5.011-2.084-5.011-5.564s2.129-5.588 5.034-5.588c2.926 0 5.054 2.106 5.054 5.588s-2.15 5.564-5.077 5.564zm0-8.957c-1.574 0-2.416 1.4-2.416 3.393 0 1.95.864 3.391 2.416 3.391 1.641 0 2.484-1.4 2.484-3.391 0-1.974-.887-3.393-2.484-3.393z"/><path d="m162.033 22.272a6.957 6.957 0 0 1 -2.483-.422v4.035l-2.66.4v-14.833h2.261l.244 1.463a4.3 4.3 0 0 1 3.281-1.685c2.239 0 4.035 1.685 4.035 5.277 0 3.993-2.217 5.765-4.678 5.765zm-.066-8.692a3.161 3.161 0 0 0 -2.417 1.508v4.589a4.165 4.165 0 0 0 2.062.466c1.374 0 2.416-1.131 2.416-3.481 0-2.062-.864-3.082-2.061-3.082z"/><path d="m175.425 26.285v-5.322a4.248 4.248 0 0 1 -3.037 1.419c-2.262 0-4.035-1.663-4.035-5.276 0-3.946 2.128-5.787 5.342-5.787a13.486 13.486 0 0 1 4.391.71v13.856zm0-12.483a4.242 4.242 0 0 0 -1.685-.31c-1.685 0-2.727 1.019-2.727 3.459 0 2.084.865 3.059 2.062 3.059a3.262 3.262 0 0 0 2.35-1.375z"/><path d="m183.451 16.019v6.141h-2.66v-10.708h2.262l.332 2.151a4.178 4.178 0 0 1 3.436-2.373l.421 2.639a4.922 4.922 0 0 0 -3.791 2.15z"/><path d="m192.387 22.36a9.317 9.317 0 0 1 -4.168-1.042l.355-2.217a7.409 7.409 0 0 0 3.9 1.264c1.153 0 1.774-.421 1.774-1.109 0-.754-.466-1.064-2.173-1.485-2.595-.665-3.681-1.419-3.681-3.37 0-1.84 1.463-3.149 3.947-3.149a9.041 9.041 0 0 1 3.747.754l-.355 2.217a7.313 7.313 0 0 0 -3.392-.976c-1 0-1.486.377-1.486.976 0 .577.4.887 2 1.309 2.771.709 3.858 1.462 3.858 3.48-.002 2.107-1.513 3.348-4.326 3.348z"/><path d="m202.852 22.338c-2.107 0-3.526-.776-3.526-3.215v-5.5h-1.507v-2.171h1.507v-3.392l2.616-.4v3.792h2.2l.333 2.172h-2.529v5.056c0 .864.4 1.33 1.419 1.33a3.256 3.256 0 0 0 .843-.089l.333 2.239a7.463 7.463 0 0 1 -1.689.178z"/><path d="m213.361 22.16-.243-1.507a5.23 5.23 0 0 1 -3.569 1.729c-2.018 0-3.061-1.22-3.061-3.237v-7.693h2.661v7.006c0 .931.4 1.552 1.353 1.552a3.67 3.67 0 0 0 2.461-1.33v-7.228h2.66v10.708z"/><path d="m223.694 22.2h-2.594l-3.747-10.552 2.793-.356 2.394 7.606 2.307-7.45h2.637z"/><path d="m240.234 22.16h-2.372l-2.017-7.094-2 7.094h-2.373l-3.193-10.508 2.66-.356 1.908 7.14 1.951-6.984h2.349l1.929 6.984 1.863-6.984h2.505z"/><path d="m251.21 22.316-2.283-3.725-2.127 3.569h-2.639l3.437-5.387-3.237-5.121 2.7-.356 2.04 3.415 2-3.259h2.616l-3.26 5.1 3.459 5.41z"/><path d="m261.011 22.737c-.954 2.638-2.173 3.459-4.236 3.459a3.388 3.388 0 0 1 -.975-.112l-.355-2.194a4.842 4.842 0 0 0 1.242.155 1.76 1.76 0 0 0 1.729-1.131l.244-.71-3.88-10.552 2.772-.356 2.483 7.627 2.395-7.471h2.637z"/><path d="m266.109 22.16v-2.04l5.322-6.54h-4.744l-.355-2.128h8.314v2.04l-5.343 6.54h5.254l.355 2.128z"/><path d="m6.561 49.056c-3.592 0-5.987-2.793-5.987-7.782s2.4-7.781 5.987-7.781c3.569 0 5.963 2.792 5.963 7.781s-2.394 7.782-5.963 7.782zm0-13.28c-2.018 0-3.149 1.951-3.149 5.5s1.131 5.5 3.149 5.5 3.1-1.951 3.1-5.5-1.083-5.5-3.1-5.5z"/><path d="m17.159 48.768v-12.238l-3.059 1.17-.311-2.239 3.7-1.707h2.511v15.01z"/><path d="m22.747 48.768v-2.084l5.365-5.477c1.153-1.218 1.73-2.061 1.73-3.148 0-1.374-.843-2.084-2.328-2.084a6.557 6.557 0 0 0 -4.035 1.663l-.356-2.527a7.531 7.531 0 0 1 4.7-1.6c3.015 0 4.833 1.641 4.833 4.257 0 1.951-.909 3.215-2.749 5.033l-3.637 3.613h6.3l.355 2.351z"/><path d="m39.177 49.056a9.3 9.3 0 0 1 -4.613-1.175l.4-2.438a7.552 7.552 0 0 0 4.1 1.218c1.707 0 2.772-.731 2.772-2.15 0-1.574-1.065-2.438-3.681-2.438h-.8l-.355-2.218h1.264c2.3 0 3.3-.8 3.3-2.128 0-1.131-.82-1.841-2.483-1.841a6.6 6.6 0 0 0 -3.925 1.331l-.354-2.35a7.726 7.726 0 0 1 4.598-1.374c3.348 0 5.011 1.751 5.011 3.923a3.489 3.489 0 0 1 -2.711 3.484 3.641 3.641 0 0 1 2.971 3.725c.004 2.768-2.235 4.431-5.494 4.431z"/><path d="m56.138 45.576v3.192h-2.661v-3.192h-7.228v-1.885l6.651-9.933h3.238v9.755h2.239v2.063zm-2.661-8.936-4.612 6.873h4.612z"/><path d="m64.121 49.056a9.131 9.131 0 0 1 -4.412-1.086l.421-2.483a7.815 7.815 0 0 0 4.013 1.174c1.774 0 3.148-.82 3.148-2.616 0-1.485-.976-2.394-2.749-2.394a5.647 5.647 0 0 0 -2.328.443l-1.906-.421.532-7.892h8.36l.377 2.394h-6.5l-.267 3.5a8.019 8.019 0 0 1 2.262-.31c2.971 0 4.922 1.707 4.922 4.544.006 3.374-2.503 5.147-5.873 5.147z"/><path d="m78.311 39.411a4.192 4.192 0 0 1 4.434 4.568 5.029 5.029 0 0 1 -5.365 5.077c-3.26 0-5.566-2.194-5.566-6.341 0-5.276 3.526-8.159 8.381-9.245l.355 2.372c-2.927.688-5.277 2.04-5.964 4.723a6.564 6.564 0 0 1 3.725-1.154zm-.887 7.428a2.492 2.492 0 0 0 2.616-2.7c0-1.618-.82-2.527-2.616-2.527a4.966 4.966 0 0 0 -2.993 1.086c.022 2.656 1.242 4.141 2.993 4.141z"/><path d="m87.778 48.923-2.727-.532 5.5-12.172h-6.874l-.355-2.438h10.242v2.194z"/><path d="m95.605 37.46c0-2.394 2.084-3.967 5.078-3.967 3.059 0 4.944 1.618 4.944 3.791a4.272 4.272 0 0 1 -2.439 3.591c1.884.91 2.926 1.952 2.926 3.947 0 2.416-2.106 4.234-5.52 4.234-3.614 0-5.521-1.906-5.521-4.168 0-1.685 1.154-3.037 2.905-3.969a3.787 3.787 0 0 1 -2.373-3.459zm2.173 7.229c0 1.419 1.22 2.261 2.861 2.261 1.595 0 2.749-.842 2.749-2.151 0-1.374-.866-1.929-3.437-2.993a3.48 3.48 0 0 0 -2.173 2.883zm5.21-7.273c0-1.153-.886-1.884-2.394-1.884-1.53 0-2.35.82-2.35 1.884 0 1.131.8 1.707 2.948 2.573a3.143 3.143 0 0 0 1.796-2.573z"/><path d="m112.19 43.314c-2.7 0-4.5-1.618-4.5-4.656a5.041 5.041 0 0 1 5.343-5.165c3.281 0 5.588 2.194 5.588 6.34 0 5.277-3.57 8.247-8.581 9.245l-.354-2.372c2.993-.6 5.343-1.929 6.1-4.5a6.481 6.481 0 0 1 -3.596 1.108zm3.81-3.325c0-2.772-1.22-4.28-2.993-4.28a2.518 2.518 0 0 0 -2.607 2.791 2.33 2.33 0 0 0 2.616 2.639 4.942 4.942 0 0 0 2.984-1.062z"/></g></svg>