<svg viewBox="0 0 285.795 140" xmlns="http://www.w3.org/2000/svg" xmlns:xlink="http://www.w3.org/1999/xlink"><clipPath id="a"><path d="m121.432 283.205h285.795v113.168h-285.795z"/></clipPath><g fill="#ffc70a"><path d="m79.34 69.612c15.532-2.7 23.06-11.873 30.072-36.08 6.038-22.085 20.695-33.844 58.235-33.861-17.979 2.945-25.577 8.185-36.318 39.222-6.761 20.886-19.8 28.063-37.532 30.368a58.737 58.737 0 0 0 -7.016 1.294c-12.481 3.622-19.257 11.545-28.233 37.479-9.022 27.873-29.226 31.331-56.839 31.375h-.447c19.2-1.557 27.6-9.927 35.369-36.737 4.766-17.43 14.9-28.428 37.414-32.3.211-.036 5.234-.752 5.3-.763z"/><path d="m110.206 69.612c15.532-2.7 23.059-11.873 30.071-36.08 6.038-22.085 20.7-33.844 58.236-33.861-17.98 2.945-25.577 8.185-36.318 39.222-6.761 20.886-19.8 28.063-37.532 30.368a58.737 58.737 0 0 0 -7.016 1.294c-12.477 3.622-19.257 11.545-28.233 37.479-9.022 27.873-29.226 31.331-56.839 31.375h-.447c19.2-1.557 27.6-9.927 35.369-36.737 4.765-17.43 14.9-28.428 37.414-32.3.211-.036 5.234-.752 5.3-.763z"/><path d="m141.072 69.612c15.532-2.7 23.059-11.873 30.071-36.08 6.038-22.085 20.695-33.844 58.235-33.861-17.978 2.945-25.578 8.185-36.318 39.222-6.761 20.886-19.8 28.063-37.531 30.368a58.8 58.8 0 0 0 -7.017 1.294c-12.476 3.622-19.256 11.544-28.232 37.479-9.022 27.873-29.226 31.331-56.839 31.375h-.447c19.2-1.557 27.6-9.927 35.369-36.737 4.765-17.43 14.9-28.428 37.413-32.3.212-.036 5.234-.752 5.3-.763z"/></g><g clip-path="url(#a)"><g fill="#fff"><path d="m120.629 508.743-.053-1.278a33.081 33.081 0 0 0 11.051-2.534 21.078 21.078 0 0 0 7.963-6.288 35.909 35.909 0 0 0 4.232-6.972 90.428 90.428 0 0 0 4.92-13.566 38.944 38.944 0 0 1 6.493-13.755 30.756 30.756 0 0 1 11.954-9.265 49.543 49.543 0 0 1 11.184-3.419v-.115c.457-.039.906-.079 1.347-.126q1.71-.294 3.536-.518a27.468 27.468 0 0 0 6.082-1.852c.168-.076.334-.153.5-.232h2.675q-.38.235-.769.454a26.841 26.841 0 0 1 -8.269 2.9h-.021-.021q-1.82.224-3.518.514h-.021-.02c-.225.026-.453.047-.683.068v.054a42.74 42.74 0 0 0 -15.99 5.9 28.617 28.617 0 0 0 -9.533 10.357 42.449 42.449 0 0 0 -3.694 9.376 85.244 85.244 0 0 1 -5.674 15.154 29.259 29.259 0 0 1 -7.134 9.374 22.036 22.036 0 0 1 -6.118 3.6q-1.021.4-2.106.727a87.505 87.505 0 0 0 9.381-.889 39.549 39.549 0 0 0 13.94-4.58 27.6 27.6 0 0 0 7.26-6.083 38.65 38.65 0 0 0 7.031-13.3v-.006a120.965 120.965 0 0 1 6.346-15.503 36.5 36.5 0 0 1 6.511-9.383 21.923 21.923 0 0 1 4.98-3.732 30.334 30.334 0 0 1 7.957-2.85l.037-.009h.039a54.718 54.718 0 0 0 11.016-2.166l3.7-.006a37.56 37.56 0 0 1 -3.693 1.348 56.731 56.731 0 0 1 -10.853 2.088 27.73 27.73 0 0 0 -8.417 3.195 22.871 22.871 0 0 0 -6.715 6.414 47.454 47.454 0 0 0 -4.1 7.043 129.09 129.09 0 0 0 -5.59 13.955 38.468 38.468 0 0 1 -8.414 15 30.422 30.422 0 0 1 -12.427 7.8 51.665 51.665 0 0 1 -10.207 2.283 126.13 126.13 0 0 1 -15.727.819h-.362m341.413-289.974v-1.775a29.019 29.019 0 0 0 2.555-2.951 40.263 40.263 0 0 0 5.991-12v-.006-.007a116.838 116.838 0 0 1 6.663-16.1 33.913 33.913 0 0 1 6.917-9.456 21.849 21.849 0 0 1 5.375-3.615 35.642 35.642 0 0 1 8.715-2.669l.028-.005h.027a47.427 47.427 0 0 0 15.4-3.825 28.055 28.055 0 0 0 11.4-9.631 41.516 41.516 0 0 0 5.264-11v-.007-.005a112.355 112.355 0 0 1 7.043-16.809 31.383 31.383 0 0 1 7.41-9.507 22.348 22.348 0 0 1 5.867-3.463 30.731 30.731 0 0 1 2.997-1.034 77.113 77.113 0 0 0 -14.613 2.05 37.106 37.106 0 0 0 -14.062 6.5 28.241 28.241 0 0 0 -6.117 6.615 39.59 39.59 0 0 0 -5.087 11.669v.007a85.4 85.4 0 0 1 -5.674 15.134 29.284 29.284 0 0 1 -7.134 9.374 22.13 22.13 0 0 1 -6.12 3.6 34.553 34.553 0 0 1 -9.2 2.068l.009.1c-7.278 1.061-12.992 2.98-17.5 5.7a28.584 28.584 0 0 0 -10.28 10.582q-.556.977-1.058 2.01h-1.418a33.049 33.049 0 0 1 4.244-6.882 31.4 31.4 0 0 1 12.949-9.35 53.9 53.9 0 0 1 11.786-3.165l-.006-.168a33.087 33.087 0 0 0 11.051-2.534 21.079 21.079 0 0 0 7.964-6.289 35.967 35.967 0 0 0 4.232-6.971 90.462 90.462 0 0 0 4.918-13.557 39.369 39.369 0 0 1 6.16-13.323 30.306 30.306 0 0 1 11.156-9.17 46.491 46.491 0 0 1 10.9-3.667 94.782 94.782 0 0 1 19.7-1.794l.1 1.271a40.211 40.211 0 0 0 -10.4 2.833 21.325 21.325 0 0 0 -7.8 6.138 40.7 40.7 0 0 0 -4.594 7.258 120.66 120.66 0 0 0 -6.2 15.18c-2.182 6.735-5.179 11.778-8.92 15.521a31.159 31.159 0 0 1 -13.3 7.726 57.212 57.212 0 0 1 -10.912 2.076 32.288 32.288 0 0 0 -9.28 3.019 21.936 21.936 0 0 0 -7.2 6.3 44.124 44.124 0 0 0 -4.326 7.154 125 125 0 0 0 -5.87 14.525c-2.344 7.232-5.626 12.514-9.758 16.328"/><path d="m91.3 508.743-.053-1.278a33.075 33.075 0 0 0 11.05-2.534 21.081 21.081 0 0 0 7.964-6.288 35.909 35.909 0 0 0 4.232-6.972 90.428 90.428 0 0 0 4.92-13.566 38.944 38.944 0 0 1 6.493-13.755 30.748 30.748 0 0 1 11.954-9.265 49.511 49.511 0 0 1 11.184-3.419v-.115c.457-.039.905-.079 1.347-.126q1.71-.294 3.536-.518a27.443 27.443 0 0 0 6.073-1.852c.135-.059.267-.121.4-.183h2.7c-.227.138-.458.275-.691.405a26.841 26.841 0 0 1 -8.269 2.9h-.02-.022q-1.821.224-3.519.514h-.02-.02c-.226.026-.453.047-.683.068v.054a42.733 42.733 0 0 0 -15.99 5.9 28.62 28.62 0 0 0 -9.534 10.357 42.448 42.448 0 0 0 -3.693 9.376 85.244 85.244 0 0 1 -5.674 15.133 29.259 29.259 0 0 1 -7.134 9.374 22.036 22.036 0 0 1 -6.118 3.6q-1.021.4-2.106.727a87.505 87.505 0 0 0 9.381-.889 39.549 39.549 0 0 0 13.94-4.58 27.6 27.6 0 0 0 7.259-6.083 38.616 38.616 0 0 0 7.031-13.3v-.006a121.1 121.1 0 0 1 6.343-15.487 36.5 36.5 0 0 1 6.511-9.383 21.923 21.923 0 0 1 4.98-3.732 30.327 30.327 0 0 1 7.956-2.85l.038-.009h.038a54.958 54.958 0 0 0 10.869-2.114h3.735c-1.158.489-2.352.919-3.582 1.3a56.72 56.72 0 0 1 -10.852 2.088 27.73 27.73 0 0 0 -8.417 3.195 22.873 22.873 0 0 0 -6.716 6.414 47.544 47.544 0 0 0 -4.1 7.043 129.09 129.09 0 0 0 -5.59 13.955 38.468 38.468 0 0 1 -8.414 15 30.422 30.422 0 0 1 -12.427 7.8 51.665 51.665 0 0 1 -10.207 2.283 126.13 126.13 0 0 1 -15.727.819h-.356m334.8-318.386a33.061 33.061 0 0 1 4.263-6.93 31.417 31.417 0 0 1 12.951-9.35 53.843 53.843 0 0 1 11.787-3.165l-.007-.168a33.081 33.081 0 0 0 11.051-2.534 21.05 21.05 0 0 0 7.962-6.289 35.871 35.871 0 0 0 4.234-6.971 90.391 90.391 0 0 0 4.919-13.565 39.42 39.42 0 0 1 6.159-13.315 30.323 30.323 0 0 1 11.155-9.17 46.5 46.5 0 0 1 10.9-3.667 94.745 94.745 0 0 1 19.7-1.794l.1 1.271a40.2 40.2 0 0 0 -10.4 2.833 21.325 21.325 0 0 0 -7.8 6.138 40.642 40.642 0 0 0 -4.595 7.258 120.781 120.781 0 0 0 -6.2 15.18c-2.182 6.735-5.179 11.778-8.92 15.521a31.166 31.166 0 0 1 -13.292 7.726 57.233 57.233 0 0 1 -10.914 2.076 32.3 32.3 0 0 0 -9.281 3.019 21.941 21.941 0 0 0 -7.2 6.3 44.121 44.121 0 0 0 -4.328 7.154q-.569 1.149-1.143 2.412h-1.4c.71-1.594 1.418-3.058 2.13-4.405a33.99 33.99 0 0 1 6.915-9.456 21.962 21.962 0 0 1 5.375-3.615 35.658 35.658 0 0 1 8.717-2.669l.028-.005h.028a47.416 47.416 0 0 0 15.4-3.825 28.054 28.054 0 0 0 11.407-9.631 41.455 41.455 0 0 0 5.264-11v-.006-.006a112.334 112.334 0 0 1 7.045-16.809 31.383 31.383 0 0 1 7.41-9.507 22.359 22.359 0 0 1 5.866-3.463 30.75 30.75 0 0 1 2.979-1.029 77.1 77.1 0 0 0 -14.612 2.05 37.1 37.1 0 0 0 -14.063 6.5 28.262 28.262 0 0 0 -6.117 6.615 39.564 39.564 0 0 0 -5.087 11.669 85.469 85.469 0 0 1 -5.675 15.134 29.272 29.272 0 0 1 -7.135 9.374 22.114 22.114 0 0 1 -6.117 3.6 34.579 34.579 0 0 1 -9.2 2.068l.006.1c-7.275 1.061-12.991 2.98-17.5 5.7a28.589 28.589 0 0 0 -10.265 10.588q-.569 1-1.081 2.058h-1.416"/><path d="m61.972 508.743-.052-1.278a33.075 33.075 0 0 0 11.05-2.534 21.078 21.078 0 0 0 7.963-6.288 35.91 35.91 0 0 0 4.233-6.972 90.511 90.511 0 0 0 4.917-13.557 38.95 38.95 0 0 1 6.5-13.764 30.745 30.745 0 0 1 11.953-9.265 49.543 49.543 0 0 1 11.184-3.419v-.115c.457-.039.906-.079 1.348-.126q1.71-.294 3.536-.518a27.459 27.459 0 0 0 6.081-1.852c.1-.044.2-.089.3-.136h2.723c-.2.123-.406.243-.613.358a26.859 26.859 0 0 1 -8.269 2.9h-.021-.021q-1.821.224-3.519.514h-.02-.02c-.226.026-.453.047-.683.068v.054a42.733 42.733 0 0 0 -15.99 5.9 28.62 28.62 0 0 0 -9.534 10.357 42.5 42.5 0 0 0 -3.694 9.376v.009a85.4 85.4 0 0 1 -5.683 15.145 29.261 29.261 0 0 1 -7.135 9.374 22.007 22.007 0 0 1 -6.118 3.6q-1.022.4-2.106.727a87.456 87.456 0 0 0 9.381-.889 39.549 39.549 0 0 0 13.94-4.58 27.6 27.6 0 0 0 7.26-6.083 38.633 38.633 0 0 0 7.031-13.3v-.006a120.805 120.805 0 0 1 6.343-15.487 36.527 36.527 0 0 1 6.51-9.383 21.928 21.928 0 0 1 4.981-3.732 30.327 30.327 0 0 1 7.956-2.85l.038-.009h.038a55.373 55.373 0 0 0 10.72-2.082l3.774-.007q-1.683.7-3.468 1.252a56.735 56.735 0 0 1 -10.852 2.088 27.736 27.736 0 0 0 -8.418 3.195 22.871 22.871 0 0 0 -6.715 6.414 47.456 47.456 0 0 0 -4.1 7.043 129.09 129.09 0 0 0 -5.59 13.955 38.481 38.481 0 0 1 -8.414 15 30.429 30.429 0 0 1 -12.427 7.8 51.681 51.681 0 0 1 -10.207 2.283 126.13 126.13 0 0 1 -15.727.819h-.363m334.775-318.336a33.053 33.053 0 0 1 4.287-6.978 31.417 31.417 0 0 1 12.951-9.35 53.833 53.833 0 0 1 11.786-3.165l-.008-.168a33.063 33.063 0 0 0 11.051-2.534 21.064 21.064 0 0 0 7.964-6.289 35.917 35.917 0 0 0 4.231-6.971 90.6 90.6 0 0 0 4.921-13.565 39.418 39.418 0 0 1 6.158-13.315 30.306 30.306 0 0 1 11.157-9.17 46.523 46.523 0 0 1 10.9-3.667 94.789 94.789 0 0 1 19.7-1.794l.1 1.271a40.217 40.217 0 0 0 -10.4 2.833 21.292 21.292 0 0 0 -7.8 6.138 40.586 40.586 0 0 0 -4.594 7.258 120.766 120.766 0 0 0 -6.2 15.18c-2.181 6.735-5.178 11.778-8.919 15.521a31.163 31.163 0 0 1 -13.293 7.726 57.263 57.263 0 0 1 -10.914 2.076 32.308 32.308 0 0 0 -9.28 3.019 21.949 21.949 0 0 0 -7.2 6.3 44.339 44.339 0 0 0 -4.325 7.154q-.582 1.172-1.167 2.459h-1.4q1.079-2.418 2.152-4.453a33.913 33.913 0 0 1 6.917-9.456 21.849 21.849 0 0 1 5.375-3.615 35.669 35.669 0 0 1 8.715-2.669l.028-.005h.029a47.428 47.428 0 0 0 15.4-3.825 28.055 28.055 0 0 0 11.405-9.631 41.393 41.393 0 0 0 5.264-11v-.007-.005a112.355 112.355 0 0 1 7.043-16.809 31.414 31.414 0 0 1 7.41-9.507 22.38 22.38 0 0 1 5.867-3.463 30.731 30.731 0 0 1 2.978-1.029 77.067 77.067 0 0 0 -14.611 2.05 37.077 37.077 0 0 0 -14.062 6.5 28.207 28.207 0 0 0 -6.119 6.615 39.642 39.642 0 0 0 -5.087 11.669 85.4 85.4 0 0 1 -5.674 15.134 29.284 29.284 0 0 1 -7.134 9.374 22.119 22.119 0 0 1 -6.118 3.6 34.548 34.548 0 0 1 -9.2 2.067l.009.1c-7.278 1.061-12.992 2.98-17.5 5.7a28.6 28.6 0 0 0 -10.28 10.582q-.582 1.022-1.1 2.1h-1.416"/></g><path d="m472.519 113.227a94.913 94.913 0 0 0 -19.744 1.8 46.752 46.752 0 0 0 -10.953 3.684 30.528 30.528 0 0 0 -11.231 9.235 39.617 39.617 0 0 0 -6.193 13.383 90.228 90.228 0 0 1 -4.906 13.533 35.729 35.729 0 0 1 -4.208 6.931 20.883 20.883 0 0 1 -7.884 6.227 32.834 32.834 0 0 1 -10.98 2.515l.008.173a54.073 54.073 0 0 0 -11.849 3.176 31.611 31.611 0 0 0 -13.037 9.413 38.618 38.618 0 0 0 -6.949 14.364 97.242 97.242 0 0 1 -4.233 12.057 42.089 42.089 0 0 1 -3.538 6.56 22.73 22.73 0 0 1 -6.339 6.473 23.72 23.72 0 0 1 -8.283 3.316 74.506 74.506 0 0 0 -16.482 2.568 40.578 40.578 0 0 0 -9.308 3.9 29.939 29.939 0 0 0 -9.7 8.977 40.657 40.657 0 0 0 -5.535 12.47 90.46 90.46 0 0 1 -4.9 13.52 35.769 35.769 0 0 1 -4.208 6.93c-2.272 2.851-1.771 4.839-4.834 6.227-2.206 1-7.736 1.682-10.567 2.117-.4.062-4.087.774-4.4.831a52.315 52.315 0 0 0 -10.3 2.911 31.625 31.625 0 0 0 -13.043 9.414 38.616 38.616 0 0 0 -6.947 14.356c-2.564 8.85-5.208 15.157-8.426 19.56a21.248 21.248 0 0 1 -11.918 8.346 81.261 81.261 0 0 0 -17.569 2.3 42.693 42.693 0 0 0 -9.891 3.834 30.121 30.121 0 0 0 -10.248 9.082 40.266 40.266 0 0 0 -5.77 12.8 98.744 98.744 0 0 1 -4.107 11.773c-2.155 4.958-4.51 8.572-7.3 11.185a20.181 20.181 0 0 1 -4.561 3.231 24.422 24.422 0 0 1 -5.442 2 67.911 67.911 0 0 0 -15.307 2.831 33.48 33.48 0 0 0 -15.251 9.492 37.574 37.574 0 0 0 -7.835 15.4 96.155 96.155 0 0 1 -4.326 12.27 41.259 41.259 0 0 1 -3.624 6.619 22.369 22.369 0 0 1 -6.535 6.452 24.568 24.568 0 0 1 -8.643 3.226q-1.8.222-3.489.511c-.446.049-.9.089-1.361.128v.129a49.74 49.74 0 0 0 -11.255 3.424 30.967 30.967 0 0 0 -12.034 9.329 39.127 39.127 0 0 0 -6.529 13.826 90.212 90.212 0 0 1 -4.908 13.533 35.639 35.639 0 0 1 -4.207 6.93 20.861 20.861 0 0 1 -7.884 6.228 32.84 32.84 0 0 1 -10.98 2.515l.07 1.7h.363a126.279 126.279 0 0 0 15.754-.821 51.776 51.776 0 0 0 10.249-2.293 30.628 30.628 0 0 0 12.512-7.854 38.665 38.665 0 0 0 8.458-15.073 129.033 129.033 0 0 1 5.582-13.938 47.231 47.231 0 0 1 4.083-7.013 22.657 22.657 0 0 1 6.653-6.34 27.444 27.444 0 0 1 8.358-3.169 56.905 56.905 0 0 0 10.863-2.095 31.326 31.326 0 0 0 13.32-7.785c3.75-3.766 6.749-8.827 8.932-15.56a131.2 131.2 0 0 1 5.41-13.582 49.574 49.574 0 0 1 3.948-6.937 23.448 23.448 0 0 1 6.373-6.416 25.34 25.34 0 0 1 7.844-3.274 67.231 67.231 0 0 0 11.929-1.792 37.757 37.757 0 0 0 7.859-2.913 29.3 29.3 0 0 0 9.671-7.873 40.833 40.833 0 0 0 6.767-13.136 133.488 133.488 0 0 1 5.27-13.284 51.429 51.429 0 0 1 3.839-6.87 24.161 24.161 0 0 1 6.152-6.461 23.892 23.892 0 0 1 7.437-3.358 88.37 88.37 0 0 0 13.628-1.315 43.347 43.347 0 0 0 8.963-2.64 29.692 29.692 0 0 0 10.984-7.914 39.748 39.748 0 0 0 7.553-14.078 123.182 123.182 0 0 1 5.985-14.753 42.533 42.533 0 0 1 4.4-7.161 21.421 21.421 0 0 1 7.348-6.181 34.749 34.749 0 0 1 9.636-2.927 53.431 53.431 0 0 0 10.439-2.224 30.835 30.835 0 0 0 12.78-7.834c3.607-3.734 6.5-8.7 8.624-15.255a128.809 128.809 0 0 1 5.576-13.917 47.289 47.289 0 0 1 4.08-7.013 22.682 22.682 0 0 1 6.651-6.355 27.41 27.41 0 0 1 8.33-3.165 77.242 77.242 0 0 0 12.82-1.543 40.506 40.506 0 0 0 8.431-2.775 29.467 29.467 0 0 0 10.351-7.906 40.265 40.265 0 0 0 7.174-13.636 124.944 124.944 0 0 1 5.861-14.507 44.055 44.055 0 0 1 4.3-7.12 21.742 21.742 0 0 1 7.13-6.238 32.114 32.114 0 0 1 9.224-3 57.524 57.524 0 0 0 10.932-2.081 31.345 31.345 0 0 0 13.379-7.78c3.771-3.772 6.785-8.849 8.976-15.613a120.749 120.749 0 0 1 6.184-15.141 40.484 40.484 0 0 1 4.571-7.22 21.082 21.082 0 0 1 7.725-6.079 40 40 0 0 1 10.347-2.816zm-259.851 229.3a22.743 22.743 0 0 0 -4.606 3.882 39.974 39.974 0 0 0 -6.107 9.311 125.939 125.939 0 0 0 -5.993 14.8v.008.008a40.575 40.575 0 0 1 -5.628 11.493 28 28 0 0 1 -5.6 5.785 31.389 31.389 0 0 1 -10.546 5.17 62.467 62.467 0 0 1 -13.047 2.11s1.667-.124-.076 0a38.467 38.467 0 0 0 -5.074 1.019c-2.8.708-.292.635-2.573 1.99a22.394 22.394 0 0 0 -4.793 3.833 38.421 38.421 0 0 0 -6.3 9.373 123.433 123.433 0 0 0 -6.156 15.124v.007.008a41.287 41.287 0 0 1 -5.216 10.916 27.854 27.854 0 0 1 -11.27 9.554 46.915 46.915 0 0 1 -15.255 3.824h-.052l-.049.013a30.453 30.453 0 0 0 -8.012 2.871 22.155 22.155 0 0 0 -5.028 3.767 36.7 36.7 0 0 0 -6.551 9.436 121.16 121.16 0 0 0 -6.354 15.514v.007.008a38.432 38.432 0 0 1 -7.01 13.242 27.406 27.406 0 0 1 -7.2 6.038 39.364 39.364 0 0 1 -13.872 4.554c-2.481.388-5.1.637-7.834.8.22-.08.454-.143.67-.228a22.31 22.31 0 0 0 6.176-3.63 29.464 29.464 0 0 0 7.188-9.44 85.5 85.5 0 0 0 5.689-15.172v-.006-.006a42.229 42.229 0 0 1 3.675-9.33 28.4 28.4 0 0 1 9.463-10.28 42.539 42.539 0 0 1 15.912-5.872l-.005-.058c.222-.02.448-.038.667-.062h.027l.027-.006q1.694-.288 3.508-.512h.029.027a26.988 26.988 0 0 0 8.334-2.92 22.053 22.053 0 0 0 5.053-3.916 33.817 33.817 0 0 0 6.072-9.158 91.861 91.861 0 0 0 5-13.777v-.006-.007a40.83 40.83 0 0 1 4.333-10.468 28.587 28.587 0 0 1 4.987-6.16 32.16 32.16 0 0 1 11.1-6.574 63.317 63.317 0 0 1 16.551-3.294h.068l.066-.016a24.917 24.917 0 0 0 7.618-3.167 22.562 22.562 0 0 0 4.66-3.991 35.882 35.882 0 0 0 5.674-9 94.613 94.613 0 0 0 4.74-13.226v-.007a39.967 39.967 0 0 1 4.725-11.1 28.18 28.18 0 0 1 5.567-6.393 34.481 34.481 0 0 1 12.628-6.541 69.835 69.835 0 0 1 15.045-2.532 24.473 24.473 0 0 0 -5.072 2.392zm119.225-109.191a36.8 36.8 0 0 0 -6.549 9.435 121.5 121.5 0 0 0 -6.351 15.51v.008.008a41.552 41.552 0 0 1 -5.044 10.663 27.83 27.83 0 0 1 -10.822 9.5 44.3 44.3 0 0 1 -14.6 3.982h-.023-.026a38.814 38.814 0 0 0 -9.118 2.609 22.2 22.2 0 0 0 -5.609 3.594 33.168 33.168 0 0 0 -7.151 9.555 115.265 115.265 0 0 0 -6.821 16.4v.008.008a39.511 39.511 0 0 1 -6.263 12.335 27.569 27.569 0 0 1 -6.339 5.933 34.56 34.56 0 0 1 -12.071 4.917 72.219 72.219 0 0 1 -11.154 1.435 22.433 22.433 0 0 0 9.654-6.714 37.267 37.267 0 0 0 5.426-8.892 96.181 96.181 0 0 0 4.576-12.865v-.007-.006a41.8 41.8 0 0 1 3.887-9.708 28.384 28.384 0 0 1 10.211-10.506 43.8 43.8 0 0 1 14.956-5.27c.8-.146 3.5-.71 4.015-.785 2.587-.379 7.993-.951 10.134-1.794a22.323 22.323 0 0 0 6.177-3.631c2.779-2.314 2.061-5.406 4.138-9.44a85.576 85.576 0 0 0 5.689-15.172v-.007a40.353 40.353 0 0 1 4.537-10.8 28.345 28.345 0 0 1 5.285-6.284 33.277 33.277 0 0 1 11.883-6.566 67.344 67.344 0 0 1 16.247-2.914 25.533 25.533 0 0 0 -3.855 1.7 22.223 22.223 0 0 0 -5.019 3.761zm124.839-114.111a31.612 31.612 0 0 0 -7.461 9.57 112.485 112.485 0 0 0 -7.058 16.841v.009.007a41.241 41.241 0 0 1 -5.237 10.944 27.856 27.856 0 0 1 -11.321 9.559 47.232 47.232 0 0 1 -15.332 3.806h-.038l-.036.007a35.83 35.83 0 0 0 -8.766 2.685 22.16 22.16 0 0 0 -5.429 3.65 34.171 34.171 0 0 0 -6.959 9.514 117.1 117.1 0 0 0 -6.678 16.134v.009.008a39.968 39.968 0 0 1 -5.957 11.938 27.709 27.709 0 0 1 -5.983 5.869 32.927 32.927 0 0 1 -11.332 5.048 68.419 68.419 0 0 1 -12.533 1.75 23.428 23.428 0 0 0 3.944-1.854 22.307 22.307 0 0 0 4.891-3.951 34.663 34.663 0 0 0 5.906-9.1 92.6 92.6 0 0 0 4.892-13.553v-.007a41.767 41.767 0 0 1 3.886-9.706 28.369 28.369 0 0 1 10.2-10.5c4.475-2.7 10.161-4.616 17.417-5.674l-.009-.118a34.9 34.9 0 0 0 9.247-2.062 22.339 22.339 0 0 0 6.176-3.63 29.52 29.52 0 0 0 7.188-9.441 85.576 85.576 0 0 0 5.689-15.172v-.006-.006a39.367 39.367 0 0 1 5.057-11.606 28 28 0 0 1 6.073-6.566 36.881 36.881 0 0 1 13.983-6.462 74.291 74.291 0 0 1 12.917-1.936c-.476.166-.958.324-1.416.511a22.594 22.594 0 0 0 -5.921 3.491z" fill="#ffc70a"/><path d="m3.316 508.743-.053-1.278a33.069 33.069 0 0 0 11.05-2.534 21.07 21.07 0 0 0 7.963-6.288 35.861 35.861 0 0 0 4.233-6.972 90.392 90.392 0 0 0 4.918-13.557 38.932 38.932 0 0 1 6.495-13.764 30.756 30.756 0 0 1 11.954-9.265 49.543 49.543 0 0 1 11.184-3.419l-.005-.115c.457-.039.905-.079 1.347-.126q1.71-.294 3.536-.518a27.452 27.452 0 0 0 6.082-1.852c.029-.012.059-.027.089-.04h2.772c-.15.089-.3.177-.455.262a26.841 26.841 0 0 1 -8.269 2.9h-.021-.021q-1.819.224-3.518.514h-.021-.02c-.225.026-.453.047-.682.068v.054a42.733 42.733 0 0 0 -15.99 5.9 28.629 28.629 0 0 0 -9.534 10.357 42.5 42.5 0 0 0 -3.693 9.376 85.322 85.322 0 0 1 -5.673 15.154 29.247 29.247 0 0 1 -7.135 9.374 22.016 22.016 0 0 1 -6.117 3.6q-1.021.4-2.106.727a87.505 87.505 0 0 0 9.381-.889 39.549 39.549 0 0 0 13.94-4.58 27.6 27.6 0 0 0 7.26-6.083 38.632 38.632 0 0 0 7.03-13.3v-.006a121.1 121.1 0 0 1 6.343-15.487 36.5 36.5 0 0 1 6.511-9.383 21.945 21.945 0 0 1 4.98-3.732 30.327 30.327 0 0 1 7.956-2.85l.038-.009h.038a56.071 56.071 0 0 0 10.4-1.969l3.856-.006c-1.05.431-2.129.813-3.238 1.156a56.705 56.705 0 0 1 -10.852 2.088 27.73 27.73 0 0 0 -8.417 3.195 22.871 22.871 0 0 0 -6.715 6.414 47.454 47.454 0 0 0 -4.1 7.043 129.09 129.09 0 0 0 -5.59 13.955 38.468 38.468 0 0 1 -8.414 15 30.422 30.422 0 0 1 -12.427 7.8 51.665 51.665 0 0 1 -10.207 2.283 126.13 126.13 0 0 1 -15.727.819h-.356m334.732-318.26a33.125 33.125 0 0 1 4.33-7.073 31.417 31.417 0 0 1 12.951-9.35 53.833 53.833 0 0 1 11.786-3.165l-.006-.168a33.087 33.087 0 0 0 11.051-2.534 21.073 21.073 0 0 0 7.962-6.289 35.871 35.871 0 0 0 4.234-6.971 90.4 90.4 0 0 0 4.918-13.565 39.457 39.457 0 0 1 6.158-13.315 30.346 30.346 0 0 1 11.157-9.17 46.493 46.493 0 0 1 10.9-3.667 94.755 94.755 0 0 1 19.7-1.794l.1 1.271a40.217 40.217 0 0 0 -10.4 2.833 21.325 21.325 0 0 0 -7.8 6.138 40.7 40.7 0 0 0 -4.594 7.258 120.766 120.766 0 0 0 -6.2 15.18c-2.182 6.735-5.178 11.778-8.919 15.521a31.169 31.169 0 0 1 -13.293 7.726 57.263 57.263 0 0 1 -10.914 2.076 32.308 32.308 0 0 0 -9.28 3.019 21.931 21.931 0 0 0 -7.2 6.3 44.121 44.121 0 0 0 -4.328 7.154q-.6 1.213-1.21 2.555h-1.4c.732-1.649 1.461-3.161 2.2-4.548a33.95 33.95 0 0 1 6.915-9.456 21.924 21.924 0 0 1 5.375-3.615 35.669 35.669 0 0 1 8.715-2.669l.03-.005h.027a47.435 47.435 0 0 0 15.4-3.825 28.074 28.074 0 0 0 11.407-9.631 41.454 41.454 0 0 0 5.262-11v-.006-.006a112.123 112.123 0 0 1 7.045-16.809 31.394 31.394 0 0 1 7.407-9.507 22.435 22.435 0 0 1 5.868-3.463 30.77 30.77 0 0 1 2.98-1.029 77.113 77.113 0 0 0 -14.613 2.05 37.077 37.077 0 0 0 -14.062 6.5 28.241 28.241 0 0 0 -6.117 6.615 39.538 39.538 0 0 0 -5.087 11.669v.007a85.4 85.4 0 0 1 -5.674 15.134 29.272 29.272 0 0 1 -7.135 9.374 22.1 22.1 0 0 1 -6.117 3.6 34.6 34.6 0 0 1 -9.2 2.068l.007.1c-7.276 1.061-12.992 2.98-17.5 5.7a28.594 28.594 0 0 0 -10.272 10.582c-.408.711-.789 1.445-1.15 2.2z" fill="#fff"/></g></svg>