<svg xmlns="http://www.w3.org/2000/svg" viewBox="0 0 285.795 54.5">
  <title>ws2018-icons</title>
  <g id="grid">
    <g>
      <polygon id="Shape" points="-0.883 14.5 23.117 14.5 23.117 38.5 -0.883 38.5 -0.883 14.5" fill="none"/>
      <g id="Group">
        <path d="M11.412,19.2h0a1,1,0,0,0,0,1.411L16.287,25.5H3.117a1,1,0,0,0-1,1h0a1,1,0,0,0,1,1H18.825a1.152,1.152,0,0,0,.949-.5h0a.729.729,0,0,0-.086-.929L12.822,19.2A1,1,0,0,0,11.412,19.2Z" fill="#0c0755"/>
        <path d="M16.287,28.5l-3.876,3.884a1,1,0,0,0,0,1.411h0a1,1,0,0,0,1.41,0l3.741-3.741a1,1,0,0,0-1.09-1.631Z" fill="#0c0755"/>
      </g>
    </g>
    <g>
      <polygon points="35.617 14.5 59.617 14.5 59.617 38.5 35.617 38.5 35.617 14.5" fill="none"/>
      <g>
        <path d="M47.322,19.2h0a1,1,0,0,1,0,1.411L42.447,25.5h13.17a1,1,0,0,1,1,1h0a1,1,0,0,1-1,1H39.909a1.149,1.149,0,0,1-.949-.5h0a.73.73,0,0,1,.085-.929L45.912,19.2A1,1,0,0,1,47.322,19.2Z" fill="#0c0755"/>
        <path d="M42.447,28.5l3.876,3.884a1,1,0,0,1,0,1.411h0a1,1,0,0,1-1.41,0l-3.741-3.741a1,1,0,0,1,1.089-1.631Z" fill="#0c0755"/>
      </g>
    </g>
    <g>
      <polygon points="72.117 14.5 96.117 14.5 96.117 38.5 72.117 38.5 72.117 14.5" fill="none"/>
      <g id="Group-2">
        <path d="M83.117,32.5a1,1,0,0,1-.707-1.707l9-9a1,1,0,0,1,1.415,1.414l-9,9A1,1,0,0,1,83.117,32.5Z" fill="#0c0755"/>
        <path d="M80.916,30.3a1,1,0,0,1-.707-.293l-2.8-2.8a1,1,0,1,1,1.414-1.414l2.8,2.8a1,1,0,0,1-.707,1.707Z" fill="#0c0755"/>
      </g>
    </g>
    <g>
      <polygon points="108.617 14.5 132.617 14.5 132.617 38.5 108.617 38.5 108.617 14.5" fill="none"/>
      <g id="Group-5">
        <path id="Combined-Shape" d="M118.617,32.5a8,8,0,1,1,8-8A8,8,0,0,1,118.617,32.5Zm0-2a6,6,0,1,0-6-6A6,6,0,0,0,118.617,30.5Z" fill="#0c0755"/>
        <path id="Path-2" d="M130.617,36.5l-4-4" fill="none" stroke="#0c0755" stroke-linecap="round" stroke-width="2"/>
      </g>
    </g>
    <g>
      <polygon points="145.117 14.5 169.117 14.5 169.117 38.5 145.117 38.5 145.117 14.5" fill="none"/>
      <g>
        <path d="M150.117,34.5a1,1,0,0,1-.707-1.707l14-14a1,1,0,1,1,1.414,1.414l-14,14A1,1,0,0,1,150.117,34.5Z" fill="#0c0755"/>
        <path d="M155.044,25.431a1,1,0,0,1-.707-.293l-4.929-4.931a1,1,0,0,1,1.414-1.414l4.929,4.931a1,1,0,0,1-.707,1.707Z" fill="#0c0755"/>
        <path d="M164.117,34.5a1,1,0,0,1-.707-.293l-5-5a1,1,0,0,1,1.414-1.414l5,5a1,1,0,0,1-.707,1.707Z" fill="#0c0755"/>
      </g>
    </g>
    <g>
      <circle id="Oval" cx="200.575" cy="27" r="16" fill="#ffc600"/>
      <g>
        <path id="Rectangle" d="M199.575,34h2a1,1,0,0,1,1,1h0a1,1,0,0,1-1,1h-2a1,1,0,0,1-1-1h0A1,1,0,0,1,199.575,34Z" fill="#fff"/>
        <path d="M200.574,18.5h0a5.348,5.348,0,0,0-5.5,5.153,7.654,7.654,0,0,0,1.4,3.773,5.772,5.772,0,0,1,.619,1.207.97.97,0,0,0,.975.867c.025,0,.05,0,.076,0a1,1,0,0,0,.681-.343.915.915,0,0,0,.219-.677,5.1,5.1,0,0,0-.873-2,6.2,6.2,0,0,1-1.134-2.826,3.553,3.553,0,0,1,7.083,0,6.183,6.183,0,0,1-1.137,2.829,5.118,5.118,0,0,0-.87,1.994.922.922,0,0,0,.22.678,1.03,1.03,0,0,0,.751.342h0a.96.96,0,0,0,.975-.868,5.7,5.7,0,0,1,.619-1.205,7.649,7.649,0,0,0,1.395-3.773A5.346,5.346,0,0,0,200.574,18.5Z" fill="#fff"/>
        <path id="Rectangle-Copy" d="M197.575,31h6a1,1,0,0,1,1,1h0a1,1,0,0,1-1,1h-6a1,1,0,0,1-1-1h0A1,1,0,0,1,197.575,31Z" fill="#fff"/>
      </g>
    </g>
    <g>
      <circle cx="245.075" cy="27" r="16" fill="#dddde3"/>
      <path d="M252.969,32.552a7.71,7.71,0,0,0-4.4-3.984,5,5,0,1,0-6.986,0,7.707,7.707,0,0,0-4.4,3.986,1,1,0,1,0,1.789.894c1.16-2.319,3.156-3.447,6.1-3.447s4.945,1.128,6.108,3.448a1,1,0,0,0,1.787-.9ZM245.076,22a3,3,0,1,1-3,3A3,3,0,0,1,245.076,22Z" fill="#fff"/>
    </g>
  </g>
</svg>
