<svg viewBox="0 0 285.795 133.902" xmlns="http://www.w3.org/2000/svg" xmlns:xlink="http://www.w3.org/1999/xlink"><linearGradient id="a" gradientUnits="userSpaceOnUse" x1="42.418" x2="-21.114" y1="107.584" y2="6.275"><stop offset="0" stop-color="#0a0b52"/><stop offset="1" stop-color="#1f1555"/></linearGradient><linearGradient id="b" x1="261.389" x2="209.586" xlink:href="#a" y1="57.093" y2="-25.515"/><linearGradient id="c" gradientTransform="matrix(970.108 0 0 -729.634 2018253.305 -9370.055)" gradientUnits="userSpaceOnUse" x1="-2080.1" x2="-2080.333" y1="-12.572" y2="-13.005"><stop offset="0" stop-color="#ffb300"/><stop offset="1" stop-color="#ffc600"/></linearGradient><path d="m0 19.007v81.261q43.595 48.938 90.856 24.232-58.834-24.179-90.856-105.493z" fill="url(#a)"/><path d="m285.8 30.951c-35.35-29.941-66.979-36.096-92.948-18.089.228.076 2.347.514 2.574.59q65.074 21.774 90.374 80.963z" fill="url(#b)"/><path d="m136.675 37.484c21.337-33.674 47.759-39.137 92.3-34.6-30.42 1.376-47.2 15.029-67.109 72.281-16.726 51.415-54 57.738-104.938 57.738h-.824c31.522-2.506 51.485-21.71 63.439-54.887 1-2.787 4.791-13.809 8.031-22.311a105.622 105.622 0 0 1 9.101-18.221z" fill="url(#c)"/></svg>