<svg viewBox="0 0 285.795 54.5" xmlns="http://www.w3.org/2000/svg"><path d="m-.883 14.5h24v24h-24z" fill="none"/><path d="m11.412 19.2a1 1 0 0 0 0 1.411l4.875 4.889h-13.17a1 1 0 0 0 -1 1 1 1 0 0 0 1 1h15.708a1.152 1.152 0 0 0 .949-.5.729.729 0 0 0 -.086-.929l-6.866-6.871a1 1 0 0 0 -1.41 0z" fill="#0c0755"/><path d="m16.287 28.5-3.876 3.884a1 1 0 0 0 0 1.411 1 1 0 0 0 1.41 0l3.741-3.741a1 1 0 0 0 -1.09-1.631z" fill="#0c0755"/><path d="m35.617 14.5h24v24h-24z" fill="none"/><path d="m47.322 19.2a1 1 0 0 1 0 1.411l-4.875 4.889h13.17a1 1 0 0 1 1 1 1 1 0 0 1 -1 1h-15.708a1.149 1.149 0 0 1 -.949-.5.73.73 0 0 1 .085-.929l6.867-6.871a1 1 0 0 1 1.41 0z" fill="#0c0755"/><path d="m42.447 28.5 3.876 3.884a1 1 0 0 1 0 1.411 1 1 0 0 1 -1.41 0l-3.741-3.741a1 1 0 0 1 1.089-1.631z" fill="#0c0755"/><path d="m72.117 14.5h24v24h-24z" fill="none"/><path d="m83.117 32.5a1 1 0 0 1 -.707-1.707l9-9a1 1 0 0 1 1.415 1.414l-9 9a1 1 0 0 1 -.708.293z" fill="#0c0755"/><path d="m80.916 30.3a1 1 0 0 1 -.707-.293l-2.8-2.8a1 1 0 1 1 1.414-1.414l2.8 2.8a1 1 0 0 1 -.707 1.707z" fill="#0c0755"/><path d="m108.617 14.5h24v24h-24z" fill="none"/><path d="m118.617 32.5a8 8 0 1 1 8-8 8 8 0 0 1 -8 8zm0-2a6 6 0 1 0 -6-6 6 6 0 0 0 6 6z" fill="#0c0755"/><path d="m130.617 36.5-4-4" fill="none" stroke="#0c0755" stroke-linecap="round" stroke-width="2"/><path d="m145.117 14.5h24v24h-24z" fill="none"/><g fill="#0c0755"><path d="m150.117 34.5a1 1 0 0 1 -.707-1.707l14-14a1 1 0 1 1 1.414 1.414l-14 14a1 1 0 0 1 -.707.293z"/><path d="m155.044 25.431a1 1 0 0 1 -.707-.293l-4.929-4.931a1 1 0 0 1 1.414-1.414l4.929 4.931a1 1 0 0 1 -.707 1.707z"/><path d="m164.117 34.5a1 1 0 0 1 -.707-.293l-5-5a1 1 0 0 1 1.414-1.414l5 5a1 1 0 0 1 -.707 1.707z"/></g><circle cx="200.575" cy="27" fill="#ffc600" r="16"/><path d="m199.575 34h2a1 1 0 0 1 1 1 1 1 0 0 1 -1 1h-2a1 1 0 0 1 -1-1 1 1 0 0 1 1-1z" fill="#fff"/><path d="m200.574 18.5a5.348 5.348 0 0 0 -5.5 5.153 7.654 7.654 0 0 0 1.4 3.773 5.772 5.772 0 0 1 .619 1.207.97.97 0 0 0 .975.867h.076a1 1 0 0 0 .681-.343.915.915 0 0 0 .219-.677 5.1 5.1 0 0 0 -.873-2 6.2 6.2 0 0 1 -1.134-2.826 3.553 3.553 0 0 1 7.083 0 6.183 6.183 0 0 1 -1.137 2.829 5.118 5.118 0 0 0 -.87 1.994.922.922 0 0 0 .22.678 1.03 1.03 0 0 0 .751.342.96.96 0 0 0 .975-.868 5.7 5.7 0 0 1 .619-1.205 7.649 7.649 0 0 0 1.395-3.773 5.346 5.346 0 0 0 -5.499-5.151z" fill="#fff"/><path d="m197.575 31h6a1 1 0 0 1 1 1 1 1 0 0 1 -1 1h-6a1 1 0 0 1 -1-1 1 1 0 0 1 1-1z" fill="#fff"/><circle cx="245.075" cy="27" fill="#dddde3" r="16"/><path d="m252.969 32.552a7.71 7.71 0 0 0 -4.4-3.984 5 5 0 1 0 -6.986 0 7.707 7.707 0 0 0 -4.4 3.986 1 1 0 1 0 1.789.894c1.16-2.319 3.156-3.447 6.1-3.447s4.945 1.128 6.108 3.448a1 1 0 0 0 1.787-.9zm-7.893-10.552a3 3 0 1 1 -3 3 3 3 0 0 1 3-3z" fill="#fff"/></svg>