<svg xmlns="http://www.w3.org/2000/svg" viewBox="0 0 286.393 208">
  <title>ws2018-icons</title>
  <g id="grid">
    <g id="Design">
      <g id="Group-29">
        <g id="Group-28">
          <rect id="Rectangle" x="2.549" y="111.209" width="79.8" height="96.52" fill="none"/>
          <g id="Group-24">
            <polyline id="Path-3-Copy" points="71.008 205.672 1.71 205.672 1.71 188.068" fill="none" stroke="#c3c3c3" stroke-linecap="round" stroke-width="0.514"/>
            <path id="Path" d="M72.96,195.778h-.011c-4.6-.034-6.384-7.058-8.274-14.5-1.325-5.209-3.138-12.342-5.552-12.361h-.008c-2.409,0-4.325,7.1-5.724,12.278-1.994,7.39-3.879,14.371-8.451,14.372h-.033c-4.6-.035-6.384-7.058-8.273-14.5-1.324-5.209-3.138-12.343-5.552-12.361h-.009c-2.41,0-4.324,7.1-5.723,12.281-2,7.39-3.88,14.371-8.451,14.371h-.04c-4.6-.033-6.384-7.057-8.273-14.494-1.325-5.209-3.138-12.343-5.552-12.362a1.415,1.415,0,0,1,.01-2.829h.011c4.6.034,6.384,7.058,8.273,14.494,1.324,5.209,3.139,12.342,5.552,12.362h.009c2.409,0,4.324-7.1,5.723-12.279,2-7.39,3.88-14.372,8.451-14.372H31.1c4.6.034,6.384,7.058,8.274,14.494,1.323,5.21,3.138,12.343,5.551,12.362h.01c2.409,0,4.324-7.1,5.723-12.281,1.995-7.39,3.88-14.371,8.451-14.371h.034c4.6.033,6.384,7.058,8.274,14.494,1.324,5.209,3.139,12.343,5.552,12.362a1.415,1.415,0,0,1-.01,2.83Z" fill="#c3c3c3" fill-rule="evenodd"/>
            <g id="WEIGHT">
              <path id="path-1" d="M.576,156.207c.056.006.142.021.259.045s.208.043.26.056l1.17.3v.538l-2.233.57v-.466l1.219-.286q.338-.075.585-.108c-.062-.007-.151-.021-.27-.042s-.216-.043-.283-.062l-1.251-.326v-.447l1.251-.325c.056-.015.142-.032.257-.054s.213-.038.3-.049c-.083-.01-.18-.027-.3-.049s-.215-.042-.288-.061l-1.219-.284v-.466l2.233.569v.539l-1.173.3c-.042.011-.128.03-.259.057s-.218.043-.263.047Zm1.689-3.842v1.286H.032v-1.286H.42v.813H.91v-.756H1.3v.756h.576v-.813Zm0-1.226H.032v-.473H2.265ZM1.011,148.5v-.886H2.169a2.4,2.4,0,0,1,.1.406,2.605,2.605,0,0,1,.029.388.983.983,0,0,1-.3.772,1.235,1.235,0,0,1-.853.267,1.128,1.128,0,0,1-.844-.309,1.177,1.177,0,0,1-.3-.858,1.672,1.672,0,0,1,.137-.663l.379.157a1.132,1.132,0,0,0-.122.509.629.629,0,0,0,.206.492.8.8,0,0,0,.555.185.893.893,0,0,0,.555-.149.515.515,0,0,0,.192-.433,1.562,1.562,0,0,0-.031-.3H1.405v.423Zm1.254-4.007v.472H1.3v.884h.964v.474H.032v-.474H.907v-.884H.032v-.472Zm0-2.185v.473H.426v.607H.032V141.7H.426v.607Z" fill-rule="evenodd"/>
              <path d="M.576,156.207c.056.006.142.021.259.045s.208.043.26.056l1.17.3v.538l-2.233.57v-.466l1.219-.286q.338-.075.585-.108c-.062-.007-.151-.021-.27-.042s-.216-.043-.283-.062l-1.251-.326v-.447l1.251-.325c.056-.015.142-.032.257-.054s.213-.038.3-.049c-.083-.01-.18-.027-.3-.049s-.215-.042-.288-.061l-1.219-.284v-.466l2.233.569v.539l-1.173.3c-.042.011-.128.03-.259.057s-.218.043-.263.047Zm1.689-3.842v1.286H.032v-1.286H.42v.813H.91v-.756H1.3v.756h.576v-.813Zm0-1.226H.032v-.473H2.265ZM1.011,148.5v-.886H2.169a2.4,2.4,0,0,1,.1.406,2.605,2.605,0,0,1,.029.388.983.983,0,0,1-.3.772,1.235,1.235,0,0,1-.853.267,1.128,1.128,0,0,1-.844-.309,1.177,1.177,0,0,1-.3-.858,1.672,1.672,0,0,1,.137-.663l.379.157a1.132,1.132,0,0,0-.122.509.629.629,0,0,0,.206.492.8.8,0,0,0,.555.185.893.893,0,0,0,.555-.149.515.515,0,0,0,.192-.433,1.562,1.562,0,0,0-.031-.3H1.405v.423Zm1.254-4.007v.472H1.3v.884h.964v.474H.032v-.474H.907v-.884H.032v-.472Zm0-2.185v.473H.426v.607H.032V141.7H.426v.607Z" fill="#a0a0a0" fill-rule="evenodd"/>
            </g>
            <g id="TIME">
              <path id="path-2" d="M75.655,206.82h-.473l0-1.838h-.606v-.394h1.685v.393h-.606Zm1.71,0,0-2.231h.473l0,2.232Zm2.74,0-.539-1.751h-.014q.03.534.03.713v1.038H79.16l0-2.232H79.8l.53,1.706h.009l.558-1.707h.645l0,2.232h-.441v-1.057c0-.05,0-.107,0-.172s.008-.238.02-.519h-.014l-.574,1.748Zm4.048,0H82.868l0-2.232h1.286v.387h-.812v.49H84.1v.387H83.34v.576h.812Z" fill-rule="evenodd"/>
              <path d="M75.655,206.82h-.473l0-1.838h-.606v-.394h1.685v.393h-.606Zm1.71,0,0-2.231h.473l0,2.232Zm2.74,0-.539-1.751h-.014q.03.534.03.713v1.038H79.16l0-2.232H79.8l.53,1.706h.009l.558-1.707h.645l0,2.232h-.441v-1.057c0-.05,0-.107,0-.172s.008-.238.02-.519h-.014l-.574,1.748Zm4.048,0H82.868l0-2.232h1.286v.387h-.812v.49H84.1v.387H83.34v.576h.812Z" fill="#a0a0a0" fill-rule="evenodd"/>
            </g>
          </g>
          <g id="Complex-weight-data">
            <path id="path-3" d="M19.432,101.861a3.27,3.27,0,0,0-2.6,1.1,4.43,4.43,0,0,0-.953,3,4.514,4.514,0,0,0,.919,3.032,3.27,3.27,0,0,0,2.622,1.07,8.932,8.932,0,0,0,2.385-.376v1.019a7.361,7.361,0,0,1-2.563.389,4.335,4.335,0,0,1-3.408-1.34,5.515,5.515,0,0,1-1.2-3.807,6.011,6.011,0,0,1,.577-2.707,4.143,4.143,0,0,1,1.668-1.791,5.053,5.053,0,0,1,2.567-.629,6.192,6.192,0,0,1,2.748.574l-.492,1A5.305,5.305,0,0,0,19.432,101.861Zm10.849,5.346a4.131,4.131,0,0,1-.923,2.86,3.249,3.249,0,0,1-2.55,1.029,3.381,3.381,0,0,1-1.784-.471,3.123,3.123,0,0,1-1.2-1.354,4.71,4.71,0,0,1-.424-2.064,4.128,4.128,0,0,1,.916-2.854,3.239,3.239,0,0,1,2.543-1.022,3.169,3.169,0,0,1,2.5,1.046A4.116,4.116,0,0,1,30.281,107.207Zm-5.708,0a3.553,3.553,0,0,0,.574,2.187,2.28,2.28,0,0,0,3.381,0,3.54,3.54,0,0,0,.577-2.191,3.484,3.484,0,0,0-.577-2.171,2.032,2.032,0,0,0-1.706-.741,2,2,0,0,0-1.682.731A3.522,3.522,0,0,0,24.573,107.207ZM41.82,110.96v-4.874a2.027,2.027,0,0,0-.383-1.344,1.48,1.48,0,0,0-1.189-.447,1.92,1.92,0,0,0-1.566.608,2.894,2.894,0,0,0-.505,1.873v4.184H37.042v-4.874a2.027,2.027,0,0,0-.383-1.344,1.491,1.491,0,0,0-1.2-.447,1.853,1.853,0,0,0-1.562.639,3.453,3.453,0,0,0-.5,2.095v3.931H32.27v-7.493h.923l.185,1.026h.054a2.232,2.232,0,0,1,.906-.855,2.769,2.769,0,0,1,1.309-.307,2.225,2.225,0,0,1,2.3,1.271H38a2.392,2.392,0,0,1,.97-.93,3.023,3.023,0,0,1,1.45-.341,2.54,2.54,0,0,1,1.9.652,2.926,2.926,0,0,1,.632,2.089v4.888Zm6.959.136a3.238,3.238,0,0,1-1.336-.27,2.519,2.519,0,0,1-1.016-.83h-.082a9.98,9.98,0,0,1,.082,1.244v3.083H45.293V103.467h.923l.157,1.026h.054a2.641,2.641,0,0,1,1.019-.889,3.1,3.1,0,0,1,1.333-.273,2.768,2.768,0,0,1,2.3,1.018,5.426,5.426,0,0,1-.013,5.725A2.773,2.773,0,0,1,48.779,111.1Zm-.164-6.8a2.01,2.01,0,0,0-1.661.635,3.278,3.278,0,0,0-.527,2.024v.253a3.75,3.75,0,0,0,.527,2.259,2,2,0,0,0,1.688.68,1.756,1.756,0,0,0,1.521-.786,3.725,3.725,0,0,0,.551-2.167,3.588,3.588,0,0,0-.551-2.15A1.81,1.81,0,0,0,48.615,104.3Zm6.392,6.665H53.872V100.323h1.135Zm5.571.136a3.445,3.445,0,0,1-2.622-1.011,3.919,3.919,0,0,1-.96-2.81,4.342,4.342,0,0,1,.892-2.878,2.963,2.963,0,0,1,2.4-1.066,2.821,2.821,0,0,1,2.228.926,3.549,3.549,0,0,1,.821,2.444v.718H58.172a2.966,2.966,0,0,0,.666,2,2.305,2.305,0,0,0,1.781.684,6.033,6.033,0,0,0,2.392-.506v1.012a5.991,5.991,0,0,1-1.138.372A6.327,6.327,0,0,1,60.578,111.1Zm-.308-6.815a1.854,1.854,0,0,0-1.439.588A2.715,2.715,0,0,0,58.2,106.5h3.917a2.493,2.493,0,0,0-.479-1.644A1.682,1.682,0,0,0,60.27,104.281Zm6.522,2.844-2.605-3.658h1.292l1.976,2.871,1.969-2.871H70.7L68.1,107.125l2.742,3.835H69.553l-2.1-3.036-2.119,3.036H64.051ZM11.66,129.96l-1.374-4.4q-.13-.4-.485-1.832H9.746q-.273,1.2-.479,1.846L7.852,129.96H6.54L4.5,122.467H5.685q.725,2.824,1.1,4.3a17.36,17.36,0,0,1,.434,1.989h.055q.075-.388.243-1.008t.29-.981l1.374-4.3h1.231l1.34,4.3a14.526,14.526,0,0,1,.519,1.976h.055a7.136,7.136,0,0,1,.147-.759q.12-.513,1.425-5.517h1.176l-2.071,7.493Zm7.936.136a3.442,3.442,0,0,1-2.621-1.011,3.919,3.919,0,0,1-.961-2.81,4.347,4.347,0,0,1,.892-2.878,2.964,2.964,0,0,1,2.4-1.066,2.825,2.825,0,0,1,2.229.926,3.548,3.548,0,0,1,.82,2.444v.718H17.19a2.966,2.966,0,0,0,.667,2,2.3,2.3,0,0,0,1.78.684,6.038,6.038,0,0,0,2.393-.506v1.012a5.991,5.991,0,0,1-1.138.372A6.344,6.344,0,0,1,19.6,130.1Zm-.307-6.815a1.853,1.853,0,0,0-1.439.588,2.7,2.7,0,0,0-.632,1.627h3.917a2.493,2.493,0,0,0-.479-1.644A1.683,1.683,0,0,0,19.289,123.281Zm6.132,6.679H24.286v-7.493h1.135Zm-1.231-9.523a.753.753,0,0,1,.192-.571.708.708,0,0,1,.95,0,.74.74,0,0,1,.2.567.753.753,0,0,1-.2.571.664.664,0,0,1-.472.188.655.655,0,0,1-.478-.188A.767.767,0,0,1,24.19,120.437Zm9.769,2.03v.718l-1.388.164a2.435,2.435,0,0,1,.492,1.5,2.212,2.212,0,0,1-.752,1.757,3.029,3.029,0,0,1-2.064.656,3.484,3.484,0,0,1-.629-.054,1.117,1.117,0,0,0-.725.964.49.49,0,0,0,.253.454,1.848,1.848,0,0,0,.868.147h1.327a2.966,2.966,0,0,1,1.869.513,1.781,1.781,0,0,1,.653,1.49,2.128,2.128,0,0,1-1,1.9,5.342,5.342,0,0,1-2.912.653,3.975,3.975,0,0,1-2.266-.547,1.767,1.767,0,0,1-.8-1.545,1.735,1.735,0,0,1,.438-1.183,2.23,2.23,0,0,1,1.23-.676,1.19,1.19,0,0,1-.482-.4,1.071,1.071,0,0,1-.194-.635,1.211,1.211,0,0,1,.218-.718,2.308,2.308,0,0,1,.691-.595,2.023,2.023,0,0,1-.947-.813,2.392,2.392,0,0,1-.366-1.313,2.423,2.423,0,0,1,.739-1.9,3.014,3.014,0,0,1,2.091-.666,3.816,3.816,0,0,1,1.06.136Zm-5.975,8.75a1.016,1.016,0,0,0,.513.923,2.827,2.827,0,0,0,1.47.315,4.1,4.1,0,0,0,2.115-.428,1.307,1.307,0,0,0,.687-1.158.915.915,0,0,0-.376-.844,2.908,2.908,0,0,0-1.415-.236h-1.36a1.792,1.792,0,0,0-1.2.369A1.319,1.319,0,0,0,27.984,131.217Zm.615-6.35a1.522,1.522,0,0,0,.445,1.189,1.772,1.772,0,0,0,1.237.4,1.448,1.448,0,0,0,1.661-1.614,1.489,1.489,0,0,0-1.681-1.688,1.665,1.665,0,0,0-1.231.43A1.738,1.738,0,0,0,28.6,124.867Zm12.025,5.093v-4.847a1.953,1.953,0,0,0-.417-1.367A1.7,1.7,0,0,0,38.9,123.3a2.14,2.14,0,0,0-1.726.642,3.256,3.256,0,0,0-.543,2.106v3.917H35.5V119.323h1.135v3.22a7.07,7.07,0,0,1-.055.963h.068a2.321,2.321,0,0,1,.954-.851,3.1,3.1,0,0,1,1.412-.311,2.892,2.892,0,0,1,2.061.653,2.75,2.75,0,0,1,.687,2.075v4.888Zm5.886-.8a4.082,4.082,0,0,0,1.025-.137v.868a2.09,2.09,0,0,1-.544.147,4.041,4.041,0,0,1-.646.058q-2.173,0-2.173-2.29v-4.457H43.1V122.8l1.074-.471.478-1.6h.656v1.736H47.48v.882H45.306v4.409a1.51,1.51,0,0,0,.322,1.039A1.117,1.117,0,0,0,46.51,129.16Zm11.258-.2h-.061a2.666,2.666,0,0,1-2.352,1.141,2.779,2.779,0,0,1-2.286-1,4.42,4.42,0,0,1-.817-2.857,4.5,4.5,0,0,1,.82-2.878,2.759,2.759,0,0,1,2.283-1.025,2.724,2.724,0,0,1,2.338,1.107h.089l-.048-.54-.027-.526v-3.049h1.135V129.96h-.923Zm-2.269.191a2.068,2.068,0,0,0,1.685-.632,3.2,3.2,0,0,0,.523-2.041v-.239a3.76,3.76,0,0,0-.53-2.273,2.013,2.013,0,0,0-1.692-.68,1.736,1.736,0,0,0-1.528.776,3.858,3.858,0,0,0-.53,2.191,3.7,3.7,0,0,0,.527,2.167A1.784,1.784,0,0,0,55.5,129.146Zm10.356.814-.225-1.067h-.055a3.153,3.153,0,0,1-1.118.954,3.411,3.411,0,0,1-1.391.249,2.5,2.5,0,0,1-1.746-.574,2.093,2.093,0,0,1-.633-1.634q0-2.27,3.63-2.379l1.272-.041V125a1.9,1.9,0,0,0-.38-1.3,1.56,1.56,0,0,0-1.213-.42,4.936,4.936,0,0,0-2.119.574l-.349-.868a5.322,5.322,0,0,1,1.213-.472,5.256,5.256,0,0,1,1.323-.171,2.858,2.858,0,0,1,1.986.595,2.481,2.481,0,0,1,.646,1.907v5.114Zm-2.563-.8a2.3,2.3,0,0,0,1.664-.581,2.148,2.148,0,0,0,.605-1.627v-.677l-1.134.048a4.134,4.134,0,0,0-1.952.42,1.268,1.268,0,0,0-.6,1.159,1.169,1.169,0,0,0,.372.936A1.544,1.544,0,0,0,63.292,129.16Zm8.162,0a3.667,3.667,0,0,0,.581-.045,3.6,3.6,0,0,0,.444-.092v.868a2.093,2.093,0,0,1-.543.147,4.051,4.051,0,0,1-.646.058q-2.174,0-2.174-2.29v-4.457H68.043V122.8l1.073-.471.478-1.6h.657v1.736h2.174v.882H70.251v4.409a1.515,1.515,0,0,0,.321,1.039A1.117,1.117,0,0,0,71.454,129.16Zm7.13.8-.226-1.067H78.3a3.151,3.151,0,0,1-1.117.954,3.414,3.414,0,0,1-1.391.249,2.5,2.5,0,0,1-1.747-.574,2.1,2.1,0,0,1-.632-1.634q0-2.27,3.63-2.379l1.271-.041V125a1.9,1.9,0,0,0-.379-1.3,1.563,1.563,0,0,0-1.214-.42,4.944,4.944,0,0,0-2.119.574l-.348-.868a5.446,5.446,0,0,1,2.536-.643,2.858,2.858,0,0,1,1.986.595,2.485,2.485,0,0,1,.646,1.907v5.114Zm-2.564-.8a2.306,2.306,0,0,0,1.665-.581,2.152,2.152,0,0,0,.605-1.627v-.677l-1.135.048a4.137,4.137,0,0,0-1.952.42,1.27,1.27,0,0,0-.6,1.159,1.166,1.166,0,0,0,.373.936A1.542,1.542,0,0,0,76.02,129.16Z" fill-rule="evenodd"/>
            <path d="M19.432,101.861a3.27,3.27,0,0,0-2.6,1.1,4.43,4.43,0,0,0-.953,3,4.514,4.514,0,0,0,.919,3.032,3.27,3.27,0,0,0,2.622,1.07,8.932,8.932,0,0,0,2.385-.376v1.019a7.361,7.361,0,0,1-2.563.389,4.335,4.335,0,0,1-3.408-1.34,5.515,5.515,0,0,1-1.2-3.807,6.011,6.011,0,0,1,.577-2.707,4.143,4.143,0,0,1,1.668-1.791,5.053,5.053,0,0,1,2.567-.629,6.192,6.192,0,0,1,2.748.574l-.492,1A5.305,5.305,0,0,0,19.432,101.861Zm10.849,5.346a4.131,4.131,0,0,1-.923,2.86,3.249,3.249,0,0,1-2.55,1.029,3.381,3.381,0,0,1-1.784-.471,3.123,3.123,0,0,1-1.2-1.354,4.71,4.71,0,0,1-.424-2.064,4.128,4.128,0,0,1,.916-2.854,3.239,3.239,0,0,1,2.543-1.022,3.169,3.169,0,0,1,2.5,1.046A4.116,4.116,0,0,1,30.281,107.207Zm-5.708,0a3.553,3.553,0,0,0,.574,2.187,2.28,2.28,0,0,0,3.381,0,3.54,3.54,0,0,0,.577-2.191,3.484,3.484,0,0,0-.577-2.171,2.032,2.032,0,0,0-1.706-.741,2,2,0,0,0-1.682.731A3.522,3.522,0,0,0,24.573,107.207ZM41.82,110.96v-4.874a2.027,2.027,0,0,0-.383-1.344,1.48,1.48,0,0,0-1.189-.447,1.92,1.92,0,0,0-1.566.608,2.894,2.894,0,0,0-.505,1.873v4.184H37.042v-4.874a2.027,2.027,0,0,0-.383-1.344,1.491,1.491,0,0,0-1.2-.447,1.853,1.853,0,0,0-1.562.639,3.453,3.453,0,0,0-.5,2.095v3.931H32.27v-7.493h.923l.185,1.026h.054a2.232,2.232,0,0,1,.906-.855,2.769,2.769,0,0,1,1.309-.307,2.225,2.225,0,0,1,2.3,1.271H38a2.392,2.392,0,0,1,.97-.93,3.023,3.023,0,0,1,1.45-.341,2.54,2.54,0,0,1,1.9.652,2.926,2.926,0,0,1,.632,2.089v4.888Zm6.959.136a3.238,3.238,0,0,1-1.336-.27,2.519,2.519,0,0,1-1.016-.83h-.082a9.98,9.98,0,0,1,.082,1.244v3.083H45.293V103.467h.923l.157,1.026h.054a2.641,2.641,0,0,1,1.019-.889,3.1,3.1,0,0,1,1.333-.273,2.768,2.768,0,0,1,2.3,1.018,5.426,5.426,0,0,1-.013,5.725A2.773,2.773,0,0,1,48.779,111.1Zm-.164-6.8a2.01,2.01,0,0,0-1.661.635,3.278,3.278,0,0,0-.527,2.024v.253a3.75,3.75,0,0,0,.527,2.259,2,2,0,0,0,1.688.68,1.756,1.756,0,0,0,1.521-.786,3.725,3.725,0,0,0,.551-2.167,3.588,3.588,0,0,0-.551-2.15A1.81,1.81,0,0,0,48.615,104.3Zm6.392,6.665H53.872V100.323h1.135Zm5.571.136a3.445,3.445,0,0,1-2.622-1.011,3.919,3.919,0,0,1-.96-2.81,4.342,4.342,0,0,1,.892-2.878,2.963,2.963,0,0,1,2.4-1.066,2.821,2.821,0,0,1,2.228.926,3.549,3.549,0,0,1,.821,2.444v.718H58.172a2.966,2.966,0,0,0,.666,2,2.305,2.305,0,0,0,1.781.684,6.033,6.033,0,0,0,2.392-.506v1.012a5.991,5.991,0,0,1-1.138.372A6.327,6.327,0,0,1,60.578,111.1Zm-.308-6.815a1.854,1.854,0,0,0-1.439.588A2.715,2.715,0,0,0,58.2,106.5h3.917a2.493,2.493,0,0,0-.479-1.644A1.682,1.682,0,0,0,60.27,104.281Zm6.522,2.844-2.605-3.658h1.292l1.976,2.871,1.969-2.871H70.7L68.1,107.125l2.742,3.835H69.553l-2.1-3.036-2.119,3.036H64.051ZM11.66,129.96l-1.374-4.4q-.13-.4-.485-1.832H9.746q-.273,1.2-.479,1.846L7.852,129.96H6.54L4.5,122.467H5.685q.725,2.824,1.1,4.3a17.36,17.36,0,0,1,.434,1.989h.055q.075-.388.243-1.008t.29-.981l1.374-4.3h1.231l1.34,4.3a14.526,14.526,0,0,1,.519,1.976h.055a7.136,7.136,0,0,1,.147-.759q.12-.513,1.425-5.517h1.176l-2.071,7.493Zm7.936.136a3.442,3.442,0,0,1-2.621-1.011,3.919,3.919,0,0,1-.961-2.81,4.347,4.347,0,0,1,.892-2.878,2.964,2.964,0,0,1,2.4-1.066,2.825,2.825,0,0,1,2.229.926,3.548,3.548,0,0,1,.82,2.444v.718H17.19a2.966,2.966,0,0,0,.667,2,2.3,2.3,0,0,0,1.78.684,6.038,6.038,0,0,0,2.393-.506v1.012a5.991,5.991,0,0,1-1.138.372A6.344,6.344,0,0,1,19.6,130.1Zm-.307-6.815a1.853,1.853,0,0,0-1.439.588,2.7,2.7,0,0,0-.632,1.627h3.917a2.493,2.493,0,0,0-.479-1.644A1.683,1.683,0,0,0,19.289,123.281Zm6.132,6.679H24.286v-7.493h1.135Zm-1.231-9.523a.753.753,0,0,1,.192-.571.708.708,0,0,1,.95,0,.74.74,0,0,1,.2.567.753.753,0,0,1-.2.571.664.664,0,0,1-.472.188.655.655,0,0,1-.478-.188A.767.767,0,0,1,24.19,120.437Zm9.769,2.03v.718l-1.388.164a2.435,2.435,0,0,1,.492,1.5,2.212,2.212,0,0,1-.752,1.757,3.029,3.029,0,0,1-2.064.656,3.484,3.484,0,0,1-.629-.054,1.117,1.117,0,0,0-.725.964.49.49,0,0,0,.253.454,1.848,1.848,0,0,0,.868.147h1.327a2.966,2.966,0,0,1,1.869.513,1.781,1.781,0,0,1,.653,1.49,2.128,2.128,0,0,1-1,1.9,5.342,5.342,0,0,1-2.912.653,3.975,3.975,0,0,1-2.266-.547,1.767,1.767,0,0,1-.8-1.545,1.735,1.735,0,0,1,.438-1.183,2.23,2.23,0,0,1,1.23-.676,1.19,1.19,0,0,1-.482-.4,1.071,1.071,0,0,1-.194-.635,1.211,1.211,0,0,1,.218-.718,2.308,2.308,0,0,1,.691-.595,2.023,2.023,0,0,1-.947-.813,2.392,2.392,0,0,1-.366-1.313,2.423,2.423,0,0,1,.739-1.9,3.014,3.014,0,0,1,2.091-.666,3.816,3.816,0,0,1,1.06.136Zm-5.975,8.75a1.016,1.016,0,0,0,.513.923,2.827,2.827,0,0,0,1.47.315,4.1,4.1,0,0,0,2.115-.428,1.307,1.307,0,0,0,.687-1.158.915.915,0,0,0-.376-.844,2.908,2.908,0,0,0-1.415-.236h-1.36a1.792,1.792,0,0,0-1.2.369A1.319,1.319,0,0,0,27.984,131.217Zm.615-6.35a1.522,1.522,0,0,0,.445,1.189,1.772,1.772,0,0,0,1.237.4,1.448,1.448,0,0,0,1.661-1.614,1.489,1.489,0,0,0-1.681-1.688,1.665,1.665,0,0,0-1.231.43A1.738,1.738,0,0,0,28.6,124.867Zm12.025,5.093v-4.847a1.953,1.953,0,0,0-.417-1.367A1.7,1.7,0,0,0,38.9,123.3a2.14,2.14,0,0,0-1.726.642,3.256,3.256,0,0,0-.543,2.106v3.917H35.5V119.323h1.135v3.22a7.07,7.07,0,0,1-.055.963h.068a2.321,2.321,0,0,1,.954-.851,3.1,3.1,0,0,1,1.412-.311,2.892,2.892,0,0,1,2.061.653,2.75,2.75,0,0,1,.687,2.075v4.888Zm5.886-.8a4.082,4.082,0,0,0,1.025-.137v.868a2.09,2.09,0,0,1-.544.147,4.041,4.041,0,0,1-.646.058q-2.173,0-2.173-2.29v-4.457H43.1V122.8l1.074-.471.478-1.6h.656v1.736H47.48v.882H45.306v4.409a1.51,1.51,0,0,0,.322,1.039A1.117,1.117,0,0,0,46.51,129.16Zm11.258-.2h-.061a2.666,2.666,0,0,1-2.352,1.141,2.779,2.779,0,0,1-2.286-1,4.42,4.42,0,0,1-.817-2.857,4.5,4.5,0,0,1,.82-2.878,2.759,2.759,0,0,1,2.283-1.025,2.724,2.724,0,0,1,2.338,1.107h.089l-.048-.54-.027-.526v-3.049h1.135V129.96h-.923Zm-2.269.191a2.068,2.068,0,0,0,1.685-.632,3.2,3.2,0,0,0,.523-2.041v-.239a3.76,3.76,0,0,0-.53-2.273,2.013,2.013,0,0,0-1.692-.68,1.736,1.736,0,0,0-1.528.776,3.858,3.858,0,0,0-.53,2.191,3.7,3.7,0,0,0,.527,2.167A1.784,1.784,0,0,0,55.5,129.146Zm10.356.814-.225-1.067h-.055a3.153,3.153,0,0,1-1.118.954,3.411,3.411,0,0,1-1.391.249,2.5,2.5,0,0,1-1.746-.574,2.093,2.093,0,0,1-.633-1.634q0-2.27,3.63-2.379l1.272-.041V125a1.9,1.9,0,0,0-.38-1.3,1.56,1.56,0,0,0-1.213-.42,4.936,4.936,0,0,0-2.119.574l-.349-.868a5.322,5.322,0,0,1,1.213-.472,5.256,5.256,0,0,1,1.323-.171,2.858,2.858,0,0,1,1.986.595,2.481,2.481,0,0,1,.646,1.907v5.114Zm-2.563-.8a2.3,2.3,0,0,0,1.664-.581,2.148,2.148,0,0,0,.605-1.627v-.677l-1.134.048a4.134,4.134,0,0,0-1.952.42,1.268,1.268,0,0,0-.6,1.159,1.169,1.169,0,0,0,.372.936A1.544,1.544,0,0,0,63.292,129.16Zm8.162,0a3.667,3.667,0,0,0,.581-.045,3.6,3.6,0,0,0,.444-.092v.868a2.093,2.093,0,0,1-.543.147,4.051,4.051,0,0,1-.646.058q-2.174,0-2.174-2.29v-4.457H68.043V122.8l1.073-.471.478-1.6h.657v1.736h2.174v.882H70.251v4.409a1.515,1.515,0,0,0,.321,1.039A1.117,1.117,0,0,0,71.454,129.16Zm7.13.8-.226-1.067H78.3a3.151,3.151,0,0,1-1.117.954,3.414,3.414,0,0,1-1.391.249,2.5,2.5,0,0,1-1.747-.574,2.1,2.1,0,0,1-.632-1.634q0-2.27,3.63-2.379l1.271-.041V125a1.9,1.9,0,0,0-.379-1.3,1.563,1.563,0,0,0-1.214-.42,4.944,4.944,0,0,0-2.119.574l-.348-.868a5.446,5.446,0,0,1,2.536-.643,2.858,2.858,0,0,1,1.986.595,2.485,2.485,0,0,1,.646,1.907v5.114Zm-2.564-.8a2.306,2.306,0,0,0,1.665-.581,2.152,2.152,0,0,0,.605-1.627v-.677l-1.135.048a4.137,4.137,0,0,0-1.952.42,1.27,1.27,0,0,0-.6,1.159,1.166,1.166,0,0,0,.373.936A1.542,1.542,0,0,0,76.02,129.16Z" fill="#111" fill-rule="evenodd"/>
          </g>
        </g>
        <g id="Group-27">
          <rect x="105.202" y="111.408" width="79.8" height="96.52" fill="none"/>
          <g id="Group-25">
            <g id="A-path-to-success">
              <path id="path-4" d="M123.23,110.96l-1.244-3.179H117.98l-1.23,3.179h-1.176l3.951-10.036h.977l3.931,10.036Zm-1.606-4.225-1.163-3.1q-.225-.588-.464-1.442a13.108,13.108,0,0,1-.431,1.442l-1.176,3.1Zm11.135,4.361a3.242,3.242,0,0,1-1.336-.27,2.516,2.516,0,0,1-1.015-.83h-.082a10.175,10.175,0,0,1,.082,1.244v3.083h-1.135V103.467h.923l.157,1.026h.055a2.632,2.632,0,0,1,1.018-.889,3.1,3.1,0,0,1,1.333-.273,2.769,2.769,0,0,1,2.3,1.018,5.423,5.423,0,0,1-.014,5.725A2.772,2.772,0,0,1,132.759,111.1Zm-.164-6.8a2.011,2.011,0,0,0-1.661.635,3.272,3.272,0,0,0-.526,2.024v.253a3.751,3.751,0,0,0,.526,2.259,2,2,0,0,0,1.689.68,1.756,1.756,0,0,0,1.521-.786,3.733,3.733,0,0,0,.55-2.167,3.6,3.6,0,0,0-.55-2.15A1.81,1.81,0,0,0,132.6,104.3Zm9.864,6.665-.225-1.067h-.055a3.151,3.151,0,0,1-1.117.954,3.419,3.419,0,0,1-1.392.249,2.5,2.5,0,0,1-1.746-.574,2.093,2.093,0,0,1-.632-1.634q0-2.27,3.629-2.379l1.272-.041V106a1.9,1.9,0,0,0-.38-1.3,1.559,1.559,0,0,0-1.213-.42,4.94,4.94,0,0,0-2.119.574l-.349-.868a5.312,5.312,0,0,1,1.214-.472,5.248,5.248,0,0,1,1.322-.171,2.854,2.854,0,0,1,1.986.595,2.481,2.481,0,0,1,.646,1.907v5.114Zm-2.563-.8a2.308,2.308,0,0,0,1.665-.581,2.152,2.152,0,0,0,.6-1.627v-.677l-1.135.048a4.134,4.134,0,0,0-1.952.42,1.268,1.268,0,0,0-.6,1.159,1.166,1.166,0,0,0,.373.936A1.54,1.54,0,0,0,139.9,110.16Zm8.162,0a4.1,4.1,0,0,0,1.026-.137v.868a2.114,2.114,0,0,1-.544.147,4.051,4.051,0,0,1-.646.058q-2.174,0-2.174-2.29v-4.457h-1.073V103.8l1.073-.471.479-1.6h.656v1.736h2.174v.882h-2.174v4.409a1.515,1.515,0,0,0,.321,1.039A1.117,1.117,0,0,0,148.058,110.16Zm7.65.8v-4.847a1.953,1.953,0,0,0-.417-1.367,1.7,1.7,0,0,0-1.306-.451,2.139,2.139,0,0,0-1.726.642,3.256,3.256,0,0,0-.544,2.106v3.917h-1.134V100.323h1.134v3.22a7.091,7.091,0,0,1-.054.963h.068a2.315,2.315,0,0,1,.954-.851,3.1,3.1,0,0,1,1.411-.311,2.892,2.892,0,0,1,2.061.653,2.75,2.75,0,0,1,.687,2.075v4.888Zm9.522-.8a3.657,3.657,0,0,0,.581-.045,3.6,3.6,0,0,0,.444-.092v.868a2.093,2.093,0,0,1-.543.147,4.051,4.051,0,0,1-.646.058q-2.174,0-2.174-2.29v-4.457h-1.073V103.8l1.073-.471.479-1.6h.656v1.736H166.2v.882h-2.174v4.409a1.515,1.515,0,0,0,.321,1.039A1.117,1.117,0,0,0,165.23,110.16Zm8.989-2.953a4.126,4.126,0,0,1-.923,2.86,3.249,3.249,0,0,1-2.549,1.029,3.385,3.385,0,0,1-1.785-.471,3.123,3.123,0,0,1-1.2-1.354,4.725,4.725,0,0,1-.424-2.064,4.128,4.128,0,0,1,.916-2.854,3.239,3.239,0,0,1,2.543-1.022,3.168,3.168,0,0,1,2.5,1.046A4.111,4.111,0,0,1,174.219,107.207Zm-5.708,0a3.559,3.559,0,0,0,.574,2.187,2.28,2.28,0,0,0,3.381,0,3.54,3.54,0,0,0,.577-2.191,3.484,3.484,0,0,0-.577-2.171,2.031,2.031,0,0,0-1.706-.741,1.994,1.994,0,0,0-1.681.731A3.515,3.515,0,0,0,168.511,107.207Zm-42.092,20.709a1.877,1.877,0,0,1-.779,1.613,3.667,3.667,0,0,1-2.188.567,4.763,4.763,0,0,1-2.324-.471v-1.053a5.639,5.639,0,0,0,1.159.431,4.874,4.874,0,0,0,1.193.157,2.707,2.707,0,0,0,1.367-.284.977.977,0,0,0,.1-1.613,5.921,5.921,0,0,0-1.48-.735,8.1,8.1,0,0,1-1.487-.68,2.029,2.029,0,0,1-.656-.66,1.716,1.716,0,0,1-.216-.882,1.683,1.683,0,0,1,.746-1.446,3.472,3.472,0,0,1,2.044-.529,5.983,5.983,0,0,1,2.365.492l-.4.923a5.427,5.427,0,0,0-2.044-.465,2.345,2.345,0,0,0-1.216.253.78.78,0,0,0-.41.7.854.854,0,0,0,.153.513,1.532,1.532,0,0,0,.5.4,11.076,11.076,0,0,0,1.312.554,4.9,4.9,0,0,1,1.8.977A1.725,1.725,0,0,1,126.419,127.916Zm2.912-5.449v4.861a1.956,1.956,0,0,0,.417,1.367,1.7,1.7,0,0,0,1.306.451,2.13,2.13,0,0,0,1.719-.642,3.245,3.245,0,0,0,.543-2.1v-3.938h1.135v7.493h-.936l-.164-1h-.062a2.261,2.261,0,0,1-.967.847,3.253,3.253,0,0,1-1.412.294,2.863,2.863,0,0,1-2.047-.649,2.763,2.763,0,0,1-.68-2.078v-4.9Zm10.521,7.629a3.2,3.2,0,0,1-2.519-1,4.118,4.118,0,0,1-.893-2.834,4.246,4.246,0,0,1,.906-2.905,3.26,3.26,0,0,1,2.581-1.025,5.085,5.085,0,0,1,1.08.116,3.548,3.548,0,0,1,.848.273l-.349.964a5.371,5.371,0,0,0-.82-.249,3.679,3.679,0,0,0-.787-.1q-2.283,0-2.283,2.912a3.471,3.471,0,0,0,.557,2.119,1.94,1.94,0,0,0,1.651.738,5.042,5.042,0,0,0,1.921-.4v1A4.1,4.1,0,0,1,139.852,130.1Zm6.665,0a3.2,3.2,0,0,1-2.519-1,4.118,4.118,0,0,1-.893-2.834,4.246,4.246,0,0,1,.906-2.905,3.26,3.26,0,0,1,2.581-1.025,5.085,5.085,0,0,1,1.08.116,3.548,3.548,0,0,1,.848.273l-.349.964a5.371,5.371,0,0,0-.82-.249,3.679,3.679,0,0,0-.787-.1q-2.283,0-2.283,2.912a3.471,3.471,0,0,0,.557,2.119,1.94,1.94,0,0,0,1.651.738,5.042,5.042,0,0,0,1.921-.4v1A4.1,4.1,0,0,1,146.517,130.1Zm6.836,0a3.443,3.443,0,0,1-2.622-1.011,3.919,3.919,0,0,1-.96-2.81,4.342,4.342,0,0,1,.892-2.878,2.961,2.961,0,0,1,2.4-1.066,2.824,2.824,0,0,1,2.228.926,3.548,3.548,0,0,1,.82,2.444v.718h-5.161a2.966,2.966,0,0,0,.667,2,2.3,2.3,0,0,0,1.781.684,6.037,6.037,0,0,0,2.392-.506v1.012a5.991,5.991,0,0,1-1.138.372A6.341,6.341,0,0,1,153.353,130.1Zm-.308-6.815a1.853,1.853,0,0,0-1.439.588,2.7,2.7,0,0,0-.632,1.627h3.917a2.493,2.493,0,0,0-.479-1.644A1.683,1.683,0,0,0,153.045,123.281Zm9.83,4.635a1.877,1.877,0,0,1-.779,1.613,3.667,3.667,0,0,1-2.188.567,4.763,4.763,0,0,1-2.324-.471v-1.053a5.639,5.639,0,0,0,1.159.431,4.874,4.874,0,0,0,1.193.157,2.707,2.707,0,0,0,1.367-.284.977.977,0,0,0,.1-1.613,5.921,5.921,0,0,0-1.48-.735,8.1,8.1,0,0,1-1.487-.68,2.029,2.029,0,0,1-.656-.66,1.716,1.716,0,0,1-.216-.882,1.683,1.683,0,0,1,.746-1.446,3.472,3.472,0,0,1,2.044-.529,5.983,5.983,0,0,1,2.365.492l-.4.923a5.422,5.422,0,0,0-2.043-.465,2.347,2.347,0,0,0-1.217.253.78.78,0,0,0-.41.7.854.854,0,0,0,.153.513,1.532,1.532,0,0,0,.5.4,11.076,11.076,0,0,0,1.312.554,4.9,4.9,0,0,1,1.8.977A1.725,1.725,0,0,1,162.875,127.916Zm6.679,0a1.876,1.876,0,0,1-.78,1.613,3.662,3.662,0,0,1-2.187.567,4.76,4.76,0,0,1-2.324-.471v-1.053a5.652,5.652,0,0,0,1.158.431,4.88,4.88,0,0,0,1.193.157,2.7,2.7,0,0,0,1.367-.284.976.976,0,0,0,.1-1.613,5.94,5.94,0,0,0-1.48-.735,8.07,8.07,0,0,1-1.487-.68,2.029,2.029,0,0,1-.656-.66,1.716,1.716,0,0,1-.216-.882,1.685,1.685,0,0,1,.745-1.446,3.474,3.474,0,0,1,2.044-.529,5.988,5.988,0,0,1,2.366.492l-.4.923a5.427,5.427,0,0,0-2.044-.465,2.349,2.349,0,0,0-1.217.253.782.782,0,0,0-.41.7.854.854,0,0,0,.154.513,1.532,1.532,0,0,0,.5.4,11.076,11.076,0,0,0,1.312.554,4.891,4.891,0,0,1,1.8.977A1.722,1.722,0,0,1,169.554,127.916Z" fill-rule="evenodd"/>
              <path d="M123.23,110.96l-1.244-3.179H117.98l-1.23,3.179h-1.176l3.951-10.036h.977l3.931,10.036Zm-1.606-4.225-1.163-3.1q-.225-.588-.464-1.442a13.108,13.108,0,0,1-.431,1.442l-1.176,3.1Zm11.135,4.361a3.242,3.242,0,0,1-1.336-.27,2.516,2.516,0,0,1-1.015-.83h-.082a10.175,10.175,0,0,1,.082,1.244v3.083h-1.135V103.467h.923l.157,1.026h.055a2.632,2.632,0,0,1,1.018-.889,3.1,3.1,0,0,1,1.333-.273,2.769,2.769,0,0,1,2.3,1.018,5.423,5.423,0,0,1-.014,5.725A2.772,2.772,0,0,1,132.759,111.1Zm-.164-6.8a2.011,2.011,0,0,0-1.661.635,3.272,3.272,0,0,0-.526,2.024v.253a3.751,3.751,0,0,0,.526,2.259,2,2,0,0,0,1.689.68,1.756,1.756,0,0,0,1.521-.786,3.733,3.733,0,0,0,.55-2.167,3.6,3.6,0,0,0-.55-2.15A1.81,1.81,0,0,0,132.6,104.3Zm9.864,6.665-.225-1.067h-.055a3.151,3.151,0,0,1-1.117.954,3.419,3.419,0,0,1-1.392.249,2.5,2.5,0,0,1-1.746-.574,2.093,2.093,0,0,1-.632-1.634q0-2.27,3.629-2.379l1.272-.041V106a1.9,1.9,0,0,0-.38-1.3,1.559,1.559,0,0,0-1.213-.42,4.94,4.94,0,0,0-2.119.574l-.349-.868a5.312,5.312,0,0,1,1.214-.472,5.248,5.248,0,0,1,1.322-.171,2.854,2.854,0,0,1,1.986.595,2.481,2.481,0,0,1,.646,1.907v5.114Zm-2.563-.8a2.308,2.308,0,0,0,1.665-.581,2.152,2.152,0,0,0,.6-1.627v-.677l-1.135.048a4.134,4.134,0,0,0-1.952.42,1.268,1.268,0,0,0-.6,1.159,1.166,1.166,0,0,0,.373.936A1.54,1.54,0,0,0,139.9,110.16Zm8.162,0a4.1,4.1,0,0,0,1.026-.137v.868a2.114,2.114,0,0,1-.544.147,4.051,4.051,0,0,1-.646.058q-2.174,0-2.174-2.29v-4.457h-1.073V103.8l1.073-.471.479-1.6h.656v1.736h2.174v.882h-2.174v4.409a1.515,1.515,0,0,0,.321,1.039A1.117,1.117,0,0,0,148.058,110.16Zm7.65.8v-4.847a1.953,1.953,0,0,0-.417-1.367,1.7,1.7,0,0,0-1.306-.451,2.139,2.139,0,0,0-1.726.642,3.256,3.256,0,0,0-.544,2.106v3.917h-1.134V100.323h1.134v3.22a7.091,7.091,0,0,1-.054.963h.068a2.315,2.315,0,0,1,.954-.851,3.1,3.1,0,0,1,1.411-.311,2.892,2.892,0,0,1,2.061.653,2.75,2.75,0,0,1,.687,2.075v4.888Zm9.522-.8a3.657,3.657,0,0,0,.581-.045,3.6,3.6,0,0,0,.444-.092v.868a2.093,2.093,0,0,1-.543.147,4.051,4.051,0,0,1-.646.058q-2.174,0-2.174-2.29v-4.457h-1.073V103.8l1.073-.471.479-1.6h.656v1.736H166.2v.882h-2.174v4.409a1.515,1.515,0,0,0,.321,1.039A1.117,1.117,0,0,0,165.23,110.16Zm8.989-2.953a4.126,4.126,0,0,1-.923,2.86,3.249,3.249,0,0,1-2.549,1.029,3.385,3.385,0,0,1-1.785-.471,3.123,3.123,0,0,1-1.2-1.354,4.725,4.725,0,0,1-.424-2.064,4.128,4.128,0,0,1,.916-2.854,3.239,3.239,0,0,1,2.543-1.022,3.168,3.168,0,0,1,2.5,1.046A4.111,4.111,0,0,1,174.219,107.207Zm-5.708,0a3.559,3.559,0,0,0,.574,2.187,2.28,2.28,0,0,0,3.381,0,3.54,3.54,0,0,0,.577-2.191,3.484,3.484,0,0,0-.577-2.171,2.031,2.031,0,0,0-1.706-.741,1.994,1.994,0,0,0-1.681.731A3.515,3.515,0,0,0,168.511,107.207Zm-42.092,20.709a1.877,1.877,0,0,1-.779,1.613,3.667,3.667,0,0,1-2.188.567,4.763,4.763,0,0,1-2.324-.471v-1.053a5.639,5.639,0,0,0,1.159.431,4.874,4.874,0,0,0,1.193.157,2.707,2.707,0,0,0,1.367-.284.977.977,0,0,0,.1-1.613,5.921,5.921,0,0,0-1.48-.735,8.1,8.1,0,0,1-1.487-.68,2.029,2.029,0,0,1-.656-.66,1.716,1.716,0,0,1-.216-.882,1.683,1.683,0,0,1,.746-1.446,3.472,3.472,0,0,1,2.044-.529,5.983,5.983,0,0,1,2.365.492l-.4.923a5.427,5.427,0,0,0-2.044-.465,2.345,2.345,0,0,0-1.216.253.78.78,0,0,0-.41.7.854.854,0,0,0,.153.513,1.532,1.532,0,0,0,.5.4,11.076,11.076,0,0,0,1.312.554,4.9,4.9,0,0,1,1.8.977A1.725,1.725,0,0,1,126.419,127.916Zm2.912-5.449v4.861a1.956,1.956,0,0,0,.417,1.367,1.7,1.7,0,0,0,1.306.451,2.13,2.13,0,0,0,1.719-.642,3.245,3.245,0,0,0,.543-2.1v-3.938h1.135v7.493h-.936l-.164-1h-.062a2.261,2.261,0,0,1-.967.847,3.253,3.253,0,0,1-1.412.294,2.863,2.863,0,0,1-2.047-.649,2.763,2.763,0,0,1-.68-2.078v-4.9Zm10.521,7.629a3.2,3.2,0,0,1-2.519-1,4.118,4.118,0,0,1-.893-2.834,4.246,4.246,0,0,1,.906-2.905,3.26,3.26,0,0,1,2.581-1.025,5.085,5.085,0,0,1,1.08.116,3.548,3.548,0,0,1,.848.273l-.349.964a5.371,5.371,0,0,0-.82-.249,3.679,3.679,0,0,0-.787-.1q-2.283,0-2.283,2.912a3.471,3.471,0,0,0,.557,2.119,1.94,1.94,0,0,0,1.651.738,5.042,5.042,0,0,0,1.921-.4v1A4.1,4.1,0,0,1,139.852,130.1Zm6.665,0a3.2,3.2,0,0,1-2.519-1,4.118,4.118,0,0,1-.893-2.834,4.246,4.246,0,0,1,.906-2.905,3.26,3.26,0,0,1,2.581-1.025,5.085,5.085,0,0,1,1.08.116,3.548,3.548,0,0,1,.848.273l-.349.964a5.371,5.371,0,0,0-.82-.249,3.679,3.679,0,0,0-.787-.1q-2.283,0-2.283,2.912a3.471,3.471,0,0,0,.557,2.119,1.94,1.94,0,0,0,1.651.738,5.042,5.042,0,0,0,1.921-.4v1A4.1,4.1,0,0,1,146.517,130.1Zm6.836,0a3.443,3.443,0,0,1-2.622-1.011,3.919,3.919,0,0,1-.96-2.81,4.342,4.342,0,0,1,.892-2.878,2.961,2.961,0,0,1,2.4-1.066,2.824,2.824,0,0,1,2.228.926,3.548,3.548,0,0,1,.82,2.444v.718h-5.161a2.966,2.966,0,0,0,.667,2,2.3,2.3,0,0,0,1.781.684,6.037,6.037,0,0,0,2.392-.506v1.012a5.991,5.991,0,0,1-1.138.372A6.341,6.341,0,0,1,153.353,130.1Zm-.308-6.815a1.853,1.853,0,0,0-1.439.588,2.7,2.7,0,0,0-.632,1.627h3.917a2.493,2.493,0,0,0-.479-1.644A1.683,1.683,0,0,0,153.045,123.281Zm9.83,4.635a1.877,1.877,0,0,1-.779,1.613,3.667,3.667,0,0,1-2.188.567,4.763,4.763,0,0,1-2.324-.471v-1.053a5.639,5.639,0,0,0,1.159.431,4.874,4.874,0,0,0,1.193.157,2.707,2.707,0,0,0,1.367-.284.977.977,0,0,0,.1-1.613,5.921,5.921,0,0,0-1.48-.735,8.1,8.1,0,0,1-1.487-.68,2.029,2.029,0,0,1-.656-.66,1.716,1.716,0,0,1-.216-.882,1.683,1.683,0,0,1,.746-1.446,3.472,3.472,0,0,1,2.044-.529,5.983,5.983,0,0,1,2.365.492l-.4.923a5.422,5.422,0,0,0-2.043-.465,2.347,2.347,0,0,0-1.217.253.78.78,0,0,0-.41.7.854.854,0,0,0,.153.513,1.532,1.532,0,0,0,.5.4,11.076,11.076,0,0,0,1.312.554,4.9,4.9,0,0,1,1.8.977A1.725,1.725,0,0,1,162.875,127.916Zm6.679,0a1.876,1.876,0,0,1-.78,1.613,3.662,3.662,0,0,1-2.187.567,4.76,4.76,0,0,1-2.324-.471v-1.053a5.652,5.652,0,0,0,1.158.431,4.88,4.88,0,0,0,1.193.157,2.7,2.7,0,0,0,1.367-.284.976.976,0,0,0,.1-1.613,5.94,5.94,0,0,0-1.48-.735,8.07,8.07,0,0,1-1.487-.68,2.029,2.029,0,0,1-.656-.66,1.716,1.716,0,0,1-.216-.882,1.685,1.685,0,0,1,.745-1.446,3.474,3.474,0,0,1,2.044-.529,5.988,5.988,0,0,1,2.366.492l-.4.923a5.427,5.427,0,0,0-2.044-.465,2.349,2.349,0,0,0-1.217.253.782.782,0,0,0-.41.7.854.854,0,0,0,.154.513,1.532,1.532,0,0,0,.5.4,11.076,11.076,0,0,0,1.312.554,4.891,4.891,0,0,1,1.8.977A1.722,1.722,0,0,1,169.554,127.916Z" fill="#111" fill-rule="evenodd"/>
            </g>
            <path d="M150.808,194.983h-.013c-4.795-.035-6.6-7.153-8.521-14.689-1.23-4.838-3.088-12.151-5.3-12.167h-.007c-2.212,0-4.175,7.274-5.475,12.09-2.021,7.487-3.93,14.56-8.7,14.56h-.035a1.672,1.672,0,1,1,.012-3.344h.019c2.212,0,4.176-7.274,5.472-12.088,2.022-7.488,3.931-14.562,8.7-14.562h.036c4.794.035,6.6,7.152,8.52,14.688,1.23,4.839,3.089,12.151,5.3,12.168a1.672,1.672,0,0,1-.012,3.344Z" fill="#111" fill-rule="evenodd" opacity="0.25" style="isolation: isolate"/>
            <path d="M150.831,194.983h-.036a1.672,1.672,0,1,1,.012-3.344.067.067,0,0,1,.02,0c2.212,0,4.175-7.273,5.472-12.089,2.022-7.488,3.931-14.561,8.7-14.561h.036a1.672,1.672,0,1,1-.013,3.344H165c-2.213,0-4.177,7.274-5.476,12.089C157.51,187.909,155.6,194.983,150.831,194.983Z" fill="#a0a0a0" fill-rule="evenodd"/>
          </g>
        </g>
        <g id="Group-26">
          <rect x="206.593" y="111.209" width="79.8" height="96.52" fill="none"/>
          <g id="Sinque-mark">
            <path id="path-5" d="M231.084,108.3a2.451,2.451,0,0,1-.957,2.058,4.15,4.15,0,0,1-2.6.738,6.5,6.5,0,0,1-2.735-.458v-1.121a7.192,7.192,0,0,0,1.34.41,7,7,0,0,0,1.436.151,2.9,2.9,0,0,0,1.75-.441,1.447,1.447,0,0,0,.588-1.227,1.573,1.573,0,0,0-.209-.851,1.936,1.936,0,0,0-.7-.612,9.764,9.764,0,0,0-1.487-.636,4.758,4.758,0,0,1-1.993-1.182,2.617,2.617,0,0,1-.6-1.785,2.222,2.222,0,0,1,.868-1.839,3.614,3.614,0,0,1,2.3-.683,6.759,6.759,0,0,1,2.741.547l-.362,1.011a6.2,6.2,0,0,0-2.406-.519,2.334,2.334,0,0,0-1.443.4,1.309,1.309,0,0,0-.519,1.1,1.694,1.694,0,0,0,.191.851,1.8,1.8,0,0,0,.646.608,7.976,7.976,0,0,0,1.391.612,5.511,5.511,0,0,1,2.164,1.2A2.369,2.369,0,0,1,231.084,108.3Zm3.008,2.66h-1.135v-7.493h1.135Zm-1.23-9.523a.753.753,0,0,1,.191-.571.708.708,0,0,1,.95,0,.74.74,0,0,1,.2.567.753.753,0,0,1-.2.571.694.694,0,0,1-.95,0A.766.766,0,0,1,232.862,101.437Zm8.763,9.523v-4.847a1.953,1.953,0,0,0-.417-1.367,1.7,1.7,0,0,0-1.305-.451,2.154,2.154,0,0,0-1.723.635,3.209,3.209,0,0,0-.547,2.1v3.931H236.5v-7.493h.923l.185,1.026h.054a2.326,2.326,0,0,1,.978-.858,3.171,3.171,0,0,1,1.4-.3,2.848,2.848,0,0,1,2.038.652,2.784,2.784,0,0,1,.683,2.089v4.888Zm6.3-.814a2.065,2.065,0,0,0,1.655-.608,3.3,3.3,0,0,0,.553-2.051v-.253a3.746,3.746,0,0,0-.533-2.263,2,2,0,0,0-1.688-.69,1.735,1.735,0,0,0-1.528.776,3.858,3.858,0,0,0-.53,2.191,3.72,3.72,0,0,0,.523,2.156A1.771,1.771,0,0,0,247.921,110.146Zm-.171.95a2.732,2.732,0,0,1-2.262-1.018,4.443,4.443,0,0,1-.814-2.844,4.508,4.508,0,0,1,.82-2.871,3.014,3.014,0,0,1,4.649.13h.061l.164-1.026h.9v10.856h-1.135v-3.206a7.651,7.651,0,0,1,.075-1.162h-.088A2.682,2.682,0,0,1,247.75,111.1Zm6.987-7.629v4.861a1.956,1.956,0,0,0,.417,1.367,1.7,1.7,0,0,0,1.305.451,2.134,2.134,0,0,0,1.72-.642,3.245,3.245,0,0,0,.543-2.1v-3.938h1.135v7.493h-.937l-.164-1H258.7a2.264,2.264,0,0,1-.968.847,3.248,3.248,0,0,1-1.411.294,2.865,2.865,0,0,1-2.048-.649,2.767,2.767,0,0,1-.68-2.078v-4.9Zm10.691,7.629a3.446,3.446,0,0,1-2.622-1.011,3.919,3.919,0,0,1-.96-2.81,4.342,4.342,0,0,1,.892-2.878,2.964,2.964,0,0,1,2.4-1.066,2.825,2.825,0,0,1,2.229.926,3.548,3.548,0,0,1,.82,2.444v.718h-5.161a2.971,2.971,0,0,0,.666,2,2.305,2.305,0,0,0,1.781.684,6.042,6.042,0,0,0,2.393-.506v1.012a6,6,0,0,1-1.139.372A6.327,6.327,0,0,1,265.428,111.1Zm-.308-6.815a1.854,1.854,0,0,0-1.439.588,2.715,2.715,0,0,0-.632,1.627h3.917a2.493,2.493,0,0,0-.478-1.644A1.684,1.684,0,0,0,265.12,104.281ZM240.309,129.96v-4.874a2.027,2.027,0,0,0-.382-1.344,1.484,1.484,0,0,0-1.19-.447,1.918,1.918,0,0,0-1.565.608,2.888,2.888,0,0,0-.506,1.873v4.184h-1.135v-4.874a2.027,2.027,0,0,0-.383-1.344,1.491,1.491,0,0,0-1.2-.447,1.853,1.853,0,0,0-1.562.639,3.46,3.46,0,0,0-.5,2.095v3.931H230.76v-7.493h.922l.185,1.026h.055a2.229,2.229,0,0,1,.905-.855,2.77,2.77,0,0,1,1.31-.307,2.224,2.224,0,0,1,2.3,1.271h.055a2.388,2.388,0,0,1,.971-.93,3.022,3.022,0,0,1,1.449-.341,2.538,2.538,0,0,1,1.9.652,2.926,2.926,0,0,1,.632,2.089v4.888Zm8.08,0-.225-1.067h-.055a3.151,3.151,0,0,1-1.117.954,3.419,3.419,0,0,1-1.392.249,2.5,2.5,0,0,1-1.746-.574,2.093,2.093,0,0,1-.632-1.634q0-2.27,3.629-2.379l1.272-.041V125a1.9,1.9,0,0,0-.38-1.3,1.559,1.559,0,0,0-1.213-.42,4.94,4.94,0,0,0-2.119.574l-.349-.868a5.312,5.312,0,0,1,1.214-.472,5.248,5.248,0,0,1,1.322-.171,2.854,2.854,0,0,1,1.986.595,2.481,2.481,0,0,1,.646,1.907v5.114Zm-2.563-.8a2.308,2.308,0,0,0,1.665-.581,2.152,2.152,0,0,0,.6-1.627v-.677l-1.135.048a4.134,4.134,0,0,0-1.952.42,1.268,1.268,0,0,0-.6,1.159,1.166,1.166,0,0,0,.373.936A1.54,1.54,0,0,0,245.826,129.16Zm9.16-6.829a4.425,4.425,0,0,1,.9.082l-.158,1.052a3.875,3.875,0,0,0-.82-.1,2,2,0,0,0-1.555.738,2.69,2.69,0,0,0-.646,1.839v4.02h-1.135v-7.493h.937l.13,1.388h.054a3.287,3.287,0,0,1,1-1.128A2.265,2.265,0,0,1,254.986,122.331Zm3.418,3.794a13.352,13.352,0,0,1,.9-1.094l2.42-2.564h1.346l-3.035,3.193,3.247,4.3H261.9l-2.645-3.541-.855.738v2.8h-1.121V119.323H258.4v5.639q0,.376-.055,1.163Z" fill-rule="evenodd"/>
            <path d="M231.084,108.3a2.451,2.451,0,0,1-.957,2.058,4.15,4.15,0,0,1-2.6.738,6.5,6.5,0,0,1-2.735-.458v-1.121a7.192,7.192,0,0,0,1.34.41,7,7,0,0,0,1.436.151,2.9,2.9,0,0,0,1.75-.441,1.447,1.447,0,0,0,.588-1.227,1.573,1.573,0,0,0-.209-.851,1.936,1.936,0,0,0-.7-.612,9.764,9.764,0,0,0-1.487-.636,4.758,4.758,0,0,1-1.993-1.182,2.617,2.617,0,0,1-.6-1.785,2.222,2.222,0,0,1,.868-1.839,3.614,3.614,0,0,1,2.3-.683,6.759,6.759,0,0,1,2.741.547l-.362,1.011a6.2,6.2,0,0,0-2.406-.519,2.334,2.334,0,0,0-1.443.4,1.309,1.309,0,0,0-.519,1.1,1.694,1.694,0,0,0,.191.851,1.8,1.8,0,0,0,.646.608,7.976,7.976,0,0,0,1.391.612,5.511,5.511,0,0,1,2.164,1.2A2.369,2.369,0,0,1,231.084,108.3Zm3.008,2.66h-1.135v-7.493h1.135Zm-1.23-9.523a.753.753,0,0,1,.191-.571.708.708,0,0,1,.95,0,.74.74,0,0,1,.2.567.753.753,0,0,1-.2.571.694.694,0,0,1-.95,0A.766.766,0,0,1,232.862,101.437Zm8.763,9.523v-4.847a1.953,1.953,0,0,0-.417-1.367,1.7,1.7,0,0,0-1.305-.451,2.154,2.154,0,0,0-1.723.635,3.209,3.209,0,0,0-.547,2.1v3.931H236.5v-7.493h.923l.185,1.026h.054a2.326,2.326,0,0,1,.978-.858,3.171,3.171,0,0,1,1.4-.3,2.848,2.848,0,0,1,2.038.652,2.784,2.784,0,0,1,.683,2.089v4.888Zm6.3-.814a2.065,2.065,0,0,0,1.655-.608,3.3,3.3,0,0,0,.553-2.051v-.253a3.746,3.746,0,0,0-.533-2.263,2,2,0,0,0-1.688-.69,1.735,1.735,0,0,0-1.528.776,3.858,3.858,0,0,0-.53,2.191,3.72,3.72,0,0,0,.523,2.156A1.771,1.771,0,0,0,247.921,110.146Zm-.171.95a2.732,2.732,0,0,1-2.262-1.018,4.443,4.443,0,0,1-.814-2.844,4.508,4.508,0,0,1,.82-2.871,3.014,3.014,0,0,1,4.649.13h.061l.164-1.026h.9v10.856h-1.135v-3.206a7.651,7.651,0,0,1,.075-1.162h-.088A2.682,2.682,0,0,1,247.75,111.1Zm6.987-7.629v4.861a1.956,1.956,0,0,0,.417,1.367,1.7,1.7,0,0,0,1.305.451,2.134,2.134,0,0,0,1.72-.642,3.245,3.245,0,0,0,.543-2.1v-3.938h1.135v7.493h-.937l-.164-1H258.7a2.264,2.264,0,0,1-.968.847,3.248,3.248,0,0,1-1.411.294,2.865,2.865,0,0,1-2.048-.649,2.767,2.767,0,0,1-.68-2.078v-4.9Zm10.691,7.629a3.446,3.446,0,0,1-2.622-1.011,3.919,3.919,0,0,1-.96-2.81,4.342,4.342,0,0,1,.892-2.878,2.964,2.964,0,0,1,2.4-1.066,2.825,2.825,0,0,1,2.229.926,3.548,3.548,0,0,1,.82,2.444v.718h-5.161a2.971,2.971,0,0,0,.666,2,2.305,2.305,0,0,0,1.781.684,6.042,6.042,0,0,0,2.393-.506v1.012a6,6,0,0,1-1.139.372A6.327,6.327,0,0,1,265.428,111.1Zm-.308-6.815a1.854,1.854,0,0,0-1.439.588,2.715,2.715,0,0,0-.632,1.627h3.917a2.493,2.493,0,0,0-.478-1.644A1.684,1.684,0,0,0,265.12,104.281ZM240.309,129.96v-4.874a2.027,2.027,0,0,0-.382-1.344,1.484,1.484,0,0,0-1.19-.447,1.918,1.918,0,0,0-1.565.608,2.888,2.888,0,0,0-.506,1.873v4.184h-1.135v-4.874a2.027,2.027,0,0,0-.383-1.344,1.491,1.491,0,0,0-1.2-.447,1.853,1.853,0,0,0-1.562.639,3.46,3.46,0,0,0-.5,2.095v3.931H230.76v-7.493h.922l.185,1.026h.055a2.229,2.229,0,0,1,.905-.855,2.77,2.77,0,0,1,1.31-.307,2.224,2.224,0,0,1,2.3,1.271h.055a2.388,2.388,0,0,1,.971-.93,3.022,3.022,0,0,1,1.449-.341,2.538,2.538,0,0,1,1.9.652,2.926,2.926,0,0,1,.632,2.089v4.888Zm8.08,0-.225-1.067h-.055a3.151,3.151,0,0,1-1.117.954,3.419,3.419,0,0,1-1.392.249,2.5,2.5,0,0,1-1.746-.574,2.093,2.093,0,0,1-.632-1.634q0-2.27,3.629-2.379l1.272-.041V125a1.9,1.9,0,0,0-.38-1.3,1.559,1.559,0,0,0-1.213-.42,4.94,4.94,0,0,0-2.119.574l-.349-.868a5.312,5.312,0,0,1,1.214-.472,5.248,5.248,0,0,1,1.322-.171,2.854,2.854,0,0,1,1.986.595,2.481,2.481,0,0,1,.646,1.907v5.114Zm-2.563-.8a2.308,2.308,0,0,0,1.665-.581,2.152,2.152,0,0,0,.6-1.627v-.677l-1.135.048a4.134,4.134,0,0,0-1.952.42,1.268,1.268,0,0,0-.6,1.159,1.166,1.166,0,0,0,.373.936A1.54,1.54,0,0,0,245.826,129.16Zm9.16-6.829a4.425,4.425,0,0,1,.9.082l-.158,1.052a3.875,3.875,0,0,0-.82-.1,2,2,0,0,0-1.555.738,2.69,2.69,0,0,0-.646,1.839v4.02h-1.135v-7.493h.937l.13,1.388h.054a3.287,3.287,0,0,1,1-1.128A2.265,2.265,0,0,1,254.986,122.331Zm3.418,3.794a13.352,13.352,0,0,1,.9-1.094l2.42-2.564h1.346l-3.035,3.193,3.247,4.3H261.9l-2.645-3.541-.855.738v2.8h-1.121V119.323H258.4v5.639q0,.376-.055,1.163Z" fill="#111" fill-rule="evenodd"/>
          </g>
          <path d="M229.967,190.359c6.871-.563,11.926-5.5,13.8-11.985,1.566-5.424,3.542-10.987,9.221-13.311,3.155-1.29,6.688-1.115,10.032-1.124-3.152.543-6.035,3.119-7.668,5.755-1.977,3.189-2.6,6.847-3.842,10.328a14.552,14.552,0,0,1-5.665,7.524,18.722,18.722,0,0,1-8.33,2.6A73.38,73.38,0,0,1,229.967,190.359Z" fill="#111" fill-rule="evenodd" opacity="0.25" style="isolation: isolate"/>
        </g>
        <path d="M193.526,187.613a.772.772,0,0,1-.608-1.245l4.359-5.629-4.364-5.791a.772.772,0,1,1,1.232-.929l4.719,6.262a.773.773,0,0,1-.006.937l-4.719,6.095A.771.771,0,0,1,193.526,187.613Z" fill="#111" fill-rule="evenodd" opacity="0.25" style="isolation: isolate"/>
        <path d="M92.824,187.613a.772.772,0,0,1-.608-1.245l4.359-5.629-4.364-5.791a.772.772,0,1,1,1.232-.929l4.719,6.262a.771.771,0,0,1-.006.937l-4.719,6.095A.769.769,0,0,1,92.824,187.613Z" fill="#111" fill-rule="evenodd" opacity="0.25" style="isolation: isolate"/>
        <g id="Group-23">
          <g id="Group">
            <path d="M44.788,50.805A29.958,29.958,0,0,1,31.38,47.477l1.128-7.132a23.836,23.836,0,0,0,12.554,4.044c3.707-.006,5.7-1.365,5.7-3.577,0-2.424-1.5-3.421-6.995-4.765-8.346-2.125-11.842-4.542-11.852-10.816C31.9,19.314,36.6,15.1,44.585,15.086a29.079,29.079,0,0,1,12.051,2.4l-1.13,7.133a23.527,23.527,0,0,0-10.912-3.118c-3.208.005-4.774,1.219-4.769,3.144,0,1.854,1.287,2.851,6.423,4.2,8.917,2.267,12.412,4.684,12.423,11.172C58.683,46.789,53.841,50.789,44.788,50.805Z" fill="#0c0755" fill-rule="evenodd"/>
            <path id="Shape" d="M67.96,9.916a4.878,4.878,0,0,1-5.141-4.84,5.1,5.1,0,0,1,10.195-.017A4.859,4.859,0,0,1,67.96,9.916ZM63.68,50.131,63.621,15.7l8.554-.015.059,34.433Z" fill="#0c0755"/>
            <path d="M99.683,50.07l-.038-22.529c0-2.993-1.292-5.059-4.429-5.053-2.709,0-5.344,1.72-7.834,4.361l.04,23.241-8.554.015-.059-34.433,7.272-.012.793,4.846c3.2-3.071,6.834-5.573,11.468-5.58,6.416-.011,9.844,3.9,9.855,10.32l.043,24.809Z" fill="#0c0755" fill-rule="evenodd"/>
            <path d="M135.711,63.269l-.029-17.108c-2.278,2.285-5.412,4.572-9.76,4.579-7.272.013-12.984-5.324-13-16.945-.022-12.689,6.812-18.618,17.149-18.636a43.4,43.4,0,0,1,14.119,2.258l.076,44.557Zm-.069-40.137a13.632,13.632,0,0,0-5.421-.989c-5.417.009-8.761,3.295-8.749,11.136.012,6.7,2.8,9.834,6.647,9.827,2.851-.005,5.343-1.863,7.55-4.432Z" fill="#0c0755"/>
            <path d="M172.476,49.946l-.793-4.846c-3.2,3.071-6.907,5.572-11.469,5.58-6.487.011-9.844-3.9-9.854-10.392l-.042-24.738,8.553-.014.039,22.527c0,2.995,1.291,4.988,4.354,4.983,2.709,0,5.416-1.72,7.907-4.291l-.04-23.24,8.554-.014.059,34.433Z" fill="#0c0755" fill-rule="evenodd"/>
            <path d="M215.083,34.332l-22.1.038c.44,6.7,4.008,9.617,9.284,9.608,4.42-.007,8.053-1.653,11.827-4.3l1.01,6.7a23.537,23.537,0,0,1-13.753,4.23c-9.624.016-16.834-5.461-16.855-17.866-.018-11.192,6.671-17.976,15.656-17.988,10.336-.018,14.982,7.745,15,17.512C215.152,32.978,215.082,33.832,215.083,34.332ZM199.946,20.67c-3.421.006-6.2,2.72-6.829,8.353L206.806,29c-.582-5.346-2.726-8.335-6.86-8.33Z" fill="#0c0755"/>
          </g>
          <path d="M204.33,59.682c14.653-1.2,25.439-11.74,29.431-25.565,3.341-11.571,7.556-23.439,19.669-28.395,6.73-2.754,14.263-2.379,21.395-2.4C268.1,4.482,261.952,9.978,258.468,15.6c-4.215,6.8-5.538,14.606-8.194,22.032-2.326,6.5-6.226,12.261-12.085,16.05-5.3,3.425-11.564,4.914-17.773,5.55C215.074,59.779,209.693,59.67,204.33,59.682Z" fill="#ffc600" fill-rule="evenodd"/>
        </g>
      </g>
    </g>
  </g>
</svg>
