<svg xmlns="http://www.w3.org/2000/svg" xmlns:xlink="http://www.w3.org/1999/xlink" viewBox="0 0 285.795 113.168">
  <defs>
    <clipPath id="clip-path">
      <rect width="285.795" height="113.168" fill="none"/>
    </clipPath>
  </defs>
  <title>ws2018-icons</title>
  <g id="grid">
    <g clip-path="url(#clip-path)">
      <g>
        <polyline points="-66.896 168.649 344.756 167.982 344.336 -90.1 -67.314 -89.432 -66.896 168.649" fill="#1d1751"/>
        <path d="M-.8,225.538l-.053-1.278A33.057,33.057,0,0,0,10.2,221.726a21.075,21.075,0,0,0,7.963-6.287,35.969,35.969,0,0,0,4.233-6.973A90.531,90.531,0,0,0,27.31,194.9h0A38.927,38.927,0,0,1,33.8,181.146a30.758,30.758,0,0,1,11.954-9.266,49.543,49.543,0,0,1,11.184-3.419l-.005-.115c.457-.038.906-.079,1.347-.126q1.712-.294,3.536-.518a27.468,27.468,0,0,0,6.082-1.851c.168-.077.334-.154.5-.233l2.675,0q-.38.237-.768.454a26.857,26.857,0,0,1-8.27,2.9l-.021,0-.021,0q-1.819.224-3.518.514l-.021,0-.02,0c-.225.026-.453.047-.682.069l0,.053a42.757,42.757,0,0,0-15.99,5.9,28.617,28.617,0,0,0-9.533,10.357,42.438,42.438,0,0,0-3.694,9.377l0,0v0a85.214,85.214,0,0,1-5.674,15.133,29.259,29.259,0,0,1-7.134,9.374,22.021,22.021,0,0,1-6.118,3.6c-.681.269-1.383.51-2.106.728a87.473,87.473,0,0,0,9.381-.89,39.569,39.569,0,0,0,13.94-4.579,27.643,27.643,0,0,0,7.26-6.083,38.659,38.659,0,0,0,7.031-13.3v0l0-.007a120.965,120.965,0,0,1,6.342-15.487,36.5,36.5,0,0,1,6.511-9.383,21.974,21.974,0,0,1,4.98-3.732,30.37,30.37,0,0,1,7.957-2.85l.037-.008.039,0a54.719,54.719,0,0,0,11.019-2.16l3.7-.007a37.56,37.56,0,0,1-3.693,1.348,56.73,56.73,0,0,1-10.853,2.089,27.7,27.7,0,0,0-8.417,3.2,22.879,22.879,0,0,0-6.715,6.413,47.454,47.454,0,0,0-4.1,7.043,129.032,129.032,0,0,0-5.59,13.956,38.476,38.476,0,0,1-8.414,15,30.432,30.432,0,0,1-12.427,7.8,51.665,51.665,0,0,1-10.207,2.282,126.13,126.13,0,0,1-15.727.819H-.8M27.925,195.08h0M58.37,168.854h0m3.548-.518h0m278.7-232.775,0-1.776a28.911,28.911,0,0,0,2.555-2.951,40.287,40.287,0,0,0,5.992-12v-.006l0-.006a116.8,116.8,0,0,1,6.663-16.105,33.948,33.948,0,0,1,6.917-9.456,21.868,21.868,0,0,1,5.375-3.615,35.6,35.6,0,0,1,8.715-2.668h0l.028-.006.027,0a47.4,47.4,0,0,0,15.4-3.825,28.053,28.053,0,0,0,11.4-9.63,41.539,41.539,0,0,0,5.264-11l0-.007,0,0a112.355,112.355,0,0,1,7.043-16.809,31.411,31.411,0,0,1,7.41-9.507,22.372,22.372,0,0,1,5.867-3.462,30.466,30.466,0,0,1,2.978-1.03,77.125,77.125,0,0,0-14.613,2.05,37.121,37.121,0,0,0-14.062,6.5,28.245,28.245,0,0,0-6.117,6.616,39.6,39.6,0,0,0-5.087,11.668l0,.007v0a85.366,85.366,0,0,1-5.674,15.134,29.284,29.284,0,0,1-7.134,9.374,22.081,22.081,0,0,1-6.12,3.6,34.514,34.514,0,0,1-9.2,2.068l.009.1c-7.278,1.061-12.992,2.981-17.5,5.7a28.579,28.579,0,0,0-10.281,10.582q-.557.978-1.058,2.01l-1.418,0a33.031,33.031,0,0,1,4.244-6.883,31.406,31.406,0,0,1,12.949-9.35A53.9,53.9,0,0,1,363-112.292l-.006-.168a33.063,33.063,0,0,0,11.051-2.534A21.086,21.086,0,0,0,382-121.282a35.977,35.977,0,0,0,4.232-6.972,90.31,90.31,0,0,0,4.918-13.557,39.372,39.372,0,0,1,6.16-13.322,30.308,30.308,0,0,1,11.157-9.171,46.537,46.537,0,0,1,10.9-3.667,94.789,94.789,0,0,1,19.7-1.794l.1,1.272a40.211,40.211,0,0,0-10.4,2.833,21.311,21.311,0,0,0-7.8,6.137,40.674,40.674,0,0,0-4.594,7.259,120.638,120.638,0,0,0-6.2,15.179c-2.182,6.736-5.179,11.778-8.92,15.521a31.159,31.159,0,0,1-13.3,7.726,57.289,57.289,0,0,1-10.912,2.077,32.288,32.288,0,0,0-9.28,3.018,21.948,21.948,0,0,0-7.2,6.3,44.093,44.093,0,0,0-4.326,7.155,124.85,124.85,0,0,0-5.87,14.525c-2.344,7.231-5.626,12.513-9.758,16.328m51.149-77.2h0" fill="#fff"/>
        <path d="M68.4,165.618a20.5,20.5,0,0,0,4.513-2.928c3.041-2.6,5.564-6.271,7.852-11.4a96.463,96.463,0,0,0,4.336-12.3h0a37.356,37.356,0,0,1,7.79-15.321,33.259,33.259,0,0,1,15.158-9.431,67.675,67.675,0,0,1,15.29-2.825,23.419,23.419,0,0,0,7.119-2.962,21.948,21.948,0,0,0,5.657-5.311c3.392-4.453,6.133-10.9,8.785-20.06,1.764-6.45,4.443-11.879,8.579-16.18s9.711-7.451,17.183-9.4a81.158,81.158,0,0,1,17.564-2.3,21.49,21.49,0,0,0,12.04-8.43c3.242-4.436,5.892-10.765,8.457-19.625a38.441,38.441,0,0,1,6.909-14.282,31.416,31.416,0,0,1,12.959-9.351A53.152,53.152,0,0,1,239.78.449l-.011-.264a33.051,33.051,0,0,0,11.05-2.534,21.075,21.075,0,0,0,7.965-6.289,35.917,35.917,0,0,0,4.231-6.971,90.6,90.6,0,0,0,4.921-13.565h0c1.708-6.247,4.276-11.536,8.2-15.77s9.182-7.4,16.2-9.424A74.442,74.442,0,0,1,308.8-56.931a24.558,24.558,0,0,0,7.536-2.834,21.494,21.494,0,0,0,5.925-5.27c3.536-4.467,6.362-11.029,9.095-20.462a46.85,46.85,0,0,1,2.662-7.4l1.418,0a44.506,44.506,0,0,0-2.847,7.745l0,0v.007c-2.069,7.129-4.193,12.681-6.688,16.994a25.2,25.2,0,0,1-8.907,9.484,24.169,24.169,0,0,1-5.514,2.375l.049-.011.056-.013.057,0c6.828-.321,12.936-1.17,18.213-3.118a28.96,28.96,0,0,0,10.767-6.78l0,1.776c-.16.146-.318.29-.48.432a33.8,33.8,0,0,1-15.566,7.425,77.21,77.21,0,0,1-12.821,1.541,27.631,27.631,0,0,0-8.4,3.192,22.884,22.884,0,0,0-6.712,6.413,47.526,47.526,0,0,0-4.1,7.044,128.908,128.908,0,0,0-5.589,13.952c-2.113,6.524-4.993,11.46-8.57,15.165a30.618,30.618,0,0,1-12.7,7.78A53.072,53.072,0,0,1,255.277.722a34.944,34.944,0,0,0-9.687,2.946,21.665,21.665,0,0,0-7.421,6.24,42.8,42.8,0,0,0-4.426,7.2,123.488,123.488,0,0,0-6,14.775,39.564,39.564,0,0,1-7.514,14.013,29.477,29.477,0,0,1-10.908,7.857,43.093,43.093,0,0,1-8.918,2.627,88.336,88.336,0,0,1-13.633,1.318,24.913,24.913,0,0,0-6.755,2.891,22.31,22.31,0,0,0-5.648,5.216c-3.537,4.5-6.762,11.36-10.443,22-2.321,7.158-5.56,12.405-9.632,16.211a32.467,32.467,0,0,1-14.52,7.581,66.969,66.969,0,0,1-11.927,1.785,25.537,25.537,0,0,0-7.91,3.305,23.644,23.644,0,0,0-6.431,6.473,49.7,49.7,0,0,0-3.966,6.966,132.052,132.052,0,0,0-5.417,13.6c-2.176,6.714-5.16,11.746-8.884,15.485A29.68,29.68,0,0,1,85.7,165.59l-3.7.007a35.224,35.224,0,0,0,4.305-1.681,28.082,28.082,0,0,0,11.354-9.626,41.546,41.546,0,0,0,5.244-10.971v-.007l0-.006a123.6,123.6,0,0,1,6.144-15.1,38.2,38.2,0,0,1,6.268-9.321,22.222,22.222,0,0,1,4.747-3.8,27.886,27.886,0,0,1,7.517-2.966l.055-.014.058,0c6.337-.44,12.005-1.425,16.914-3.448a28.211,28.211,0,0,0,12.437-9.7A40.772,40.772,0,0,0,162.713,87.4V87.4l0-.006A125.955,125.955,0,0,1,168.7,72.613a39.721,39.721,0,0,1,6.075-9.262,22.56,22.56,0,0,1,4.562-3.847,25.784,25.784,0,0,1,6.68-2.924A72.512,72.512,0,0,0,169.2,59.237,34.716,34.716,0,0,0,156.5,65.819a28.465,28.465,0,0,0-5.61,6.441,40.254,40.254,0,0,0-4.75,11.156l0,.005,0,0a78.849,78.849,0,0,1-6.47,16.614,25.867,25.867,0,0,1-8.513,9.487,24.7,24.7,0,0,1-7.554,3.139l-.05.012-.051,0c-8.756.707-15.569,2.448-20.876,5.152a28.8,28.8,0,0,0-11.927,10.978,40.993,40.993,0,0,0-4.357,10.523l0,0v0c-2.109,7.273-4.278,12.9-6.839,17.253a25.2,25.2,0,0,1-8.416,9.018l-2.675,0m17.316-26.454h0m37.725-27.121h0m22.076-28.8h0M241.646,1.288l.01.161c-7.279,1.061-13,2.979-17.506,5.7a28.586,28.586,0,0,0-10.285,10.583,41.962,41.962,0,0,0-3.908,9.757l0,.007v0A80.7,80.7,0,0,1,203.716,43.7a26.716,26.716,0,0,1-8.1,9.474,23.456,23.456,0,0,1-6.7,3.162,64.087,64.087,0,0,0,17.166-2.725,28.833,28.833,0,0,0,14.15-9.728,39.723,39.723,0,0,0,6.3-12.4l0-.006,0-.006a115.042,115.042,0,0,1,6.807-16.372,32.976,32.976,0,0,1,7.1-9.48A22.055,22.055,0,0,1,246,2.054,38.619,38.619,0,0,1,255.068-.54l.019,0,.02,0a44.508,44.508,0,0,0,14.663-4,28.029,28.029,0,0,0,10.9-9.576,41.855,41.855,0,0,0,5.07-10.717l0-.007,0,0a121.139,121.139,0,0,1,6.341-15.482,36.455,36.455,0,0,1,6.508-9.381,21.9,21.9,0,0,1,4.978-3.733,27.116,27.116,0,0,1,5.637-2.26l-.2.042-.047.01-.049,0c-9.466.525-16.8,2.167-22.492,4.848a29.015,29.015,0,0,0-12.7,11.125,40.563,40.563,0,0,0-4.562,10.855l0,.007v0a85.4,85.4,0,0,1-5.674,15.134,29.272,29.272,0,0,1-7.135,9.374,22.11,22.11,0,0,1-6.119,3.6,33.739,33.739,0,0,1-8.591,2m-53.319,54.55h0m21.014-28.516h0M268.55-29h0m40.334-27.3h0m23.084-29.027h0" fill="#504972"/>
        <path d="M-30.131,225.538l-.053-1.278a33.045,33.045,0,0,0,11.05-2.534,21.078,21.078,0,0,0,7.964-6.287,35.919,35.919,0,0,0,4.232-6.973A90.412,90.412,0,0,0-2.018,194.9h0a38.927,38.927,0,0,1,6.493-13.755,30.75,30.75,0,0,1,11.954-9.266,49.527,49.527,0,0,1,11.184-3.419l0-.115c.457-.038.905-.079,1.347-.126q1.71-.294,3.536-.518a27.443,27.443,0,0,0,6.081-1.851c.135-.06.267-.122.4-.184l2.7,0c-.227.139-.458.275-.691.405a26.842,26.842,0,0,1-8.269,2.9l-.02,0-.022,0q-1.821.224-3.519.514l-.02,0-.02,0c-.226.026-.453.047-.683.069l.005.053a42.75,42.75,0,0,0-15.99,5.9,28.62,28.62,0,0,0-9.534,10.357,42.437,42.437,0,0,0-3.693,9.377l0,0v0A85.214,85.214,0,0,1-6.463,210.39a29.259,29.259,0,0,1-7.134,9.374,22.036,22.036,0,0,1-6.118,3.6c-.681.269-1.383.51-2.106.728a87.5,87.5,0,0,0,9.381-.89A39.569,39.569,0,0,0,1.5,218.619a27.639,27.639,0,0,0,7.259-6.083,38.625,38.625,0,0,0,7.031-13.3l0,0,0-.007a121.1,121.1,0,0,1,6.343-15.487,36.5,36.5,0,0,1,6.511-9.383,21.952,21.952,0,0,1,4.98-3.732,30.362,30.362,0,0,1,7.956-2.85l.038-.008.038,0a55.031,55.031,0,0,0,10.869-2.113l3.735,0a38.016,38.016,0,0,1-3.582,1.3,56.719,56.719,0,0,1-10.852,2.089,27.7,27.7,0,0,0-8.417,3.2,22.882,22.882,0,0,0-6.716,6.413,47.544,47.544,0,0,0-4.1,7.043,129.032,129.032,0,0,0-5.59,13.956,38.476,38.476,0,0,1-8.414,15,30.432,30.432,0,0,1-12.427,7.8,51.665,51.665,0,0,1-10.207,2.282,126.13,126.13,0,0,1-15.727.819h-.362M-1.4,195.08h0m30.446-26.226h0m3.548-.518h0M304.667-92.847a33.061,33.061,0,0,1,4.263-6.93,31.426,31.426,0,0,1,12.951-9.35,53.843,53.843,0,0,1,11.787-3.165l-.006-.168a33.056,33.056,0,0,0,11.05-2.534,21.05,21.05,0,0,0,7.962-6.288,35.88,35.88,0,0,0,4.234-6.972,90.35,90.35,0,0,0,4.919-13.565h0a39.415,39.415,0,0,1,6.159-13.314,30.321,30.321,0,0,1,11.156-9.171,46.523,46.523,0,0,1,10.9-3.667,94.745,94.745,0,0,1,19.7-1.794l.1,1.272a40.2,40.2,0,0,0-10.4,2.833,21.311,21.311,0,0,0-7.8,6.137,40.673,40.673,0,0,0-4.595,7.259,120.911,120.911,0,0,0-6.2,15.179c-2.182,6.736-5.179,11.778-8.92,15.521a31.166,31.166,0,0,1-13.292,7.726,57.233,57.233,0,0,1-10.914,2.076,32.318,32.318,0,0,0-9.28,3.019,21.955,21.955,0,0,0-7.2,6.3,44.091,44.091,0,0,0-4.328,7.155q-.568,1.149-1.143,2.411l-1.4,0q1.065-2.389,2.131-4.405a33.984,33.984,0,0,1,6.914-9.456,21.962,21.962,0,0,1,5.375-3.615,35.615,35.615,0,0,1,8.717-2.668h0l.028-.006.028,0a47.4,47.4,0,0,0,15.4-3.825,28.055,28.055,0,0,0,11.406-9.63,41.477,41.477,0,0,0,5.264-11v0l0-.007a112.334,112.334,0,0,1,7.045-16.809,31.4,31.4,0,0,1,7.41-9.507,22.383,22.383,0,0,1,5.866-3.462,30.486,30.486,0,0,1,2.979-1.03,77.1,77.1,0,0,0-14.612,2.05,37.107,37.107,0,0,0-14.062,6.5,28.25,28.25,0,0,0-6.118,6.616,39.569,39.569,0,0,0-5.087,11.668l0,0v0a85.438,85.438,0,0,1-5.675,15.134,29.272,29.272,0,0,1-7.135,9.374,22.065,22.065,0,0,1-6.117,3.6,34.541,34.541,0,0,1-9.2,2.068l.006.1c-7.275,1.061-12.991,2.981-17.5,5.7a28.589,28.589,0,0,0-10.279,10.582q-.568,1-1.081,2.058l-1.416,0m57.774-48.794h0" fill="#fff"/>
        <path d="M38.972,165.667a20.4,20.4,0,0,0,4.613-2.977c3.042-2.6,5.565-6.271,7.852-11.4a96.453,96.453,0,0,0,4.337-12.3h0a37.356,37.356,0,0,1,7.79-15.321,33.254,33.254,0,0,1,15.158-9.431,67.666,67.666,0,0,1,15.289-2.825,23.408,23.408,0,0,0,7.119-2.962,21.951,21.951,0,0,0,5.658-5.311c3.393-4.455,6.134-10.908,8.788-20.068,1.764-6.446,4.441-11.873,8.575-16.172s9.711-7.451,17.183-9.4A81.143,81.143,0,0,1,158.9,55.2a21.476,21.476,0,0,0,12.038-8.43c3.242-4.435,5.891-10.762,8.457-19.619a38.394,38.394,0,0,1,6.91-14.288,31.393,31.393,0,0,1,12.958-9.351A53.179,53.179,0,0,1,210.452.449l-.011-.264a33.057,33.057,0,0,0,11.051-2.534,21.05,21.05,0,0,0,7.962-6.289,35.871,35.871,0,0,0,4.234-6.971,90.289,90.289,0,0,0,4.918-13.565h0c1.711-6.247,4.277-11.536,8.2-15.77s9.184-7.4,16.2-9.424a74.461,74.461,0,0,1,16.471-2.563,24.572,24.572,0,0,0,7.535-2.834,21.54,21.54,0,0,0,5.926-5.27c3.534-4.466,6.36-11.025,9.092-20.455h0a46.617,46.617,0,0,1,2.643-7.357l1.416,0a44.875,44.875,0,0,0-2.826,7.7v0l0,0c-2.067,7.129-4.193,12.681-6.689,16.994a25.2,25.2,0,0,1-8.9,9.484,24.257,24.257,0,0,1-5.513,2.375l.049-.011.055-.013.058,0c6.827-.321,12.934-1.17,18.213-3.118a28.493,28.493,0,0,0,13.322-9.731,40.214,40.214,0,0,0,5.989-12l0-.007,0,0c1.57-4.533,3.059-8.395,4.535-11.7l1.4,0c-1.529,3.37-3.082,7.368-4.728,12.119-2.432,7.506-5.879,12.911-10.234,16.755a33.809,33.809,0,0,1-15.568,7.425,77.172,77.172,0,0,1-12.819,1.541,27.611,27.611,0,0,0-8.4,3.192,22.884,22.884,0,0,0-6.712,6.413,47.437,47.437,0,0,0-4.1,7.044,129.3,129.3,0,0,0-5.59,13.952c-2.114,6.524-4.991,11.46-8.57,15.165a30.624,30.624,0,0,1-12.695,7.78A53.15,53.15,0,0,1,225.95.722a34.919,34.919,0,0,0-9.688,2.946,21.662,21.662,0,0,0-7.42,6.24,42.738,42.738,0,0,0-4.426,7.2,123.472,123.472,0,0,0-6,14.775,39.564,39.564,0,0,1-7.514,14.013A29.485,29.485,0,0,1,180,53.749a43.083,43.083,0,0,1-8.917,2.627,88.361,88.361,0,0,1-13.634,1.318,24.94,24.94,0,0,0-6.755,2.891,22.293,22.293,0,0,0-5.648,5.216c-3.537,4.5-6.761,11.36-10.444,22-2.319,7.158-5.559,12.405-9.632,16.211a32.458,32.458,0,0,1-14.519,7.581,66.98,66.98,0,0,1-11.928,1.785,25.531,25.531,0,0,0-7.909,3.305,23.63,23.63,0,0,0-6.431,6.473,49.7,49.7,0,0,0-3.966,6.966,131.8,131.8,0,0,0-5.418,13.6c-2.175,6.714-5.159,11.746-8.883,15.485a29.741,29.741,0,0,1-9.65,6.435l-3.735,0a35.4,35.4,0,0,0,4.456-1.728,28.073,28.073,0,0,0,11.353-9.626,41.484,41.484,0,0,0,5.244-10.971l0-.007,0-.006a123.924,123.924,0,0,1,6.144-15.1A38.225,38.225,0,0,1,86,118.888a22.2,22.2,0,0,1,4.747-3.8,27.886,27.886,0,0,1,7.517-2.966l.055-.014.057,0c6.338-.44,12.006-1.425,16.914-3.448a28.211,28.211,0,0,0,12.437-9.7A40.746,40.746,0,0,0,133.384,87.4l0-.006,0-.006a125.781,125.781,0,0,1,5.983-14.776,39.752,39.752,0,0,1,6.072-9.262,22.547,22.547,0,0,1,4.565-3.847,25.756,25.756,0,0,1,6.678-2.924,72.53,72.53,0,0,0-16.813,2.657,34.719,34.719,0,0,0-12.7,6.582,28.412,28.412,0,0,0-5.609,6.441,40.227,40.227,0,0,0-4.752,11.156v.009a78.787,78.787,0,0,1-6.472,16.614,25.859,25.859,0,0,1-8.513,9.487,24.7,24.7,0,0,1-7.553,3.139l-.05.012-.051,0c-8.756.707-15.569,2.448-20.877,5.152a28.8,28.8,0,0,0-11.926,10.978,40.993,40.993,0,0,0-4.357,10.523l0,0v0c-2.109,7.273-4.278,12.9-6.839,17.253a25.2,25.2,0,0,1-8.494,9.067l-2.7,0m17.417-26.5h0m37.725-27.121h0m22.076-28.8h0M212.316,1.288l.013.161c-7.282,1.061-13,2.979-17.507,5.7a28.586,28.586,0,0,0-10.285,10.583,41.874,41.874,0,0,0-3.907,9.757l0,0,0,.005A80.646,80.646,0,0,1,174.389,43.7a26.713,26.713,0,0,1-8.1,9.474,23.426,23.426,0,0,1-6.7,3.162,64.107,64.107,0,0,0,17.166-2.725,28.848,28.848,0,0,0,14.149-9.728,39.7,39.7,0,0,0,6.3-12.4l0-.006,0-.006a115.148,115.148,0,0,1,6.808-16.372,32.958,32.958,0,0,1,7.1-9.48,21.99,21.99,0,0,1,5.557-3.559A38.6,38.6,0,0,1,225.741-.54l.017,0,.019,0a44.519,44.519,0,0,0,14.666-4,28.062,28.062,0,0,0,10.9-9.576,41.855,41.855,0,0,0,5.07-10.717l0-.007,0,0a120.875,120.875,0,0,1,6.339-15.482,36.53,36.53,0,0,1,6.51-9.381,21.907,21.907,0,0,1,4.976-3.733,27.238,27.238,0,0,1,5.637-2.26l-.194.042-.047.01-.049,0c-9.465.525-16.8,2.167-22.491,4.848a29,29,0,0,0-12.7,11.125,40.532,40.532,0,0,0-4.563,10.855l0,.007v0a85.479,85.479,0,0,1-5.673,15.134,29.29,29.29,0,0,1-7.137,9.374,22.114,22.114,0,0,1-6.117,3.6,33.732,33.732,0,0,1-8.594,2M159,55.838h0m21.011-28.516h0M239.223-29h0m40.333-27.3h0m23.085-29.027h0" fill="#504972"/>
        <path d="M-59.46,225.538l-.052-1.278a33.051,33.051,0,0,0,11.05-2.534,21.075,21.075,0,0,0,7.963-6.287,35.919,35.919,0,0,0,4.233-6.973,90.573,90.573,0,0,0,4.918-13.557,38.919,38.919,0,0,1,6.495-13.763A30.747,30.747,0,0,1-12.9,171.88a49.543,49.543,0,0,1,11.184-3.419l-.005-.115c.457-.038.906-.079,1.348-.126q1.71-.294,3.536-.518a27.459,27.459,0,0,0,6.081-1.851c.1-.045.2-.09.3-.137l2.723,0q-.3.186-.613.358a26.86,26.86,0,0,1-8.269,2.9l-.021,0-.021,0q-1.821.224-3.519.514l-.02,0-.02,0c-.226.026-.453.047-.683.069l.005.053a42.75,42.75,0,0,0-15.99,5.9,28.62,28.62,0,0,0-9.534,10.357,42.487,42.487,0,0,0-3.694,9.377v.008a85.37,85.37,0,0,1-5.674,15.133,29.261,29.261,0,0,1-7.135,9.374,22.007,22.007,0,0,1-6.118,3.6c-.681.269-1.382.51-2.106.728a87.449,87.449,0,0,0,9.381-.89,39.569,39.569,0,0,0,13.94-4.579,27.643,27.643,0,0,0,7.26-6.083,38.642,38.642,0,0,0,7.031-13.3l0-.007,0,0a120.805,120.805,0,0,1,6.343-15.487,36.527,36.527,0,0,1,6.51-9.383A21.957,21.957,0,0,1,4.3,170.62a30.362,30.362,0,0,1,7.956-2.85l.038-.008.038,0a55.3,55.3,0,0,0,10.716-2.064l3.774-.007q-1.683.705-3.468,1.252A56.734,56.734,0,0,1,12.5,169.027a27.71,27.71,0,0,0-8.418,3.2,22.879,22.879,0,0,0-6.715,6.413,47.456,47.456,0,0,0-4.1,7.043,129.032,129.032,0,0,0-5.59,13.956,38.488,38.488,0,0,1-8.414,15,30.439,30.439,0,0,1-12.427,7.8,51.681,51.681,0,0,1-10.207,2.282,126.13,126.13,0,0,1-15.727.819h-.363m28.728-30.458h0M-.287,168.854h0m3.549-.518h0M275.316-92.8a33.053,33.053,0,0,1,4.287-6.978,31.426,31.426,0,0,1,12.951-9.35,53.833,53.833,0,0,1,11.786-3.165l-.008-.168a33.033,33.033,0,0,0,11.051-2.534,21.071,21.071,0,0,0,7.964-6.288,35.927,35.927,0,0,0,4.231-6.972,90.556,90.556,0,0,0,4.921-13.565h0a39.413,39.413,0,0,1,6.158-13.314,30.308,30.308,0,0,1,11.157-9.171,46.569,46.569,0,0,1,10.9-3.667,94.8,94.8,0,0,1,19.7-1.794l.1,1.272a40.217,40.217,0,0,0-10.4,2.833,21.279,21.279,0,0,0-7.8,6.137,40.561,40.561,0,0,0-4.594,7.259,120.608,120.608,0,0,0-6.2,15.179c-2.182,6.736-5.179,11.778-8.92,15.521a31.163,31.163,0,0,1-13.293,7.726,57.341,57.341,0,0,1-10.914,2.077,32.308,32.308,0,0,0-9.28,3.018,21.961,21.961,0,0,0-7.2,6.3,44.308,44.308,0,0,0-4.325,7.155q-.582,1.17-1.167,2.459l-1.4,0c.719-1.612,1.433-3.092,2.152-4.453a33.928,33.928,0,0,1,6.917-9.456,21.849,21.849,0,0,1,5.375-3.615,35.625,35.625,0,0,1,8.715-2.668h0l.028-.006.029,0a47.4,47.4,0,0,0,15.4-3.825,28.053,28.053,0,0,0,11.405-9.63,41.415,41.415,0,0,0,5.264-11l0-.007,0,0a112.355,112.355,0,0,1,7.043-16.809,31.427,31.427,0,0,1,7.41-9.507,22.4,22.4,0,0,1,5.867-3.462,30.466,30.466,0,0,1,2.978-1.03A77.067,77.067,0,0,0,359-166.257a37.092,37.092,0,0,0-14.062,6.5,28.212,28.212,0,0,0-6.119,6.616,39.648,39.648,0,0,0-5.087,11.668v0l0,0a85.366,85.366,0,0,1-5.674,15.134,29.284,29.284,0,0,1-7.134,9.374,22.07,22.07,0,0,1-6.118,3.6,34.547,34.547,0,0,1-9.2,2.068l.009.1c-7.278,1.061-12.992,2.981-17.5,5.7a28.6,28.6,0,0,0-10.28,10.582q-.582,1.023-1.1,2.106l-1.416,0m57.8-48.842h0" fill="#fff"/>
        <path d="M9.541,165.714a20.485,20.485,0,0,0,4.716-3.024c3.042-2.6,5.564-6.271,7.852-11.4A96.285,96.285,0,0,0,26.443,139a37.356,37.356,0,0,1,7.793-15.329,33.255,33.255,0,0,1,15.157-9.431,67.675,67.675,0,0,1,15.29-2.825,23.408,23.408,0,0,0,7.119-2.962,21.948,21.948,0,0,0,5.657-5.311c3.393-4.453,6.134-10.9,8.786-20.06,1.764-6.45,4.442-11.879,8.578-16.18s9.711-7.451,17.183-9.4a81.151,81.151,0,0,1,17.565-2.3,21.483,21.483,0,0,0,12.039-8.43c3.242-4.436,5.891-10.766,8.459-19.627h0a38.363,38.363,0,0,1,6.909-14.28,31.4,31.4,0,0,1,12.957-9.351A53.172,53.172,0,0,1,181.125.449l-.013-.264a33.027,33.027,0,0,0,11.05-2.534,21.059,21.059,0,0,0,7.965-6.289,35.819,35.819,0,0,0,4.231-6.971,90.343,90.343,0,0,0,4.919-13.557c1.71-6.251,4.276-11.542,8.2-15.778s9.182-7.4,16.2-9.424a74.442,74.442,0,0,1,16.47-2.563,24.6,24.6,0,0,0,7.536-2.834,21.515,21.515,0,0,0,5.923-5.27c3.534-4.466,6.36-11.025,9.093-20.455h0a46.751,46.751,0,0,1,2.621-7.309l1.416,0a45,45,0,0,0-2.8,7.649l0,.007v0c-2.066,7.129-4.193,12.681-6.688,16.994a25.2,25.2,0,0,1-8.907,9.484,24.188,24.188,0,0,1-5.514,2.375l.051-.011.056-.013.055,0c6.828-.321,12.936-1.17,18.213-3.118a28.489,28.489,0,0,0,13.322-9.731,40.192,40.192,0,0,0,5.991-12l0-.006,0-.006c1.561-4.511,3.043-8.357,4.511-11.652l1.4,0c-1.521,3.359-3.067,7.339-4.7,12.066-2.431,7.509-5.88,12.915-10.236,16.76a33.809,33.809,0,0,1-15.568,7.425A77.158,77.158,0,0,1,253.1-55.041a27.661,27.661,0,0,0-8.4,3.192,22.884,22.884,0,0,0-6.712,6.413,47.526,47.526,0,0,0-4.1,7.044A128.908,128.908,0,0,0,228.3-24.44c-2.113,6.524-4.991,11.46-8.57,15.165a30.624,30.624,0,0,1-12.695,7.78A53.134,53.134,0,0,1,196.622.722a34.945,34.945,0,0,0-9.69,2.946,21.671,21.671,0,0,0-7.42,6.24,42.934,42.934,0,0,0-4.426,7.2,123.52,123.52,0,0,0-5.993,14.775,39.566,39.566,0,0,1-7.516,14.013,29.486,29.486,0,0,1-10.906,7.857,43.148,43.148,0,0,1-8.92,2.627,88.322,88.322,0,0,1-13.632,1.318,24.926,24.926,0,0,0-6.755,2.891,22.277,22.277,0,0,0-5.648,5.216c-3.537,4.5-6.761,11.36-10.445,22-2.318,7.158-5.558,12.405-9.632,16.211a32.455,32.455,0,0,1-14.518,7.581,66.994,66.994,0,0,1-11.928,1.785,25.531,25.531,0,0,0-7.909,3.305,23.633,23.633,0,0,0-6.432,6.473,49.7,49.7,0,0,0-3.965,6.966,131.8,131.8,0,0,0-5.418,13.6c-2.175,6.714-5.16,11.746-8.884,15.485a29.753,29.753,0,0,1-9.763,6.481l-3.774.007a35.586,35.586,0,0,0,4.608-1.777A28.069,28.069,0,0,0,39.01,154.29a41.515,41.515,0,0,0,5.244-10.971l0-.007,0-.006a123.763,123.763,0,0,1,6.144-15.1,38.2,38.2,0,0,1,6.269-9.321,22.2,22.2,0,0,1,4.747-3.8,27.886,27.886,0,0,1,7.517-2.966l.055-.014.057,0c6.337-.44,12.006-1.425,16.914-3.448a28.217,28.217,0,0,0,12.437-9.7A40.772,40.772,0,0,0,104.056,87.4l0-.007,0-.005a125.623,125.623,0,0,1,5.982-14.776,39.753,39.753,0,0,1,6.074-9.262,22.538,22.538,0,0,1,4.563-3.847,25.777,25.777,0,0,1,6.679-2.924,72.53,72.53,0,0,0-16.814,2.657,34.735,34.735,0,0,0-12.7,6.582,28.432,28.432,0,0,0-5.608,6.441,40.2,40.2,0,0,0-4.752,11.156v.009a78.841,78.841,0,0,1-6.472,16.614,25.859,25.859,0,0,1-8.513,9.487,24.7,24.7,0,0,1-7.554,3.139l-.049.012-.052,0c-8.755.707-15.568,2.448-20.876,5.152a28.8,28.8,0,0,0-11.927,10.978,41.064,41.064,0,0,0-4.357,10.523v.009c-2.109,7.273-4.279,12.9-6.84,17.253a25.142,25.142,0,0,1-8.571,9.114l-2.723,0m17.519-26.55h0m37.726-27.121h0m22.076-28.8h0M182.989,1.288l.013.161c-7.282,1.061-13,2.979-17.507,5.7a28.591,28.591,0,0,0-10.287,10.583,42.05,42.05,0,0,0-3.908,9.757v0l0,.005A80.706,80.706,0,0,1,145.061,43.7a26.72,26.72,0,0,1-8.1,9.474,23.444,23.444,0,0,1-6.7,3.162,64.114,64.114,0,0,0,17.166-2.725,28.836,28.836,0,0,0,14.148-9.728,39.723,39.723,0,0,0,6.3-12.4l0-.008,0,0a115.171,115.171,0,0,1,6.806-16.372,32.962,32.962,0,0,1,7.1-9.48,21.984,21.984,0,0,1,5.556-3.559A38.574,38.574,0,0,1,196.411-.54l.019,0,.02,0a44.494,44.494,0,0,0,14.663-4,28.036,28.036,0,0,0,10.9-9.576,41.789,41.789,0,0,0,5.07-10.717l0-.007,0,0a121.139,121.139,0,0,1,6.341-15.482,36.528,36.528,0,0,1,6.507-9.381,21.923,21.923,0,0,1,4.979-3.733,27.161,27.161,0,0,1,5.637-2.26l-.194.042-.049.01-.049,0c-9.464.525-16.8,2.167-22.49,4.848a29.009,29.009,0,0,0-12.7,11.125,40.628,40.628,0,0,0-4.562,10.855v.007l0,0a85.4,85.4,0,0,1-5.674,15.134A29.272,29.272,0,0,1,197.7-4.31a22.1,22.1,0,0,1-6.117,3.6,33.775,33.775,0,0,1-8.593,2m-53.318,54.55h0m21.013-28.516h0M209.893-29h0m40.333-27.3h0m23.087-29.027h0" fill="#504972"/>
        <path d="M351.087-169.978a94.981,94.981,0,0,0-19.744,1.8,46.727,46.727,0,0,0-10.952,3.685,30.522,30.522,0,0,0-11.232,9.234,39.617,39.617,0,0,0-6.193,13.383h0a90.253,90.253,0,0,1-4.906,13.532,35.7,35.7,0,0,1-4.208,6.931,20.864,20.864,0,0,1-7.884,6.227,32.834,32.834,0,0,1-10.98,2.515l.008.174a54.074,54.074,0,0,0-11.849,3.175,31.611,31.611,0,0,0-13.037,9.413,38.615,38.615,0,0,0-6.949,14.365h0a97.222,97.222,0,0,1-4.233,12.056,42.057,42.057,0,0,1-3.538,6.561,22.743,22.743,0,0,1-6.339,6.473,23.741,23.741,0,0,1-8.282,3.315,74.565,74.565,0,0,0-16.483,2.568,40.578,40.578,0,0,0-9.308,3.9,29.953,29.953,0,0,0-9.7,8.978,40.621,40.621,0,0,0-5.534,12.47h0a90.419,90.419,0,0,1-4.9,13.52,35.739,35.739,0,0,1-4.208,6.93c-2.272,2.851-1.771,4.839-4.834,6.228-2.206,1-7.736,1.681-10.567,2.116-.4.062-4.087.774-4.4.831a52.245,52.245,0,0,0-10.3,2.912,31.623,31.623,0,0,0-13.043,9.413,38.616,38.616,0,0,0-6.947,14.356h0c-2.564,8.85-5.208,15.158-8.426,19.56a21.248,21.248,0,0,1-11.918,8.346,81.3,81.3,0,0,0-17.568,2.3,42.684,42.684,0,0,0-9.892,3.835,30.118,30.118,0,0,0-10.248,9.081,40.276,40.276,0,0,0-5.77,12.8h0a98.681,98.681,0,0,1-4.107,11.773c-2.155,4.958-4.51,8.572-7.3,11.186a20.244,20.244,0,0,1-4.561,3.231,24.521,24.521,0,0,1-5.442,2A67.835,67.835,0,0,0,20,114.032a33.477,33.477,0,0,0-15.252,9.491,37.574,37.574,0,0,0-7.835,15.4h0A96.375,96.375,0,0,1-7.414,151.2a41.289,41.289,0,0,1-3.624,6.618,22.369,22.369,0,0,1-6.535,6.452,24.568,24.568,0,0,1-8.643,3.227q-1.8.222-3.489.51h0c-.446.049-.9.09-1.361.128l0,.129a49.74,49.74,0,0,0-11.255,3.424,30.96,30.96,0,0,0-12.034,9.33,39.14,39.14,0,0,0-6.529,13.825h0a90.171,90.171,0,0,1-4.908,13.533,35.609,35.609,0,0,1-4.207,6.93,20.842,20.842,0,0,1-7.884,6.228,32.815,32.815,0,0,1-10.98,2.515l.07,1.7h.363a126.088,126.088,0,0,0,15.754-.821,51.636,51.636,0,0,0,10.249-2.293,30.626,30.626,0,0,0,12.512-7.853,38.67,38.67,0,0,0,8.458-15.074h0a129.059,129.059,0,0,1,5.582-13.939,47.283,47.283,0,0,1,4.083-7.013,22.67,22.67,0,0,1,6.653-6.354,27.47,27.47,0,0,1,8.358-3.169,56.905,56.905,0,0,0,10.863-2.095,31.305,31.305,0,0,0,13.32-7.785c3.75-3.766,6.75-8.826,8.932-15.56h0a131.516,131.516,0,0,1,5.41-13.582,49.5,49.5,0,0,1,3.948-6.936,23.438,23.438,0,0,1,6.373-6.417,25.34,25.34,0,0,1,7.844-3.274A67.141,67.141,0,0,0,51.845,111.8a37.787,37.787,0,0,0,7.86-2.913,29.306,29.306,0,0,0,9.67-7.874,40.823,40.823,0,0,0,6.767-13.136h0a133.586,133.586,0,0,1,5.27-13.284,51.429,51.429,0,0,1,3.839-6.87A24.161,24.161,0,0,1,91.4,61.262a23.913,23.913,0,0,1,7.437-3.357,88.354,88.354,0,0,0,13.623-1.32,43.347,43.347,0,0,0,8.963-2.64,29.689,29.689,0,0,0,10.984-7.913,39.753,39.753,0,0,0,7.553-14.079h0A123.251,123.251,0,0,1,145.949,17.2a42.573,42.573,0,0,1,4.4-7.161A21.433,21.433,0,0,1,157.7,3.858,34.749,34.749,0,0,1,167.337.931a53.358,53.358,0,0,0,10.439-2.224,30.835,30.835,0,0,0,12.78-7.834c3.607-3.734,6.5-8.7,8.624-15.255h0A128.809,128.809,0,0,1,204.755-38.3a47.362,47.362,0,0,1,4.08-7.012,22.673,22.673,0,0,1,6.651-6.356,27.409,27.409,0,0,1,8.33-3.164,77.229,77.229,0,0,0,12.82-1.543,40.508,40.508,0,0,0,8.431-2.776,29.455,29.455,0,0,0,10.351-7.906,40.27,40.27,0,0,0,7.174-13.635h0A124.846,124.846,0,0,1,268.454-95.2a44.011,44.011,0,0,1,4.305-7.12,21.742,21.742,0,0,1,7.13-6.238,32.114,32.114,0,0,1,9.224-3,57.445,57.445,0,0,0,10.932-2.081,31.353,31.353,0,0,0,13.379-7.779c3.771-3.772,6.785-8.85,8.976-15.613h0a120.791,120.791,0,0,1,6.184-15.14,40.5,40.5,0,0,1,4.571-7.221,21.093,21.093,0,0,1,7.725-6.079,40,40,0,0,1,10.347-2.816ZM91.236,59.324a22.775,22.775,0,0,0-4.606,3.882,39.983,39.983,0,0,0-6.107,9.312,126.018,126.018,0,0,0-5.993,14.8l0,.009,0,.007A40.582,40.582,0,0,1,68.9,98.829a28.022,28.022,0,0,1-5.6,5.784,31.391,31.391,0,0,1-10.546,5.171A62.469,62.469,0,0,1,39.7,111.893s1.667-.123-.076,0a38.467,38.467,0,0,0-5.074,1.019c-2.8.708-.292.635-2.573,1.99a22.4,22.4,0,0,0-4.793,3.834,38.414,38.414,0,0,0-6.3,9.372,123.681,123.681,0,0,0-6.156,15.125l0,.006,0,.009a41.3,41.3,0,0,1-5.216,10.916,27.851,27.851,0,0,1-11.27,9.553,46.915,46.915,0,0,1-15.255,3.824l-.051,0-.05.012a30.453,30.453,0,0,0-8.012,2.871,22.185,22.185,0,0,0-5.028,3.767,36.7,36.7,0,0,0-6.551,9.436,121.181,121.181,0,0,0-6.354,15.515l0,.006,0,.009A38.427,38.427,0,0,1-50.06,212.4a27.387,27.387,0,0,1-7.2,6.038,39.344,39.344,0,0,1-13.866,4.552c-2.481.389-5.1.637-7.834.8.221-.08.454-.143.67-.228a22.313,22.313,0,0,0,6.176-3.631,29.453,29.453,0,0,0,7.188-9.44,85.484,85.484,0,0,0,5.689-15.171l0-.007,0-.006a42.24,42.24,0,0,1,3.675-9.329A28.4,28.4,0,0,1-46.1,175.694a42.539,42.539,0,0,1,15.912-5.872l0-.058c.222-.02.448-.038.667-.061l.027,0,.027-.007q1.694-.288,3.508-.512l.029,0,.027,0a27.014,27.014,0,0,0,8.334-2.92,22.109,22.109,0,0,0,5.053-3.916,33.839,33.839,0,0,0,6.072-9.159,91.886,91.886,0,0,0,5-13.776l0-.007,0-.006a40.8,40.8,0,0,1,4.334-10.469,28.571,28.571,0,0,1,4.986-6.159,32.146,32.146,0,0,1,11.1-6.575,63.32,63.32,0,0,1,16.551-3.293l.068-.006.066-.016a24.94,24.94,0,0,0,7.618-3.166,22.592,22.592,0,0,0,4.66-3.991,35.889,35.889,0,0,0,5.674-9.005,94.52,94.52,0,0,0,4.74-13.226v0l0-.007a40.022,40.022,0,0,1,4.725-11.1,28.18,28.18,0,0,1,5.567-6.393,34.48,34.48,0,0,1,12.628-6.54A69.712,69.712,0,0,1,96.322,56.91,24.469,24.469,0,0,0,91.236,59.324ZM210.461-49.868a36.8,36.8,0,0,0-6.549,9.434,121.5,121.5,0,0,0-6.351,15.51l0,.009,0,.007a41.536,41.536,0,0,1-5.044,10.663,27.83,27.83,0,0,1-10.822,9.5,44.3,44.3,0,0,1-14.6,3.982l-.023,0-.026,0a38.862,38.862,0,0,0-9.118,2.609,22.2,22.2,0,0,0-5.609,3.594,33.182,33.182,0,0,0-7.146,9.539,115.265,115.265,0,0,0-6.821,16.4l0,.008,0,.008a39.517,39.517,0,0,1-6.263,12.336,27.569,27.569,0,0,1-6.339,5.933A34.577,34.577,0,0,1,113.673,54.6a72.1,72.1,0,0,1-11.154,1.435,22.431,22.431,0,0,0,9.655-6.713,37.285,37.285,0,0,0,5.425-8.893,96.131,96.131,0,0,0,4.576-12.865l0-.007v-.005a41.793,41.793,0,0,1,3.887-9.709A28.384,28.384,0,0,1,136.276,7.333a43.783,43.783,0,0,1,14.956-5.269c.8-.146,3.5-.711,4.015-.786C157.834.9,163.24.327,165.381-.516a22.344,22.344,0,0,0,6.177-3.63c2.779-2.315,2.061-5.406,4.138-9.441a85.593,85.593,0,0,0,5.689-15.171l0-.005,0-.008a40.346,40.346,0,0,1,4.537-10.8,28.351,28.351,0,0,1,5.285-6.285,33.261,33.261,0,0,1,11.883-6.565,67.3,67.3,0,0,1,16.247-2.914,25.474,25.474,0,0,0-3.855,1.7A22.2,22.2,0,0,0,210.461-49.868ZM335.3-163.979a31.594,31.594,0,0,0-7.461,9.569,112.485,112.485,0,0,0-7.058,16.841l0,.009,0,.008a41.249,41.249,0,0,1-5.237,10.943,27.848,27.848,0,0,1-11.321,9.559,47.232,47.232,0,0,1-15.332,3.806l-.038,0-.036.007a35.83,35.83,0,0,0-8.766,2.686,22.1,22.1,0,0,0-5.429,3.65,34.184,34.184,0,0,0-6.959,9.513,117.116,117.116,0,0,0-6.678,16.135l0,.008,0,.008a39.987,39.987,0,0,1-5.957,11.939,27.755,27.755,0,0,1-5.983,5.869A32.925,32.925,0,0,1,237.7-58.378a68.5,68.5,0,0,1-12.533,1.751,23.51,23.51,0,0,0,3.944-1.855A22.3,22.3,0,0,0,234-62.432a34.68,34.68,0,0,0,5.906-9.1A92.725,92.725,0,0,0,244.8-85.084v0l0-.007a41.8,41.8,0,0,1,3.886-9.706,28.377,28.377,0,0,1,10.2-10.5c4.475-2.7,10.161-4.616,17.417-5.674l-.009-.118a34.859,34.859,0,0,0,9.247-2.062,22.3,22.3,0,0,0,6.176-3.63,29.5,29.5,0,0,0,7.188-9.44,85.606,85.606,0,0,0,5.689-15.172l0-.007,0-.006a39.379,39.379,0,0,1,5.057-11.606,28.037,28.037,0,0,1,6.073-6.566,36.881,36.881,0,0,1,13.983-6.462,74.3,74.3,0,0,1,12.917-1.935c-.476.165-.958.323-1.416.51A22.6,22.6,0,0,0,335.3-163.979Z" fill="#ffc70a"/>
        <path d="M-118.116,225.538l-.053-1.278a33.045,33.045,0,0,0,11.05-2.534,21.078,21.078,0,0,0,7.964-6.287,35.919,35.919,0,0,0,4.232-6.973A90.351,90.351,0,0,0-90,194.909a38.9,38.9,0,0,1,6.5-13.763,30.747,30.747,0,0,1,11.953-9.266,49.543,49.543,0,0,1,11.184-3.419l-.005-.115c.457-.038.905-.079,1.347-.126q1.71-.294,3.536-.518a27.452,27.452,0,0,0,6.082-1.851l.089-.041,2.772,0c-.15.089-.3.177-.455.262a26.842,26.842,0,0,1-8.269,2.9l-.021,0-.021,0q-1.819.224-3.518.514l-.021,0-.02,0c-.225.026-.453.047-.682.069l.005.053a42.749,42.749,0,0,0-15.991,5.9,28.629,28.629,0,0,0-9.534,10.357,42.486,42.486,0,0,0-3.693,9.377v0l0,0a85.292,85.292,0,0,1-5.674,15.133,29.247,29.247,0,0,1-7.135,9.374,22.016,22.016,0,0,1-6.117,3.6c-.681.269-1.383.51-2.106.728a87.5,87.5,0,0,0,9.381-.89,39.569,39.569,0,0,0,13.94-4.579,27.643,27.643,0,0,0,7.26-6.083,38.641,38.641,0,0,0,7.03-13.3l0,0,0-.007a121.1,121.1,0,0,1,6.343-15.487,36.5,36.5,0,0,1,6.511-9.383,21.974,21.974,0,0,1,4.98-3.732,30.362,30.362,0,0,1,7.956-2.85l.038-.008.039,0a56.159,56.159,0,0,0,10.4-1.968l3.856-.007c-1.05.431-2.129.813-3.238,1.156a56.7,56.7,0,0,1-10.852,2.089,27.7,27.7,0,0,0-8.417,3.2,22.879,22.879,0,0,0-6.715,6.413,47.454,47.454,0,0,0-4.1,7.043,129.032,129.032,0,0,0-5.59,13.956,38.476,38.476,0,0,1-8.414,15,30.432,30.432,0,0,1-12.427,7.8,51.665,51.665,0,0,1-10.207,2.282,126.13,126.13,0,0,1-15.727.819h-.362m28.728-30.458h0m30.445-26.226h0m3.548-.518h0M216.616-92.7a33.125,33.125,0,0,1,4.33-7.073,31.426,31.426,0,0,1,12.951-9.35,53.833,53.833,0,0,1,11.786-3.165l-.006-.168a33.063,33.063,0,0,0,11.051-2.534,21.08,21.08,0,0,0,7.962-6.288,35.88,35.88,0,0,0,4.234-6.972,90.358,90.358,0,0,0,4.918-13.565h0A39.451,39.451,0,0,1,280-155.133a30.348,30.348,0,0,1,11.157-9.171,46.539,46.539,0,0,1,10.9-3.667,94.755,94.755,0,0,1,19.7-1.794l.1,1.272a40.217,40.217,0,0,0-10.4,2.833,21.311,21.311,0,0,0-7.8,6.137,40.674,40.674,0,0,0-4.594,7.259,120.744,120.744,0,0,0-6.2,15.179c-2.182,6.736-5.178,11.778-8.919,15.521a31.169,31.169,0,0,1-13.293,7.726,57.341,57.341,0,0,1-10.914,2.077,32.308,32.308,0,0,0-9.28,3.018,21.943,21.943,0,0,0-7.2,6.3,44.091,44.091,0,0,0-4.328,7.155q-.6,1.213-1.209,2.554l-1.4,0c.732-1.649,1.461-3.16,2.195-4.548a33.965,33.965,0,0,1,6.915-9.456,21.943,21.943,0,0,1,5.375-3.615,35.625,35.625,0,0,1,8.715-2.668h0l.03-.006.027,0a47.4,47.4,0,0,0,15.4-3.825,28.071,28.071,0,0,0,11.407-9.63,41.476,41.476,0,0,0,5.262-11l0,0,0-.007a112.123,112.123,0,0,1,7.045-16.809,31.393,31.393,0,0,1,7.408-9.507,22.437,22.437,0,0,1,5.867-3.462,30.505,30.505,0,0,1,2.98-1.03,77.125,77.125,0,0,0-14.613,2.05,37.092,37.092,0,0,0-14.062,6.5,28.245,28.245,0,0,0-6.117,6.616,39.543,39.543,0,0,0-5.087,11.668l0,.007,0,0a85.366,85.366,0,0,1-5.674,15.134,29.284,29.284,0,0,1-7.134,9.374,22.07,22.07,0,0,1-6.118,3.6,34.55,34.55,0,0,1-9.2,2.068l.007.1c-7.276,1.061-12.992,2.981-17.5,5.7A28.594,28.594,0,0,0,219.18-94.907q-.611,1.068-1.15,2.2l-1.414,0m57.84-48.937h0" fill="#fff"/>
        <path d="M-49.323,165.81a20.545,20.545,0,0,0,4.924-3.12c3.041-2.6,5.564-6.271,7.852-11.4A96.6,96.6,0,0,0-32.213,139a37.355,37.355,0,0,1,7.792-15.329,33.264,33.264,0,0,1,15.158-9.431,67.675,67.675,0,0,1,15.29-2.825,23.419,23.419,0,0,0,7.119-2.962,21.948,21.948,0,0,0,5.657-5.311c3.393-4.455,6.134-10.908,8.788-20.068C29.355,76.623,32.033,71.2,36.167,66.9s9.71-7.451,17.182-9.4a81.168,81.168,0,0,1,17.565-2.3,21.49,21.49,0,0,0,12.04-8.43c3.242-4.436,5.891-10.766,8.458-19.627h0a38.408,38.408,0,0,1,6.908-14.28,31.413,31.413,0,0,1,12.958-9.351A53.179,53.179,0,0,1,122.467.449l-.011-.264a33.051,33.051,0,0,0,11.051-2.534,21.061,21.061,0,0,0,7.963-6.289,35.821,35.821,0,0,0,4.233-6.971,90.581,90.581,0,0,0,4.917-13.557c1.71-6.251,4.276-11.542,8.2-15.778s9.182-7.4,16.2-9.424a74.442,74.442,0,0,1,16.47-2.563,24.578,24.578,0,0,0,7.536-2.834,21.522,21.522,0,0,0,5.925-5.27c3.534-4.467,6.36-11.029,9.093-20.462a47.083,47.083,0,0,1,2.576-7.207l1.414,0a44.911,44.911,0,0,0-2.758,7.554v0l0,0c-2.066,7.129-4.193,12.681-6.689,16.994a25.185,25.185,0,0,1-8.907,9.484,24.18,24.18,0,0,1-5.513,2.375l.051-.011.056-.013.055,0c6.827-.321,12.936-1.17,18.215-3.118a28.473,28.473,0,0,0,13.32-9.731,40.145,40.145,0,0,0,5.991-12l0-.006,0-.006c1.546-4.467,3.016-8.283,4.47-11.557l1.4,0c-1.508,3.339-3.04,7.289-4.661,11.971-2.431,7.509-5.878,12.915-10.236,16.76a33.8,33.8,0,0,1-15.568,7.425,77.159,77.159,0,0,1-12.819,1.541,27.621,27.621,0,0,0-8.4,3.192,22.9,22.9,0,0,0-6.712,6.413,47.608,47.608,0,0,0-4.1,7.044,129.964,129.964,0,0,0-5.588,13.952c-2.113,6.524-4.991,11.46-8.57,15.165a30.624,30.624,0,0,1-12.695,7.78A53.129,53.129,0,0,1,137.964.722a34.951,34.951,0,0,0-9.688,2.946,21.671,21.671,0,0,0-7.42,6.24,42.868,42.868,0,0,0-4.426,7.2,123.5,123.5,0,0,0-5.994,14.775,39.581,39.581,0,0,1-7.515,14.013,29.489,29.489,0,0,1-10.907,7.857A43.12,43.12,0,0,1,83.1,56.376a88.323,88.323,0,0,1-13.633,1.318,24.926,24.926,0,0,0-6.755,2.891A22.31,22.31,0,0,0,57.059,65.8c-3.537,4.5-6.76,11.36-10.444,22-2.319,7.158-5.559,12.405-9.632,16.211a32.458,32.458,0,0,1-14.519,7.581,66.966,66.966,0,0,1-11.928,1.785,25.531,25.531,0,0,0-7.909,3.305A23.644,23.644,0,0,0-3.8,123.156a49.8,49.8,0,0,0-3.966,6.966,132.052,132.052,0,0,0-5.417,13.6c-2.176,6.714-5.16,11.746-8.884,15.485a29.827,29.827,0,0,1-9.994,6.577l-3.856.007A35.835,35.835,0,0,0-31,163.916a28.073,28.073,0,0,0,11.353-9.626A41.484,41.484,0,0,0-14.4,143.319l0-.007v-.006a123.749,123.749,0,0,1,6.145-15.1,38.2,38.2,0,0,1,6.268-9.321,22.222,22.222,0,0,1,4.747-3.8,27.886,27.886,0,0,1,7.517-2.966l.055-.014.058,0c6.337-.44,12.005-1.425,16.914-3.448a28.214,28.214,0,0,0,12.436-9.7A40.746,40.746,0,0,0,45.4,87.4l0-.007,0-.005a125.781,125.781,0,0,1,5.983-14.776,39.784,39.784,0,0,1,6.073-9.262A22.565,22.565,0,0,1,62.022,59.5,25.792,25.792,0,0,1,68.7,56.58a72.521,72.521,0,0,0-16.813,2.657,34.719,34.719,0,0,0-12.7,6.582,28.412,28.412,0,0,0-5.609,6.441,40.226,40.226,0,0,0-4.751,11.156v0l0,0a78.845,78.845,0,0,1-6.471,16.614,25.867,25.867,0,0,1-8.513,9.487,24.7,24.7,0,0,1-7.554,3.139l-.05.012-.051,0c-8.756.707-15.569,2.448-20.876,5.152a28.8,28.8,0,0,0-11.927,10.978,40.993,40.993,0,0,0-4.357,10.523v0l0,.007c-2.109,7.273-4.278,12.9-6.839,17.253a25.042,25.042,0,0,1-8.73,9.21l-2.772,0M-31.6,139.164h0M6.13,112.043h0m22.075-28.8h0M124.332,1.288l.012.161c-7.281,1.061-13,2.979-17.507,5.7A28.593,28.593,0,0,0,96.552,17.734a42.006,42.006,0,0,0-3.908,9.757v.01A80.7,80.7,0,0,1,86.4,43.7a26.71,26.71,0,0,1-8.1,9.474,23.432,23.432,0,0,1-6.7,3.162,64.107,64.107,0,0,0,17.166-2.725,28.839,28.839,0,0,0,14.149-9.728,39.7,39.7,0,0,0,6.3-12.4l0,0,0-.007a115.171,115.171,0,0,1,6.806-16.372,32.978,32.978,0,0,1,7.1-9.48,22.007,22.007,0,0,1,5.557-3.559A38.611,38.611,0,0,1,137.755-.54l.019,0,.018,0a44.519,44.519,0,0,0,14.666-4,28.071,28.071,0,0,0,10.9-9.576,41.855,41.855,0,0,0,5.07-10.717v-.006l0-.006a120.993,120.993,0,0,1,6.341-15.482,36.528,36.528,0,0,1,6.507-9.381,21.967,21.967,0,0,1,4.979-3.733,27.161,27.161,0,0,1,5.637-2.26l-.194.042-.049.01-.049,0c-9.464.525-16.8,2.167-22.49,4.848a29.009,29.009,0,0,0-12.7,11.125,40.561,40.561,0,0,0-4.56,10.855l0,.005v0a85.463,85.463,0,0,1-5.676,15.134,29.284,29.284,0,0,1-7.134,9.374,22.119,22.119,0,0,1-6.118,3.6,33.745,33.745,0,0,1-8.593,2M71.015,55.838h0M92.027,27.322h0M151.236-29h0m40.336-27.3h0m23.084-29.027h0" fill="#504972"/>
      </g>
    </g>
  </g>
</svg>
