<svg xmlns="http://www.w3.org/2000/svg" viewBox="0 0 664 283">
  <title>ws2018-icons</title>
  <g id="grid">
    <g id="Design">
      <g id="Group-29">
        <g id="Group-28">
          <rect id="Rectangle" y="155.669" width="184" height="127" fill="none"/>
          <g id="Group-24">
            <polyline id="Path-3-Copy" points="129.952 279.962 38.771 279.962 38.771 256.799" fill="none" stroke="#c3c3c3" stroke-linecap="round" stroke-width="0.677"/>
            <path id="Path" d="M132.521,266.943h-.014c-6.049-.045-8.4-9.287-10.887-19.072-1.743-6.854-4.129-16.24-7.305-16.265H114.3c-3.17,0-5.69,9.337-7.531,16.156-2.625,9.724-5.1,18.909-11.12,18.91h-.044c-6.049-.045-8.4-9.287-10.886-19.072-1.742-6.854-4.128-16.24-7.3-16.265h-.012c-3.171,0-5.69,9.337-7.531,16.16-2.625,9.723-5.105,18.909-11.12,18.909H58.7c-6.049-.044-8.4-9.286-10.885-19.072-1.744-6.853-4.13-16.24-7.3-16.264a1.862,1.862,0,0,1,.013-3.724h.013c6.05.045,8.4,9.287,10.887,19.072,1.742,6.854,4.129,16.24,7.3,16.265h.012c3.171,0,5.69-9.337,7.531-16.156,2.625-9.724,5.105-18.91,11.12-18.91h.043c6.05.045,8.4,9.286,10.886,19.071,1.742,6.854,4.129,16.24,7.3,16.266h.013c3.171,0,5.691-9.337,7.531-16.16,2.625-9.724,5.1-18.909,11.12-18.909h.044c6.05.044,8.4,9.286,10.887,19.071,1.743,6.854,4.13,16.24,7.306,16.266a1.862,1.862,0,1,1-.013,3.723Z" fill="#c3c3c3" fill-rule="evenodd"/>
            <g id="WEIGHT">
              <path id="path-1" d="M37.332,215.244c.073.009.186.029.34.06s.274.056.343.074l1.539.4v.707l-2.938.75v-.613l1.6-.376c.3-.066.552-.113.769-.143-.081-.008-.2-.027-.354-.055s-.285-.056-.373-.081l-1.646-.428v-.589l1.646-.428c.074-.019.186-.042.338-.071s.281-.049.389-.064c-.108-.014-.237-.035-.39-.064s-.283-.057-.379-.081l-1.6-.373v-.613l2.938.747v.71l-1.543.4c-.055.014-.169.039-.341.075s-.288.056-.347.061Zm2.222-5.054v1.692H36.616V210.19h.51v1.069h.646v-.995h.51v.995h.758V210.19Zm0-1.613H36.616v-.623h2.938ZM37.9,205.1v-1.166h1.524a3.389,3.389,0,0,1,.129.533,3.457,3.457,0,0,1,.037.512,1.294,1.294,0,0,1-.391,1.016,1.623,1.623,0,0,1-1.122.351,1.481,1.481,0,0,1-1.109-.407,1.545,1.545,0,0,1-.4-1.129,2.177,2.177,0,0,1,.181-.872l.5.207a1.478,1.478,0,0,0-.161.669.827.827,0,0,0,.272.647,1.051,1.051,0,0,0,.729.243,1.179,1.179,0,0,0,.731-.195.679.679,0,0,0,.252-.57,2.078,2.078,0,0,0-.04-.4h-.613v.557Zm1.65-5.273v.621H38.286v1.163h1.268v.623H36.616v-.623h1.152v-1.163H36.616v-.621Zm0-2.875v.623h-2.42v.8h-.518v-2.219h.518v.8Z" fill-rule="evenodd"/>
              <path d="M37.332,215.244c.073.009.186.029.34.06s.274.056.343.074l1.539.4v.707l-2.938.75v-.613l1.6-.376c.3-.066.552-.113.769-.143-.081-.008-.2-.027-.354-.055s-.285-.056-.373-.081l-1.646-.428v-.589l1.646-.428c.074-.019.186-.042.338-.071s.281-.049.389-.064c-.108-.014-.237-.035-.39-.064s-.283-.057-.379-.081l-1.6-.373v-.613l2.938.747v.71l-1.543.4c-.055.014-.169.039-.341.075s-.288.056-.347.061Zm2.222-5.054v1.692H36.616V210.19h.51v1.069h.646v-.995h.51v.995h.758V210.19Zm0-1.613H36.616v-.623h2.938ZM37.9,205.1v-1.166h1.524a3.389,3.389,0,0,1,.129.533,3.457,3.457,0,0,1,.037.512,1.294,1.294,0,0,1-.391,1.016,1.623,1.623,0,0,1-1.122.351,1.481,1.481,0,0,1-1.109-.407,1.545,1.545,0,0,1-.4-1.129,2.177,2.177,0,0,1,.181-.872l.5.207a1.478,1.478,0,0,0-.161.669.827.827,0,0,0,.272.647,1.051,1.051,0,0,0,.729.243,1.179,1.179,0,0,0,.731-.195.679.679,0,0,0,.252-.57,2.078,2.078,0,0,0-.04-.4h-.613v.557Zm1.65-5.273v.621H38.286v1.163h1.268v.623H36.616v-.623h1.152v-1.163H36.616v-.621Zm0-2.875v.623h-2.42v.8h-.518v-2.219h.518v.8Z" fill="#a0a0a0" fill-rule="evenodd"/>
            </g>
            <g id="TIME">
              <path id="path-2" d="M136.068,281.341h-.623l0-2.418h-.8v-.518l2.217,0v.519h-.8Zm2.249,0,0-2.937h.623l0,2.937Zm3.6,0-.709-2.3H141.2q.039.7.039.938v1.366h-.556l0-2.936h.847l.7,2.245h.012l.735-2.247h.847l0,2.937h-.58l0-1.39c0-.066,0-.142,0-.227s.011-.314.027-.683h-.019l-.754,2.3Zm5.327,0h-1.692l0-2.936,1.692,0v.51h-1.068v.645h1v.51h-.994v.757h1.068Z" fill-rule="evenodd"/>
              <path d="M136.068,281.341h-.623l0-2.418h-.8v-.518l2.217,0v.519h-.8Zm2.249,0,0-2.937h.623l0,2.937Zm3.6,0-.709-2.3H141.2q.039.7.039.938v1.366h-.556l0-2.936h.847l.7,2.245h.012l.735-2.247h.847l0,2.937h-.58l0-1.39c0-.066,0-.142,0-.227s.011-.314.027-.683h-.019l-.754,2.3Zm5.327,0h-1.692l0-2.936,1.692,0v.51h-1.068v.645h1v.51h-.994v.757h1.068Z" fill="#a0a0a0" fill-rule="evenodd"/>
            </g>
          </g>
          <g id="Complex-weight-data">
            <path id="path-3" d="M20.063,162.665a3.733,3.733,0,0,0-2.973,1.254A5.057,5.057,0,0,0,16,167.353a5.156,5.156,0,0,0,1.051,3.465,3.734,3.734,0,0,0,3,1.222,10.235,10.235,0,0,0,2.726-.429v1.164a8.389,8.389,0,0,1-2.929.445,4.955,4.955,0,0,1-3.9-1.531,6.308,6.308,0,0,1-1.371-4.352,6.872,6.872,0,0,1,.66-3.094,4.738,4.738,0,0,1,1.907-2.046,5.757,5.757,0,0,1,2.933-.719,7.087,7.087,0,0,1,3.141.656l-.563,1.141A6.04,6.04,0,0,0,20.063,162.665Zm12.4,6.11a4.723,4.723,0,0,1-1.055,3.269,3.713,3.713,0,0,1-2.914,1.176,3.865,3.865,0,0,1-2.039-.539,3.554,3.554,0,0,1-1.375-1.547,5.389,5.389,0,0,1-.484-2.359,4.717,4.717,0,0,1,1.047-3.262,3.7,3.7,0,0,1,2.906-1.168A3.619,3.619,0,0,1,31.4,165.54,4.7,4.7,0,0,1,32.461,168.775Zm-6.523,0a4.063,4.063,0,0,0,.656,2.5,2.275,2.275,0,0,0,1.929.859,2.294,2.294,0,0,0,1.934-.855,4.046,4.046,0,0,0,.66-2.5,3.98,3.98,0,0,0-.66-2.481,2.319,2.319,0,0,0-1.949-.847,2.283,2.283,0,0,0-1.922.835A4.029,4.029,0,0,0,25.938,168.775Zm19.71,4.289v-5.571a2.31,2.31,0,0,0-.437-1.535,1.693,1.693,0,0,0-1.359-.511,2.191,2.191,0,0,0-1.789.695,3.3,3.3,0,0,0-.579,2.14v4.782h-1.3v-5.571a2.31,2.31,0,0,0-.438-1.535,1.7,1.7,0,0,0-1.367-.511,2.116,2.116,0,0,0-1.785.73,3.951,3.951,0,0,0-.567,2.4v4.492h-1.3V164.5h1.055L36,165.673h.063A2.533,2.533,0,0,1,37.1,164.7a3.154,3.154,0,0,1,1.5-.352,2.544,2.544,0,0,1,2.625,1.453h.062a2.723,2.723,0,0,1,1.11-1.062,3.433,3.433,0,0,1,1.656-.391,2.9,2.9,0,0,1,2.176.746,3.341,3.341,0,0,1,.722,2.387v5.586Zm7.954.156a3.7,3.7,0,0,1-1.528-.309,2.869,2.869,0,0,1-1.16-.949H50.82a11.392,11.392,0,0,1,.094,1.422v3.523h-1.3V164.5h1.055l.18,1.172h.062a3.012,3.012,0,0,1,1.164-1.016,3.547,3.547,0,0,1,1.524-.312,3.163,3.163,0,0,1,2.628,1.164,6.2,6.2,0,0,1-.015,6.543A3.17,3.17,0,0,1,53.6,173.22Zm-.188-7.773a2.3,2.3,0,0,0-1.9.726,3.733,3.733,0,0,0-.6,2.313v.289a4.287,4.287,0,0,0,.6,2.582,2.287,2.287,0,0,0,1.929.777,2.008,2.008,0,0,0,1.739-.9,4.264,4.264,0,0,0,.629-2.477,4.1,4.1,0,0,0-.629-2.457A2.071,2.071,0,0,0,53.414,165.447Zm7.305,7.617h-1.3V160.907h1.3Zm6.367.156a3.933,3.933,0,0,1-3-1.156,4.475,4.475,0,0,1-1.1-3.211,4.962,4.962,0,0,1,1.02-3.289,3.384,3.384,0,0,1,2.738-1.219A3.229,3.229,0,0,1,69.3,165.4a4.055,4.055,0,0,1,.937,2.793v.82h-5.9a3.393,3.393,0,0,0,.762,2.289,2.632,2.632,0,0,0,2.035.781,6.9,6.9,0,0,0,2.734-.578v1.156a6.854,6.854,0,0,1-1.3.426A7.3,7.3,0,0,1,67.086,173.22Zm-.352-7.789a2.117,2.117,0,0,0-1.644.672,3.1,3.1,0,0,0-.723,1.859h4.477a2.855,2.855,0,0,0-.547-1.879A1.926,1.926,0,0,0,66.734,165.431Zm7.453,3.25-2.976-4.18h1.476l2.258,3.281,2.25-3.281h1.461l-2.976,4.18,3.132,4.383H77.344l-2.4-3.469-2.422,3.469H71.055Zm17.469,4.383-1.57-5.024q-.148-.46-.555-2.093h-.062q-.313,1.367-.547,2.109l-1.617,5.008h-1.5L83.469,164.5h1.359q.828,3.226,1.262,4.914a19.977,19.977,0,0,1,.5,2.274h.062q.087-.446.278-1.153t.332-1.121l1.57-4.914h1.406l1.532,4.914a16.664,16.664,0,0,1,.593,2.258h.063a8.411,8.411,0,0,1,.168-.867q.136-.587,1.629-6.305h1.343L93.2,173.064Zm9.071.156a3.935,3.935,0,0,1-3-1.156,4.479,4.479,0,0,1-1.1-3.211,4.967,4.967,0,0,1,1.019-3.289,3.387,3.387,0,0,1,2.739-1.219,3.227,3.227,0,0,1,2.546,1.059,4.05,4.05,0,0,1,.938,2.793v.82h-5.9a3.4,3.4,0,0,0,.761,2.289,2.634,2.634,0,0,0,2.035.781,6.906,6.906,0,0,0,2.735-.578v1.156a6.877,6.877,0,0,1-1.3.426A7.3,7.3,0,0,1,100.727,173.22Zm-.352-7.789a2.118,2.118,0,0,0-1.645.672,3.1,3.1,0,0,0-.722,1.859h4.476a2.849,2.849,0,0,0-.547-1.879A1.923,1.923,0,0,0,100.375,165.431Zm7.008,7.633h-1.3V164.5h1.3Zm-1.406-10.883a.86.86,0,0,1,.218-.652.811.811,0,0,1,1.086,0,.847.847,0,0,1,.227.649.858.858,0,0,1-.227.652.793.793,0,0,1-1.086,0A.875.875,0,0,1,105.977,162.181Zm11.164,2.32v.821l-1.586.187a2.792,2.792,0,0,1,.562,1.711,2.53,2.53,0,0,1-.859,2.008,3.469,3.469,0,0,1-2.36.75,3.892,3.892,0,0,1-.718-.063,1.277,1.277,0,0,0-.828,1.1.559.559,0,0,0,.289.519,2.108,2.108,0,0,0,.992.168h1.515a3.4,3.4,0,0,1,2.137.586,2.035,2.035,0,0,1,.746,1.7,2.431,2.431,0,0,1-1.14,2.168,6.1,6.1,0,0,1-3.329.746,4.541,4.541,0,0,1-2.589-.625,2.017,2.017,0,0,1-.911-1.765,1.987,1.987,0,0,1,.5-1.352,2.549,2.549,0,0,1,1.407-.773,1.356,1.356,0,0,1-.551-.461,1.224,1.224,0,0,1-.223-.727,1.383,1.383,0,0,1,.25-.82,2.646,2.646,0,0,1,.789-.68,2.317,2.317,0,0,1-1.082-.929,2.74,2.74,0,0,1-.418-1.5,2.772,2.772,0,0,1,.844-2.168,3.445,3.445,0,0,1,2.391-.762,4.357,4.357,0,0,1,1.211.156Zm-6.829,10a1.164,1.164,0,0,0,.586,1.055,3.233,3.233,0,0,0,1.68.359,4.68,4.68,0,0,0,2.418-.488,1.494,1.494,0,0,0,.785-1.324,1.049,1.049,0,0,0-.429-.965,3.337,3.337,0,0,0-1.618-.27H112.18a2.048,2.048,0,0,0-1.375.422A1.51,1.51,0,0,0,110.312,174.5Zm.7-7.258a1.746,1.746,0,0,0,.507,1.36,2.03,2.03,0,0,0,1.414.461,1.655,1.655,0,0,0,1.9-1.844,1.7,1.7,0,0,0-1.922-1.93,1.9,1.9,0,0,0-1.406.492A1.985,1.985,0,0,0,111.016,167.243Zm13.742,5.821v-5.539a2.235,2.235,0,0,0-.477-1.563,1.939,1.939,0,0,0-1.492-.515,2.444,2.444,0,0,0-1.973.734,3.721,3.721,0,0,0-.621,2.406v4.477h-1.3V160.907h1.3v3.68a8.143,8.143,0,0,1-.062,1.1h.078a2.637,2.637,0,0,1,1.09-.973,3.541,3.541,0,0,1,1.613-.355,3.3,3.3,0,0,1,2.356.746,3.142,3.142,0,0,1,.785,2.371v5.586Zm6.726-.914a4.594,4.594,0,0,0,1.172-.157v.993a2.413,2.413,0,0,1-.621.168,4.682,4.682,0,0,1-.738.066q-2.484,0-2.485-2.617v-5.094h-1.226v-.625l1.226-.539.547-1.828h.75V164.5h2.485v1.008h-2.485v5.039a1.733,1.733,0,0,0,.368,1.188A1.275,1.275,0,0,0,131.484,172.15Zm12.868-.235h-.071a3.047,3.047,0,0,1-2.687,1.305,3.183,3.183,0,0,1-2.614-1.148,5.06,5.06,0,0,1-.933-3.266,5.139,5.139,0,0,1,.937-3.289,3.156,3.156,0,0,1,2.61-1.172,3.114,3.114,0,0,1,2.672,1.266h.1l-.055-.618-.031-.6v-3.485h1.3v12.157h-1.055Zm-2.594.219a2.362,2.362,0,0,0,1.926-.723,3.653,3.653,0,0,0,.6-2.332v-.273a4.3,4.3,0,0,0-.605-2.6,2.3,2.3,0,0,0-1.934-.777,1.984,1.984,0,0,0-1.746.887,4.4,4.4,0,0,0-.605,2.5,4.226,4.226,0,0,0,.6,2.476A2.039,2.039,0,0,0,141.758,172.134Zm11.836.93-.258-1.219h-.063a3.6,3.6,0,0,1-1.277,1.09,3.893,3.893,0,0,1-1.59.285,2.862,2.862,0,0,1-2-.656,2.394,2.394,0,0,1-.723-1.867q0-2.595,4.149-2.719l1.453-.047V167.4a2.169,2.169,0,0,0-.434-1.489,1.783,1.783,0,0,0-1.386-.48,5.655,5.655,0,0,0-2.422.656l-.4-.992a6.108,6.108,0,0,1,1.387-.539,6.021,6.021,0,0,1,1.512-.2,3.26,3.26,0,0,1,2.269.679,2.835,2.835,0,0,1,.739,2.18v5.844Zm-2.93-.914a2.635,2.635,0,0,0,1.9-.664,2.458,2.458,0,0,0,.692-1.86v-.773l-1.3.054a4.725,4.725,0,0,0-2.231.481,1.45,1.45,0,0,0-.683,1.324,1.334,1.334,0,0,0,.426,1.07A1.766,1.766,0,0,0,150.664,172.15Zm9.328,0a4.594,4.594,0,0,0,1.172-.157v.993a2.437,2.437,0,0,1-.621.168,4.692,4.692,0,0,1-.738.066q-2.486,0-2.485-2.617v-5.094h-1.226v-.625l1.226-.539.547-1.828h.75V164.5H161.1v1.008h-2.485v5.039a1.738,1.738,0,0,0,.367,1.188A1.279,1.279,0,0,0,159.992,172.15Zm8.149.914-.258-1.219h-.063a3.61,3.61,0,0,1-1.277,1.09,3.9,3.9,0,0,1-1.59.285,2.862,2.862,0,0,1-2-.656,2.394,2.394,0,0,1-.723-1.867q0-2.595,4.149-2.719l1.453-.047V167.4a2.174,2.174,0,0,0-.434-1.489,1.783,1.783,0,0,0-1.386-.48,5.655,5.655,0,0,0-2.422.656l-.4-.992a6.089,6.089,0,0,1,1.387-.539,6.021,6.021,0,0,1,1.512-.2,3.26,3.26,0,0,1,2.269.679,2.839,2.839,0,0,1,.739,2.18v5.844Zm-2.93-.914a2.635,2.635,0,0,0,1.9-.664,2.458,2.458,0,0,0,.692-1.86v-.773l-1.3.054a4.725,4.725,0,0,0-2.231.481,1.45,1.45,0,0,0-.683,1.324,1.334,1.334,0,0,0,.426,1.07A1.765,1.765,0,0,0,165.211,172.15Z" fill-rule="evenodd"/>
            <path d="M20.063,162.665a3.733,3.733,0,0,0-2.973,1.254A5.057,5.057,0,0,0,16,167.353a5.156,5.156,0,0,0,1.051,3.465,3.734,3.734,0,0,0,3,1.222,10.235,10.235,0,0,0,2.726-.429v1.164a8.389,8.389,0,0,1-2.929.445,4.955,4.955,0,0,1-3.9-1.531,6.308,6.308,0,0,1-1.371-4.352,6.872,6.872,0,0,1,.66-3.094,4.738,4.738,0,0,1,1.907-2.046,5.757,5.757,0,0,1,2.933-.719,7.087,7.087,0,0,1,3.141.656l-.563,1.141A6.04,6.04,0,0,0,20.063,162.665Zm12.4,6.11a4.723,4.723,0,0,1-1.055,3.269,3.713,3.713,0,0,1-2.914,1.176,3.865,3.865,0,0,1-2.039-.539,3.554,3.554,0,0,1-1.375-1.547,5.389,5.389,0,0,1-.484-2.359,4.717,4.717,0,0,1,1.047-3.262,3.7,3.7,0,0,1,2.906-1.168A3.619,3.619,0,0,1,31.4,165.54,4.7,4.7,0,0,1,32.461,168.775Zm-6.523,0a4.063,4.063,0,0,0,.656,2.5,2.275,2.275,0,0,0,1.929.859,2.294,2.294,0,0,0,1.934-.855,4.046,4.046,0,0,0,.66-2.5,3.98,3.98,0,0,0-.66-2.481,2.319,2.319,0,0,0-1.949-.847,2.283,2.283,0,0,0-1.922.835A4.029,4.029,0,0,0,25.938,168.775Zm19.71,4.289v-5.571a2.31,2.31,0,0,0-.437-1.535,1.693,1.693,0,0,0-1.359-.511,2.191,2.191,0,0,0-1.789.695,3.3,3.3,0,0,0-.579,2.14v4.782h-1.3v-5.571a2.31,2.31,0,0,0-.438-1.535,1.7,1.7,0,0,0-1.367-.511,2.116,2.116,0,0,0-1.785.73,3.951,3.951,0,0,0-.567,2.4v4.492h-1.3V164.5h1.055L36,165.673h.063A2.533,2.533,0,0,1,37.1,164.7a3.154,3.154,0,0,1,1.5-.352,2.544,2.544,0,0,1,2.625,1.453h.062a2.723,2.723,0,0,1,1.11-1.062,3.433,3.433,0,0,1,1.656-.391,2.9,2.9,0,0,1,2.176.746,3.341,3.341,0,0,1,.722,2.387v5.586Zm7.954.156a3.7,3.7,0,0,1-1.528-.309,2.869,2.869,0,0,1-1.16-.949H50.82a11.392,11.392,0,0,1,.094,1.422v3.523h-1.3V164.5h1.055l.18,1.172h.062a3.012,3.012,0,0,1,1.164-1.016,3.547,3.547,0,0,1,1.524-.312,3.163,3.163,0,0,1,2.628,1.164,6.2,6.2,0,0,1-.015,6.543A3.17,3.17,0,0,1,53.6,173.22Zm-.188-7.773a2.3,2.3,0,0,0-1.9.726,3.733,3.733,0,0,0-.6,2.313v.289a4.287,4.287,0,0,0,.6,2.582,2.287,2.287,0,0,0,1.929.777,2.008,2.008,0,0,0,1.739-.9,4.264,4.264,0,0,0,.629-2.477,4.1,4.1,0,0,0-.629-2.457A2.071,2.071,0,0,0,53.414,165.447Zm7.305,7.617h-1.3V160.907h1.3Zm6.367.156a3.933,3.933,0,0,1-3-1.156,4.475,4.475,0,0,1-1.1-3.211,4.962,4.962,0,0,1,1.02-3.289,3.384,3.384,0,0,1,2.738-1.219A3.229,3.229,0,0,1,69.3,165.4a4.055,4.055,0,0,1,.937,2.793v.82h-5.9a3.393,3.393,0,0,0,.762,2.289,2.632,2.632,0,0,0,2.035.781,6.9,6.9,0,0,0,2.734-.578v1.156a6.854,6.854,0,0,1-1.3.426A7.3,7.3,0,0,1,67.086,173.22Zm-.352-7.789a2.117,2.117,0,0,0-1.644.672,3.1,3.1,0,0,0-.723,1.859h4.477a2.855,2.855,0,0,0-.547-1.879A1.926,1.926,0,0,0,66.734,165.431Zm7.453,3.25-2.976-4.18h1.476l2.258,3.281,2.25-3.281h1.461l-2.976,4.18,3.132,4.383H77.344l-2.4-3.469-2.422,3.469H71.055Zm17.469,4.383-1.57-5.024q-.148-.46-.555-2.093h-.062q-.313,1.367-.547,2.109l-1.617,5.008h-1.5L83.469,164.5h1.359q.828,3.226,1.262,4.914a19.977,19.977,0,0,1,.5,2.274h.062q.087-.446.278-1.153t.332-1.121l1.57-4.914h1.406l1.532,4.914a16.664,16.664,0,0,1,.593,2.258h.063a8.411,8.411,0,0,1,.168-.867q.136-.587,1.629-6.305h1.343L93.2,173.064Zm9.071.156a3.935,3.935,0,0,1-3-1.156,4.479,4.479,0,0,1-1.1-3.211,4.967,4.967,0,0,1,1.019-3.289,3.387,3.387,0,0,1,2.739-1.219,3.227,3.227,0,0,1,2.546,1.059,4.05,4.05,0,0,1,.938,2.793v.82h-5.9a3.4,3.4,0,0,0,.761,2.289,2.634,2.634,0,0,0,2.035.781,6.906,6.906,0,0,0,2.735-.578v1.156a6.877,6.877,0,0,1-1.3.426A7.3,7.3,0,0,1,100.727,173.22Zm-.352-7.789a2.118,2.118,0,0,0-1.645.672,3.1,3.1,0,0,0-.722,1.859h4.476a2.849,2.849,0,0,0-.547-1.879A1.923,1.923,0,0,0,100.375,165.431Zm7.008,7.633h-1.3V164.5h1.3Zm-1.406-10.883a.86.86,0,0,1,.218-.652.811.811,0,0,1,1.086,0,.847.847,0,0,1,.227.649.858.858,0,0,1-.227.652.793.793,0,0,1-1.086,0A.875.875,0,0,1,105.977,162.181Zm11.164,2.32v.821l-1.586.187a2.792,2.792,0,0,1,.562,1.711,2.53,2.53,0,0,1-.859,2.008,3.469,3.469,0,0,1-2.36.75,3.892,3.892,0,0,1-.718-.063,1.277,1.277,0,0,0-.828,1.1.559.559,0,0,0,.289.519,2.108,2.108,0,0,0,.992.168h1.515a3.4,3.4,0,0,1,2.137.586,2.035,2.035,0,0,1,.746,1.7,2.431,2.431,0,0,1-1.14,2.168,6.1,6.1,0,0,1-3.329.746,4.541,4.541,0,0,1-2.589-.625,2.017,2.017,0,0,1-.911-1.765,1.987,1.987,0,0,1,.5-1.352,2.549,2.549,0,0,1,1.407-.773,1.356,1.356,0,0,1-.551-.461,1.224,1.224,0,0,1-.223-.727,1.383,1.383,0,0,1,.25-.82,2.646,2.646,0,0,1,.789-.68,2.317,2.317,0,0,1-1.082-.929,2.74,2.74,0,0,1-.418-1.5,2.772,2.772,0,0,1,.844-2.168,3.445,3.445,0,0,1,2.391-.762,4.357,4.357,0,0,1,1.211.156Zm-6.829,10a1.164,1.164,0,0,0,.586,1.055,3.233,3.233,0,0,0,1.68.359,4.68,4.68,0,0,0,2.418-.488,1.494,1.494,0,0,0,.785-1.324,1.049,1.049,0,0,0-.429-.965,3.337,3.337,0,0,0-1.618-.27H112.18a2.048,2.048,0,0,0-1.375.422A1.51,1.51,0,0,0,110.312,174.5Zm.7-7.258a1.746,1.746,0,0,0,.507,1.36,2.03,2.03,0,0,0,1.414.461,1.655,1.655,0,0,0,1.9-1.844,1.7,1.7,0,0,0-1.922-1.93,1.9,1.9,0,0,0-1.406.492A1.985,1.985,0,0,0,111.016,167.243Zm13.742,5.821v-5.539a2.235,2.235,0,0,0-.477-1.563,1.939,1.939,0,0,0-1.492-.515,2.444,2.444,0,0,0-1.973.734,3.721,3.721,0,0,0-.621,2.406v4.477h-1.3V160.907h1.3v3.68a8.143,8.143,0,0,1-.062,1.1h.078a2.637,2.637,0,0,1,1.09-.973,3.541,3.541,0,0,1,1.613-.355,3.3,3.3,0,0,1,2.356.746,3.142,3.142,0,0,1,.785,2.371v5.586Zm6.726-.914a4.594,4.594,0,0,0,1.172-.157v.993a2.413,2.413,0,0,1-.621.168,4.682,4.682,0,0,1-.738.066q-2.484,0-2.485-2.617v-5.094h-1.226v-.625l1.226-.539.547-1.828h.75V164.5h2.485v1.008h-2.485v5.039a1.733,1.733,0,0,0,.368,1.188A1.275,1.275,0,0,0,131.484,172.15Zm12.868-.235h-.071a3.047,3.047,0,0,1-2.687,1.305,3.183,3.183,0,0,1-2.614-1.148,5.06,5.06,0,0,1-.933-3.266,5.139,5.139,0,0,1,.937-3.289,3.156,3.156,0,0,1,2.61-1.172,3.114,3.114,0,0,1,2.672,1.266h.1l-.055-.618-.031-.6v-3.485h1.3v12.157h-1.055Zm-2.594.219a2.362,2.362,0,0,0,1.926-.723,3.653,3.653,0,0,0,.6-2.332v-.273a4.3,4.3,0,0,0-.605-2.6,2.3,2.3,0,0,0-1.934-.777,1.984,1.984,0,0,0-1.746.887,4.4,4.4,0,0,0-.605,2.5,4.226,4.226,0,0,0,.6,2.476A2.039,2.039,0,0,0,141.758,172.134Zm11.836.93-.258-1.219h-.063a3.6,3.6,0,0,1-1.277,1.09,3.893,3.893,0,0,1-1.59.285,2.862,2.862,0,0,1-2-.656,2.394,2.394,0,0,1-.723-1.867q0-2.595,4.149-2.719l1.453-.047V167.4a2.169,2.169,0,0,0-.434-1.489,1.783,1.783,0,0,0-1.386-.48,5.655,5.655,0,0,0-2.422.656l-.4-.992a6.108,6.108,0,0,1,1.387-.539,6.021,6.021,0,0,1,1.512-.2,3.26,3.26,0,0,1,2.269.679,2.835,2.835,0,0,1,.739,2.18v5.844Zm-2.93-.914a2.635,2.635,0,0,0,1.9-.664,2.458,2.458,0,0,0,.692-1.86v-.773l-1.3.054a4.725,4.725,0,0,0-2.231.481,1.45,1.45,0,0,0-.683,1.324,1.334,1.334,0,0,0,.426,1.07A1.766,1.766,0,0,0,150.664,172.15Zm9.328,0a4.594,4.594,0,0,0,1.172-.157v.993a2.437,2.437,0,0,1-.621.168,4.692,4.692,0,0,1-.738.066q-2.486,0-2.485-2.617v-5.094h-1.226v-.625l1.226-.539.547-1.828h.75V164.5H161.1v1.008h-2.485v5.039a1.738,1.738,0,0,0,.367,1.188A1.279,1.279,0,0,0,159.992,172.15Zm8.149.914-.258-1.219h-.063a3.61,3.61,0,0,1-1.277,1.09,3.9,3.9,0,0,1-1.59.285,2.862,2.862,0,0,1-2-.656,2.394,2.394,0,0,1-.723-1.867q0-2.595,4.149-2.719l1.453-.047V167.4a2.174,2.174,0,0,0-.434-1.489,1.783,1.783,0,0,0-1.386-.48,5.655,5.655,0,0,0-2.422.656l-.4-.992a6.089,6.089,0,0,1,1.387-.539,6.021,6.021,0,0,1,1.512-.2,3.26,3.26,0,0,1,2.269.679,2.839,2.839,0,0,1,.739,2.18v5.844Zm-2.93-.914a2.635,2.635,0,0,0,1.9-.664,2.458,2.458,0,0,0,.692-1.86v-.773l-1.3.054a4.725,4.725,0,0,0-2.231.481,1.45,1.45,0,0,0-.683,1.324,1.334,1.334,0,0,0,.426,1.07A1.765,1.765,0,0,0,165.211,172.15Z" fill="#111" fill-rule="evenodd"/>
          </g>
        </g>
        <g id="Group-27">
          <rect x="240.203" y="155.669" width="184" height="127" fill="none"/>
          <g id="Group-25">
            <g id="A-path-to-success">
              <path id="path-4" d="M276.445,173.064l-1.422-3.633h-4.578l-1.406,3.633H267.7L272.21,161.6h1.118l4.492,11.469Zm-1.836-4.828-1.328-3.539q-.258-.672-.531-1.649a14.819,14.819,0,0,1-.493,1.649l-1.343,3.539Zm12.726,4.984a3.7,3.7,0,0,1-1.527-.309,2.862,2.862,0,0,1-1.16-.949h-.094a11.392,11.392,0,0,1,.094,1.422v3.523h-1.3V164.5h1.055l.179,1.172h.063a3.012,3.012,0,0,1,1.164-1.016,3.545,3.545,0,0,1,1.523-.312,3.164,3.164,0,0,1,2.629,1.164,6.2,6.2,0,0,1-.015,6.543A3.171,3.171,0,0,1,287.335,173.22Zm-.187-7.773a2.3,2.3,0,0,0-1.9.726,3.733,3.733,0,0,0-.6,2.313v.289a4.28,4.28,0,0,0,.6,2.582,2.287,2.287,0,0,0,1.929.777,2.008,2.008,0,0,0,1.739-.9,4.264,4.264,0,0,0,.628-2.477,4.1,4.1,0,0,0-.628-2.457A2.071,2.071,0,0,0,287.148,165.447Zm11.273,7.617-.257-1.219H298.1a3.61,3.61,0,0,1-1.277,1.09,3.9,3.9,0,0,1-1.59.285,2.862,2.862,0,0,1-2-.656,2.394,2.394,0,0,1-.723-1.867q0-2.595,4.149-2.719l1.453-.047V167.4a2.174,2.174,0,0,0-.434-1.489,1.784,1.784,0,0,0-1.387-.48,5.655,5.655,0,0,0-2.421.656l-.4-.992a6.089,6.089,0,0,1,1.387-.539,6.009,6.009,0,0,1,1.512-.2,3.262,3.262,0,0,1,2.269.679,2.838,2.838,0,0,1,.738,2.18v5.844Zm-2.929-.914a2.635,2.635,0,0,0,1.9-.664,2.458,2.458,0,0,0,.691-1.86v-.773l-1.3.054a4.722,4.722,0,0,0-2.231.481,1.448,1.448,0,0,0-.683,1.324,1.333,1.333,0,0,0,.425,1.07A1.767,1.767,0,0,0,295.492,172.15Zm9.328,0a4.594,4.594,0,0,0,1.172-.157v.993a2.437,2.437,0,0,1-.621.168,4.7,4.7,0,0,1-.739.066q-2.484,0-2.484-2.617v-5.094h-1.227v-.625l1.227-.539.547-1.828h.75V164.5h2.484v1.008h-2.484v5.039a1.733,1.733,0,0,0,.367,1.188A1.279,1.279,0,0,0,304.82,172.15Zm8.742.914v-5.539a2.235,2.235,0,0,0-.477-1.563,1.939,1.939,0,0,0-1.492-.515,2.442,2.442,0,0,0-1.972.734,3.721,3.721,0,0,0-.621,2.406v4.477h-1.3V160.907H309v3.68a7.962,7.962,0,0,1-.063,1.1h.078a2.644,2.644,0,0,1,1.09-.973,3.541,3.541,0,0,1,1.613-.355,3.3,3.3,0,0,1,2.356.746,3.142,3.142,0,0,1,.785,2.371v5.586Zm10.883-.914a4.594,4.594,0,0,0,1.172-.157v.993a2.437,2.437,0,0,1-.621.168,4.7,4.7,0,0,1-.739.066q-2.484,0-2.484-2.617v-5.094h-1.227v-.625l1.227-.539.547-1.828h.75V164.5h2.484v1.008H323.07v5.039a1.733,1.733,0,0,0,.367,1.188A1.279,1.279,0,0,0,324.445,172.15Zm10.273-3.375a4.722,4.722,0,0,1-1.054,3.269,3.716,3.716,0,0,1-2.914,1.176,3.866,3.866,0,0,1-2.04-.539,3.56,3.56,0,0,1-1.375-1.547,5.4,5.4,0,0,1-.484-2.359,4.717,4.717,0,0,1,1.047-3.262,3.7,3.7,0,0,1,2.906-1.168,3.623,3.623,0,0,1,2.856,1.195A4.707,4.707,0,0,1,334.718,168.775Zm-6.523,0a4.069,4.069,0,0,0,.656,2.5,2.605,2.605,0,0,0,3.863,0,4.046,4.046,0,0,0,.661-2.5,3.98,3.98,0,0,0-.661-2.481,2.318,2.318,0,0,0-1.949-.847,2.284,2.284,0,0,0-1.922.835A4.029,4.029,0,0,0,328.2,168.775Zm18.476,1.953a2.145,2.145,0,0,1-.89,1.844,4.189,4.189,0,0,1-2.5.648,5.437,5.437,0,0,1-2.656-.539v-1.2a6.429,6.429,0,0,0,1.324.492,5.519,5.519,0,0,0,1.363.18,3.085,3.085,0,0,0,1.563-.325,1.116,1.116,0,0,0,.113-1.843,6.819,6.819,0,0,0-1.692-.84,9.235,9.235,0,0,1-1.7-.777,2.329,2.329,0,0,1-.75-.754,1.971,1.971,0,0,1-.246-1.008,1.922,1.922,0,0,1,.852-1.653,3.971,3.971,0,0,1,2.336-.6,6.836,6.836,0,0,1,2.7.562l-.461,1.055a6.21,6.21,0,0,0-2.336-.531,2.686,2.686,0,0,0-1.391.289.9.9,0,0,0-.469.8.974.974,0,0,0,.176.586,1.737,1.737,0,0,0,.567.461,12.55,12.55,0,0,0,1.5.633,5.6,5.6,0,0,1,2.058,1.117A1.968,1.968,0,0,1,346.671,170.728ZM350,164.5v5.555a2.231,2.231,0,0,0,.476,1.562,1.941,1.941,0,0,0,1.492.516,2.436,2.436,0,0,0,1.965-.734,3.706,3.706,0,0,0,.621-2.4v-4.5h1.3v8.563h-1.07l-.188-1.149h-.07a2.588,2.588,0,0,1-1.105.969,3.721,3.721,0,0,1-1.614.336,3.275,3.275,0,0,1-2.34-.742,3.161,3.161,0,0,1-.777-2.375v-5.6Zm12.023,8.719a3.655,3.655,0,0,1-2.879-1.145,4.7,4.7,0,0,1-1.019-3.238,4.853,4.853,0,0,1,1.035-3.32,3.727,3.727,0,0,1,2.949-1.172,5.819,5.819,0,0,1,1.234.133,4.068,4.068,0,0,1,.969.312l-.4,1.1a6.005,6.005,0,0,0-.938-.285,4.156,4.156,0,0,0-.9-.114q-2.61,0-2.61,3.329a3.962,3.962,0,0,0,.637,2.421,2.213,2.213,0,0,0,1.887.844,5.756,5.756,0,0,0,2.195-.461v1.149A4.677,4.677,0,0,1,362.023,173.22Zm7.617,0a3.656,3.656,0,0,1-2.879-1.145,4.709,4.709,0,0,1-1.019-3.238,4.853,4.853,0,0,1,1.035-3.32,3.727,3.727,0,0,1,2.949-1.172,5.812,5.812,0,0,1,1.234.133,4.068,4.068,0,0,1,.969.312l-.4,1.1a6.005,6.005,0,0,0-.938-.285,4.156,4.156,0,0,0-.9-.114q-2.61,0-2.61,3.329a3.962,3.962,0,0,0,.637,2.421,2.216,2.216,0,0,0,1.887.844,5.756,5.756,0,0,0,2.195-.461v1.149A4.677,4.677,0,0,1,369.64,173.22Zm7.813,0a3.931,3.931,0,0,1-3-1.156,4.475,4.475,0,0,1-1.1-3.211,4.967,4.967,0,0,1,1.019-3.289,3.387,3.387,0,0,1,2.739-1.219,3.229,3.229,0,0,1,2.547,1.059,4.055,4.055,0,0,1,.937,2.793v.82h-5.9a3.4,3.4,0,0,0,.761,2.289,2.636,2.636,0,0,0,2.036.781,6.9,6.9,0,0,0,2.734-.578v1.156a6.854,6.854,0,0,1-1.3.426A7.3,7.3,0,0,1,377.453,173.22Zm-.352-7.789a2.116,2.116,0,0,0-1.644.672,3.1,3.1,0,0,0-.723,1.859h4.476a2.854,2.854,0,0,0-.546-1.879A1.926,1.926,0,0,0,377.1,165.431Zm11.234,5.3a2.145,2.145,0,0,1-.89,1.844,4.189,4.189,0,0,1-2.5.648,5.437,5.437,0,0,1-2.656-.539v-1.2a6.429,6.429,0,0,0,1.324.492,5.519,5.519,0,0,0,1.363.18,3.085,3.085,0,0,0,1.563-.325,1.116,1.116,0,0,0,.113-1.843,6.819,6.819,0,0,0-1.692-.84,9.235,9.235,0,0,1-1.7-.777,2.329,2.329,0,0,1-.75-.754,1.971,1.971,0,0,1-.246-1.008,1.922,1.922,0,0,1,.852-1.653,3.971,3.971,0,0,1,2.336-.6,6.832,6.832,0,0,1,2.7.562l-.461,1.055a6.21,6.21,0,0,0-2.336-.531,2.686,2.686,0,0,0-1.391.289.894.894,0,0,0-.468.8.973.973,0,0,0,.175.586,1.748,1.748,0,0,0,.567.461,12.55,12.55,0,0,0,1.5.633,5.587,5.587,0,0,1,2.058,1.117A1.968,1.968,0,0,1,388.335,170.728Zm7.633,0a2.147,2.147,0,0,1-.89,1.844,4.189,4.189,0,0,1-2.5.648,5.444,5.444,0,0,1-2.657-.539v-1.2a6.459,6.459,0,0,0,1.325.492,5.513,5.513,0,0,0,1.363.18,3.079,3.079,0,0,0,1.562-.325,1.116,1.116,0,0,0,.114-1.843,6.819,6.819,0,0,0-1.692-.84,9.2,9.2,0,0,1-1.7-.777,2.329,2.329,0,0,1-.75-.754,1.971,1.971,0,0,1-.246-1.008,1.922,1.922,0,0,1,.852-1.653,3.969,3.969,0,0,1,2.335-.6,6.841,6.841,0,0,1,2.7.562l-.461,1.055a6.21,6.21,0,0,0-2.336-.531,2.686,2.686,0,0,0-1.391.289.9.9,0,0,0-.469.8.974.974,0,0,0,.176.586,1.737,1.737,0,0,0,.567.461,12.55,12.55,0,0,0,1.5.633,5.6,5.6,0,0,1,2.058,1.117A1.968,1.968,0,0,1,395.968,170.728Z" fill-rule="evenodd"/>
              <path d="M276.445,173.064l-1.422-3.633h-4.578l-1.406,3.633H267.7L272.21,161.6h1.118l4.492,11.469Zm-1.836-4.828-1.328-3.539q-.258-.672-.531-1.649a14.819,14.819,0,0,1-.493,1.649l-1.343,3.539Zm12.726,4.984a3.7,3.7,0,0,1-1.527-.309,2.862,2.862,0,0,1-1.16-.949h-.094a11.392,11.392,0,0,1,.094,1.422v3.523h-1.3V164.5h1.055l.179,1.172h.063a3.012,3.012,0,0,1,1.164-1.016,3.545,3.545,0,0,1,1.523-.312,3.164,3.164,0,0,1,2.629,1.164,6.2,6.2,0,0,1-.015,6.543A3.171,3.171,0,0,1,287.335,173.22Zm-.187-7.773a2.3,2.3,0,0,0-1.9.726,3.733,3.733,0,0,0-.6,2.313v.289a4.28,4.28,0,0,0,.6,2.582,2.287,2.287,0,0,0,1.929.777,2.008,2.008,0,0,0,1.739-.9,4.264,4.264,0,0,0,.628-2.477,4.1,4.1,0,0,0-.628-2.457A2.071,2.071,0,0,0,287.148,165.447Zm11.273,7.617-.257-1.219H298.1a3.61,3.61,0,0,1-1.277,1.09,3.9,3.9,0,0,1-1.59.285,2.862,2.862,0,0,1-2-.656,2.394,2.394,0,0,1-.723-1.867q0-2.595,4.149-2.719l1.453-.047V167.4a2.174,2.174,0,0,0-.434-1.489,1.784,1.784,0,0,0-1.387-.48,5.655,5.655,0,0,0-2.421.656l-.4-.992a6.089,6.089,0,0,1,1.387-.539,6.009,6.009,0,0,1,1.512-.2,3.262,3.262,0,0,1,2.269.679,2.838,2.838,0,0,1,.738,2.18v5.844Zm-2.929-.914a2.635,2.635,0,0,0,1.9-.664,2.458,2.458,0,0,0,.691-1.86v-.773l-1.3.054a4.722,4.722,0,0,0-2.231.481,1.448,1.448,0,0,0-.683,1.324,1.333,1.333,0,0,0,.425,1.07A1.767,1.767,0,0,0,295.492,172.15Zm9.328,0a4.594,4.594,0,0,0,1.172-.157v.993a2.437,2.437,0,0,1-.621.168,4.7,4.7,0,0,1-.739.066q-2.484,0-2.484-2.617v-5.094h-1.227v-.625l1.227-.539.547-1.828h.75V164.5h2.484v1.008h-2.484v5.039a1.733,1.733,0,0,0,.367,1.188A1.279,1.279,0,0,0,304.82,172.15Zm8.742.914v-5.539a2.235,2.235,0,0,0-.477-1.563,1.939,1.939,0,0,0-1.492-.515,2.442,2.442,0,0,0-1.972.734,3.721,3.721,0,0,0-.621,2.406v4.477h-1.3V160.907H309v3.68a7.962,7.962,0,0,1-.063,1.1h.078a2.644,2.644,0,0,1,1.09-.973,3.541,3.541,0,0,1,1.613-.355,3.3,3.3,0,0,1,2.356.746,3.142,3.142,0,0,1,.785,2.371v5.586Zm10.883-.914a4.594,4.594,0,0,0,1.172-.157v.993a2.437,2.437,0,0,1-.621.168,4.7,4.7,0,0,1-.739.066q-2.484,0-2.484-2.617v-5.094h-1.227v-.625l1.227-.539.547-1.828h.75V164.5h2.484v1.008H323.07v5.039a1.733,1.733,0,0,0,.367,1.188A1.279,1.279,0,0,0,324.445,172.15Zm10.273-3.375a4.722,4.722,0,0,1-1.054,3.269,3.716,3.716,0,0,1-2.914,1.176,3.866,3.866,0,0,1-2.04-.539,3.56,3.56,0,0,1-1.375-1.547,5.4,5.4,0,0,1-.484-2.359,4.717,4.717,0,0,1,1.047-3.262,3.7,3.7,0,0,1,2.906-1.168,3.623,3.623,0,0,1,2.856,1.195A4.707,4.707,0,0,1,334.718,168.775Zm-6.523,0a4.069,4.069,0,0,0,.656,2.5,2.605,2.605,0,0,0,3.863,0,4.046,4.046,0,0,0,.661-2.5,3.98,3.98,0,0,0-.661-2.481,2.318,2.318,0,0,0-1.949-.847,2.284,2.284,0,0,0-1.922.835A4.029,4.029,0,0,0,328.2,168.775Zm18.476,1.953a2.145,2.145,0,0,1-.89,1.844,4.189,4.189,0,0,1-2.5.648,5.437,5.437,0,0,1-2.656-.539v-1.2a6.429,6.429,0,0,0,1.324.492,5.519,5.519,0,0,0,1.363.18,3.085,3.085,0,0,0,1.563-.325,1.116,1.116,0,0,0,.113-1.843,6.819,6.819,0,0,0-1.692-.84,9.235,9.235,0,0,1-1.7-.777,2.329,2.329,0,0,1-.75-.754,1.971,1.971,0,0,1-.246-1.008,1.922,1.922,0,0,1,.852-1.653,3.971,3.971,0,0,1,2.336-.6,6.836,6.836,0,0,1,2.7.562l-.461,1.055a6.21,6.21,0,0,0-2.336-.531,2.686,2.686,0,0,0-1.391.289.9.9,0,0,0-.469.8.974.974,0,0,0,.176.586,1.737,1.737,0,0,0,.567.461,12.55,12.55,0,0,0,1.5.633,5.6,5.6,0,0,1,2.058,1.117A1.968,1.968,0,0,1,346.671,170.728ZM350,164.5v5.555a2.231,2.231,0,0,0,.476,1.562,1.941,1.941,0,0,0,1.492.516,2.436,2.436,0,0,0,1.965-.734,3.706,3.706,0,0,0,.621-2.4v-4.5h1.3v8.563h-1.07l-.188-1.149h-.07a2.588,2.588,0,0,1-1.105.969,3.721,3.721,0,0,1-1.614.336,3.275,3.275,0,0,1-2.34-.742,3.161,3.161,0,0,1-.777-2.375v-5.6Zm12.023,8.719a3.655,3.655,0,0,1-2.879-1.145,4.7,4.7,0,0,1-1.019-3.238,4.853,4.853,0,0,1,1.035-3.32,3.727,3.727,0,0,1,2.949-1.172,5.819,5.819,0,0,1,1.234.133,4.068,4.068,0,0,1,.969.312l-.4,1.1a6.005,6.005,0,0,0-.938-.285,4.156,4.156,0,0,0-.9-.114q-2.61,0-2.61,3.329a3.962,3.962,0,0,0,.637,2.421,2.213,2.213,0,0,0,1.887.844,5.756,5.756,0,0,0,2.195-.461v1.149A4.677,4.677,0,0,1,362.023,173.22Zm7.617,0a3.656,3.656,0,0,1-2.879-1.145,4.709,4.709,0,0,1-1.019-3.238,4.853,4.853,0,0,1,1.035-3.32,3.727,3.727,0,0,1,2.949-1.172,5.812,5.812,0,0,1,1.234.133,4.068,4.068,0,0,1,.969.312l-.4,1.1a6.005,6.005,0,0,0-.938-.285,4.156,4.156,0,0,0-.9-.114q-2.61,0-2.61,3.329a3.962,3.962,0,0,0,.637,2.421,2.216,2.216,0,0,0,1.887.844,5.756,5.756,0,0,0,2.195-.461v1.149A4.677,4.677,0,0,1,369.64,173.22Zm7.813,0a3.931,3.931,0,0,1-3-1.156,4.475,4.475,0,0,1-1.1-3.211,4.967,4.967,0,0,1,1.019-3.289,3.387,3.387,0,0,1,2.739-1.219,3.229,3.229,0,0,1,2.547,1.059,4.055,4.055,0,0,1,.937,2.793v.82h-5.9a3.4,3.4,0,0,0,.761,2.289,2.636,2.636,0,0,0,2.036.781,6.9,6.9,0,0,0,2.734-.578v1.156a6.854,6.854,0,0,1-1.3.426A7.3,7.3,0,0,1,377.453,173.22Zm-.352-7.789a2.116,2.116,0,0,0-1.644.672,3.1,3.1,0,0,0-.723,1.859h4.476a2.854,2.854,0,0,0-.546-1.879A1.926,1.926,0,0,0,377.1,165.431Zm11.234,5.3a2.145,2.145,0,0,1-.89,1.844,4.189,4.189,0,0,1-2.5.648,5.437,5.437,0,0,1-2.656-.539v-1.2a6.429,6.429,0,0,0,1.324.492,5.519,5.519,0,0,0,1.363.18,3.085,3.085,0,0,0,1.563-.325,1.116,1.116,0,0,0,.113-1.843,6.819,6.819,0,0,0-1.692-.84,9.235,9.235,0,0,1-1.7-.777,2.329,2.329,0,0,1-.75-.754,1.971,1.971,0,0,1-.246-1.008,1.922,1.922,0,0,1,.852-1.653,3.971,3.971,0,0,1,2.336-.6,6.832,6.832,0,0,1,2.7.562l-.461,1.055a6.21,6.21,0,0,0-2.336-.531,2.686,2.686,0,0,0-1.391.289.894.894,0,0,0-.468.8.973.973,0,0,0,.175.586,1.748,1.748,0,0,0,.567.461,12.55,12.55,0,0,0,1.5.633,5.587,5.587,0,0,1,2.058,1.117A1.968,1.968,0,0,1,388.335,170.728Zm7.633,0a2.147,2.147,0,0,1-.89,1.844,4.189,4.189,0,0,1-2.5.648,5.444,5.444,0,0,1-2.657-.539v-1.2a6.459,6.459,0,0,0,1.325.492,5.513,5.513,0,0,0,1.363.18,3.079,3.079,0,0,0,1.562-.325,1.116,1.116,0,0,0,.114-1.843,6.819,6.819,0,0,0-1.692-.84,9.2,9.2,0,0,1-1.7-.777,2.329,2.329,0,0,1-.75-.754,1.971,1.971,0,0,1-.246-1.008,1.922,1.922,0,0,1,.852-1.653,3.969,3.969,0,0,1,2.335-.6,6.841,6.841,0,0,1,2.7.562l-.461,1.055a6.21,6.21,0,0,0-2.336-.531,2.686,2.686,0,0,0-1.391.289.9.9,0,0,0-.469.8.974.974,0,0,0,.176.586,1.737,1.737,0,0,0,.567.461,12.55,12.55,0,0,0,1.5.633,5.6,5.6,0,0,1,2.058,1.117A1.968,1.968,0,0,1,395.968,170.728Z" fill="#111" fill-rule="evenodd"/>
            </g>
            <path d="M339.459,265.9h-.016c-6.31-.046-8.69-9.412-11.212-19.327-1.618-6.366-4.064-15.989-6.979-16.009h-.009c-2.911,0-5.494,9.571-7.2,15.907-2.659,9.851-5.172,19.158-11.448,19.158h-.046a2.2,2.2,0,0,1,.016-4.4h.026c2.91,0,5.494-9.57,7.2-15.9,2.66-9.852,5.172-19.16,11.448-19.16h.047c6.309.045,8.69,9.41,11.21,19.325,1.619,6.367,4.065,15.989,6.98,16.011a2.2,2.2,0,1,1-.017,4.4Z" fill="#111" fill-rule="evenodd" opacity="0.25" style="isolation: isolate"/>
            <path d="M339.49,265.9h-.047a2.2,2.2,0,0,1,.016-4.4h.026c2.91,0,5.494-9.57,7.2-15.906,2.66-9.853,5.172-19.16,11.449-19.16h.047a2.2,2.2,0,1,1-.017,4.4h-.025c-2.912,0-5.5,9.571-7.206,15.906C348.279,256.589,345.763,265.9,339.49,265.9Z" fill="#a0a0a0" fill-rule="evenodd"/>
          </g>
        </g>
        <g id="Group-26">
          <rect x="479.703" y="155.669" width="184" height="127" fill="none"/>
          <g id="Sinque-mark">
            <path id="path-5" d="M532.66,170.025a2.8,2.8,0,0,1-1.094,2.351,4.74,4.74,0,0,1-2.969.844,7.436,7.436,0,0,1-3.125-.523v-1.282a8.258,8.258,0,0,0,1.531.469,8.028,8.028,0,0,0,1.641.172,3.311,3.311,0,0,0,2-.5,1.653,1.653,0,0,0,.672-1.4,1.809,1.809,0,0,0-.238-.973,2.21,2.21,0,0,0-.8-.7,11.128,11.128,0,0,0-1.7-.727A5.423,5.423,0,0,1,526.3,166.4a2.984,2.984,0,0,1-.684-2.039,2.535,2.535,0,0,1,.993-2.1,4.12,4.12,0,0,1,2.625-.781,7.728,7.728,0,0,1,3.132.625l-.414,1.156a7.073,7.073,0,0,0-2.75-.594,2.661,2.661,0,0,0-1.648.453,1.5,1.5,0,0,0-.594,1.258,1.928,1.928,0,0,0,.219.973,2.059,2.059,0,0,0,.738.7,9.2,9.2,0,0,0,1.59.7,6.318,6.318,0,0,1,2.473,1.375A2.708,2.708,0,0,1,532.66,170.025Zm3.437,3.039h-1.3V164.5h1.3Zm-1.406-10.883a.86.86,0,0,1,.219-.652.81.81,0,0,1,1.085,0,.844.844,0,0,1,.227.649.854.854,0,0,1-.227.652.752.752,0,0,1-.539.215.744.744,0,0,1-.546-.215A.875.875,0,0,1,534.691,162.181Zm10.015,10.883v-5.539a2.235,2.235,0,0,0-.476-1.563,1.94,1.94,0,0,0-1.492-.515,2.463,2.463,0,0,0-1.969.726,3.666,3.666,0,0,0-.625,2.4v4.492h-1.3V164.5H539.9l.211,1.172h.062a2.644,2.644,0,0,1,1.117-.98,3.63,3.63,0,0,1,1.6-.348,3.254,3.254,0,0,1,2.328.746,3.174,3.174,0,0,1,.781,2.387v5.586Zm7.2-.93a2.356,2.356,0,0,0,1.89-.695,3.766,3.766,0,0,0,.633-2.344v-.289a4.284,4.284,0,0,0-.609-2.586,2.286,2.286,0,0,0-1.93-.789,1.984,1.984,0,0,0-1.746.887,4.4,4.4,0,0,0-.605,2.5,4.258,4.258,0,0,0,.6,2.464A2.024,2.024,0,0,0,551.9,172.134Zm-.2,1.086a3.125,3.125,0,0,1-2.586-1.164,5.086,5.086,0,0,1-.929-3.25,5.145,5.145,0,0,1,.937-3.281,3.444,3.444,0,0,1,5.313.148h.07l.188-1.172h1.023v12.406h-1.3v-3.664a8.773,8.773,0,0,1,.086-1.328h-.1A3.063,3.063,0,0,1,551.706,173.22Zm7.985-8.719v5.555a2.235,2.235,0,0,0,.476,1.562,1.942,1.942,0,0,0,1.493.516,2.436,2.436,0,0,0,1.964-.734,3.706,3.706,0,0,0,.621-2.4v-4.5h1.3v8.563h-1.07l-.187-1.149h-.071a2.582,2.582,0,0,1-1.105.969,3.718,3.718,0,0,1-1.614.336,3.271,3.271,0,0,1-2.339-.742,3.158,3.158,0,0,1-.778-2.375v-5.6Zm12.219,8.719a3.935,3.935,0,0,1-3-1.156,4.479,4.479,0,0,1-1.1-3.211,4.967,4.967,0,0,1,1.019-3.289,3.387,3.387,0,0,1,2.739-1.219,3.227,3.227,0,0,1,2.546,1.059,4.055,4.055,0,0,1,.938,2.793v.82h-5.9a3.4,3.4,0,0,0,.761,2.289,2.634,2.634,0,0,0,2.035.781,6.906,6.906,0,0,0,2.735-.578v1.156a6.877,6.877,0,0,1-1.3.426A7.3,7.3,0,0,1,571.91,173.22Zm-.352-7.789a2.118,2.118,0,0,0-1.645.672,3.1,3.1,0,0,0-.722,1.859h4.476a2.849,2.849,0,0,0-.547-1.879A1.923,1.923,0,0,0,571.558,165.431Zm20.781,7.633v-5.571a2.316,2.316,0,0,0-.437-1.535,1.694,1.694,0,0,0-1.36-.511,2.194,2.194,0,0,0-1.789.695,3.305,3.305,0,0,0-.578,2.14v4.782h-1.3v-5.571a2.316,2.316,0,0,0-.437-1.535,1.7,1.7,0,0,0-1.367-.511,2.119,2.119,0,0,0-1.786.73,3.958,3.958,0,0,0-.566,2.4v4.492h-1.3V164.5h1.055l.211,1.172h.062a2.546,2.546,0,0,1,1.035-.976,3.158,3.158,0,0,1,1.5-.352,2.544,2.544,0,0,1,2.625,1.453h.062a2.726,2.726,0,0,1,1.109-1.062,3.44,3.44,0,0,1,1.657-.391,2.9,2.9,0,0,1,2.175.746,3.336,3.336,0,0,1,.723,2.387v5.586Zm9.235,0-.258-1.219h-.063a3.61,3.61,0,0,1-1.277,1.09,3.9,3.9,0,0,1-1.59.285,2.862,2.862,0,0,1-2-.656,2.394,2.394,0,0,1-.723-1.867q0-2.595,4.149-2.719l1.453-.047V167.4a2.174,2.174,0,0,0-.434-1.489,1.783,1.783,0,0,0-1.386-.48,5.655,5.655,0,0,0-2.422.656l-.4-.992a6.089,6.089,0,0,1,1.387-.539,6.021,6.021,0,0,1,1.512-.2,3.26,3.26,0,0,1,2.269.679,2.839,2.839,0,0,1,.739,2.18v5.844Zm-2.93-.914a2.635,2.635,0,0,0,1.9-.664,2.458,2.458,0,0,0,.692-1.86v-.773l-1.3.054a4.725,4.725,0,0,0-2.231.481,1.45,1.45,0,0,0-.683,1.324,1.334,1.334,0,0,0,.426,1.07A1.765,1.765,0,0,0,598.644,172.15Zm10.469-7.805a5.034,5.034,0,0,1,1.023.094l-.18,1.2a4.418,4.418,0,0,0-.937-.117,2.281,2.281,0,0,0-1.777.843,3.074,3.074,0,0,0-.739,2.1v4.594h-1.3V164.5h1.071l.148,1.586h.063a3.757,3.757,0,0,1,1.148-1.289A2.586,2.586,0,0,1,609.113,164.345Zm3.906,4.336a15.323,15.323,0,0,1,1.023-1.25l2.766-2.93h1.539l-3.469,3.649,3.711,4.914h-1.57L614,169.017l-.976.844v3.2h-1.281V160.907h1.281v6.446q0,.429-.063,1.328Z" fill-rule="evenodd"/>
            <path d="M532.66,170.025a2.8,2.8,0,0,1-1.094,2.351,4.74,4.74,0,0,1-2.969.844,7.436,7.436,0,0,1-3.125-.523v-1.282a8.258,8.258,0,0,0,1.531.469,8.028,8.028,0,0,0,1.641.172,3.311,3.311,0,0,0,2-.5,1.653,1.653,0,0,0,.672-1.4,1.809,1.809,0,0,0-.238-.973,2.21,2.21,0,0,0-.8-.7,11.128,11.128,0,0,0-1.7-.727A5.423,5.423,0,0,1,526.3,166.4a2.984,2.984,0,0,1-.684-2.039,2.535,2.535,0,0,1,.993-2.1,4.12,4.12,0,0,1,2.625-.781,7.728,7.728,0,0,1,3.132.625l-.414,1.156a7.073,7.073,0,0,0-2.75-.594,2.661,2.661,0,0,0-1.648.453,1.5,1.5,0,0,0-.594,1.258,1.928,1.928,0,0,0,.219.973,2.059,2.059,0,0,0,.738.7,9.2,9.2,0,0,0,1.59.7,6.318,6.318,0,0,1,2.473,1.375A2.708,2.708,0,0,1,532.66,170.025Zm3.437,3.039h-1.3V164.5h1.3Zm-1.406-10.883a.86.86,0,0,1,.219-.652.81.81,0,0,1,1.085,0,.844.844,0,0,1,.227.649.854.854,0,0,1-.227.652.752.752,0,0,1-.539.215.744.744,0,0,1-.546-.215A.875.875,0,0,1,534.691,162.181Zm10.015,10.883v-5.539a2.235,2.235,0,0,0-.476-1.563,1.94,1.94,0,0,0-1.492-.515,2.463,2.463,0,0,0-1.969.726,3.666,3.666,0,0,0-.625,2.4v4.492h-1.3V164.5H539.9l.211,1.172h.062a2.644,2.644,0,0,1,1.117-.98,3.63,3.63,0,0,1,1.6-.348,3.254,3.254,0,0,1,2.328.746,3.174,3.174,0,0,1,.781,2.387v5.586Zm7.2-.93a2.356,2.356,0,0,0,1.89-.695,3.766,3.766,0,0,0,.633-2.344v-.289a4.284,4.284,0,0,0-.609-2.586,2.286,2.286,0,0,0-1.93-.789,1.984,1.984,0,0,0-1.746.887,4.4,4.4,0,0,0-.605,2.5,4.258,4.258,0,0,0,.6,2.464A2.024,2.024,0,0,0,551.9,172.134Zm-.2,1.086a3.125,3.125,0,0,1-2.586-1.164,5.086,5.086,0,0,1-.929-3.25,5.145,5.145,0,0,1,.937-3.281,3.444,3.444,0,0,1,5.313.148h.07l.188-1.172h1.023v12.406h-1.3v-3.664a8.773,8.773,0,0,1,.086-1.328h-.1A3.063,3.063,0,0,1,551.706,173.22Zm7.985-8.719v5.555a2.235,2.235,0,0,0,.476,1.562,1.942,1.942,0,0,0,1.493.516,2.436,2.436,0,0,0,1.964-.734,3.706,3.706,0,0,0,.621-2.4v-4.5h1.3v8.563h-1.07l-.187-1.149h-.071a2.582,2.582,0,0,1-1.105.969,3.718,3.718,0,0,1-1.614.336,3.271,3.271,0,0,1-2.339-.742,3.158,3.158,0,0,1-.778-2.375v-5.6Zm12.219,8.719a3.935,3.935,0,0,1-3-1.156,4.479,4.479,0,0,1-1.1-3.211,4.967,4.967,0,0,1,1.019-3.289,3.387,3.387,0,0,1,2.739-1.219,3.227,3.227,0,0,1,2.546,1.059,4.055,4.055,0,0,1,.938,2.793v.82h-5.9a3.4,3.4,0,0,0,.761,2.289,2.634,2.634,0,0,0,2.035.781,6.906,6.906,0,0,0,2.735-.578v1.156a6.877,6.877,0,0,1-1.3.426A7.3,7.3,0,0,1,571.91,173.22Zm-.352-7.789a2.118,2.118,0,0,0-1.645.672,3.1,3.1,0,0,0-.722,1.859h4.476a2.849,2.849,0,0,0-.547-1.879A1.923,1.923,0,0,0,571.558,165.431Zm20.781,7.633v-5.571a2.316,2.316,0,0,0-.437-1.535,1.694,1.694,0,0,0-1.36-.511,2.194,2.194,0,0,0-1.789.695,3.305,3.305,0,0,0-.578,2.14v4.782h-1.3v-5.571a2.316,2.316,0,0,0-.437-1.535,1.7,1.7,0,0,0-1.367-.511,2.119,2.119,0,0,0-1.786.73,3.958,3.958,0,0,0-.566,2.4v4.492h-1.3V164.5h1.055l.211,1.172h.062a2.546,2.546,0,0,1,1.035-.976,3.158,3.158,0,0,1,1.5-.352,2.544,2.544,0,0,1,2.625,1.453h.062a2.726,2.726,0,0,1,1.109-1.062,3.44,3.44,0,0,1,1.657-.391,2.9,2.9,0,0,1,2.175.746,3.336,3.336,0,0,1,.723,2.387v5.586Zm9.235,0-.258-1.219h-.063a3.61,3.61,0,0,1-1.277,1.09,3.9,3.9,0,0,1-1.59.285,2.862,2.862,0,0,1-2-.656,2.394,2.394,0,0,1-.723-1.867q0-2.595,4.149-2.719l1.453-.047V167.4a2.174,2.174,0,0,0-.434-1.489,1.783,1.783,0,0,0-1.386-.48,5.655,5.655,0,0,0-2.422.656l-.4-.992a6.089,6.089,0,0,1,1.387-.539,6.021,6.021,0,0,1,1.512-.2,3.26,3.26,0,0,1,2.269.679,2.839,2.839,0,0,1,.739,2.18v5.844Zm-2.93-.914a2.635,2.635,0,0,0,1.9-.664,2.458,2.458,0,0,0,.692-1.86v-.773l-1.3.054a4.725,4.725,0,0,0-2.231.481,1.45,1.45,0,0,0-.683,1.324,1.334,1.334,0,0,0,.426,1.07A1.765,1.765,0,0,0,598.644,172.15Zm10.469-7.805a5.034,5.034,0,0,1,1.023.094l-.18,1.2a4.418,4.418,0,0,0-.937-.117,2.281,2.281,0,0,0-1.777.843,3.074,3.074,0,0,0-.739,2.1v4.594h-1.3V164.5h1.071l.148,1.586h.063a3.757,3.757,0,0,1,1.148-1.289A2.586,2.586,0,0,1,609.113,164.345Zm3.906,4.336a15.323,15.323,0,0,1,1.023-1.25l2.766-2.93h1.539l-3.469,3.649,3.711,4.914h-1.57L614,169.017l-.976.844v3.2h-1.281V160.907h1.281v6.446q0,.429-.063,1.328Z" fill="#111" fill-rule="evenodd"/>
          </g>
          <path d="M549.959,259.813c9.04-.74,15.691-7.242,18.154-15.769,2.061-7.137,4.661-14.458,12.133-17.515,4.151-1.7,8.8-1.468,13.2-1.48-4.146.716-7.941,4.1-10.089,7.573-2.6,4.2-3.416,9.01-5.055,13.59a19.154,19.154,0,0,1-7.454,9.9,24.645,24.645,0,0,1-10.96,3.424A96.5,96.5,0,0,1,549.959,259.813Z" fill="#111" fill-rule="evenodd" opacity="0.25" style="isolation: isolate"/>
        </g>
        <path d="M448.845,256.2a1.016,1.016,0,0,1-.8-1.638l5.735-7.407-5.743-7.62a1.015,1.015,0,0,1,1.622-1.222l6.21,8.24a1.016,1.016,0,0,1-.008,1.232l-6.21,8.02A1.015,1.015,0,0,1,448.845,256.2Z" fill="#111" fill-rule="evenodd" opacity="0.25" style="isolation: isolate"/>
        <path d="M209.345,256.2a1.016,1.016,0,0,1-.8-1.638l5.735-7.407-5.743-7.62a1.015,1.015,0,0,1,1.622-1.222l6.21,8.24a1.016,1.016,0,0,1-.008,1.232l-6.21,8.02A1.015,1.015,0,0,1,209.345,256.2Z" fill="#111" fill-rule="evenodd" opacity="0.25" style="isolation: isolate"/>
        <g id="Group-23">
          <g id="Group">
            <path d="M207.368,70.794a41.593,41.593,0,0,1-18.623-4.622l1.567-9.9c5.155,3.359,11.5,5.625,17.437,5.616,5.148-.008,7.92-1.9,7.912-4.968-.006-3.366-2.088-4.752-9.715-6.617-11.592-2.952-16.447-6.309-16.462-15.022-.013-8.219,6.512-14.072,17.6-14.091a40.4,40.4,0,0,1,16.738,3.338l-1.569,9.908A32.688,32.688,0,0,0,207.1,30.1c-4.456.007-6.632,1.694-6.624,4.367,0,2.574,1.788,3.96,8.921,5.826C221.78,43.441,226.635,46.8,226.65,55.81,226.666,65.216,219.942,70.773,207.368,70.794Z" fill="#0c0755" fill-rule="evenodd"/>
            <path id="Shape" d="M239.552,14c-3.96.007-7.135-2.761-7.141-6.722a7.081,7.081,0,0,1,14.159-.024A6.746,6.746,0,0,1,239.552,14Zm-5.945,55.854-.082-47.824,11.88-.02.082,47.824Z" fill="#0c0755"/>
            <path d="M283.611,69.773l-.053-31.289c-.007-4.158-1.8-7.026-6.151-7.019-3.762.006-7.422,2.389-10.881,6.058l.055,32.279-11.88.02L254.62,22l10.1-.016,1.1,6.73c4.448-4.265,9.492-7.739,15.928-7.75,8.912-.015,13.673,5.423,13.688,14.334l.059,34.457Z" fill="#0c0755" fill-rule="evenodd"/>
            <path d="M333.649,88.105l-.04-23.76c-3.164,3.174-7.516,6.35-13.555,6.36-10.1.017-18.034-7.395-18.061-23.535-.03-17.625,9.461-25.859,23.818-25.883a60.286,60.286,0,0,1,19.61,3.135l.105,61.885Zm-.1-55.745a18.934,18.934,0,0,0-7.529-1.374c-7.524.013-12.168,4.576-12.151,15.467.016,9.308,3.888,13.658,9.231,13.648,3.96-.006,7.422-2.587,10.486-6.156Z" fill="#0c0755"/>
            <path d="M384.712,69.6l-1.1-6.731c-4.449,4.265-9.593,7.739-15.929,7.75C358.671,70.636,354.01,65.2,354,56.188l-.058-34.358,11.88-.02L365.87,53.1c.007,4.159,1.794,6.928,6.048,6.921,3.763-.007,7.523-2.389,10.981-5.96l-.054-32.278,11.88-.02.081,47.824Z" fill="#0c0755" fill-rule="evenodd"/>
            <path d="M443.889,47.915l-30.695.053c.611,9.306,5.567,13.357,12.895,13.344,6.138-.01,11.185-2.295,16.426-5.967l1.4,9.3a32.676,32.676,0,0,1-19.1,5.874c-13.367.023-23.38-7.584-23.41-24.813-.026-15.545,9.265-24.967,21.744-24.984,14.356-.024,20.808,10.757,20.834,24.322C443.985,46.035,443.888,47.221,443.889,47.915ZM422.865,28.941c-4.752.007-8.608,3.777-9.485,11.6l19.012-.032c-.807-7.424-3.785-11.576-9.527-11.568Z" fill="#0c0755"/>
          </g>
          <path d="M428.954,83.124c20.352-1.669,35.331-16.306,40.876-35.507,4.641-16.071,10.5-32.554,27.319-39.438,9.347-3.824,19.809-3.3,29.715-3.332-9.335,1.611-17.879,9.243-22.719,17.053-5.854,9.447-7.691,20.286-11.38,30.6-3.231,9.028-8.646,17.03-16.785,22.292-7.357,4.757-16.061,6.825-24.684,7.709C443.876,83.259,436.4,83.108,428.954,83.124Z" fill="#ffc600" fill-rule="evenodd"/>
        </g>
      </g>
    </g>
  </g>
</svg>
