<svg xmlns="http://www.w3.org/2000/svg" xmlns:xlink="http://www.w3.org/1999/xlink" viewBox="0 0 285.795 133.902">
  <defs>
    <linearGradient id="linear-gradient" x1="39.283" y1="76.445" x2="1.11" y2="125.052" gradientUnits="userSpaceOnUse">
      <stop offset="0" stop-color="#0a0b52"/>
      <stop offset="1" stop-color="#1f1555"/>
    </linearGradient>
    <linearGradient id="linear-gradient-2" x1="-2319.22" y1="25.732" x2="-2319.321" y2="25.895" gradientTransform="matrix(507.859, 0, 0, -584.297, 1178098.542, 15099.581)" xlink:href="#linear-gradient"/>
    <linearGradient id="linear-gradient-3" x1="-2319.764" y1="26.459" x2="-2320" y2="26.024" gradientTransform="matrix(983.958, 0, 0, -729.556, 2282887.336, 19105.097)" gradientUnits="userSpaceOnUse">
      <stop offset="0" stop-color="#ffb300"/>
      <stop offset="1" stop-color="#ffc600"/>
    </linearGradient>
  </defs>
  <title>ws2018-icons_v2</title>
  <g id="grid">
    <g id="Page-1">
      <g id="sin-asset-wave">
        <path d="M80.453,124.716C43.3,120.932,18.773,67.566,0,14.224v90.623c28.913,26.608,59.137,35.753,89.523,19.869C88.854,124.551,81.123,124.784,80.453,124.716Z" fill-rule="evenodd" fill="url(#linear-gradient)"/>
        <path d="M285.632,30.973C258.091.857,220.575-6.022,193.713,12.6c.236.079,6.455-2.91,6.7-2.891,37.765,2.891,69.65,49.517,85.218,98.33Z" fill-rule="evenodd" fill="url(#linear-gradient-2)"/>
        <path id="Shape" d="M135.6,38.072c21.586-35.783,49.4-40.482,95.473-35.789-31.466,1.423-48.1,11.2-68.692,70.422-22.372,60.4-61.327,62.326-108.545,59.723h.147c32.606-2.592,52.255-22.457,64.62-56.774,1.035-2.883,4.232-9.94,7.583-18.734A109.3,109.3,0,0,1,135.6,38.072Z" fill-rule="evenodd" fill="url(#linear-gradient-3)"/>
      </g>
    </g>
  </g>
</svg>
